M48
;DRILL file {KiCad 4.0.7} date 2018 April 27, Friday 09:59:46
;FORMAT={3:3/ absolute / metric / suppress leading zeros}
FMAT,2
METRIC,TZ
T1C0.400
T2C0.750
T3C0.762
T4C0.850
T5C1.001
T6C2.200
T7C3.000
%
G90
G05
M71
T1
X181864Y-86360
X201168Y-86868
T2
X136652Y-90424
X136652Y-112268
X142240Y-92456
X142240Y-94996
X142240Y-97536
X142240Y-100076
X142240Y-102616
X142240Y-105156
X142240Y-107696
X142240Y-110236
X144526Y-110236
X144526Y-115316
X145288Y-99060
X145288Y-104140
X146304Y-78232
X146304Y-80772
X146304Y-83312
X147828Y-112268
X150368Y-80518
X150368Y-83566
X151257Y-95885
X151257Y-100203
X151257Y-104521
X153416Y-106934
X153416Y-115824
X156718Y-112268
X159258Y-80518
X159258Y-83566
X159258Y-112268
X160147Y-95885
X160147Y-100203
X160147Y-104521
X161798Y-112268
X162179Y-95885
X162179Y-100203
X162179Y-104521
X164338Y-112268
X164592Y-81788
X164592Y-89408
X166878Y-112268
X167132Y-81788
X167132Y-89408
X169672Y-81788
X169672Y-89408
X170180Y-106934
X170180Y-115824
X171069Y-95885
X171069Y-100203
X171069Y-104521
X172212Y-81788
X172212Y-89408
X173101Y-95885
X173101Y-100203
X173101Y-104521
X173482Y-112268
X174752Y-81788
X174752Y-89408
X177292Y-81788
X177292Y-89408
X178181Y-95885
X178181Y-100203
X178181Y-104521
X179832Y-81788
X179832Y-89408
X180848Y-98044
X180848Y-106934
X180848Y-109728
X180848Y-112776
X182880Y-115570
X183896Y-98044
X183896Y-106934
X186055Y-80899
X186055Y-96139
X187452Y-102362
X187960Y-115570
X188595Y-80899
X188595Y-96139
X189738Y-109728
X189738Y-112776
X189992Y-102362
X191135Y-80899
X191135Y-96139
X193675Y-80899
X193675Y-96139
X196215Y-80899
X196215Y-96139
X198755Y-80899
X198755Y-96139
X201295Y-80899
X201295Y-96139
X203835Y-80899
X203835Y-96139
X206375Y-80899
X206375Y-96139
X208915Y-80899
X208915Y-96139
X211455Y-80899
X211455Y-96139
X213868Y-99314
X213995Y-80899
X213995Y-96139
X216535Y-80899
X216535Y-96139
X218948Y-99314
X219075Y-80899
X219075Y-96139
T3
X150368Y-112268
X176022Y-112268
T4
X155105Y-74016
X157645Y-74016
X160185Y-74016
X162725Y-74016
X165265Y-74016
X167805Y-74016
X170345Y-74016
X172885Y-74016
X175425Y-74016
X177965Y-74016
X180505Y-74016
X183045Y-74016
X185585Y-74016
X188125Y-74016
X190665Y-74016
X193205Y-74016
T5
X209629Y-110785
X209629Y-113284
T6
X213893Y-108186
X213893Y-118384
T7
X138684Y-84328
X198882Y-112522
X216662Y-75184
T0
M30
