G04 #@! TF.FileFunction,Soldermask,Bot*
%FSLAX46Y46*%
G04 Gerber Fmt 4.6, Leading zero omitted, Abs format (unit mm)*
G04 Created by KiCad (PCBNEW 4.0.7) date Thursday, 29 March 2018 'PMt' 03:09:51 PM*
%MOMM*%
%LPD*%
G01*
G04 APERTURE LIST*
%ADD10C,0.100000*%
%ADD11C,1.900000*%
%ADD12R,1.900000X1.900000*%
%ADD13C,8.000000*%
%ADD14C,1.924000*%
%ADD15R,1.924000X1.900000*%
G04 APERTURE END LIST*
D10*
D11*
X173101000Y-104521000D03*
X178181000Y-104521000D03*
X173101000Y-100203000D03*
X178181000Y-100203000D03*
X173101000Y-95885000D03*
X178181000Y-95885000D03*
X218948000Y-99314000D03*
X213868000Y-99314000D03*
X145288000Y-99060000D03*
X145288000Y-104140000D03*
X144526000Y-110236000D03*
X144526000Y-115316000D03*
D12*
X153416000Y-106934000D03*
D11*
X153416000Y-115824000D03*
X146304000Y-83312000D03*
X146304000Y-80772000D03*
X146304000Y-78232000D03*
X151257000Y-104521000D03*
X160147000Y-104521000D03*
X162179000Y-104521000D03*
X171069000Y-104521000D03*
X151257000Y-100203000D03*
X160147000Y-100203000D03*
X162179000Y-100203000D03*
X171069000Y-100203000D03*
X151257000Y-95885000D03*
X160147000Y-95885000D03*
X162179000Y-95885000D03*
X171069000Y-95885000D03*
X150368000Y-80518000D03*
X159258000Y-80518000D03*
X150368000Y-83566000D03*
X159258000Y-83566000D03*
X185166000Y-109982000D03*
X185166000Y-101092000D03*
X181864000Y-101092000D03*
X181864000Y-109982000D03*
X170180000Y-106934000D03*
X170180000Y-115824000D03*
D12*
X164592000Y-89408000D03*
D11*
X167132000Y-89408000D03*
X169672000Y-89408000D03*
X172212000Y-89408000D03*
X174752000Y-89408000D03*
X177292000Y-89408000D03*
X179832000Y-89408000D03*
X179832000Y-81788000D03*
X177292000Y-81788000D03*
X174752000Y-81788000D03*
X172212000Y-81788000D03*
X169672000Y-81788000D03*
X167132000Y-81788000D03*
X164592000Y-81788000D03*
D12*
X193205100Y-74015600D03*
D11*
X190665100Y-74015600D03*
X188125100Y-74015600D03*
X185585100Y-74015600D03*
X183045100Y-74015600D03*
X180505100Y-74015600D03*
X177965100Y-74015600D03*
X175425100Y-74015600D03*
X172885100Y-74015600D03*
X170345100Y-74015600D03*
X167805100Y-74015600D03*
X165265100Y-74015600D03*
X162725100Y-74015600D03*
X160185100Y-74015600D03*
X157645100Y-74015600D03*
X155105100Y-74015600D03*
X142240000Y-110236000D03*
X142240000Y-107696000D03*
X142240000Y-105156000D03*
X142240000Y-102616000D03*
X142240000Y-100076000D03*
X142240000Y-97536000D03*
X142240000Y-94996000D03*
D12*
X142240000Y-92456000D03*
D13*
X216662000Y-75184000D03*
X138684000Y-84328000D03*
X206756000Y-104902000D03*
D12*
X188468000Y-104648000D03*
D11*
X191008000Y-104648000D03*
D12*
X219075000Y-80899000D03*
D11*
X216535000Y-80899000D03*
X213995000Y-80899000D03*
X211455000Y-80899000D03*
X208915000Y-80899000D03*
X206375000Y-80899000D03*
X203835000Y-80899000D03*
X201295000Y-80899000D03*
X198755000Y-80899000D03*
X196215000Y-80899000D03*
X193675000Y-80899000D03*
X191135000Y-80899000D03*
X188595000Y-80899000D03*
X186055000Y-80899000D03*
X186055000Y-96139000D03*
X188595000Y-96139000D03*
X191135000Y-96139000D03*
X193675000Y-96139000D03*
X196215000Y-96139000D03*
X198755000Y-96139000D03*
X201295000Y-96139000D03*
X203835000Y-96139000D03*
X206375000Y-96139000D03*
X208915000Y-96139000D03*
X211455000Y-96139000D03*
X213995000Y-96139000D03*
X216535000Y-96139000D03*
X219075000Y-96139000D03*
X136652000Y-112268000D03*
X136652000Y-90424000D03*
D12*
X147574000Y-112522000D03*
D14*
X150114000Y-112522000D03*
D12*
X173482000Y-112522000D03*
D14*
X176022000Y-112522000D03*
D11*
X156718000Y-112522000D03*
D15*
X159258000Y-112522000D03*
D11*
X166878000Y-112522000D03*
D15*
X164338000Y-112522000D03*
D11*
X161798000Y-112522000D03*
M02*
