G04 #@! TF.FileFunction,Copper,L1,Top,Signal*
%FSLAX46Y46*%
G04 Gerber Fmt 4.6, Leading zero omitted, Abs format (unit mm)*
G04 Created by KiCad (PCBNEW 4.0.7) date Thursday, 29 March 2018 'PMt' 03:09:51 PM*
%MOMM*%
%LPD*%
G01*
G04 APERTURE LIST*
%ADD10C,0.100000*%
%ADD11C,0.200000*%
%ADD12C,0.381000*%
%ADD13C,1.500000*%
%ADD14R,1.500000X1.500000*%
%ADD15R,2.000000X2.000000*%
%ADD16C,2.000000*%
%ADD17C,1.524000*%
%ADD18R,1.524000X1.500000*%
%ADD19C,0.600000*%
%ADD20C,0.500000*%
%ADD21C,0.254000*%
G04 APERTURE END LIST*
D10*
D11*
X133795143Y-73428381D02*
X133795143Y-72428381D01*
X134033238Y-72428381D01*
X134176096Y-72476000D01*
X134271334Y-72571238D01*
X134318953Y-72666476D01*
X134366572Y-72856952D01*
X134366572Y-72999810D01*
X134318953Y-73190286D01*
X134271334Y-73285524D01*
X134176096Y-73380762D01*
X134033238Y-73428381D01*
X133795143Y-73428381D01*
X134795143Y-73428381D02*
X134795143Y-72761714D01*
X134795143Y-72428381D02*
X134747524Y-72476000D01*
X134795143Y-72523619D01*
X134842762Y-72476000D01*
X134795143Y-72428381D01*
X134795143Y-72523619D01*
X135699905Y-72761714D02*
X135699905Y-73571238D01*
X135652286Y-73666476D01*
X135604667Y-73714095D01*
X135509428Y-73761714D01*
X135366571Y-73761714D01*
X135271333Y-73714095D01*
X135699905Y-73380762D02*
X135604667Y-73428381D01*
X135414190Y-73428381D01*
X135318952Y-73380762D01*
X135271333Y-73333143D01*
X135223714Y-73237905D01*
X135223714Y-72952190D01*
X135271333Y-72856952D01*
X135318952Y-72809333D01*
X135414190Y-72761714D01*
X135604667Y-72761714D01*
X135699905Y-72809333D01*
X136176095Y-73428381D02*
X136176095Y-72761714D01*
X136176095Y-72428381D02*
X136128476Y-72476000D01*
X136176095Y-72523619D01*
X136223714Y-72476000D01*
X136176095Y-72428381D01*
X136176095Y-72523619D01*
X136509428Y-72761714D02*
X136890380Y-72761714D01*
X136652285Y-72428381D02*
X136652285Y-73285524D01*
X136699904Y-73380762D01*
X136795142Y-73428381D01*
X136890380Y-73428381D01*
X137652286Y-73428381D02*
X137652286Y-72904571D01*
X137604667Y-72809333D01*
X137509429Y-72761714D01*
X137318952Y-72761714D01*
X137223714Y-72809333D01*
X137652286Y-73380762D02*
X137557048Y-73428381D01*
X137318952Y-73428381D01*
X137223714Y-73380762D01*
X137176095Y-73285524D01*
X137176095Y-73190286D01*
X137223714Y-73095048D01*
X137318952Y-73047429D01*
X137557048Y-73047429D01*
X137652286Y-72999810D01*
X138271333Y-73428381D02*
X138176095Y-73380762D01*
X138128476Y-73285524D01*
X138128476Y-72428381D01*
X138509429Y-72428381D02*
X138842762Y-73428381D01*
X139176096Y-72428381D01*
X139842763Y-72904571D02*
X139509429Y-72904571D01*
X139509429Y-73428381D02*
X139509429Y-72428381D01*
X139985620Y-72428381D01*
X140557048Y-72428381D02*
X140747525Y-72428381D01*
X140842763Y-72476000D01*
X140938001Y-72571238D01*
X140985620Y-72761714D01*
X140985620Y-73095048D01*
X140938001Y-73285524D01*
X140842763Y-73380762D01*
X140747525Y-73428381D01*
X140557048Y-73428381D01*
X140461810Y-73380762D01*
X140366572Y-73285524D01*
X140318953Y-73095048D01*
X140318953Y-72761714D01*
X140366572Y-72571238D01*
X140461810Y-72476000D01*
X140557048Y-72428381D01*
X142699906Y-73428381D02*
X142128477Y-73428381D01*
X142414191Y-73428381D02*
X142414191Y-72428381D01*
X142318953Y-72571238D01*
X142223715Y-72666476D01*
X142128477Y-72714095D01*
X143128477Y-73333143D02*
X143176096Y-73380762D01*
X143128477Y-73428381D01*
X143080858Y-73380762D01*
X143128477Y-73333143D01*
X143128477Y-73428381D01*
X143557048Y-72523619D02*
X143604667Y-72476000D01*
X143699905Y-72428381D01*
X143938001Y-72428381D01*
X144033239Y-72476000D01*
X144080858Y-72523619D01*
X144128477Y-72618857D01*
X144128477Y-72714095D01*
X144080858Y-72856952D01*
X143509429Y-73428381D01*
X144128477Y-73428381D01*
X134176095Y-74223619D02*
X134223714Y-74176000D01*
X134318952Y-74128381D01*
X134557048Y-74128381D01*
X134652286Y-74176000D01*
X134699905Y-74223619D01*
X134747524Y-74318857D01*
X134747524Y-74414095D01*
X134699905Y-74556952D01*
X134128476Y-75128381D01*
X134747524Y-75128381D01*
X135604667Y-74128381D02*
X135414190Y-74128381D01*
X135318952Y-74176000D01*
X135271333Y-74223619D01*
X135176095Y-74366476D01*
X135128476Y-74556952D01*
X135128476Y-74937905D01*
X135176095Y-75033143D01*
X135223714Y-75080762D01*
X135318952Y-75128381D01*
X135509429Y-75128381D01*
X135604667Y-75080762D01*
X135652286Y-75033143D01*
X135699905Y-74937905D01*
X135699905Y-74699810D01*
X135652286Y-74604571D01*
X135604667Y-74556952D01*
X135509429Y-74509333D01*
X135318952Y-74509333D01*
X135223714Y-74556952D01*
X135176095Y-74604571D01*
X135128476Y-74699810D01*
X136890381Y-75128381D02*
X136890381Y-74128381D01*
X137223715Y-74842667D01*
X137557048Y-74128381D01*
X137557048Y-75128381D01*
X138461810Y-75128381D02*
X138461810Y-74604571D01*
X138414191Y-74509333D01*
X138318953Y-74461714D01*
X138128476Y-74461714D01*
X138033238Y-74509333D01*
X138461810Y-75080762D02*
X138366572Y-75128381D01*
X138128476Y-75128381D01*
X138033238Y-75080762D01*
X137985619Y-74985524D01*
X137985619Y-74890286D01*
X138033238Y-74795048D01*
X138128476Y-74747429D01*
X138366572Y-74747429D01*
X138461810Y-74699810D01*
X138938000Y-75128381D02*
X138938000Y-74461714D01*
X138938000Y-74652190D02*
X138985619Y-74556952D01*
X139033238Y-74509333D01*
X139128476Y-74461714D01*
X139223715Y-74461714D01*
X140271334Y-74223619D02*
X140318953Y-74176000D01*
X140414191Y-74128381D01*
X140652287Y-74128381D01*
X140747525Y-74176000D01*
X140795144Y-74223619D01*
X140842763Y-74318857D01*
X140842763Y-74414095D01*
X140795144Y-74556952D01*
X140223715Y-75128381D01*
X140842763Y-75128381D01*
X141461810Y-74128381D02*
X141557049Y-74128381D01*
X141652287Y-74176000D01*
X141699906Y-74223619D01*
X141747525Y-74318857D01*
X141795144Y-74509333D01*
X141795144Y-74747429D01*
X141747525Y-74937905D01*
X141699906Y-75033143D01*
X141652287Y-75080762D01*
X141557049Y-75128381D01*
X141461810Y-75128381D01*
X141366572Y-75080762D01*
X141318953Y-75033143D01*
X141271334Y-74937905D01*
X141223715Y-74747429D01*
X141223715Y-74509333D01*
X141271334Y-74318857D01*
X141318953Y-74223619D01*
X141366572Y-74176000D01*
X141461810Y-74128381D01*
X142747525Y-75128381D02*
X142176096Y-75128381D01*
X142461810Y-75128381D02*
X142461810Y-74128381D01*
X142366572Y-74271238D01*
X142271334Y-74366476D01*
X142176096Y-74414095D01*
X143318953Y-74556952D02*
X143223715Y-74509333D01*
X143176096Y-74461714D01*
X143128477Y-74366476D01*
X143128477Y-74318857D01*
X143176096Y-74223619D01*
X143223715Y-74176000D01*
X143318953Y-74128381D01*
X143509430Y-74128381D01*
X143604668Y-74176000D01*
X143652287Y-74223619D01*
X143699906Y-74318857D01*
X143699906Y-74366476D01*
X143652287Y-74461714D01*
X143604668Y-74509333D01*
X143509430Y-74556952D01*
X143318953Y-74556952D01*
X143223715Y-74604571D01*
X143176096Y-74652190D01*
X143128477Y-74747429D01*
X143128477Y-74937905D01*
X143176096Y-75033143D01*
X143223715Y-75080762D01*
X143318953Y-75128381D01*
X143509430Y-75128381D01*
X143604668Y-75080762D01*
X143652287Y-75033143D01*
X143699906Y-74937905D01*
X143699906Y-74747429D01*
X143652287Y-74652190D01*
X143604668Y-74604571D01*
X143509430Y-74556952D01*
X136247523Y-76161714D02*
X136485618Y-76828381D01*
X136723714Y-76161714D01*
X137104666Y-76828381D02*
X137104666Y-75828381D01*
X137199904Y-76447429D02*
X137485619Y-76828381D01*
X137485619Y-76161714D02*
X137104666Y-76542667D01*
X138342762Y-76161714D02*
X138342762Y-76828381D01*
X138104666Y-75780762D02*
X137866571Y-76495048D01*
X138485619Y-76495048D01*
X138723714Y-76161714D02*
X139104666Y-76161714D01*
X138866571Y-76828381D02*
X138866571Y-75971238D01*
X138914190Y-75876000D01*
X139009428Y-75828381D01*
X139104666Y-75828381D01*
X139866572Y-76828381D02*
X139866572Y-76304571D01*
X139818953Y-76209333D01*
X139723715Y-76161714D01*
X139533238Y-76161714D01*
X139438000Y-76209333D01*
X139866572Y-76780762D02*
X139771334Y-76828381D01*
X139533238Y-76828381D01*
X139438000Y-76780762D01*
X139390381Y-76685524D01*
X139390381Y-76590286D01*
X139438000Y-76495048D01*
X139533238Y-76447429D01*
X139771334Y-76447429D01*
X139866572Y-76399810D01*
X140247524Y-76161714D02*
X140438000Y-76828381D01*
X140628477Y-76352190D01*
X140818953Y-76828381D01*
X141009429Y-76161714D01*
X141390381Y-76828381D02*
X141390381Y-76161714D01*
X141390381Y-76352190D02*
X141438000Y-76256952D01*
X141485619Y-76209333D01*
X141580857Y-76161714D01*
X141676096Y-76161714D01*
D12*
X128524000Y-75976480D02*
X128524000Y-76476860D01*
X128524000Y-76476860D02*
X128524000Y-76375260D01*
X128524000Y-73174860D02*
X128524000Y-72875140D01*
X126123700Y-73875900D02*
X130723640Y-75575160D01*
X126222760Y-73776840D02*
X130924300Y-75476100D01*
X129423160Y-73477120D02*
X129324100Y-73375520D01*
X129324100Y-73375520D02*
X128922780Y-73276460D01*
X128922780Y-73276460D02*
X128224280Y-73276460D01*
X128224280Y-73276460D02*
X128023620Y-73375520D01*
X128023620Y-73375520D02*
X127822960Y-73576180D01*
X127822960Y-73576180D02*
X127723900Y-73776840D01*
X127723900Y-73776840D02*
X127723900Y-74076560D01*
X127723900Y-74076560D02*
X127822960Y-74376280D01*
X127822960Y-74376280D02*
X128023620Y-74576940D01*
X128023620Y-74576940D02*
X128823720Y-74876660D01*
X128823720Y-74876660D02*
X129123440Y-75074780D01*
X129123440Y-75074780D02*
X129123440Y-75476100D01*
X129123440Y-75476100D02*
X128823720Y-75676760D01*
X128823720Y-75676760D02*
X128323340Y-75775820D01*
X128323340Y-75775820D02*
X127822960Y-75676760D01*
X127822960Y-75676760D02*
X127723900Y-75676760D01*
X127723900Y-75676760D02*
X127723900Y-75874880D01*
X127723900Y-75874880D02*
X128023620Y-75976480D01*
X128023620Y-75976480D02*
X128724660Y-75976480D01*
X128724660Y-75976480D02*
X129024380Y-75874880D01*
X129024380Y-75874880D02*
X129225040Y-75676760D01*
X129225040Y-75676760D02*
X129324100Y-75476100D01*
X129324100Y-75476100D02*
X129324100Y-75176380D01*
X129324100Y-75176380D02*
X129225040Y-74876660D01*
X129225040Y-74876660D02*
X128823720Y-74576940D01*
X128823720Y-74576940D02*
X128224280Y-74475340D01*
X128224280Y-74475340D02*
X128023620Y-74277220D01*
X128023620Y-74277220D02*
X127924560Y-73974960D01*
X127924560Y-73974960D02*
X128023620Y-73776840D01*
X128023620Y-73776840D02*
X128224280Y-73576180D01*
X128224280Y-73576180D02*
X128623060Y-73477120D01*
X128623060Y-73477120D02*
X128922780Y-73576180D01*
X128922780Y-73576180D02*
X129225040Y-73675240D01*
X129225040Y-73675240D02*
X129423160Y-73477120D01*
X128524000Y-72176640D02*
X128424940Y-72176640D01*
X128424940Y-72176640D02*
X127822960Y-72275700D01*
X127822960Y-72275700D02*
X127325120Y-72476360D01*
X127325120Y-72476360D02*
X126824740Y-72875140D01*
X126824740Y-72875140D02*
X126324360Y-73477120D01*
X126324360Y-73477120D02*
X126123700Y-73875900D01*
X126123700Y-73875900D02*
X126024640Y-74376280D01*
X126024640Y-74376280D02*
X126024640Y-74975720D01*
X126024640Y-74975720D02*
X126222760Y-75775820D01*
X126222760Y-75775820D02*
X126824740Y-76476860D01*
X126824740Y-76476860D02*
X127325120Y-76875640D01*
X127325120Y-76875640D02*
X128023620Y-77175360D01*
X128023620Y-77175360D02*
X128823720Y-77175360D01*
X128823720Y-77175360D02*
X129423160Y-76977240D01*
X129423160Y-76977240D02*
X130025140Y-76674980D01*
X130025140Y-76674980D02*
X130522980Y-76177140D01*
X130522980Y-76177140D02*
X130924300Y-75476100D01*
X130924300Y-75476100D02*
X131023360Y-74876660D01*
X131023360Y-74876660D02*
X131023360Y-74277220D01*
X131023360Y-74277220D02*
X130825240Y-73675240D01*
X130825240Y-73675240D02*
X130522980Y-73174860D01*
X130522980Y-73174860D02*
X130025140Y-72677020D01*
X130025140Y-72677020D02*
X129524760Y-72374760D01*
X129524760Y-72374760D02*
X129123440Y-72275700D01*
X129123440Y-72275700D02*
X128524000Y-72176640D01*
D13*
X173101000Y-104521000D03*
X178181000Y-104521000D03*
X173101000Y-100203000D03*
X178181000Y-100203000D03*
X173101000Y-95885000D03*
X178181000Y-95885000D03*
X218948000Y-99314000D03*
X213868000Y-99314000D03*
X145288000Y-99060000D03*
X145288000Y-104140000D03*
X144526000Y-110236000D03*
X144526000Y-115316000D03*
D14*
X153416000Y-106934000D03*
D13*
X153416000Y-115824000D03*
D15*
X210566000Y-118618000D03*
X210566000Y-110490000D03*
X218694000Y-118618000D03*
X218694000Y-110490000D03*
D16*
X214630000Y-114554000D03*
D13*
X146304000Y-83312000D03*
X146304000Y-80772000D03*
X146304000Y-78232000D03*
X151257000Y-104521000D03*
X160147000Y-104521000D03*
X162179000Y-104521000D03*
X171069000Y-104521000D03*
X151257000Y-100203000D03*
X160147000Y-100203000D03*
X162179000Y-100203000D03*
X171069000Y-100203000D03*
X151257000Y-95885000D03*
X160147000Y-95885000D03*
X162179000Y-95885000D03*
X171069000Y-95885000D03*
X150368000Y-80518000D03*
X159258000Y-80518000D03*
X150368000Y-83566000D03*
X159258000Y-83566000D03*
X185166000Y-109982000D03*
X185166000Y-101092000D03*
X181864000Y-101092000D03*
X181864000Y-109982000D03*
X170180000Y-106934000D03*
X170180000Y-115824000D03*
D14*
X164592000Y-89408000D03*
D13*
X167132000Y-89408000D03*
X169672000Y-89408000D03*
X172212000Y-89408000D03*
X174752000Y-89408000D03*
X177292000Y-89408000D03*
X179832000Y-89408000D03*
X179832000Y-81788000D03*
X177292000Y-81788000D03*
X174752000Y-81788000D03*
X172212000Y-81788000D03*
X169672000Y-81788000D03*
X167132000Y-81788000D03*
X164592000Y-81788000D03*
D14*
X193205100Y-74015600D03*
D13*
X190665100Y-74015600D03*
X188125100Y-74015600D03*
X185585100Y-74015600D03*
X183045100Y-74015600D03*
X180505100Y-74015600D03*
X177965100Y-74015600D03*
X175425100Y-74015600D03*
X172885100Y-74015600D03*
X170345100Y-74015600D03*
X167805100Y-74015600D03*
X165265100Y-74015600D03*
X162725100Y-74015600D03*
X160185100Y-74015600D03*
X157645100Y-74015600D03*
X155105100Y-74015600D03*
X142240000Y-110236000D03*
X142240000Y-107696000D03*
X142240000Y-105156000D03*
X142240000Y-102616000D03*
X142240000Y-100076000D03*
X142240000Y-97536000D03*
X142240000Y-94996000D03*
D14*
X142240000Y-92456000D03*
X188468000Y-104648000D03*
D13*
X191008000Y-104648000D03*
D14*
X219075000Y-80899000D03*
D13*
X216535000Y-80899000D03*
X213995000Y-80899000D03*
X211455000Y-80899000D03*
X208915000Y-80899000D03*
X206375000Y-80899000D03*
X203835000Y-80899000D03*
X201295000Y-80899000D03*
X198755000Y-80899000D03*
X196215000Y-80899000D03*
X193675000Y-80899000D03*
X191135000Y-80899000D03*
X188595000Y-80899000D03*
X186055000Y-80899000D03*
X186055000Y-96139000D03*
X188595000Y-96139000D03*
X191135000Y-96139000D03*
X193675000Y-96139000D03*
X196215000Y-96139000D03*
X198755000Y-96139000D03*
X201295000Y-96139000D03*
X203835000Y-96139000D03*
X206375000Y-96139000D03*
X208915000Y-96139000D03*
X211455000Y-96139000D03*
X213995000Y-96139000D03*
X216535000Y-96139000D03*
X219075000Y-96139000D03*
X136652000Y-112268000D03*
X136652000Y-90424000D03*
D14*
X147574000Y-112522000D03*
D17*
X150114000Y-112522000D03*
D14*
X173482000Y-112522000D03*
D17*
X176022000Y-112522000D03*
D13*
X156718000Y-112522000D03*
D18*
X159258000Y-112522000D03*
D13*
X166878000Y-112522000D03*
D18*
X164338000Y-112522000D03*
D13*
X161798000Y-112522000D03*
D19*
X181864000Y-86360000D03*
X201168000Y-86868000D03*
D20*
X164592000Y-89408000D02*
X164592000Y-96774000D01*
X171069000Y-103251000D02*
X171069000Y-104521000D01*
X164592000Y-96774000D02*
X171069000Y-103251000D01*
X171069000Y-104521000D02*
X173101000Y-104521000D01*
X169672000Y-89408000D02*
X169672000Y-90932000D01*
X168910000Y-98044000D02*
X171069000Y-100203000D01*
X168910000Y-91694000D02*
X168910000Y-98044000D01*
X169672000Y-90932000D02*
X168910000Y-91694000D01*
X171069000Y-100203000D02*
X173101000Y-100203000D01*
X174752000Y-89408000D02*
X174752000Y-94234000D01*
X174752000Y-94234000D02*
X173101000Y-95885000D01*
X171069000Y-95885000D02*
X173101000Y-95885000D01*
X181864000Y-86360000D02*
X181864000Y-101092000D01*
X188468000Y-104648000D02*
X187960000Y-104648000D01*
X187960000Y-104648000D02*
X185166000Y-107442000D01*
X185166000Y-107442000D02*
X185166000Y-109982000D01*
X181864000Y-101092000D02*
X181864000Y-102362000D01*
X184150000Y-104648000D02*
X188468000Y-104648000D01*
X181864000Y-102362000D02*
X184150000Y-104648000D01*
X181864000Y-101092000D02*
X181864000Y-101092000D01*
X157645100Y-74015600D02*
X157645100Y-73240900D01*
X157645100Y-73240900D02*
X158242000Y-72644000D01*
X158242000Y-72644000D02*
X190246000Y-72644000D01*
X190246000Y-72644000D02*
X190665100Y-73063100D01*
X190665100Y-73063100D02*
X190665100Y-74015600D01*
X157645100Y-74015600D02*
X157645100Y-74841100D01*
X157645100Y-74841100D02*
X164592000Y-81788000D01*
X164592000Y-81788000D02*
X164592000Y-82550000D01*
X164592000Y-82550000D02*
X151257000Y-95885000D01*
X145288000Y-99060000D02*
X150114000Y-99060000D01*
X150114000Y-99060000D02*
X151257000Y-100203000D01*
X142240000Y-100076000D02*
X143256000Y-99060000D01*
X143256000Y-99060000D02*
X145288000Y-99060000D01*
X151257000Y-95885000D02*
X151257000Y-100203000D01*
X151257000Y-100203000D02*
X151257000Y-104521000D01*
X219075000Y-96139000D02*
X219075000Y-99187000D01*
X219075000Y-99187000D02*
X218948000Y-99314000D01*
X144526000Y-110236000D02*
X147828000Y-106934000D01*
X147828000Y-106934000D02*
X153416000Y-106934000D01*
X142240000Y-110236000D02*
X144526000Y-110236000D01*
X147574000Y-112522000D02*
X147574000Y-113792000D01*
X149606000Y-115824000D02*
X153416000Y-115824000D01*
X147574000Y-113792000D02*
X149606000Y-115824000D01*
X142240000Y-105156000D02*
X140970000Y-105156000D01*
X207264000Y-114554000D02*
X214630000Y-114554000D01*
X202946000Y-118872000D02*
X207264000Y-114554000D01*
X142494000Y-118872000D02*
X202946000Y-118872000D01*
X139446000Y-115824000D02*
X142494000Y-118872000D01*
X139446000Y-106680000D02*
X139446000Y-115824000D01*
X140970000Y-105156000D02*
X139446000Y-106680000D01*
X173482000Y-112522000D02*
X170180000Y-115824000D01*
X146304000Y-83312000D02*
X150114000Y-83312000D01*
X150114000Y-83312000D02*
X150368000Y-83566000D01*
X146304000Y-80772000D02*
X150114000Y-80772000D01*
X150114000Y-80772000D02*
X150368000Y-80518000D01*
X155105100Y-74015600D02*
X150520400Y-74015600D01*
X150520400Y-74015600D02*
X146304000Y-78232000D01*
X160147000Y-104521000D02*
X159385000Y-104521000D01*
X156718000Y-107188000D02*
X156718000Y-112522000D01*
X159385000Y-104521000D02*
X156718000Y-107188000D01*
X162179000Y-104521000D02*
X160147000Y-104521000D01*
X162179000Y-100203000D02*
X164084000Y-102108000D01*
X161798000Y-109982000D02*
X161798000Y-112522000D01*
X164084000Y-107696000D02*
X161798000Y-109982000D01*
X164084000Y-102108000D02*
X164084000Y-107696000D01*
X160147000Y-100203000D02*
X162179000Y-100203000D01*
X162179000Y-100203000D02*
X162433000Y-100203000D01*
X162179000Y-95885000D02*
X162687000Y-96647000D01*
X166878000Y-101346000D02*
X166878000Y-112522000D01*
X162687000Y-96647000D02*
X166878000Y-101346000D01*
X160147000Y-95885000D02*
X162179000Y-95885000D01*
X162179000Y-95885000D02*
X162179000Y-96139000D01*
X183134000Y-99060000D02*
X185166000Y-101092000D01*
X183134000Y-94488000D02*
X183134000Y-99060000D01*
X184912000Y-92710000D02*
X183134000Y-94488000D01*
X194564000Y-92710000D02*
X184912000Y-92710000D01*
X201168000Y-86868000D02*
X194564000Y-92710000D01*
X167132000Y-89408000D02*
X167132000Y-88392000D01*
X203454000Y-83820000D02*
X206375000Y-80899000D01*
X171704000Y-83820000D02*
X203454000Y-83820000D01*
X167132000Y-88392000D02*
X171704000Y-83820000D01*
X172212000Y-89408000D02*
X172212000Y-88646000D01*
X205232000Y-84582000D02*
X208915000Y-80899000D01*
X176276000Y-84582000D02*
X205232000Y-84582000D01*
X172212000Y-88646000D02*
X176276000Y-84582000D01*
X177292000Y-89408000D02*
X177292000Y-88392000D01*
X207010000Y-85344000D02*
X211455000Y-80899000D01*
X180340000Y-85344000D02*
X207010000Y-85344000D01*
X177292000Y-88392000D02*
X180340000Y-85344000D01*
X185585100Y-74015600D02*
X185585100Y-75095100D01*
X194056000Y-76200000D02*
X198755000Y-80899000D01*
X186690000Y-76200000D02*
X194056000Y-76200000D01*
X185585100Y-75095100D02*
X186690000Y-76200000D01*
X180505100Y-74015600D02*
X180505100Y-75095100D01*
X192278000Y-76962000D02*
X196215000Y-80899000D01*
X182372000Y-76962000D02*
X192278000Y-76962000D01*
X180505100Y-75095100D02*
X182372000Y-76962000D01*
X167805100Y-74015600D02*
X167805100Y-75349100D01*
X190500000Y-77724000D02*
X193675000Y-80899000D01*
X170180000Y-77724000D02*
X190500000Y-77724000D01*
X167805100Y-75349100D02*
X170180000Y-77724000D01*
X165265100Y-74015600D02*
X165265100Y-75095100D01*
X188722000Y-78486000D02*
X191135000Y-80899000D01*
X168656000Y-78486000D02*
X188722000Y-78486000D01*
X165265100Y-75095100D02*
X168656000Y-78486000D01*
X162725100Y-74015600D02*
X162725100Y-75095100D01*
X186944000Y-79248000D02*
X188595000Y-80899000D01*
X166878000Y-79248000D02*
X186944000Y-79248000D01*
X162725100Y-75095100D02*
X166878000Y-79248000D01*
X160185100Y-74015600D02*
X160185100Y-75095100D01*
X185166000Y-80010000D02*
X186055000Y-80899000D01*
X165100000Y-80010000D02*
X185166000Y-80010000D01*
X160185100Y-75095100D02*
X165100000Y-80010000D01*
D21*
G36*
X126310254Y-72229575D02*
X126255649Y-72294198D01*
X126189915Y-72347459D01*
X125689535Y-72949439D01*
X125644735Y-73032005D01*
X125586952Y-73106068D01*
X125386292Y-73504848D01*
X125373816Y-73549954D01*
X125349346Y-73589847D01*
X125339029Y-73654804D01*
X125313916Y-73715588D01*
X125214856Y-74215967D01*
X125214929Y-74296901D01*
X125199140Y-74376280D01*
X125199140Y-74975720D01*
X125218692Y-75074016D01*
X125223340Y-75174137D01*
X125421460Y-75974237D01*
X125434624Y-76002265D01*
X125438345Y-76033003D01*
X125502677Y-76147163D01*
X125558386Y-76265777D01*
X125581272Y-76286633D01*
X125596474Y-76313609D01*
X126198454Y-77014649D01*
X126259880Y-77062808D01*
X126310254Y-77122425D01*
X126810634Y-77521205D01*
X126908663Y-77571808D01*
X126999607Y-77634251D01*
X127698106Y-77933971D01*
X127703299Y-77935072D01*
X127707715Y-77938023D01*
X127860677Y-77968449D01*
X128013192Y-78000794D01*
X128018412Y-77999824D01*
X128023620Y-78000860D01*
X128823720Y-78000860D01*
X128952479Y-77975248D01*
X129082772Y-77959160D01*
X129682213Y-77761040D01*
X129735043Y-77731102D01*
X129793579Y-77714966D01*
X130395559Y-77412706D01*
X130499402Y-77331833D01*
X130608857Y-77258697D01*
X131106697Y-76760857D01*
X131167519Y-76669831D01*
X131239395Y-76587262D01*
X131640715Y-75886222D01*
X131663543Y-75818154D01*
X131700649Y-75756693D01*
X131712021Y-75681689D01*
X131738754Y-75610692D01*
X131837814Y-75011252D01*
X131835600Y-74943321D01*
X131848860Y-74876660D01*
X131848860Y-74277220D01*
X131823348Y-74148960D01*
X131807485Y-74019154D01*
X131609365Y-73417174D01*
X131563526Y-73336044D01*
X131531831Y-73248415D01*
X131229571Y-72748036D01*
X131162215Y-72674232D01*
X131106697Y-72591143D01*
X130608857Y-72093303D01*
X130594934Y-72084000D01*
X132922048Y-72084000D01*
X132922048Y-77911000D01*
X144937635Y-77911000D01*
X144919241Y-77955298D01*
X144918760Y-78506285D01*
X145129169Y-79015515D01*
X145518436Y-79405461D01*
X145750870Y-79501976D01*
X145520485Y-79597169D01*
X145130539Y-79986436D01*
X144919241Y-80495298D01*
X144918760Y-81046285D01*
X145129169Y-81555515D01*
X145518436Y-81945461D01*
X145750870Y-82041976D01*
X145520485Y-82137169D01*
X145130539Y-82526436D01*
X144919241Y-83035298D01*
X144918760Y-83586285D01*
X145129169Y-84095515D01*
X145518436Y-84485461D01*
X146027298Y-84696759D01*
X146578285Y-84697240D01*
X147087515Y-84486831D01*
X147377852Y-84197000D01*
X149130151Y-84197000D01*
X149193169Y-84349515D01*
X149582436Y-84739461D01*
X150091298Y-84950759D01*
X150642285Y-84951240D01*
X151151515Y-84740831D01*
X151355183Y-84537517D01*
X158466088Y-84537517D01*
X158534077Y-84778460D01*
X159053171Y-84963201D01*
X159603448Y-84935230D01*
X159981923Y-84778460D01*
X160049912Y-84537517D01*
X159258000Y-83745605D01*
X158466088Y-84537517D01*
X151355183Y-84537517D01*
X151541461Y-84351564D01*
X151752759Y-83842702D01*
X151753179Y-83361171D01*
X157860799Y-83361171D01*
X157888770Y-83911448D01*
X158045540Y-84289923D01*
X158286483Y-84357912D01*
X159078395Y-83566000D01*
X159437605Y-83566000D01*
X160229517Y-84357912D01*
X160470460Y-84289923D01*
X160655201Y-83770829D01*
X160627230Y-83220552D01*
X160470460Y-82842077D01*
X160229517Y-82774088D01*
X159437605Y-83566000D01*
X159078395Y-83566000D01*
X158286483Y-82774088D01*
X158045540Y-82842077D01*
X157860799Y-83361171D01*
X151753179Y-83361171D01*
X151753240Y-83291715D01*
X151542831Y-82782485D01*
X151355157Y-82594483D01*
X158466088Y-82594483D01*
X159258000Y-83386395D01*
X160049912Y-82594483D01*
X159981923Y-82353540D01*
X159462829Y-82168799D01*
X158912552Y-82196770D01*
X158534077Y-82353540D01*
X158466088Y-82594483D01*
X151355157Y-82594483D01*
X151153564Y-82392539D01*
X150644702Y-82181241D01*
X150093715Y-82180760D01*
X149584485Y-82391169D01*
X149548591Y-82427000D01*
X147377523Y-82427000D01*
X147089564Y-82138539D01*
X146857130Y-82042024D01*
X147087515Y-81946831D01*
X147377852Y-81657000D01*
X149548035Y-81657000D01*
X149582436Y-81691461D01*
X150091298Y-81902759D01*
X150642285Y-81903240D01*
X151151515Y-81692831D01*
X151541461Y-81303564D01*
X151752759Y-80794702D01*
X151752761Y-80792285D01*
X157872760Y-80792285D01*
X158083169Y-81301515D01*
X158472436Y-81691461D01*
X158981298Y-81902759D01*
X159532285Y-81903240D01*
X160041515Y-81692831D01*
X160431461Y-81303564D01*
X160642759Y-80794702D01*
X160643240Y-80243715D01*
X160432831Y-79734485D01*
X160043564Y-79344539D01*
X159534702Y-79133241D01*
X158983715Y-79132760D01*
X158474485Y-79343169D01*
X158084539Y-79732436D01*
X157873241Y-80241298D01*
X157872760Y-80792285D01*
X151752761Y-80792285D01*
X151753240Y-80243715D01*
X151542831Y-79734485D01*
X151153564Y-79344539D01*
X150644702Y-79133241D01*
X150093715Y-79132760D01*
X149584485Y-79343169D01*
X149194539Y-79732436D01*
X149130358Y-79887000D01*
X147377523Y-79887000D01*
X147089564Y-79598539D01*
X146857130Y-79502024D01*
X147087515Y-79406831D01*
X147477461Y-79017564D01*
X147688759Y-78508702D01*
X147689117Y-78098463D01*
X150886979Y-74900600D01*
X154031577Y-74900600D01*
X154319536Y-75189061D01*
X154828398Y-75400359D01*
X155379385Y-75400840D01*
X155888615Y-75190431D01*
X156278561Y-74801164D01*
X156375076Y-74568730D01*
X156470269Y-74799115D01*
X156821794Y-75151253D01*
X156827467Y-75179775D01*
X157001363Y-75440030D01*
X157019310Y-75466890D01*
X163207116Y-81654695D01*
X163206760Y-82062285D01*
X163388439Y-82501982D01*
X151390304Y-94500116D01*
X150982715Y-94499760D01*
X150473485Y-94710169D01*
X150083539Y-95099436D01*
X149872241Y-95608298D01*
X149871760Y-96159285D01*
X150082169Y-96668515D01*
X150372000Y-96958852D01*
X150372000Y-98226320D01*
X150114000Y-98174999D01*
X150113995Y-98175000D01*
X146361523Y-98175000D01*
X146073564Y-97886539D01*
X145564702Y-97675241D01*
X145013715Y-97674760D01*
X144504485Y-97885169D01*
X144214148Y-98175000D01*
X143474320Y-98175000D01*
X143624759Y-97812702D01*
X143625240Y-97261715D01*
X143414831Y-96752485D01*
X143025564Y-96362539D01*
X142793130Y-96266024D01*
X143023515Y-96170831D01*
X143413461Y-95781564D01*
X143624759Y-95272702D01*
X143625240Y-94721715D01*
X143414831Y-94212485D01*
X143045909Y-93842920D01*
X143225317Y-93809162D01*
X143441441Y-93670090D01*
X143586431Y-93457890D01*
X143637440Y-93206000D01*
X143637440Y-91706000D01*
X143593162Y-91470683D01*
X143454090Y-91254559D01*
X143241890Y-91109569D01*
X142990000Y-91058560D01*
X141490000Y-91058560D01*
X141254683Y-91102838D01*
X141038559Y-91241910D01*
X140893569Y-91454110D01*
X140842560Y-91706000D01*
X140842560Y-93206000D01*
X140886838Y-93441317D01*
X141025910Y-93657441D01*
X141238110Y-93802431D01*
X141435262Y-93842355D01*
X141066539Y-94210436D01*
X140855241Y-94719298D01*
X140854760Y-95270285D01*
X141065169Y-95779515D01*
X141454436Y-96169461D01*
X141686870Y-96265976D01*
X141456485Y-96361169D01*
X141066539Y-96750436D01*
X140855241Y-97259298D01*
X140854760Y-97810285D01*
X141065169Y-98319515D01*
X141454436Y-98709461D01*
X141686870Y-98805976D01*
X141456485Y-98901169D01*
X141066539Y-99290436D01*
X140855241Y-99799298D01*
X140854760Y-100350285D01*
X141065169Y-100859515D01*
X141454436Y-101249461D01*
X141670979Y-101339377D01*
X141516077Y-101403540D01*
X141448088Y-101644483D01*
X142240000Y-102436395D01*
X143031912Y-101644483D01*
X142963923Y-101403540D01*
X142797379Y-101344268D01*
X143023515Y-101250831D01*
X143413461Y-100861564D01*
X143624759Y-100352702D01*
X143625115Y-99945000D01*
X144214477Y-99945000D01*
X144502436Y-100233461D01*
X145011298Y-100444759D01*
X145562285Y-100445240D01*
X146071515Y-100234831D01*
X146361852Y-99945000D01*
X149747420Y-99945000D01*
X149872116Y-100069695D01*
X149871760Y-100477285D01*
X150082169Y-100986515D01*
X150372000Y-101276852D01*
X150372000Y-103447477D01*
X150083539Y-103735436D01*
X149872241Y-104244298D01*
X149871760Y-104795285D01*
X150082169Y-105304515D01*
X150471436Y-105694461D01*
X150980298Y-105905759D01*
X151531285Y-105906240D01*
X152040515Y-105695831D01*
X152430461Y-105306564D01*
X152641759Y-104797702D01*
X152642240Y-104246715D01*
X152431831Y-103737485D01*
X152142000Y-103447148D01*
X152142000Y-101276523D01*
X152430461Y-100988564D01*
X152641759Y-100479702D01*
X152642240Y-99928715D01*
X152431831Y-99419485D01*
X152142000Y-99129148D01*
X152142000Y-96958523D01*
X152430461Y-96670564D01*
X152641759Y-96161702D01*
X152642117Y-95751463D01*
X165217787Y-83175792D01*
X165217790Y-83175790D01*
X165354199Y-82971639D01*
X165375515Y-82962831D01*
X165579183Y-82759517D01*
X166340088Y-82759517D01*
X166408077Y-83000460D01*
X166927171Y-83185201D01*
X167477448Y-83157230D01*
X167855923Y-83000460D01*
X167923912Y-82759517D01*
X167132000Y-81967605D01*
X166340088Y-82759517D01*
X165579183Y-82759517D01*
X165765461Y-82573564D01*
X165855377Y-82357021D01*
X165919540Y-82511923D01*
X166160483Y-82579912D01*
X166952395Y-81788000D01*
X166938253Y-81773858D01*
X167117858Y-81594253D01*
X167132000Y-81608395D01*
X167146143Y-81594253D01*
X167325748Y-81773858D01*
X167311605Y-81788000D01*
X168103517Y-82579912D01*
X168344460Y-82511923D01*
X168403732Y-82345379D01*
X168497169Y-82571515D01*
X168886436Y-82961461D01*
X169395298Y-83172759D01*
X169946285Y-83173240D01*
X170455515Y-82962831D01*
X170845461Y-82573564D01*
X170935377Y-82357021D01*
X170999540Y-82511923D01*
X171240483Y-82579912D01*
X172032395Y-81788000D01*
X172018253Y-81773858D01*
X172197858Y-81594253D01*
X172212000Y-81608395D01*
X172226143Y-81594253D01*
X172405748Y-81773858D01*
X172391605Y-81788000D01*
X173183517Y-82579912D01*
X173424460Y-82511923D01*
X173483732Y-82345379D01*
X173577169Y-82571515D01*
X173940021Y-82935000D01*
X172954394Y-82935000D01*
X173003912Y-82759517D01*
X172212000Y-81967605D01*
X171420088Y-82759517D01*
X171482063Y-82979146D01*
X171365325Y-83002367D01*
X171078210Y-83194210D01*
X171078208Y-83194213D01*
X166506210Y-87766210D01*
X166314367Y-88053325D01*
X166314367Y-88053326D01*
X166261276Y-88320226D01*
X165978920Y-88602091D01*
X165945162Y-88422683D01*
X165806090Y-88206559D01*
X165593890Y-88061569D01*
X165342000Y-88010560D01*
X163842000Y-88010560D01*
X163606683Y-88054838D01*
X163390559Y-88193910D01*
X163245569Y-88406110D01*
X163194560Y-88658000D01*
X163194560Y-90158000D01*
X163238838Y-90393317D01*
X163377910Y-90609441D01*
X163590110Y-90754431D01*
X163707000Y-90778102D01*
X163707000Y-96461039D01*
X163524452Y-96256364D01*
X163563759Y-96161702D01*
X163564240Y-95610715D01*
X163353831Y-95101485D01*
X162964564Y-94711539D01*
X162455702Y-94500241D01*
X161904715Y-94499760D01*
X161395485Y-94710169D01*
X161162936Y-94942313D01*
X160932564Y-94711539D01*
X160423702Y-94500241D01*
X159872715Y-94499760D01*
X159363485Y-94710169D01*
X158973539Y-95099436D01*
X158762241Y-95608298D01*
X158761760Y-96159285D01*
X158972169Y-96668515D01*
X159361436Y-97058461D01*
X159870298Y-97269759D01*
X160421285Y-97270240D01*
X160930515Y-97059831D01*
X161163064Y-96827687D01*
X161393436Y-97058461D01*
X161902298Y-97269759D01*
X162056697Y-97269894D01*
X165993000Y-101683325D01*
X165993000Y-111448477D01*
X165735000Y-111706028D01*
X165735000Y-111645691D01*
X165638327Y-111412302D01*
X165459699Y-111233673D01*
X165226310Y-111137000D01*
X164623750Y-111137000D01*
X164465000Y-111295750D01*
X164465000Y-112395000D01*
X164485000Y-112395000D01*
X164485000Y-112649000D01*
X164465000Y-112649000D01*
X164465000Y-113748250D01*
X164623750Y-113907000D01*
X165226310Y-113907000D01*
X165459699Y-113810327D01*
X165638327Y-113631698D01*
X165735000Y-113398309D01*
X165735000Y-113337402D01*
X166092436Y-113695461D01*
X166601298Y-113906759D01*
X167152285Y-113907240D01*
X167661515Y-113696831D01*
X168051461Y-113307564D01*
X168262759Y-112798702D01*
X168263240Y-112247715D01*
X168052831Y-111738485D01*
X167763000Y-111448148D01*
X167763000Y-110953517D01*
X181072088Y-110953517D01*
X181140077Y-111194460D01*
X181659171Y-111379201D01*
X182209448Y-111351230D01*
X182587923Y-111194460D01*
X182655912Y-110953517D01*
X181864000Y-110161605D01*
X181072088Y-110953517D01*
X167763000Y-110953517D01*
X167763000Y-109777171D01*
X180466799Y-109777171D01*
X180494770Y-110327448D01*
X180651540Y-110705923D01*
X180892483Y-110773912D01*
X181684395Y-109982000D01*
X182043605Y-109982000D01*
X182835517Y-110773912D01*
X183076460Y-110705923D01*
X183261201Y-110186829D01*
X183233230Y-109636552D01*
X183076460Y-109258077D01*
X182835517Y-109190088D01*
X182043605Y-109982000D01*
X181684395Y-109982000D01*
X180892483Y-109190088D01*
X180651540Y-109258077D01*
X180466799Y-109777171D01*
X167763000Y-109777171D01*
X167763000Y-109010483D01*
X181072088Y-109010483D01*
X181864000Y-109802395D01*
X182655912Y-109010483D01*
X182587923Y-108769540D01*
X182068829Y-108584799D01*
X181518552Y-108612770D01*
X181140077Y-108769540D01*
X181072088Y-109010483D01*
X167763000Y-109010483D01*
X167763000Y-101346000D01*
X167734152Y-101200970D01*
X167728733Y-101162312D01*
X170098875Y-103532454D01*
X169895539Y-103735436D01*
X169684241Y-104244298D01*
X169683760Y-104795285D01*
X169894169Y-105304515D01*
X170138191Y-105548963D01*
X169905715Y-105548760D01*
X169396485Y-105759169D01*
X169006539Y-106148436D01*
X168795241Y-106657298D01*
X168794760Y-107208285D01*
X169005169Y-107717515D01*
X169394436Y-108107461D01*
X169903298Y-108318759D01*
X170454285Y-108319240D01*
X170963515Y-108108831D01*
X171353461Y-107719564D01*
X171564759Y-107210702D01*
X171565240Y-106659715D01*
X171354831Y-106150485D01*
X171110809Y-105906037D01*
X171343285Y-105906240D01*
X171852515Y-105695831D01*
X172085064Y-105463687D01*
X172315436Y-105694461D01*
X172824298Y-105905759D01*
X173375285Y-105906240D01*
X173884515Y-105695831D01*
X174088183Y-105492517D01*
X177389088Y-105492517D01*
X177457077Y-105733460D01*
X177976171Y-105918201D01*
X178526448Y-105890230D01*
X178904923Y-105733460D01*
X178972912Y-105492517D01*
X178181000Y-104700605D01*
X177389088Y-105492517D01*
X174088183Y-105492517D01*
X174274461Y-105306564D01*
X174485759Y-104797702D01*
X174486179Y-104316171D01*
X176783799Y-104316171D01*
X176811770Y-104866448D01*
X176968540Y-105244923D01*
X177209483Y-105312912D01*
X178001395Y-104521000D01*
X178360605Y-104521000D01*
X179152517Y-105312912D01*
X179393460Y-105244923D01*
X179578201Y-104725829D01*
X179550230Y-104175552D01*
X179393460Y-103797077D01*
X179152517Y-103729088D01*
X178360605Y-104521000D01*
X178001395Y-104521000D01*
X177209483Y-103729088D01*
X176968540Y-103797077D01*
X176783799Y-104316171D01*
X174486179Y-104316171D01*
X174486240Y-104246715D01*
X174275831Y-103737485D01*
X174088157Y-103549483D01*
X177389088Y-103549483D01*
X178181000Y-104341395D01*
X178972912Y-103549483D01*
X178904923Y-103308540D01*
X178385829Y-103123799D01*
X177835552Y-103151770D01*
X177457077Y-103308540D01*
X177389088Y-103549483D01*
X174088157Y-103549483D01*
X173886564Y-103347539D01*
X173377702Y-103136241D01*
X172826715Y-103135760D01*
X172317485Y-103346169D01*
X172084936Y-103578313D01*
X171954000Y-103447148D01*
X171954000Y-103251005D01*
X171954001Y-103251000D01*
X171886633Y-102912325D01*
X171694790Y-102625210D01*
X171694787Y-102625208D01*
X170561504Y-101491925D01*
X170792298Y-101587759D01*
X171343285Y-101588240D01*
X171852515Y-101377831D01*
X172085064Y-101145687D01*
X172315436Y-101376461D01*
X172824298Y-101587759D01*
X173375285Y-101588240D01*
X173884515Y-101377831D01*
X174088183Y-101174517D01*
X177389088Y-101174517D01*
X177457077Y-101415460D01*
X177976171Y-101600201D01*
X178526448Y-101572230D01*
X178904923Y-101415460D01*
X178972912Y-101174517D01*
X178181000Y-100382605D01*
X177389088Y-101174517D01*
X174088183Y-101174517D01*
X174274461Y-100988564D01*
X174485759Y-100479702D01*
X174486179Y-99998171D01*
X176783799Y-99998171D01*
X176811770Y-100548448D01*
X176968540Y-100926923D01*
X177209483Y-100994912D01*
X178001395Y-100203000D01*
X178360605Y-100203000D01*
X179152517Y-100994912D01*
X179393460Y-100926923D01*
X179578201Y-100407829D01*
X179550230Y-99857552D01*
X179393460Y-99479077D01*
X179152517Y-99411088D01*
X178360605Y-100203000D01*
X178001395Y-100203000D01*
X177209483Y-99411088D01*
X176968540Y-99479077D01*
X176783799Y-99998171D01*
X174486179Y-99998171D01*
X174486240Y-99928715D01*
X174275831Y-99419485D01*
X174088157Y-99231483D01*
X177389088Y-99231483D01*
X178181000Y-100023395D01*
X178972912Y-99231483D01*
X178904923Y-98990540D01*
X178385829Y-98805799D01*
X177835552Y-98833770D01*
X177457077Y-98990540D01*
X177389088Y-99231483D01*
X174088157Y-99231483D01*
X173886564Y-99029539D01*
X173377702Y-98818241D01*
X172826715Y-98817760D01*
X172317485Y-99028169D01*
X172084936Y-99260313D01*
X171854564Y-99029539D01*
X171345702Y-98818241D01*
X170935462Y-98817883D01*
X169795000Y-97677420D01*
X169795000Y-96428507D01*
X169894169Y-96668515D01*
X170283436Y-97058461D01*
X170792298Y-97269759D01*
X171343285Y-97270240D01*
X171852515Y-97059831D01*
X172085064Y-96827687D01*
X172315436Y-97058461D01*
X172824298Y-97269759D01*
X173375285Y-97270240D01*
X173884515Y-97059831D01*
X174088183Y-96856517D01*
X177389088Y-96856517D01*
X177457077Y-97097460D01*
X177976171Y-97282201D01*
X178526448Y-97254230D01*
X178904923Y-97097460D01*
X178972912Y-96856517D01*
X178181000Y-96064605D01*
X177389088Y-96856517D01*
X174088183Y-96856517D01*
X174274461Y-96670564D01*
X174485759Y-96161702D01*
X174486117Y-95751462D01*
X174557408Y-95680171D01*
X176783799Y-95680171D01*
X176811770Y-96230448D01*
X176968540Y-96608923D01*
X177209483Y-96676912D01*
X178001395Y-95885000D01*
X178360605Y-95885000D01*
X179152517Y-96676912D01*
X179393460Y-96608923D01*
X179578201Y-96089829D01*
X179550230Y-95539552D01*
X179393460Y-95161077D01*
X179152517Y-95093088D01*
X178360605Y-95885000D01*
X178001395Y-95885000D01*
X177209483Y-95093088D01*
X176968540Y-95161077D01*
X176783799Y-95680171D01*
X174557408Y-95680171D01*
X175324096Y-94913483D01*
X177389088Y-94913483D01*
X178181000Y-95705395D01*
X178972912Y-94913483D01*
X178904923Y-94672540D01*
X178385829Y-94487799D01*
X177835552Y-94515770D01*
X177457077Y-94672540D01*
X177389088Y-94913483D01*
X175324096Y-94913483D01*
X175377787Y-94859792D01*
X175377790Y-94859790D01*
X175569633Y-94572675D01*
X175569634Y-94572674D01*
X175637001Y-94234000D01*
X175637000Y-94233995D01*
X175637000Y-90481523D01*
X175925461Y-90193564D01*
X176021976Y-89961130D01*
X176117169Y-90191515D01*
X176506436Y-90581461D01*
X177015298Y-90792759D01*
X177566285Y-90793240D01*
X178075515Y-90582831D01*
X178279183Y-90379517D01*
X179040088Y-90379517D01*
X179108077Y-90620460D01*
X179627171Y-90805201D01*
X180177448Y-90777230D01*
X180555923Y-90620460D01*
X180623912Y-90379517D01*
X179832000Y-89587605D01*
X179040088Y-90379517D01*
X178279183Y-90379517D01*
X178465461Y-90193564D01*
X178555377Y-89977021D01*
X178619540Y-90131923D01*
X178860483Y-90199912D01*
X179652395Y-89408000D01*
X178860483Y-88616088D01*
X178619540Y-88684077D01*
X178560268Y-88850621D01*
X178466831Y-88624485D01*
X178389031Y-88546549D01*
X178499096Y-88436483D01*
X179040088Y-88436483D01*
X179832000Y-89228395D01*
X180623912Y-88436483D01*
X180555923Y-88195540D01*
X180036829Y-88010799D01*
X179486552Y-88038770D01*
X179108077Y-88195540D01*
X179040088Y-88436483D01*
X178499096Y-88436483D01*
X180706579Y-86229000D01*
X180929113Y-86229000D01*
X180928838Y-86545167D01*
X180979000Y-86666569D01*
X180979000Y-88665606D01*
X180803517Y-88616088D01*
X180011605Y-89408000D01*
X180803517Y-90199912D01*
X180979000Y-90150394D01*
X180979000Y-100018477D01*
X180690539Y-100306436D01*
X180479241Y-100815298D01*
X180478760Y-101366285D01*
X180689169Y-101875515D01*
X180979000Y-102165852D01*
X180979000Y-102361995D01*
X180978999Y-102362000D01*
X181029524Y-102616000D01*
X181046367Y-102700675D01*
X181220609Y-102961448D01*
X181238210Y-102987790D01*
X183524208Y-105273787D01*
X183524210Y-105273790D01*
X183758423Y-105430285D01*
X183811325Y-105465633D01*
X184150000Y-105533001D01*
X184150005Y-105533000D01*
X185823420Y-105533000D01*
X184540210Y-106816210D01*
X184348367Y-107103325D01*
X184348367Y-107103326D01*
X184280999Y-107442000D01*
X184281000Y-107442005D01*
X184281000Y-108908477D01*
X183992539Y-109196436D01*
X183781241Y-109705298D01*
X183780760Y-110256285D01*
X183991169Y-110765515D01*
X184380436Y-111155461D01*
X184889298Y-111366759D01*
X185440285Y-111367240D01*
X185949515Y-111156831D01*
X186331260Y-110775750D01*
X208931000Y-110775750D01*
X208931000Y-111616309D01*
X209027673Y-111849698D01*
X209206301Y-112028327D01*
X209439690Y-112125000D01*
X210280250Y-112125000D01*
X210439000Y-111966250D01*
X210439000Y-110617000D01*
X210693000Y-110617000D01*
X210693000Y-111966250D01*
X210851750Y-112125000D01*
X211692310Y-112125000D01*
X211925699Y-112028327D01*
X212104327Y-111849698D01*
X212201000Y-111616309D01*
X212201000Y-110775750D01*
X217059000Y-110775750D01*
X217059000Y-111616309D01*
X217155673Y-111849698D01*
X217334301Y-112028327D01*
X217567690Y-112125000D01*
X218408250Y-112125000D01*
X218567000Y-111966250D01*
X218567000Y-110617000D01*
X217217750Y-110617000D01*
X217059000Y-110775750D01*
X212201000Y-110775750D01*
X212042250Y-110617000D01*
X210693000Y-110617000D01*
X210439000Y-110617000D01*
X209089750Y-110617000D01*
X208931000Y-110775750D01*
X186331260Y-110775750D01*
X186339461Y-110767564D01*
X186550759Y-110258702D01*
X186551240Y-109707715D01*
X186409093Y-109363691D01*
X208931000Y-109363691D01*
X208931000Y-110204250D01*
X209089750Y-110363000D01*
X210439000Y-110363000D01*
X210439000Y-109013750D01*
X210693000Y-109013750D01*
X210693000Y-110363000D01*
X212042250Y-110363000D01*
X212201000Y-110204250D01*
X212201000Y-109363691D01*
X217059000Y-109363691D01*
X217059000Y-110204250D01*
X217217750Y-110363000D01*
X218567000Y-110363000D01*
X218567000Y-109013750D01*
X218408250Y-108855000D01*
X217567690Y-108855000D01*
X217334301Y-108951673D01*
X217155673Y-109130302D01*
X217059000Y-109363691D01*
X212201000Y-109363691D01*
X212104327Y-109130302D01*
X211925699Y-108951673D01*
X211692310Y-108855000D01*
X210851750Y-108855000D01*
X210693000Y-109013750D01*
X210439000Y-109013750D01*
X210280250Y-108855000D01*
X209439690Y-108855000D01*
X209206301Y-108951673D01*
X209027673Y-109130302D01*
X208931000Y-109363691D01*
X186409093Y-109363691D01*
X186340831Y-109198485D01*
X186051000Y-108908148D01*
X186051000Y-107808580D01*
X187814139Y-106045440D01*
X189218000Y-106045440D01*
X189453317Y-106001162D01*
X189669441Y-105862090D01*
X189814431Y-105649890D01*
X189820581Y-105619517D01*
X190216088Y-105619517D01*
X190284077Y-105860460D01*
X190803171Y-106045201D01*
X191353448Y-106017230D01*
X191731923Y-105860460D01*
X191799912Y-105619517D01*
X191008000Y-104827605D01*
X190216088Y-105619517D01*
X189820581Y-105619517D01*
X189865440Y-105398000D01*
X189865440Y-105391647D01*
X190036483Y-105439912D01*
X190828395Y-104648000D01*
X191187605Y-104648000D01*
X191979517Y-105439912D01*
X192220460Y-105371923D01*
X192237225Y-105324815D01*
X204620630Y-105324815D01*
X204944980Y-106109800D01*
X205545041Y-106710909D01*
X206329459Y-107036628D01*
X207178815Y-107037370D01*
X207963800Y-106713020D01*
X208564909Y-106112959D01*
X208890628Y-105328541D01*
X208891370Y-104479185D01*
X208567020Y-103694200D01*
X207966959Y-103093091D01*
X207182541Y-102767372D01*
X206333185Y-102766630D01*
X205548200Y-103090980D01*
X204947091Y-103691041D01*
X204621372Y-104475459D01*
X204620630Y-105324815D01*
X192237225Y-105324815D01*
X192405201Y-104852829D01*
X192377230Y-104302552D01*
X192220460Y-103924077D01*
X191979517Y-103856088D01*
X191187605Y-104648000D01*
X190828395Y-104648000D01*
X190036483Y-103856088D01*
X189865440Y-103904353D01*
X189865440Y-103898000D01*
X189823759Y-103676483D01*
X190216088Y-103676483D01*
X191008000Y-104468395D01*
X191799912Y-103676483D01*
X191731923Y-103435540D01*
X191212829Y-103250799D01*
X190662552Y-103278770D01*
X190284077Y-103435540D01*
X190216088Y-103676483D01*
X189823759Y-103676483D01*
X189821162Y-103662683D01*
X189682090Y-103446559D01*
X189469890Y-103301569D01*
X189218000Y-103250560D01*
X187718000Y-103250560D01*
X187482683Y-103294838D01*
X187266559Y-103433910D01*
X187121569Y-103646110D01*
X187097898Y-103763000D01*
X184516579Y-103763000D01*
X182834125Y-102080546D01*
X183037461Y-101877564D01*
X183248759Y-101368702D01*
X183249240Y-100817715D01*
X183038831Y-100308485D01*
X182749000Y-100018148D01*
X182749000Y-99926580D01*
X183781116Y-100958695D01*
X183780760Y-101366285D01*
X183991169Y-101875515D01*
X184380436Y-102265461D01*
X184889298Y-102476759D01*
X185440285Y-102477240D01*
X185949515Y-102266831D01*
X186339461Y-101877564D01*
X186550759Y-101368702D01*
X186551240Y-100817715D01*
X186340831Y-100308485D01*
X186317903Y-100285517D01*
X213076088Y-100285517D01*
X213144077Y-100526460D01*
X213663171Y-100711201D01*
X214213448Y-100683230D01*
X214591923Y-100526460D01*
X214659912Y-100285517D01*
X213868000Y-99493605D01*
X213076088Y-100285517D01*
X186317903Y-100285517D01*
X185951564Y-99918539D01*
X185442702Y-99707241D01*
X185032462Y-99706883D01*
X184434751Y-99109171D01*
X212470799Y-99109171D01*
X212498770Y-99659448D01*
X212655540Y-100037923D01*
X212896483Y-100105912D01*
X213688395Y-99314000D01*
X214047605Y-99314000D01*
X214839517Y-100105912D01*
X215080460Y-100037923D01*
X215265201Y-99518829D01*
X215237230Y-98968552D01*
X215080460Y-98590077D01*
X214839517Y-98522088D01*
X214047605Y-99314000D01*
X213688395Y-99314000D01*
X212896483Y-98522088D01*
X212655540Y-98590077D01*
X212470799Y-99109171D01*
X184434751Y-99109171D01*
X184019000Y-98693420D01*
X184019000Y-98342483D01*
X213076088Y-98342483D01*
X213868000Y-99134395D01*
X214659912Y-98342483D01*
X214591923Y-98101540D01*
X214072829Y-97916799D01*
X213522552Y-97944770D01*
X213144077Y-98101540D01*
X213076088Y-98342483D01*
X184019000Y-98342483D01*
X184019000Y-96413285D01*
X184669760Y-96413285D01*
X184880169Y-96922515D01*
X185269436Y-97312461D01*
X185778298Y-97523759D01*
X186329285Y-97524240D01*
X186838515Y-97313831D01*
X187228461Y-96924564D01*
X187324976Y-96692130D01*
X187420169Y-96922515D01*
X187809436Y-97312461D01*
X188318298Y-97523759D01*
X188869285Y-97524240D01*
X189378515Y-97313831D01*
X189768461Y-96924564D01*
X189864976Y-96692130D01*
X189960169Y-96922515D01*
X190349436Y-97312461D01*
X190858298Y-97523759D01*
X191409285Y-97524240D01*
X191918515Y-97313831D01*
X192308461Y-96924564D01*
X192404976Y-96692130D01*
X192500169Y-96922515D01*
X192889436Y-97312461D01*
X193398298Y-97523759D01*
X193949285Y-97524240D01*
X194458515Y-97313831D01*
X194848461Y-96924564D01*
X194944976Y-96692130D01*
X195040169Y-96922515D01*
X195429436Y-97312461D01*
X195938298Y-97523759D01*
X196489285Y-97524240D01*
X196998515Y-97313831D01*
X197388461Y-96924564D01*
X197484976Y-96692130D01*
X197580169Y-96922515D01*
X197969436Y-97312461D01*
X198478298Y-97523759D01*
X199029285Y-97524240D01*
X199538515Y-97313831D01*
X199928461Y-96924564D01*
X200024976Y-96692130D01*
X200120169Y-96922515D01*
X200509436Y-97312461D01*
X201018298Y-97523759D01*
X201569285Y-97524240D01*
X202078515Y-97313831D01*
X202468461Y-96924564D01*
X202564976Y-96692130D01*
X202660169Y-96922515D01*
X203049436Y-97312461D01*
X203558298Y-97523759D01*
X204109285Y-97524240D01*
X204618515Y-97313831D01*
X205008461Y-96924564D01*
X205104976Y-96692130D01*
X205200169Y-96922515D01*
X205589436Y-97312461D01*
X206098298Y-97523759D01*
X206649285Y-97524240D01*
X207158515Y-97313831D01*
X207548461Y-96924564D01*
X207644976Y-96692130D01*
X207740169Y-96922515D01*
X208129436Y-97312461D01*
X208638298Y-97523759D01*
X209189285Y-97524240D01*
X209698515Y-97313831D01*
X210088461Y-96924564D01*
X210184976Y-96692130D01*
X210280169Y-96922515D01*
X210669436Y-97312461D01*
X211178298Y-97523759D01*
X211729285Y-97524240D01*
X212238515Y-97313831D01*
X212628461Y-96924564D01*
X212724976Y-96692130D01*
X212820169Y-96922515D01*
X213209436Y-97312461D01*
X213718298Y-97523759D01*
X214269285Y-97524240D01*
X214778515Y-97313831D01*
X214982183Y-97110517D01*
X215743088Y-97110517D01*
X215811077Y-97351460D01*
X216330171Y-97536201D01*
X216880448Y-97508230D01*
X217258923Y-97351460D01*
X217326912Y-97110517D01*
X216535000Y-96318605D01*
X215743088Y-97110517D01*
X214982183Y-97110517D01*
X215168461Y-96924564D01*
X215258377Y-96708021D01*
X215322540Y-96862923D01*
X215563483Y-96930912D01*
X216355395Y-96139000D01*
X215563483Y-95347088D01*
X215322540Y-95415077D01*
X215263268Y-95581621D01*
X215169831Y-95355485D01*
X214982157Y-95167483D01*
X215743088Y-95167483D01*
X216535000Y-95959395D01*
X217326912Y-95167483D01*
X217258923Y-94926540D01*
X216739829Y-94741799D01*
X216189552Y-94769770D01*
X215811077Y-94926540D01*
X215743088Y-95167483D01*
X214982157Y-95167483D01*
X214780564Y-94965539D01*
X214271702Y-94754241D01*
X213720715Y-94753760D01*
X213211485Y-94964169D01*
X212821539Y-95353436D01*
X212725024Y-95585870D01*
X212629831Y-95355485D01*
X212240564Y-94965539D01*
X211731702Y-94754241D01*
X211180715Y-94753760D01*
X210671485Y-94964169D01*
X210281539Y-95353436D01*
X210185024Y-95585870D01*
X210089831Y-95355485D01*
X209700564Y-94965539D01*
X209191702Y-94754241D01*
X208640715Y-94753760D01*
X208131485Y-94964169D01*
X207741539Y-95353436D01*
X207645024Y-95585870D01*
X207549831Y-95355485D01*
X207160564Y-94965539D01*
X206651702Y-94754241D01*
X206100715Y-94753760D01*
X205591485Y-94964169D01*
X205201539Y-95353436D01*
X205105024Y-95585870D01*
X205009831Y-95355485D01*
X204620564Y-94965539D01*
X204111702Y-94754241D01*
X203560715Y-94753760D01*
X203051485Y-94964169D01*
X202661539Y-95353436D01*
X202565024Y-95585870D01*
X202469831Y-95355485D01*
X202080564Y-94965539D01*
X201571702Y-94754241D01*
X201020715Y-94753760D01*
X200511485Y-94964169D01*
X200121539Y-95353436D01*
X200025024Y-95585870D01*
X199929831Y-95355485D01*
X199540564Y-94965539D01*
X199031702Y-94754241D01*
X198480715Y-94753760D01*
X197971485Y-94964169D01*
X197581539Y-95353436D01*
X197485024Y-95585870D01*
X197389831Y-95355485D01*
X197000564Y-94965539D01*
X196491702Y-94754241D01*
X195940715Y-94753760D01*
X195431485Y-94964169D01*
X195041539Y-95353436D01*
X194945024Y-95585870D01*
X194849831Y-95355485D01*
X194460564Y-94965539D01*
X193951702Y-94754241D01*
X193400715Y-94753760D01*
X192891485Y-94964169D01*
X192501539Y-95353436D01*
X192405024Y-95585870D01*
X192309831Y-95355485D01*
X191920564Y-94965539D01*
X191411702Y-94754241D01*
X190860715Y-94753760D01*
X190351485Y-94964169D01*
X189961539Y-95353436D01*
X189865024Y-95585870D01*
X189769831Y-95355485D01*
X189380564Y-94965539D01*
X188871702Y-94754241D01*
X188320715Y-94753760D01*
X187811485Y-94964169D01*
X187421539Y-95353436D01*
X187325024Y-95585870D01*
X187229831Y-95355485D01*
X186840564Y-94965539D01*
X186331702Y-94754241D01*
X185780715Y-94753760D01*
X185271485Y-94964169D01*
X184881539Y-95353436D01*
X184670241Y-95862298D01*
X184669760Y-96413285D01*
X184019000Y-96413285D01*
X184019000Y-94854580D01*
X185278579Y-93595000D01*
X194564000Y-93595000D01*
X194707289Y-93566498D01*
X194852076Y-93546802D01*
X194875773Y-93532984D01*
X194902675Y-93527633D01*
X195024160Y-93446460D01*
X195150378Y-93372862D01*
X201528417Y-87730750D01*
X201696943Y-87661117D01*
X201960192Y-87398327D01*
X202102838Y-87054799D01*
X202103162Y-86682833D01*
X201961117Y-86339057D01*
X201851252Y-86229000D01*
X207009995Y-86229000D01*
X207010000Y-86229001D01*
X207292484Y-86172810D01*
X207348675Y-86161633D01*
X207635790Y-85969790D01*
X207635791Y-85969789D01*
X211321695Y-82283884D01*
X211729285Y-82284240D01*
X212238515Y-82073831D01*
X212628461Y-81684564D01*
X212724976Y-81452130D01*
X212820169Y-81682515D01*
X213209436Y-82072461D01*
X213718298Y-82283759D01*
X214269285Y-82284240D01*
X214778515Y-82073831D01*
X215168461Y-81684564D01*
X215264976Y-81452130D01*
X215360169Y-81682515D01*
X215749436Y-82072461D01*
X216258298Y-82283759D01*
X216809285Y-82284240D01*
X217318515Y-82073831D01*
X217690000Y-81702993D01*
X217690000Y-81775309D01*
X217786673Y-82008698D01*
X217965301Y-82187327D01*
X218198690Y-82284000D01*
X218789250Y-82284000D01*
X218948000Y-82125250D01*
X218948000Y-81026000D01*
X218928000Y-81026000D01*
X218928000Y-80772000D01*
X218948000Y-80772000D01*
X218948000Y-79672750D01*
X218789250Y-79514000D01*
X218198690Y-79514000D01*
X217965301Y-79610673D01*
X217786673Y-79789302D01*
X217690000Y-80022691D01*
X217690000Y-80095619D01*
X217320564Y-79725539D01*
X216811702Y-79514241D01*
X216260715Y-79513760D01*
X215751485Y-79724169D01*
X215361539Y-80113436D01*
X215265024Y-80345870D01*
X215169831Y-80115485D01*
X214780564Y-79725539D01*
X214271702Y-79514241D01*
X213720715Y-79513760D01*
X213211485Y-79724169D01*
X212821539Y-80113436D01*
X212725024Y-80345870D01*
X212629831Y-80115485D01*
X212240564Y-79725539D01*
X211731702Y-79514241D01*
X211180715Y-79513760D01*
X210671485Y-79724169D01*
X210281539Y-80113436D01*
X210185024Y-80345870D01*
X210089831Y-80115485D01*
X209700564Y-79725539D01*
X209191702Y-79514241D01*
X208640715Y-79513760D01*
X208131485Y-79724169D01*
X207741539Y-80113436D01*
X207645024Y-80345870D01*
X207549831Y-80115485D01*
X207160564Y-79725539D01*
X206651702Y-79514241D01*
X206100715Y-79513760D01*
X205591485Y-79724169D01*
X205201539Y-80113436D01*
X205105024Y-80345870D01*
X205009831Y-80115485D01*
X204620564Y-79725539D01*
X204111702Y-79514241D01*
X203560715Y-79513760D01*
X203051485Y-79724169D01*
X202661539Y-80113436D01*
X202565024Y-80345870D01*
X202469831Y-80115485D01*
X202080564Y-79725539D01*
X201571702Y-79514241D01*
X201020715Y-79513760D01*
X200511485Y-79724169D01*
X200121539Y-80113436D01*
X200025024Y-80345870D01*
X199929831Y-80115485D01*
X199540564Y-79725539D01*
X199031702Y-79514241D01*
X198621462Y-79513883D01*
X194714395Y-75606815D01*
X214526630Y-75606815D01*
X214850980Y-76391800D01*
X215451041Y-76992909D01*
X216235459Y-77318628D01*
X217084815Y-77319370D01*
X217869800Y-76995020D01*
X218470909Y-76394959D01*
X218796628Y-75610541D01*
X218797370Y-74761185D01*
X218473020Y-73976200D01*
X217872959Y-73375091D01*
X217088541Y-73049372D01*
X216239185Y-73048630D01*
X215454200Y-73372980D01*
X214853091Y-73973041D01*
X214527372Y-74757459D01*
X214526630Y-75606815D01*
X194714395Y-75606815D01*
X194681790Y-75574210D01*
X194668467Y-75565308D01*
X194394675Y-75382367D01*
X194335614Y-75370619D01*
X194212779Y-75346185D01*
X194314798Y-75303927D01*
X194493427Y-75125299D01*
X194590100Y-74891910D01*
X194590100Y-74301350D01*
X194431350Y-74142600D01*
X193332100Y-74142600D01*
X193332100Y-74162600D01*
X193078100Y-74162600D01*
X193078100Y-74142600D01*
X193058100Y-74142600D01*
X193058100Y-73888600D01*
X193078100Y-73888600D01*
X193078100Y-72789350D01*
X193332100Y-72789350D01*
X193332100Y-73888600D01*
X194431350Y-73888600D01*
X194590100Y-73729850D01*
X194590100Y-73139290D01*
X194493427Y-72905901D01*
X194314798Y-72727273D01*
X194081409Y-72630600D01*
X193490850Y-72630600D01*
X193332100Y-72789350D01*
X193078100Y-72789350D01*
X192919350Y-72630600D01*
X192328791Y-72630600D01*
X192095402Y-72727273D01*
X191916773Y-72905901D01*
X191820100Y-73139290D01*
X191820100Y-73212219D01*
X191519955Y-72911551D01*
X191488429Y-72753062D01*
X191482733Y-72724425D01*
X191290890Y-72437310D01*
X191290887Y-72437308D01*
X190937580Y-72084000D01*
X220270000Y-72084000D01*
X220270000Y-79695974D01*
X220184699Y-79610673D01*
X219951310Y-79514000D01*
X219360750Y-79514000D01*
X219202000Y-79672750D01*
X219202000Y-80772000D01*
X219222000Y-80772000D01*
X219222000Y-81026000D01*
X219202000Y-81026000D01*
X219202000Y-82125250D01*
X219360750Y-82284000D01*
X219951310Y-82284000D01*
X220184699Y-82187327D01*
X220270000Y-82102026D01*
X220270000Y-95404298D01*
X220249831Y-95355485D01*
X219860564Y-94965539D01*
X219351702Y-94754241D01*
X218800715Y-94753760D01*
X218291485Y-94964169D01*
X217901539Y-95353436D01*
X217811623Y-95569979D01*
X217747460Y-95415077D01*
X217506517Y-95347088D01*
X216714605Y-96139000D01*
X217506517Y-96930912D01*
X217747460Y-96862923D01*
X217806732Y-96696379D01*
X217900169Y-96922515D01*
X218190000Y-97212852D01*
X218190000Y-98128626D01*
X218164485Y-98139169D01*
X217774539Y-98528436D01*
X217563241Y-99037298D01*
X217562760Y-99588285D01*
X217773169Y-100097515D01*
X218162436Y-100487461D01*
X218671298Y-100698759D01*
X219222285Y-100699240D01*
X219731515Y-100488831D01*
X220121461Y-100099564D01*
X220270000Y-99741842D01*
X220270000Y-109221253D01*
X220232327Y-109130302D01*
X220053699Y-108951673D01*
X219820310Y-108855000D01*
X218979750Y-108855000D01*
X218821000Y-109013750D01*
X218821000Y-110363000D01*
X218841000Y-110363000D01*
X218841000Y-110617000D01*
X218821000Y-110617000D01*
X218821000Y-111966250D01*
X218979750Y-112125000D01*
X219820310Y-112125000D01*
X220053699Y-112028327D01*
X220232327Y-111849698D01*
X220270000Y-111758747D01*
X220270000Y-117349253D01*
X220232327Y-117258302D01*
X220053699Y-117079673D01*
X219820310Y-116983000D01*
X218979750Y-116983000D01*
X218821000Y-117141750D01*
X218821000Y-118491000D01*
X218841000Y-118491000D01*
X218841000Y-118745000D01*
X218821000Y-118745000D01*
X218821000Y-120094250D01*
X218979750Y-120253000D01*
X219820310Y-120253000D01*
X220053699Y-120156327D01*
X220232327Y-119977698D01*
X220270000Y-119886747D01*
X220270000Y-120448000D01*
X122122000Y-120448000D01*
X122122000Y-112542285D01*
X135266760Y-112542285D01*
X135477169Y-113051515D01*
X135866436Y-113441461D01*
X136375298Y-113652759D01*
X136926285Y-113653240D01*
X137435515Y-113442831D01*
X137825461Y-113053564D01*
X138036759Y-112544702D01*
X138037240Y-111993715D01*
X137826831Y-111484485D01*
X137437564Y-111094539D01*
X136928702Y-110883241D01*
X136377715Y-110882760D01*
X135868485Y-111093169D01*
X135478539Y-111482436D01*
X135267241Y-111991298D01*
X135266760Y-112542285D01*
X122122000Y-112542285D01*
X122122000Y-106680000D01*
X138560999Y-106680000D01*
X138561000Y-106680005D01*
X138561000Y-115823995D01*
X138560999Y-115824000D01*
X138603950Y-116039923D01*
X138628367Y-116162675D01*
X138820210Y-116449790D01*
X141868208Y-119497787D01*
X141868210Y-119497790D01*
X142155325Y-119689633D01*
X142211516Y-119700810D01*
X142494000Y-119757001D01*
X142494005Y-119757000D01*
X202945995Y-119757000D01*
X202946000Y-119757001D01*
X203228484Y-119700810D01*
X203284675Y-119689633D01*
X203571790Y-119497790D01*
X204165829Y-118903750D01*
X208931000Y-118903750D01*
X208931000Y-119744309D01*
X209027673Y-119977698D01*
X209206301Y-120156327D01*
X209439690Y-120253000D01*
X210280250Y-120253000D01*
X210439000Y-120094250D01*
X210439000Y-118745000D01*
X210693000Y-118745000D01*
X210693000Y-120094250D01*
X210851750Y-120253000D01*
X211692310Y-120253000D01*
X211925699Y-120156327D01*
X212104327Y-119977698D01*
X212201000Y-119744309D01*
X212201000Y-118903750D01*
X217059000Y-118903750D01*
X217059000Y-119744309D01*
X217155673Y-119977698D01*
X217334301Y-120156327D01*
X217567690Y-120253000D01*
X218408250Y-120253000D01*
X218567000Y-120094250D01*
X218567000Y-118745000D01*
X217217750Y-118745000D01*
X217059000Y-118903750D01*
X212201000Y-118903750D01*
X212042250Y-118745000D01*
X210693000Y-118745000D01*
X210439000Y-118745000D01*
X209089750Y-118745000D01*
X208931000Y-118903750D01*
X204165829Y-118903750D01*
X205577888Y-117491691D01*
X208931000Y-117491691D01*
X208931000Y-118332250D01*
X209089750Y-118491000D01*
X210439000Y-118491000D01*
X210439000Y-117141750D01*
X210693000Y-117141750D01*
X210693000Y-118491000D01*
X212042250Y-118491000D01*
X212201000Y-118332250D01*
X212201000Y-117491691D01*
X217059000Y-117491691D01*
X217059000Y-118332250D01*
X217217750Y-118491000D01*
X218567000Y-118491000D01*
X218567000Y-117141750D01*
X218408250Y-116983000D01*
X217567690Y-116983000D01*
X217334301Y-117079673D01*
X217155673Y-117258302D01*
X217059000Y-117491691D01*
X212201000Y-117491691D01*
X212104327Y-117258302D01*
X211925699Y-117079673D01*
X211692310Y-116983000D01*
X210851750Y-116983000D01*
X210693000Y-117141750D01*
X210439000Y-117141750D01*
X210280250Y-116983000D01*
X209439690Y-116983000D01*
X209206301Y-117079673D01*
X209027673Y-117258302D01*
X208931000Y-117491691D01*
X205577888Y-117491691D01*
X207630579Y-115439000D01*
X213226602Y-115439000D01*
X213243106Y-115478943D01*
X213702637Y-115939278D01*
X214303352Y-116188716D01*
X214953795Y-116189284D01*
X215554943Y-115940894D01*
X216015278Y-115481363D01*
X216264716Y-114880648D01*
X216265284Y-114230205D01*
X216016894Y-113629057D01*
X215557363Y-113168722D01*
X214956648Y-112919284D01*
X214306205Y-112918716D01*
X213705057Y-113167106D01*
X213244722Y-113626637D01*
X213227131Y-113669000D01*
X207264005Y-113669000D01*
X207264000Y-113668999D01*
X206926718Y-113736090D01*
X206925325Y-113736367D01*
X206638210Y-113928210D01*
X206638208Y-113928213D01*
X202579420Y-117987000D01*
X142860579Y-117987000D01*
X141161097Y-116287517D01*
X143734088Y-116287517D01*
X143802077Y-116528460D01*
X144321171Y-116713201D01*
X144871448Y-116685230D01*
X145249923Y-116528460D01*
X145317912Y-116287517D01*
X144526000Y-115495605D01*
X143734088Y-116287517D01*
X141161097Y-116287517D01*
X140331000Y-115457420D01*
X140331000Y-115111171D01*
X143128799Y-115111171D01*
X143156770Y-115661448D01*
X143313540Y-116039923D01*
X143554483Y-116107912D01*
X144346395Y-115316000D01*
X144705605Y-115316000D01*
X145497517Y-116107912D01*
X145738460Y-116039923D01*
X145923201Y-115520829D01*
X145895230Y-114970552D01*
X145738460Y-114592077D01*
X145497517Y-114524088D01*
X144705605Y-115316000D01*
X144346395Y-115316000D01*
X143554483Y-114524088D01*
X143313540Y-114592077D01*
X143128799Y-115111171D01*
X140331000Y-115111171D01*
X140331000Y-114344483D01*
X143734088Y-114344483D01*
X144526000Y-115136395D01*
X145317912Y-114344483D01*
X145249923Y-114103540D01*
X144730829Y-113918799D01*
X144180552Y-113946770D01*
X143802077Y-114103540D01*
X143734088Y-114344483D01*
X140331000Y-114344483D01*
X140331000Y-111772000D01*
X146176560Y-111772000D01*
X146176560Y-113272000D01*
X146220838Y-113507317D01*
X146359910Y-113723441D01*
X146572110Y-113868431D01*
X146709747Y-113896303D01*
X146745190Y-114074484D01*
X146756367Y-114130675D01*
X146899228Y-114344483D01*
X146948210Y-114417790D01*
X148980208Y-116449787D01*
X148980210Y-116449790D01*
X149267325Y-116641633D01*
X149323516Y-116652810D01*
X149606000Y-116709001D01*
X149606005Y-116709000D01*
X152342477Y-116709000D01*
X152630436Y-116997461D01*
X153139298Y-117208759D01*
X153690285Y-117209240D01*
X154199515Y-116998831D01*
X154589461Y-116609564D01*
X154800759Y-116100702D01*
X154800761Y-116098285D01*
X168794760Y-116098285D01*
X169005169Y-116607515D01*
X169394436Y-116997461D01*
X169903298Y-117208759D01*
X170454285Y-117209240D01*
X170963515Y-116998831D01*
X171353461Y-116609564D01*
X171564759Y-116100702D01*
X171565117Y-115690463D01*
X173336139Y-113919440D01*
X174232000Y-113919440D01*
X174467317Y-113875162D01*
X174683441Y-113736090D01*
X174828431Y-113523890D01*
X174832820Y-113502213D01*
X175221392Y-113502213D01*
X175290857Y-113744397D01*
X175814302Y-113931144D01*
X176369368Y-113903362D01*
X176753143Y-113744397D01*
X176822608Y-113502213D01*
X176022000Y-112701605D01*
X175221392Y-113502213D01*
X174832820Y-113502213D01*
X174878666Y-113275821D01*
X175041787Y-113322608D01*
X175842395Y-112522000D01*
X176201605Y-112522000D01*
X177002213Y-113322608D01*
X177244397Y-113253143D01*
X177431144Y-112729698D01*
X177403362Y-112174632D01*
X177244397Y-111790857D01*
X177002213Y-111721392D01*
X176201605Y-112522000D01*
X175842395Y-112522000D01*
X175041787Y-111721392D01*
X174878718Y-111768165D01*
X174836123Y-111541787D01*
X175221392Y-111541787D01*
X176022000Y-112342395D01*
X176822608Y-111541787D01*
X176753143Y-111299603D01*
X176229698Y-111112856D01*
X175674632Y-111140638D01*
X175290857Y-111299603D01*
X175221392Y-111541787D01*
X174836123Y-111541787D01*
X174835162Y-111536683D01*
X174696090Y-111320559D01*
X174483890Y-111175569D01*
X174232000Y-111124560D01*
X172732000Y-111124560D01*
X172496683Y-111168838D01*
X172280559Y-111307910D01*
X172135569Y-111520110D01*
X172084560Y-111772000D01*
X172084560Y-112667861D01*
X170313304Y-114439116D01*
X169905715Y-114438760D01*
X169396485Y-114649169D01*
X169006539Y-115038436D01*
X168795241Y-115547298D01*
X168794760Y-116098285D01*
X154800761Y-116098285D01*
X154801240Y-115549715D01*
X154590831Y-115040485D01*
X154201564Y-114650539D01*
X153692702Y-114439241D01*
X153141715Y-114438760D01*
X152632485Y-114649169D01*
X152342148Y-114939000D01*
X149972579Y-114939000D01*
X148771929Y-113738350D01*
X148775441Y-113736090D01*
X148920431Y-113523890D01*
X148924820Y-113502213D01*
X149313392Y-113502213D01*
X149382857Y-113744397D01*
X149906302Y-113931144D01*
X150461368Y-113903362D01*
X150845143Y-113744397D01*
X150914608Y-113502213D01*
X150114000Y-112701605D01*
X149313392Y-113502213D01*
X148924820Y-113502213D01*
X148970666Y-113275821D01*
X149133787Y-113322608D01*
X149934395Y-112522000D01*
X150293605Y-112522000D01*
X151094213Y-113322608D01*
X151336397Y-113253143D01*
X151499388Y-112796285D01*
X155332760Y-112796285D01*
X155543169Y-113305515D01*
X155932436Y-113695461D01*
X156441298Y-113906759D01*
X156992285Y-113907240D01*
X157501515Y-113696831D01*
X157861000Y-113337972D01*
X157861000Y-113398309D01*
X157957673Y-113631698D01*
X158136301Y-113810327D01*
X158369690Y-113907000D01*
X158972250Y-113907000D01*
X159131000Y-113748250D01*
X159131000Y-112649000D01*
X159111000Y-112649000D01*
X159111000Y-112395000D01*
X159131000Y-112395000D01*
X159131000Y-111295750D01*
X158972250Y-111137000D01*
X158369690Y-111137000D01*
X158136301Y-111233673D01*
X157957673Y-111412302D01*
X157861000Y-111645691D01*
X157861000Y-111706598D01*
X157603000Y-111448148D01*
X157603000Y-107554580D01*
X159433284Y-105724295D01*
X159870298Y-105905759D01*
X160421285Y-105906240D01*
X160930515Y-105695831D01*
X161163064Y-105463687D01*
X161393436Y-105694461D01*
X161902298Y-105905759D01*
X162453285Y-105906240D01*
X162962515Y-105695831D01*
X163199000Y-105459758D01*
X163199000Y-107329421D01*
X161172210Y-109356210D01*
X160980367Y-109643325D01*
X160980367Y-109643326D01*
X160912999Y-109982000D01*
X160913000Y-109982005D01*
X160913000Y-111448477D01*
X160655000Y-111706028D01*
X160655000Y-111645691D01*
X160558327Y-111412302D01*
X160379699Y-111233673D01*
X160146310Y-111137000D01*
X159543750Y-111137000D01*
X159385000Y-111295750D01*
X159385000Y-112395000D01*
X159405000Y-112395000D01*
X159405000Y-112649000D01*
X159385000Y-112649000D01*
X159385000Y-113748250D01*
X159543750Y-113907000D01*
X160146310Y-113907000D01*
X160379699Y-113810327D01*
X160558327Y-113631698D01*
X160655000Y-113398309D01*
X160655000Y-113337402D01*
X161012436Y-113695461D01*
X161521298Y-113906759D01*
X162072285Y-113907240D01*
X162581515Y-113696831D01*
X162941000Y-113337972D01*
X162941000Y-113398309D01*
X163037673Y-113631698D01*
X163216301Y-113810327D01*
X163449690Y-113907000D01*
X164052250Y-113907000D01*
X164211000Y-113748250D01*
X164211000Y-112649000D01*
X164191000Y-112649000D01*
X164191000Y-112395000D01*
X164211000Y-112395000D01*
X164211000Y-111295750D01*
X164052250Y-111137000D01*
X163449690Y-111137000D01*
X163216301Y-111233673D01*
X163037673Y-111412302D01*
X162941000Y-111645691D01*
X162941000Y-111706598D01*
X162683000Y-111448148D01*
X162683000Y-110348580D01*
X164709787Y-108321792D01*
X164709790Y-108321790D01*
X164901633Y-108034675D01*
X164921283Y-107935890D01*
X164969001Y-107696000D01*
X164969000Y-107695995D01*
X164969000Y-102108005D01*
X164969001Y-102108000D01*
X164901633Y-101769326D01*
X164901633Y-101769325D01*
X164709790Y-101482210D01*
X164709787Y-101482208D01*
X163563884Y-100336305D01*
X163564240Y-99928715D01*
X163353831Y-99419485D01*
X162964564Y-99029539D01*
X162455702Y-98818241D01*
X161904715Y-98817760D01*
X161395485Y-99028169D01*
X161162936Y-99260313D01*
X160932564Y-99029539D01*
X160423702Y-98818241D01*
X159872715Y-98817760D01*
X159363485Y-99028169D01*
X158973539Y-99417436D01*
X158762241Y-99926298D01*
X158761760Y-100477285D01*
X158972169Y-100986515D01*
X159361436Y-101376461D01*
X159870298Y-101587759D01*
X160421285Y-101588240D01*
X160930515Y-101377831D01*
X161163064Y-101145687D01*
X161393436Y-101376461D01*
X161902298Y-101587759D01*
X162312538Y-101588117D01*
X163199000Y-102474579D01*
X163199000Y-103582384D01*
X162964564Y-103347539D01*
X162455702Y-103136241D01*
X161904715Y-103135760D01*
X161395485Y-103346169D01*
X161162936Y-103578313D01*
X160932564Y-103347539D01*
X160423702Y-103136241D01*
X159872715Y-103135760D01*
X159363485Y-103346169D01*
X158973539Y-103735436D01*
X158964020Y-103758361D01*
X158957079Y-103762999D01*
X158759210Y-103895210D01*
X158759208Y-103895213D01*
X156092210Y-106562210D01*
X155900367Y-106849325D01*
X155900367Y-106849326D01*
X155832999Y-107188000D01*
X155833000Y-107188005D01*
X155833000Y-111448477D01*
X155544539Y-111736436D01*
X155333241Y-112245298D01*
X155332760Y-112796285D01*
X151499388Y-112796285D01*
X151523144Y-112729698D01*
X151495362Y-112174632D01*
X151336397Y-111790857D01*
X151094213Y-111721392D01*
X150293605Y-112522000D01*
X149934395Y-112522000D01*
X149133787Y-111721392D01*
X148970718Y-111768165D01*
X148928123Y-111541787D01*
X149313392Y-111541787D01*
X150114000Y-112342395D01*
X150914608Y-111541787D01*
X150845143Y-111299603D01*
X150321698Y-111112856D01*
X149766632Y-111140638D01*
X149382857Y-111299603D01*
X149313392Y-111541787D01*
X148928123Y-111541787D01*
X148927162Y-111536683D01*
X148788090Y-111320559D01*
X148575890Y-111175569D01*
X148324000Y-111124560D01*
X146824000Y-111124560D01*
X146588683Y-111168838D01*
X146372559Y-111307910D01*
X146227569Y-111520110D01*
X146176560Y-111772000D01*
X140331000Y-111772000D01*
X140331000Y-107046580D01*
X141251454Y-106126125D01*
X141454436Y-106329461D01*
X141686870Y-106425976D01*
X141456485Y-106521169D01*
X141066539Y-106910436D01*
X140855241Y-107419298D01*
X140854760Y-107970285D01*
X141065169Y-108479515D01*
X141454436Y-108869461D01*
X141686870Y-108965976D01*
X141456485Y-109061169D01*
X141066539Y-109450436D01*
X140855241Y-109959298D01*
X140854760Y-110510285D01*
X141065169Y-111019515D01*
X141454436Y-111409461D01*
X141963298Y-111620759D01*
X142514285Y-111621240D01*
X143023515Y-111410831D01*
X143313852Y-111121000D01*
X143452477Y-111121000D01*
X143740436Y-111409461D01*
X144249298Y-111620759D01*
X144800285Y-111621240D01*
X145309515Y-111410831D01*
X145699461Y-111021564D01*
X145910759Y-110512702D01*
X145911117Y-110102463D01*
X148194579Y-107819000D01*
X152043962Y-107819000D01*
X152062838Y-107919317D01*
X152201910Y-108135441D01*
X152414110Y-108280431D01*
X152666000Y-108331440D01*
X154166000Y-108331440D01*
X154401317Y-108287162D01*
X154617441Y-108148090D01*
X154762431Y-107935890D01*
X154813440Y-107684000D01*
X154813440Y-106184000D01*
X154769162Y-105948683D01*
X154630090Y-105732559D01*
X154417890Y-105587569D01*
X154166000Y-105536560D01*
X152666000Y-105536560D01*
X152430683Y-105580838D01*
X152214559Y-105719910D01*
X152069569Y-105932110D01*
X152045898Y-106049000D01*
X147828005Y-106049000D01*
X147828000Y-106048999D01*
X147522339Y-106109800D01*
X147489325Y-106116367D01*
X147202210Y-106308210D01*
X147202208Y-106308213D01*
X144659304Y-108851116D01*
X144251715Y-108850760D01*
X143742485Y-109061169D01*
X143452148Y-109351000D01*
X143313523Y-109351000D01*
X143025564Y-109062539D01*
X142793130Y-108966024D01*
X143023515Y-108870831D01*
X143413461Y-108481564D01*
X143624759Y-107972702D01*
X143625240Y-107421715D01*
X143414831Y-106912485D01*
X143025564Y-106522539D01*
X142793130Y-106426024D01*
X143023515Y-106330831D01*
X143413461Y-105941564D01*
X143624759Y-105432702D01*
X143625039Y-105111517D01*
X144496088Y-105111517D01*
X144564077Y-105352460D01*
X145083171Y-105537201D01*
X145633448Y-105509230D01*
X146011923Y-105352460D01*
X146079912Y-105111517D01*
X145288000Y-104319605D01*
X144496088Y-105111517D01*
X143625039Y-105111517D01*
X143625240Y-104881715D01*
X143414831Y-104372485D01*
X143025564Y-103982539D01*
X142911489Y-103935171D01*
X143890799Y-103935171D01*
X143918770Y-104485448D01*
X144075540Y-104863923D01*
X144316483Y-104931912D01*
X145108395Y-104140000D01*
X145467605Y-104140000D01*
X146259517Y-104931912D01*
X146500460Y-104863923D01*
X146685201Y-104344829D01*
X146657230Y-103794552D01*
X146500460Y-103416077D01*
X146259517Y-103348088D01*
X145467605Y-104140000D01*
X145108395Y-104140000D01*
X144316483Y-103348088D01*
X144075540Y-103416077D01*
X143890799Y-103935171D01*
X142911489Y-103935171D01*
X142809021Y-103892623D01*
X142963923Y-103828460D01*
X143031912Y-103587517D01*
X142240000Y-102795605D01*
X141448088Y-103587517D01*
X141516077Y-103828460D01*
X141682621Y-103887732D01*
X141456485Y-103981169D01*
X141166148Y-104271000D01*
X140970000Y-104271000D01*
X140631325Y-104338367D01*
X140344210Y-104530210D01*
X140344208Y-104530213D01*
X138820210Y-106054210D01*
X138628367Y-106341325D01*
X138628367Y-106341326D01*
X138560999Y-106680000D01*
X122122000Y-106680000D01*
X122122000Y-102411171D01*
X140842799Y-102411171D01*
X140870770Y-102961448D01*
X141027540Y-103339923D01*
X141268483Y-103407912D01*
X142060395Y-102616000D01*
X142419605Y-102616000D01*
X143211517Y-103407912D01*
X143452460Y-103339923D01*
X143513473Y-103168483D01*
X144496088Y-103168483D01*
X145288000Y-103960395D01*
X146079912Y-103168483D01*
X146011923Y-102927540D01*
X145492829Y-102742799D01*
X144942552Y-102770770D01*
X144564077Y-102927540D01*
X144496088Y-103168483D01*
X143513473Y-103168483D01*
X143637201Y-102820829D01*
X143609230Y-102270552D01*
X143452460Y-101892077D01*
X143211517Y-101824088D01*
X142419605Y-102616000D01*
X142060395Y-102616000D01*
X141268483Y-101824088D01*
X141027540Y-101892077D01*
X140842799Y-102411171D01*
X122122000Y-102411171D01*
X122122000Y-90698285D01*
X135266760Y-90698285D01*
X135477169Y-91207515D01*
X135866436Y-91597461D01*
X136375298Y-91808759D01*
X136926285Y-91809240D01*
X137435515Y-91598831D01*
X137825461Y-91209564D01*
X138036759Y-90700702D01*
X138037240Y-90149715D01*
X137826831Y-89640485D01*
X137437564Y-89250539D01*
X136928702Y-89039241D01*
X136377715Y-89038760D01*
X135868485Y-89249169D01*
X135478539Y-89638436D01*
X135267241Y-90147298D01*
X135266760Y-90698285D01*
X122122000Y-90698285D01*
X122122000Y-84750815D01*
X136548630Y-84750815D01*
X136872980Y-85535800D01*
X137473041Y-86136909D01*
X138257459Y-86462628D01*
X139106815Y-86463370D01*
X139891800Y-86139020D01*
X140492909Y-85538959D01*
X140818628Y-84754541D01*
X140819370Y-83905185D01*
X140495020Y-83120200D01*
X139894959Y-82519091D01*
X139110541Y-82193372D01*
X138261185Y-82192630D01*
X137476200Y-82516980D01*
X136875091Y-83117041D01*
X136549372Y-83901459D01*
X136548630Y-84750815D01*
X122122000Y-84750815D01*
X122122000Y-72084000D01*
X126492918Y-72084000D01*
X126310254Y-72229575D01*
X126310254Y-72229575D01*
G37*
X126310254Y-72229575D02*
X126255649Y-72294198D01*
X126189915Y-72347459D01*
X125689535Y-72949439D01*
X125644735Y-73032005D01*
X125586952Y-73106068D01*
X125386292Y-73504848D01*
X125373816Y-73549954D01*
X125349346Y-73589847D01*
X125339029Y-73654804D01*
X125313916Y-73715588D01*
X125214856Y-74215967D01*
X125214929Y-74296901D01*
X125199140Y-74376280D01*
X125199140Y-74975720D01*
X125218692Y-75074016D01*
X125223340Y-75174137D01*
X125421460Y-75974237D01*
X125434624Y-76002265D01*
X125438345Y-76033003D01*
X125502677Y-76147163D01*
X125558386Y-76265777D01*
X125581272Y-76286633D01*
X125596474Y-76313609D01*
X126198454Y-77014649D01*
X126259880Y-77062808D01*
X126310254Y-77122425D01*
X126810634Y-77521205D01*
X126908663Y-77571808D01*
X126999607Y-77634251D01*
X127698106Y-77933971D01*
X127703299Y-77935072D01*
X127707715Y-77938023D01*
X127860677Y-77968449D01*
X128013192Y-78000794D01*
X128018412Y-77999824D01*
X128023620Y-78000860D01*
X128823720Y-78000860D01*
X128952479Y-77975248D01*
X129082772Y-77959160D01*
X129682213Y-77761040D01*
X129735043Y-77731102D01*
X129793579Y-77714966D01*
X130395559Y-77412706D01*
X130499402Y-77331833D01*
X130608857Y-77258697D01*
X131106697Y-76760857D01*
X131167519Y-76669831D01*
X131239395Y-76587262D01*
X131640715Y-75886222D01*
X131663543Y-75818154D01*
X131700649Y-75756693D01*
X131712021Y-75681689D01*
X131738754Y-75610692D01*
X131837814Y-75011252D01*
X131835600Y-74943321D01*
X131848860Y-74876660D01*
X131848860Y-74277220D01*
X131823348Y-74148960D01*
X131807485Y-74019154D01*
X131609365Y-73417174D01*
X131563526Y-73336044D01*
X131531831Y-73248415D01*
X131229571Y-72748036D01*
X131162215Y-72674232D01*
X131106697Y-72591143D01*
X130608857Y-72093303D01*
X130594934Y-72084000D01*
X132922048Y-72084000D01*
X132922048Y-77911000D01*
X144937635Y-77911000D01*
X144919241Y-77955298D01*
X144918760Y-78506285D01*
X145129169Y-79015515D01*
X145518436Y-79405461D01*
X145750870Y-79501976D01*
X145520485Y-79597169D01*
X145130539Y-79986436D01*
X144919241Y-80495298D01*
X144918760Y-81046285D01*
X145129169Y-81555515D01*
X145518436Y-81945461D01*
X145750870Y-82041976D01*
X145520485Y-82137169D01*
X145130539Y-82526436D01*
X144919241Y-83035298D01*
X144918760Y-83586285D01*
X145129169Y-84095515D01*
X145518436Y-84485461D01*
X146027298Y-84696759D01*
X146578285Y-84697240D01*
X147087515Y-84486831D01*
X147377852Y-84197000D01*
X149130151Y-84197000D01*
X149193169Y-84349515D01*
X149582436Y-84739461D01*
X150091298Y-84950759D01*
X150642285Y-84951240D01*
X151151515Y-84740831D01*
X151355183Y-84537517D01*
X158466088Y-84537517D01*
X158534077Y-84778460D01*
X159053171Y-84963201D01*
X159603448Y-84935230D01*
X159981923Y-84778460D01*
X160049912Y-84537517D01*
X159258000Y-83745605D01*
X158466088Y-84537517D01*
X151355183Y-84537517D01*
X151541461Y-84351564D01*
X151752759Y-83842702D01*
X151753179Y-83361171D01*
X157860799Y-83361171D01*
X157888770Y-83911448D01*
X158045540Y-84289923D01*
X158286483Y-84357912D01*
X159078395Y-83566000D01*
X159437605Y-83566000D01*
X160229517Y-84357912D01*
X160470460Y-84289923D01*
X160655201Y-83770829D01*
X160627230Y-83220552D01*
X160470460Y-82842077D01*
X160229517Y-82774088D01*
X159437605Y-83566000D01*
X159078395Y-83566000D01*
X158286483Y-82774088D01*
X158045540Y-82842077D01*
X157860799Y-83361171D01*
X151753179Y-83361171D01*
X151753240Y-83291715D01*
X151542831Y-82782485D01*
X151355157Y-82594483D01*
X158466088Y-82594483D01*
X159258000Y-83386395D01*
X160049912Y-82594483D01*
X159981923Y-82353540D01*
X159462829Y-82168799D01*
X158912552Y-82196770D01*
X158534077Y-82353540D01*
X158466088Y-82594483D01*
X151355157Y-82594483D01*
X151153564Y-82392539D01*
X150644702Y-82181241D01*
X150093715Y-82180760D01*
X149584485Y-82391169D01*
X149548591Y-82427000D01*
X147377523Y-82427000D01*
X147089564Y-82138539D01*
X146857130Y-82042024D01*
X147087515Y-81946831D01*
X147377852Y-81657000D01*
X149548035Y-81657000D01*
X149582436Y-81691461D01*
X150091298Y-81902759D01*
X150642285Y-81903240D01*
X151151515Y-81692831D01*
X151541461Y-81303564D01*
X151752759Y-80794702D01*
X151752761Y-80792285D01*
X157872760Y-80792285D01*
X158083169Y-81301515D01*
X158472436Y-81691461D01*
X158981298Y-81902759D01*
X159532285Y-81903240D01*
X160041515Y-81692831D01*
X160431461Y-81303564D01*
X160642759Y-80794702D01*
X160643240Y-80243715D01*
X160432831Y-79734485D01*
X160043564Y-79344539D01*
X159534702Y-79133241D01*
X158983715Y-79132760D01*
X158474485Y-79343169D01*
X158084539Y-79732436D01*
X157873241Y-80241298D01*
X157872760Y-80792285D01*
X151752761Y-80792285D01*
X151753240Y-80243715D01*
X151542831Y-79734485D01*
X151153564Y-79344539D01*
X150644702Y-79133241D01*
X150093715Y-79132760D01*
X149584485Y-79343169D01*
X149194539Y-79732436D01*
X149130358Y-79887000D01*
X147377523Y-79887000D01*
X147089564Y-79598539D01*
X146857130Y-79502024D01*
X147087515Y-79406831D01*
X147477461Y-79017564D01*
X147688759Y-78508702D01*
X147689117Y-78098463D01*
X150886979Y-74900600D01*
X154031577Y-74900600D01*
X154319536Y-75189061D01*
X154828398Y-75400359D01*
X155379385Y-75400840D01*
X155888615Y-75190431D01*
X156278561Y-74801164D01*
X156375076Y-74568730D01*
X156470269Y-74799115D01*
X156821794Y-75151253D01*
X156827467Y-75179775D01*
X157001363Y-75440030D01*
X157019310Y-75466890D01*
X163207116Y-81654695D01*
X163206760Y-82062285D01*
X163388439Y-82501982D01*
X151390304Y-94500116D01*
X150982715Y-94499760D01*
X150473485Y-94710169D01*
X150083539Y-95099436D01*
X149872241Y-95608298D01*
X149871760Y-96159285D01*
X150082169Y-96668515D01*
X150372000Y-96958852D01*
X150372000Y-98226320D01*
X150114000Y-98174999D01*
X150113995Y-98175000D01*
X146361523Y-98175000D01*
X146073564Y-97886539D01*
X145564702Y-97675241D01*
X145013715Y-97674760D01*
X144504485Y-97885169D01*
X144214148Y-98175000D01*
X143474320Y-98175000D01*
X143624759Y-97812702D01*
X143625240Y-97261715D01*
X143414831Y-96752485D01*
X143025564Y-96362539D01*
X142793130Y-96266024D01*
X143023515Y-96170831D01*
X143413461Y-95781564D01*
X143624759Y-95272702D01*
X143625240Y-94721715D01*
X143414831Y-94212485D01*
X143045909Y-93842920D01*
X143225317Y-93809162D01*
X143441441Y-93670090D01*
X143586431Y-93457890D01*
X143637440Y-93206000D01*
X143637440Y-91706000D01*
X143593162Y-91470683D01*
X143454090Y-91254559D01*
X143241890Y-91109569D01*
X142990000Y-91058560D01*
X141490000Y-91058560D01*
X141254683Y-91102838D01*
X141038559Y-91241910D01*
X140893569Y-91454110D01*
X140842560Y-91706000D01*
X140842560Y-93206000D01*
X140886838Y-93441317D01*
X141025910Y-93657441D01*
X141238110Y-93802431D01*
X141435262Y-93842355D01*
X141066539Y-94210436D01*
X140855241Y-94719298D01*
X140854760Y-95270285D01*
X141065169Y-95779515D01*
X141454436Y-96169461D01*
X141686870Y-96265976D01*
X141456485Y-96361169D01*
X141066539Y-96750436D01*
X140855241Y-97259298D01*
X140854760Y-97810285D01*
X141065169Y-98319515D01*
X141454436Y-98709461D01*
X141686870Y-98805976D01*
X141456485Y-98901169D01*
X141066539Y-99290436D01*
X140855241Y-99799298D01*
X140854760Y-100350285D01*
X141065169Y-100859515D01*
X141454436Y-101249461D01*
X141670979Y-101339377D01*
X141516077Y-101403540D01*
X141448088Y-101644483D01*
X142240000Y-102436395D01*
X143031912Y-101644483D01*
X142963923Y-101403540D01*
X142797379Y-101344268D01*
X143023515Y-101250831D01*
X143413461Y-100861564D01*
X143624759Y-100352702D01*
X143625115Y-99945000D01*
X144214477Y-99945000D01*
X144502436Y-100233461D01*
X145011298Y-100444759D01*
X145562285Y-100445240D01*
X146071515Y-100234831D01*
X146361852Y-99945000D01*
X149747420Y-99945000D01*
X149872116Y-100069695D01*
X149871760Y-100477285D01*
X150082169Y-100986515D01*
X150372000Y-101276852D01*
X150372000Y-103447477D01*
X150083539Y-103735436D01*
X149872241Y-104244298D01*
X149871760Y-104795285D01*
X150082169Y-105304515D01*
X150471436Y-105694461D01*
X150980298Y-105905759D01*
X151531285Y-105906240D01*
X152040515Y-105695831D01*
X152430461Y-105306564D01*
X152641759Y-104797702D01*
X152642240Y-104246715D01*
X152431831Y-103737485D01*
X152142000Y-103447148D01*
X152142000Y-101276523D01*
X152430461Y-100988564D01*
X152641759Y-100479702D01*
X152642240Y-99928715D01*
X152431831Y-99419485D01*
X152142000Y-99129148D01*
X152142000Y-96958523D01*
X152430461Y-96670564D01*
X152641759Y-96161702D01*
X152642117Y-95751463D01*
X165217787Y-83175792D01*
X165217790Y-83175790D01*
X165354199Y-82971639D01*
X165375515Y-82962831D01*
X165579183Y-82759517D01*
X166340088Y-82759517D01*
X166408077Y-83000460D01*
X166927171Y-83185201D01*
X167477448Y-83157230D01*
X167855923Y-83000460D01*
X167923912Y-82759517D01*
X167132000Y-81967605D01*
X166340088Y-82759517D01*
X165579183Y-82759517D01*
X165765461Y-82573564D01*
X165855377Y-82357021D01*
X165919540Y-82511923D01*
X166160483Y-82579912D01*
X166952395Y-81788000D01*
X166938253Y-81773858D01*
X167117858Y-81594253D01*
X167132000Y-81608395D01*
X167146143Y-81594253D01*
X167325748Y-81773858D01*
X167311605Y-81788000D01*
X168103517Y-82579912D01*
X168344460Y-82511923D01*
X168403732Y-82345379D01*
X168497169Y-82571515D01*
X168886436Y-82961461D01*
X169395298Y-83172759D01*
X169946285Y-83173240D01*
X170455515Y-82962831D01*
X170845461Y-82573564D01*
X170935377Y-82357021D01*
X170999540Y-82511923D01*
X171240483Y-82579912D01*
X172032395Y-81788000D01*
X172018253Y-81773858D01*
X172197858Y-81594253D01*
X172212000Y-81608395D01*
X172226143Y-81594253D01*
X172405748Y-81773858D01*
X172391605Y-81788000D01*
X173183517Y-82579912D01*
X173424460Y-82511923D01*
X173483732Y-82345379D01*
X173577169Y-82571515D01*
X173940021Y-82935000D01*
X172954394Y-82935000D01*
X173003912Y-82759517D01*
X172212000Y-81967605D01*
X171420088Y-82759517D01*
X171482063Y-82979146D01*
X171365325Y-83002367D01*
X171078210Y-83194210D01*
X171078208Y-83194213D01*
X166506210Y-87766210D01*
X166314367Y-88053325D01*
X166314367Y-88053326D01*
X166261276Y-88320226D01*
X165978920Y-88602091D01*
X165945162Y-88422683D01*
X165806090Y-88206559D01*
X165593890Y-88061569D01*
X165342000Y-88010560D01*
X163842000Y-88010560D01*
X163606683Y-88054838D01*
X163390559Y-88193910D01*
X163245569Y-88406110D01*
X163194560Y-88658000D01*
X163194560Y-90158000D01*
X163238838Y-90393317D01*
X163377910Y-90609441D01*
X163590110Y-90754431D01*
X163707000Y-90778102D01*
X163707000Y-96461039D01*
X163524452Y-96256364D01*
X163563759Y-96161702D01*
X163564240Y-95610715D01*
X163353831Y-95101485D01*
X162964564Y-94711539D01*
X162455702Y-94500241D01*
X161904715Y-94499760D01*
X161395485Y-94710169D01*
X161162936Y-94942313D01*
X160932564Y-94711539D01*
X160423702Y-94500241D01*
X159872715Y-94499760D01*
X159363485Y-94710169D01*
X158973539Y-95099436D01*
X158762241Y-95608298D01*
X158761760Y-96159285D01*
X158972169Y-96668515D01*
X159361436Y-97058461D01*
X159870298Y-97269759D01*
X160421285Y-97270240D01*
X160930515Y-97059831D01*
X161163064Y-96827687D01*
X161393436Y-97058461D01*
X161902298Y-97269759D01*
X162056697Y-97269894D01*
X165993000Y-101683325D01*
X165993000Y-111448477D01*
X165735000Y-111706028D01*
X165735000Y-111645691D01*
X165638327Y-111412302D01*
X165459699Y-111233673D01*
X165226310Y-111137000D01*
X164623750Y-111137000D01*
X164465000Y-111295750D01*
X164465000Y-112395000D01*
X164485000Y-112395000D01*
X164485000Y-112649000D01*
X164465000Y-112649000D01*
X164465000Y-113748250D01*
X164623750Y-113907000D01*
X165226310Y-113907000D01*
X165459699Y-113810327D01*
X165638327Y-113631698D01*
X165735000Y-113398309D01*
X165735000Y-113337402D01*
X166092436Y-113695461D01*
X166601298Y-113906759D01*
X167152285Y-113907240D01*
X167661515Y-113696831D01*
X168051461Y-113307564D01*
X168262759Y-112798702D01*
X168263240Y-112247715D01*
X168052831Y-111738485D01*
X167763000Y-111448148D01*
X167763000Y-110953517D01*
X181072088Y-110953517D01*
X181140077Y-111194460D01*
X181659171Y-111379201D01*
X182209448Y-111351230D01*
X182587923Y-111194460D01*
X182655912Y-110953517D01*
X181864000Y-110161605D01*
X181072088Y-110953517D01*
X167763000Y-110953517D01*
X167763000Y-109777171D01*
X180466799Y-109777171D01*
X180494770Y-110327448D01*
X180651540Y-110705923D01*
X180892483Y-110773912D01*
X181684395Y-109982000D01*
X182043605Y-109982000D01*
X182835517Y-110773912D01*
X183076460Y-110705923D01*
X183261201Y-110186829D01*
X183233230Y-109636552D01*
X183076460Y-109258077D01*
X182835517Y-109190088D01*
X182043605Y-109982000D01*
X181684395Y-109982000D01*
X180892483Y-109190088D01*
X180651540Y-109258077D01*
X180466799Y-109777171D01*
X167763000Y-109777171D01*
X167763000Y-109010483D01*
X181072088Y-109010483D01*
X181864000Y-109802395D01*
X182655912Y-109010483D01*
X182587923Y-108769540D01*
X182068829Y-108584799D01*
X181518552Y-108612770D01*
X181140077Y-108769540D01*
X181072088Y-109010483D01*
X167763000Y-109010483D01*
X167763000Y-101346000D01*
X167734152Y-101200970D01*
X167728733Y-101162312D01*
X170098875Y-103532454D01*
X169895539Y-103735436D01*
X169684241Y-104244298D01*
X169683760Y-104795285D01*
X169894169Y-105304515D01*
X170138191Y-105548963D01*
X169905715Y-105548760D01*
X169396485Y-105759169D01*
X169006539Y-106148436D01*
X168795241Y-106657298D01*
X168794760Y-107208285D01*
X169005169Y-107717515D01*
X169394436Y-108107461D01*
X169903298Y-108318759D01*
X170454285Y-108319240D01*
X170963515Y-108108831D01*
X171353461Y-107719564D01*
X171564759Y-107210702D01*
X171565240Y-106659715D01*
X171354831Y-106150485D01*
X171110809Y-105906037D01*
X171343285Y-105906240D01*
X171852515Y-105695831D01*
X172085064Y-105463687D01*
X172315436Y-105694461D01*
X172824298Y-105905759D01*
X173375285Y-105906240D01*
X173884515Y-105695831D01*
X174088183Y-105492517D01*
X177389088Y-105492517D01*
X177457077Y-105733460D01*
X177976171Y-105918201D01*
X178526448Y-105890230D01*
X178904923Y-105733460D01*
X178972912Y-105492517D01*
X178181000Y-104700605D01*
X177389088Y-105492517D01*
X174088183Y-105492517D01*
X174274461Y-105306564D01*
X174485759Y-104797702D01*
X174486179Y-104316171D01*
X176783799Y-104316171D01*
X176811770Y-104866448D01*
X176968540Y-105244923D01*
X177209483Y-105312912D01*
X178001395Y-104521000D01*
X178360605Y-104521000D01*
X179152517Y-105312912D01*
X179393460Y-105244923D01*
X179578201Y-104725829D01*
X179550230Y-104175552D01*
X179393460Y-103797077D01*
X179152517Y-103729088D01*
X178360605Y-104521000D01*
X178001395Y-104521000D01*
X177209483Y-103729088D01*
X176968540Y-103797077D01*
X176783799Y-104316171D01*
X174486179Y-104316171D01*
X174486240Y-104246715D01*
X174275831Y-103737485D01*
X174088157Y-103549483D01*
X177389088Y-103549483D01*
X178181000Y-104341395D01*
X178972912Y-103549483D01*
X178904923Y-103308540D01*
X178385829Y-103123799D01*
X177835552Y-103151770D01*
X177457077Y-103308540D01*
X177389088Y-103549483D01*
X174088157Y-103549483D01*
X173886564Y-103347539D01*
X173377702Y-103136241D01*
X172826715Y-103135760D01*
X172317485Y-103346169D01*
X172084936Y-103578313D01*
X171954000Y-103447148D01*
X171954000Y-103251005D01*
X171954001Y-103251000D01*
X171886633Y-102912325D01*
X171694790Y-102625210D01*
X171694787Y-102625208D01*
X170561504Y-101491925D01*
X170792298Y-101587759D01*
X171343285Y-101588240D01*
X171852515Y-101377831D01*
X172085064Y-101145687D01*
X172315436Y-101376461D01*
X172824298Y-101587759D01*
X173375285Y-101588240D01*
X173884515Y-101377831D01*
X174088183Y-101174517D01*
X177389088Y-101174517D01*
X177457077Y-101415460D01*
X177976171Y-101600201D01*
X178526448Y-101572230D01*
X178904923Y-101415460D01*
X178972912Y-101174517D01*
X178181000Y-100382605D01*
X177389088Y-101174517D01*
X174088183Y-101174517D01*
X174274461Y-100988564D01*
X174485759Y-100479702D01*
X174486179Y-99998171D01*
X176783799Y-99998171D01*
X176811770Y-100548448D01*
X176968540Y-100926923D01*
X177209483Y-100994912D01*
X178001395Y-100203000D01*
X178360605Y-100203000D01*
X179152517Y-100994912D01*
X179393460Y-100926923D01*
X179578201Y-100407829D01*
X179550230Y-99857552D01*
X179393460Y-99479077D01*
X179152517Y-99411088D01*
X178360605Y-100203000D01*
X178001395Y-100203000D01*
X177209483Y-99411088D01*
X176968540Y-99479077D01*
X176783799Y-99998171D01*
X174486179Y-99998171D01*
X174486240Y-99928715D01*
X174275831Y-99419485D01*
X174088157Y-99231483D01*
X177389088Y-99231483D01*
X178181000Y-100023395D01*
X178972912Y-99231483D01*
X178904923Y-98990540D01*
X178385829Y-98805799D01*
X177835552Y-98833770D01*
X177457077Y-98990540D01*
X177389088Y-99231483D01*
X174088157Y-99231483D01*
X173886564Y-99029539D01*
X173377702Y-98818241D01*
X172826715Y-98817760D01*
X172317485Y-99028169D01*
X172084936Y-99260313D01*
X171854564Y-99029539D01*
X171345702Y-98818241D01*
X170935462Y-98817883D01*
X169795000Y-97677420D01*
X169795000Y-96428507D01*
X169894169Y-96668515D01*
X170283436Y-97058461D01*
X170792298Y-97269759D01*
X171343285Y-97270240D01*
X171852515Y-97059831D01*
X172085064Y-96827687D01*
X172315436Y-97058461D01*
X172824298Y-97269759D01*
X173375285Y-97270240D01*
X173884515Y-97059831D01*
X174088183Y-96856517D01*
X177389088Y-96856517D01*
X177457077Y-97097460D01*
X177976171Y-97282201D01*
X178526448Y-97254230D01*
X178904923Y-97097460D01*
X178972912Y-96856517D01*
X178181000Y-96064605D01*
X177389088Y-96856517D01*
X174088183Y-96856517D01*
X174274461Y-96670564D01*
X174485759Y-96161702D01*
X174486117Y-95751462D01*
X174557408Y-95680171D01*
X176783799Y-95680171D01*
X176811770Y-96230448D01*
X176968540Y-96608923D01*
X177209483Y-96676912D01*
X178001395Y-95885000D01*
X178360605Y-95885000D01*
X179152517Y-96676912D01*
X179393460Y-96608923D01*
X179578201Y-96089829D01*
X179550230Y-95539552D01*
X179393460Y-95161077D01*
X179152517Y-95093088D01*
X178360605Y-95885000D01*
X178001395Y-95885000D01*
X177209483Y-95093088D01*
X176968540Y-95161077D01*
X176783799Y-95680171D01*
X174557408Y-95680171D01*
X175324096Y-94913483D01*
X177389088Y-94913483D01*
X178181000Y-95705395D01*
X178972912Y-94913483D01*
X178904923Y-94672540D01*
X178385829Y-94487799D01*
X177835552Y-94515770D01*
X177457077Y-94672540D01*
X177389088Y-94913483D01*
X175324096Y-94913483D01*
X175377787Y-94859792D01*
X175377790Y-94859790D01*
X175569633Y-94572675D01*
X175569634Y-94572674D01*
X175637001Y-94234000D01*
X175637000Y-94233995D01*
X175637000Y-90481523D01*
X175925461Y-90193564D01*
X176021976Y-89961130D01*
X176117169Y-90191515D01*
X176506436Y-90581461D01*
X177015298Y-90792759D01*
X177566285Y-90793240D01*
X178075515Y-90582831D01*
X178279183Y-90379517D01*
X179040088Y-90379517D01*
X179108077Y-90620460D01*
X179627171Y-90805201D01*
X180177448Y-90777230D01*
X180555923Y-90620460D01*
X180623912Y-90379517D01*
X179832000Y-89587605D01*
X179040088Y-90379517D01*
X178279183Y-90379517D01*
X178465461Y-90193564D01*
X178555377Y-89977021D01*
X178619540Y-90131923D01*
X178860483Y-90199912D01*
X179652395Y-89408000D01*
X178860483Y-88616088D01*
X178619540Y-88684077D01*
X178560268Y-88850621D01*
X178466831Y-88624485D01*
X178389031Y-88546549D01*
X178499096Y-88436483D01*
X179040088Y-88436483D01*
X179832000Y-89228395D01*
X180623912Y-88436483D01*
X180555923Y-88195540D01*
X180036829Y-88010799D01*
X179486552Y-88038770D01*
X179108077Y-88195540D01*
X179040088Y-88436483D01*
X178499096Y-88436483D01*
X180706579Y-86229000D01*
X180929113Y-86229000D01*
X180928838Y-86545167D01*
X180979000Y-86666569D01*
X180979000Y-88665606D01*
X180803517Y-88616088D01*
X180011605Y-89408000D01*
X180803517Y-90199912D01*
X180979000Y-90150394D01*
X180979000Y-100018477D01*
X180690539Y-100306436D01*
X180479241Y-100815298D01*
X180478760Y-101366285D01*
X180689169Y-101875515D01*
X180979000Y-102165852D01*
X180979000Y-102361995D01*
X180978999Y-102362000D01*
X181029524Y-102616000D01*
X181046367Y-102700675D01*
X181220609Y-102961448D01*
X181238210Y-102987790D01*
X183524208Y-105273787D01*
X183524210Y-105273790D01*
X183758423Y-105430285D01*
X183811325Y-105465633D01*
X184150000Y-105533001D01*
X184150005Y-105533000D01*
X185823420Y-105533000D01*
X184540210Y-106816210D01*
X184348367Y-107103325D01*
X184348367Y-107103326D01*
X184280999Y-107442000D01*
X184281000Y-107442005D01*
X184281000Y-108908477D01*
X183992539Y-109196436D01*
X183781241Y-109705298D01*
X183780760Y-110256285D01*
X183991169Y-110765515D01*
X184380436Y-111155461D01*
X184889298Y-111366759D01*
X185440285Y-111367240D01*
X185949515Y-111156831D01*
X186331260Y-110775750D01*
X208931000Y-110775750D01*
X208931000Y-111616309D01*
X209027673Y-111849698D01*
X209206301Y-112028327D01*
X209439690Y-112125000D01*
X210280250Y-112125000D01*
X210439000Y-111966250D01*
X210439000Y-110617000D01*
X210693000Y-110617000D01*
X210693000Y-111966250D01*
X210851750Y-112125000D01*
X211692310Y-112125000D01*
X211925699Y-112028327D01*
X212104327Y-111849698D01*
X212201000Y-111616309D01*
X212201000Y-110775750D01*
X217059000Y-110775750D01*
X217059000Y-111616309D01*
X217155673Y-111849698D01*
X217334301Y-112028327D01*
X217567690Y-112125000D01*
X218408250Y-112125000D01*
X218567000Y-111966250D01*
X218567000Y-110617000D01*
X217217750Y-110617000D01*
X217059000Y-110775750D01*
X212201000Y-110775750D01*
X212042250Y-110617000D01*
X210693000Y-110617000D01*
X210439000Y-110617000D01*
X209089750Y-110617000D01*
X208931000Y-110775750D01*
X186331260Y-110775750D01*
X186339461Y-110767564D01*
X186550759Y-110258702D01*
X186551240Y-109707715D01*
X186409093Y-109363691D01*
X208931000Y-109363691D01*
X208931000Y-110204250D01*
X209089750Y-110363000D01*
X210439000Y-110363000D01*
X210439000Y-109013750D01*
X210693000Y-109013750D01*
X210693000Y-110363000D01*
X212042250Y-110363000D01*
X212201000Y-110204250D01*
X212201000Y-109363691D01*
X217059000Y-109363691D01*
X217059000Y-110204250D01*
X217217750Y-110363000D01*
X218567000Y-110363000D01*
X218567000Y-109013750D01*
X218408250Y-108855000D01*
X217567690Y-108855000D01*
X217334301Y-108951673D01*
X217155673Y-109130302D01*
X217059000Y-109363691D01*
X212201000Y-109363691D01*
X212104327Y-109130302D01*
X211925699Y-108951673D01*
X211692310Y-108855000D01*
X210851750Y-108855000D01*
X210693000Y-109013750D01*
X210439000Y-109013750D01*
X210280250Y-108855000D01*
X209439690Y-108855000D01*
X209206301Y-108951673D01*
X209027673Y-109130302D01*
X208931000Y-109363691D01*
X186409093Y-109363691D01*
X186340831Y-109198485D01*
X186051000Y-108908148D01*
X186051000Y-107808580D01*
X187814139Y-106045440D01*
X189218000Y-106045440D01*
X189453317Y-106001162D01*
X189669441Y-105862090D01*
X189814431Y-105649890D01*
X189820581Y-105619517D01*
X190216088Y-105619517D01*
X190284077Y-105860460D01*
X190803171Y-106045201D01*
X191353448Y-106017230D01*
X191731923Y-105860460D01*
X191799912Y-105619517D01*
X191008000Y-104827605D01*
X190216088Y-105619517D01*
X189820581Y-105619517D01*
X189865440Y-105398000D01*
X189865440Y-105391647D01*
X190036483Y-105439912D01*
X190828395Y-104648000D01*
X191187605Y-104648000D01*
X191979517Y-105439912D01*
X192220460Y-105371923D01*
X192237225Y-105324815D01*
X204620630Y-105324815D01*
X204944980Y-106109800D01*
X205545041Y-106710909D01*
X206329459Y-107036628D01*
X207178815Y-107037370D01*
X207963800Y-106713020D01*
X208564909Y-106112959D01*
X208890628Y-105328541D01*
X208891370Y-104479185D01*
X208567020Y-103694200D01*
X207966959Y-103093091D01*
X207182541Y-102767372D01*
X206333185Y-102766630D01*
X205548200Y-103090980D01*
X204947091Y-103691041D01*
X204621372Y-104475459D01*
X204620630Y-105324815D01*
X192237225Y-105324815D01*
X192405201Y-104852829D01*
X192377230Y-104302552D01*
X192220460Y-103924077D01*
X191979517Y-103856088D01*
X191187605Y-104648000D01*
X190828395Y-104648000D01*
X190036483Y-103856088D01*
X189865440Y-103904353D01*
X189865440Y-103898000D01*
X189823759Y-103676483D01*
X190216088Y-103676483D01*
X191008000Y-104468395D01*
X191799912Y-103676483D01*
X191731923Y-103435540D01*
X191212829Y-103250799D01*
X190662552Y-103278770D01*
X190284077Y-103435540D01*
X190216088Y-103676483D01*
X189823759Y-103676483D01*
X189821162Y-103662683D01*
X189682090Y-103446559D01*
X189469890Y-103301569D01*
X189218000Y-103250560D01*
X187718000Y-103250560D01*
X187482683Y-103294838D01*
X187266559Y-103433910D01*
X187121569Y-103646110D01*
X187097898Y-103763000D01*
X184516579Y-103763000D01*
X182834125Y-102080546D01*
X183037461Y-101877564D01*
X183248759Y-101368702D01*
X183249240Y-100817715D01*
X183038831Y-100308485D01*
X182749000Y-100018148D01*
X182749000Y-99926580D01*
X183781116Y-100958695D01*
X183780760Y-101366285D01*
X183991169Y-101875515D01*
X184380436Y-102265461D01*
X184889298Y-102476759D01*
X185440285Y-102477240D01*
X185949515Y-102266831D01*
X186339461Y-101877564D01*
X186550759Y-101368702D01*
X186551240Y-100817715D01*
X186340831Y-100308485D01*
X186317903Y-100285517D01*
X213076088Y-100285517D01*
X213144077Y-100526460D01*
X213663171Y-100711201D01*
X214213448Y-100683230D01*
X214591923Y-100526460D01*
X214659912Y-100285517D01*
X213868000Y-99493605D01*
X213076088Y-100285517D01*
X186317903Y-100285517D01*
X185951564Y-99918539D01*
X185442702Y-99707241D01*
X185032462Y-99706883D01*
X184434751Y-99109171D01*
X212470799Y-99109171D01*
X212498770Y-99659448D01*
X212655540Y-100037923D01*
X212896483Y-100105912D01*
X213688395Y-99314000D01*
X214047605Y-99314000D01*
X214839517Y-100105912D01*
X215080460Y-100037923D01*
X215265201Y-99518829D01*
X215237230Y-98968552D01*
X215080460Y-98590077D01*
X214839517Y-98522088D01*
X214047605Y-99314000D01*
X213688395Y-99314000D01*
X212896483Y-98522088D01*
X212655540Y-98590077D01*
X212470799Y-99109171D01*
X184434751Y-99109171D01*
X184019000Y-98693420D01*
X184019000Y-98342483D01*
X213076088Y-98342483D01*
X213868000Y-99134395D01*
X214659912Y-98342483D01*
X214591923Y-98101540D01*
X214072829Y-97916799D01*
X213522552Y-97944770D01*
X213144077Y-98101540D01*
X213076088Y-98342483D01*
X184019000Y-98342483D01*
X184019000Y-96413285D01*
X184669760Y-96413285D01*
X184880169Y-96922515D01*
X185269436Y-97312461D01*
X185778298Y-97523759D01*
X186329285Y-97524240D01*
X186838515Y-97313831D01*
X187228461Y-96924564D01*
X187324976Y-96692130D01*
X187420169Y-96922515D01*
X187809436Y-97312461D01*
X188318298Y-97523759D01*
X188869285Y-97524240D01*
X189378515Y-97313831D01*
X189768461Y-96924564D01*
X189864976Y-96692130D01*
X189960169Y-96922515D01*
X190349436Y-97312461D01*
X190858298Y-97523759D01*
X191409285Y-97524240D01*
X191918515Y-97313831D01*
X192308461Y-96924564D01*
X192404976Y-96692130D01*
X192500169Y-96922515D01*
X192889436Y-97312461D01*
X193398298Y-97523759D01*
X193949285Y-97524240D01*
X194458515Y-97313831D01*
X194848461Y-96924564D01*
X194944976Y-96692130D01*
X195040169Y-96922515D01*
X195429436Y-97312461D01*
X195938298Y-97523759D01*
X196489285Y-97524240D01*
X196998515Y-97313831D01*
X197388461Y-96924564D01*
X197484976Y-96692130D01*
X197580169Y-96922515D01*
X197969436Y-97312461D01*
X198478298Y-97523759D01*
X199029285Y-97524240D01*
X199538515Y-97313831D01*
X199928461Y-96924564D01*
X200024976Y-96692130D01*
X200120169Y-96922515D01*
X200509436Y-97312461D01*
X201018298Y-97523759D01*
X201569285Y-97524240D01*
X202078515Y-97313831D01*
X202468461Y-96924564D01*
X202564976Y-96692130D01*
X202660169Y-96922515D01*
X203049436Y-97312461D01*
X203558298Y-97523759D01*
X204109285Y-97524240D01*
X204618515Y-97313831D01*
X205008461Y-96924564D01*
X205104976Y-96692130D01*
X205200169Y-96922515D01*
X205589436Y-97312461D01*
X206098298Y-97523759D01*
X206649285Y-97524240D01*
X207158515Y-97313831D01*
X207548461Y-96924564D01*
X207644976Y-96692130D01*
X207740169Y-96922515D01*
X208129436Y-97312461D01*
X208638298Y-97523759D01*
X209189285Y-97524240D01*
X209698515Y-97313831D01*
X210088461Y-96924564D01*
X210184976Y-96692130D01*
X210280169Y-96922515D01*
X210669436Y-97312461D01*
X211178298Y-97523759D01*
X211729285Y-97524240D01*
X212238515Y-97313831D01*
X212628461Y-96924564D01*
X212724976Y-96692130D01*
X212820169Y-96922515D01*
X213209436Y-97312461D01*
X213718298Y-97523759D01*
X214269285Y-97524240D01*
X214778515Y-97313831D01*
X214982183Y-97110517D01*
X215743088Y-97110517D01*
X215811077Y-97351460D01*
X216330171Y-97536201D01*
X216880448Y-97508230D01*
X217258923Y-97351460D01*
X217326912Y-97110517D01*
X216535000Y-96318605D01*
X215743088Y-97110517D01*
X214982183Y-97110517D01*
X215168461Y-96924564D01*
X215258377Y-96708021D01*
X215322540Y-96862923D01*
X215563483Y-96930912D01*
X216355395Y-96139000D01*
X215563483Y-95347088D01*
X215322540Y-95415077D01*
X215263268Y-95581621D01*
X215169831Y-95355485D01*
X214982157Y-95167483D01*
X215743088Y-95167483D01*
X216535000Y-95959395D01*
X217326912Y-95167483D01*
X217258923Y-94926540D01*
X216739829Y-94741799D01*
X216189552Y-94769770D01*
X215811077Y-94926540D01*
X215743088Y-95167483D01*
X214982157Y-95167483D01*
X214780564Y-94965539D01*
X214271702Y-94754241D01*
X213720715Y-94753760D01*
X213211485Y-94964169D01*
X212821539Y-95353436D01*
X212725024Y-95585870D01*
X212629831Y-95355485D01*
X212240564Y-94965539D01*
X211731702Y-94754241D01*
X211180715Y-94753760D01*
X210671485Y-94964169D01*
X210281539Y-95353436D01*
X210185024Y-95585870D01*
X210089831Y-95355485D01*
X209700564Y-94965539D01*
X209191702Y-94754241D01*
X208640715Y-94753760D01*
X208131485Y-94964169D01*
X207741539Y-95353436D01*
X207645024Y-95585870D01*
X207549831Y-95355485D01*
X207160564Y-94965539D01*
X206651702Y-94754241D01*
X206100715Y-94753760D01*
X205591485Y-94964169D01*
X205201539Y-95353436D01*
X205105024Y-95585870D01*
X205009831Y-95355485D01*
X204620564Y-94965539D01*
X204111702Y-94754241D01*
X203560715Y-94753760D01*
X203051485Y-94964169D01*
X202661539Y-95353436D01*
X202565024Y-95585870D01*
X202469831Y-95355485D01*
X202080564Y-94965539D01*
X201571702Y-94754241D01*
X201020715Y-94753760D01*
X200511485Y-94964169D01*
X200121539Y-95353436D01*
X200025024Y-95585870D01*
X199929831Y-95355485D01*
X199540564Y-94965539D01*
X199031702Y-94754241D01*
X198480715Y-94753760D01*
X197971485Y-94964169D01*
X197581539Y-95353436D01*
X197485024Y-95585870D01*
X197389831Y-95355485D01*
X197000564Y-94965539D01*
X196491702Y-94754241D01*
X195940715Y-94753760D01*
X195431485Y-94964169D01*
X195041539Y-95353436D01*
X194945024Y-95585870D01*
X194849831Y-95355485D01*
X194460564Y-94965539D01*
X193951702Y-94754241D01*
X193400715Y-94753760D01*
X192891485Y-94964169D01*
X192501539Y-95353436D01*
X192405024Y-95585870D01*
X192309831Y-95355485D01*
X191920564Y-94965539D01*
X191411702Y-94754241D01*
X190860715Y-94753760D01*
X190351485Y-94964169D01*
X189961539Y-95353436D01*
X189865024Y-95585870D01*
X189769831Y-95355485D01*
X189380564Y-94965539D01*
X188871702Y-94754241D01*
X188320715Y-94753760D01*
X187811485Y-94964169D01*
X187421539Y-95353436D01*
X187325024Y-95585870D01*
X187229831Y-95355485D01*
X186840564Y-94965539D01*
X186331702Y-94754241D01*
X185780715Y-94753760D01*
X185271485Y-94964169D01*
X184881539Y-95353436D01*
X184670241Y-95862298D01*
X184669760Y-96413285D01*
X184019000Y-96413285D01*
X184019000Y-94854580D01*
X185278579Y-93595000D01*
X194564000Y-93595000D01*
X194707289Y-93566498D01*
X194852076Y-93546802D01*
X194875773Y-93532984D01*
X194902675Y-93527633D01*
X195024160Y-93446460D01*
X195150378Y-93372862D01*
X201528417Y-87730750D01*
X201696943Y-87661117D01*
X201960192Y-87398327D01*
X202102838Y-87054799D01*
X202103162Y-86682833D01*
X201961117Y-86339057D01*
X201851252Y-86229000D01*
X207009995Y-86229000D01*
X207010000Y-86229001D01*
X207292484Y-86172810D01*
X207348675Y-86161633D01*
X207635790Y-85969790D01*
X207635791Y-85969789D01*
X211321695Y-82283884D01*
X211729285Y-82284240D01*
X212238515Y-82073831D01*
X212628461Y-81684564D01*
X212724976Y-81452130D01*
X212820169Y-81682515D01*
X213209436Y-82072461D01*
X213718298Y-82283759D01*
X214269285Y-82284240D01*
X214778515Y-82073831D01*
X215168461Y-81684564D01*
X215264976Y-81452130D01*
X215360169Y-81682515D01*
X215749436Y-82072461D01*
X216258298Y-82283759D01*
X216809285Y-82284240D01*
X217318515Y-82073831D01*
X217690000Y-81702993D01*
X217690000Y-81775309D01*
X217786673Y-82008698D01*
X217965301Y-82187327D01*
X218198690Y-82284000D01*
X218789250Y-82284000D01*
X218948000Y-82125250D01*
X218948000Y-81026000D01*
X218928000Y-81026000D01*
X218928000Y-80772000D01*
X218948000Y-80772000D01*
X218948000Y-79672750D01*
X218789250Y-79514000D01*
X218198690Y-79514000D01*
X217965301Y-79610673D01*
X217786673Y-79789302D01*
X217690000Y-80022691D01*
X217690000Y-80095619D01*
X217320564Y-79725539D01*
X216811702Y-79514241D01*
X216260715Y-79513760D01*
X215751485Y-79724169D01*
X215361539Y-80113436D01*
X215265024Y-80345870D01*
X215169831Y-80115485D01*
X214780564Y-79725539D01*
X214271702Y-79514241D01*
X213720715Y-79513760D01*
X213211485Y-79724169D01*
X212821539Y-80113436D01*
X212725024Y-80345870D01*
X212629831Y-80115485D01*
X212240564Y-79725539D01*
X211731702Y-79514241D01*
X211180715Y-79513760D01*
X210671485Y-79724169D01*
X210281539Y-80113436D01*
X210185024Y-80345870D01*
X210089831Y-80115485D01*
X209700564Y-79725539D01*
X209191702Y-79514241D01*
X208640715Y-79513760D01*
X208131485Y-79724169D01*
X207741539Y-80113436D01*
X207645024Y-80345870D01*
X207549831Y-80115485D01*
X207160564Y-79725539D01*
X206651702Y-79514241D01*
X206100715Y-79513760D01*
X205591485Y-79724169D01*
X205201539Y-80113436D01*
X205105024Y-80345870D01*
X205009831Y-80115485D01*
X204620564Y-79725539D01*
X204111702Y-79514241D01*
X203560715Y-79513760D01*
X203051485Y-79724169D01*
X202661539Y-80113436D01*
X202565024Y-80345870D01*
X202469831Y-80115485D01*
X202080564Y-79725539D01*
X201571702Y-79514241D01*
X201020715Y-79513760D01*
X200511485Y-79724169D01*
X200121539Y-80113436D01*
X200025024Y-80345870D01*
X199929831Y-80115485D01*
X199540564Y-79725539D01*
X199031702Y-79514241D01*
X198621462Y-79513883D01*
X194714395Y-75606815D01*
X214526630Y-75606815D01*
X214850980Y-76391800D01*
X215451041Y-76992909D01*
X216235459Y-77318628D01*
X217084815Y-77319370D01*
X217869800Y-76995020D01*
X218470909Y-76394959D01*
X218796628Y-75610541D01*
X218797370Y-74761185D01*
X218473020Y-73976200D01*
X217872959Y-73375091D01*
X217088541Y-73049372D01*
X216239185Y-73048630D01*
X215454200Y-73372980D01*
X214853091Y-73973041D01*
X214527372Y-74757459D01*
X214526630Y-75606815D01*
X194714395Y-75606815D01*
X194681790Y-75574210D01*
X194668467Y-75565308D01*
X194394675Y-75382367D01*
X194335614Y-75370619D01*
X194212779Y-75346185D01*
X194314798Y-75303927D01*
X194493427Y-75125299D01*
X194590100Y-74891910D01*
X194590100Y-74301350D01*
X194431350Y-74142600D01*
X193332100Y-74142600D01*
X193332100Y-74162600D01*
X193078100Y-74162600D01*
X193078100Y-74142600D01*
X193058100Y-74142600D01*
X193058100Y-73888600D01*
X193078100Y-73888600D01*
X193078100Y-72789350D01*
X193332100Y-72789350D01*
X193332100Y-73888600D01*
X194431350Y-73888600D01*
X194590100Y-73729850D01*
X194590100Y-73139290D01*
X194493427Y-72905901D01*
X194314798Y-72727273D01*
X194081409Y-72630600D01*
X193490850Y-72630600D01*
X193332100Y-72789350D01*
X193078100Y-72789350D01*
X192919350Y-72630600D01*
X192328791Y-72630600D01*
X192095402Y-72727273D01*
X191916773Y-72905901D01*
X191820100Y-73139290D01*
X191820100Y-73212219D01*
X191519955Y-72911551D01*
X191488429Y-72753062D01*
X191482733Y-72724425D01*
X191290890Y-72437310D01*
X191290887Y-72437308D01*
X190937580Y-72084000D01*
X220270000Y-72084000D01*
X220270000Y-79695974D01*
X220184699Y-79610673D01*
X219951310Y-79514000D01*
X219360750Y-79514000D01*
X219202000Y-79672750D01*
X219202000Y-80772000D01*
X219222000Y-80772000D01*
X219222000Y-81026000D01*
X219202000Y-81026000D01*
X219202000Y-82125250D01*
X219360750Y-82284000D01*
X219951310Y-82284000D01*
X220184699Y-82187327D01*
X220270000Y-82102026D01*
X220270000Y-95404298D01*
X220249831Y-95355485D01*
X219860564Y-94965539D01*
X219351702Y-94754241D01*
X218800715Y-94753760D01*
X218291485Y-94964169D01*
X217901539Y-95353436D01*
X217811623Y-95569979D01*
X217747460Y-95415077D01*
X217506517Y-95347088D01*
X216714605Y-96139000D01*
X217506517Y-96930912D01*
X217747460Y-96862923D01*
X217806732Y-96696379D01*
X217900169Y-96922515D01*
X218190000Y-97212852D01*
X218190000Y-98128626D01*
X218164485Y-98139169D01*
X217774539Y-98528436D01*
X217563241Y-99037298D01*
X217562760Y-99588285D01*
X217773169Y-100097515D01*
X218162436Y-100487461D01*
X218671298Y-100698759D01*
X219222285Y-100699240D01*
X219731515Y-100488831D01*
X220121461Y-100099564D01*
X220270000Y-99741842D01*
X220270000Y-109221253D01*
X220232327Y-109130302D01*
X220053699Y-108951673D01*
X219820310Y-108855000D01*
X218979750Y-108855000D01*
X218821000Y-109013750D01*
X218821000Y-110363000D01*
X218841000Y-110363000D01*
X218841000Y-110617000D01*
X218821000Y-110617000D01*
X218821000Y-111966250D01*
X218979750Y-112125000D01*
X219820310Y-112125000D01*
X220053699Y-112028327D01*
X220232327Y-111849698D01*
X220270000Y-111758747D01*
X220270000Y-117349253D01*
X220232327Y-117258302D01*
X220053699Y-117079673D01*
X219820310Y-116983000D01*
X218979750Y-116983000D01*
X218821000Y-117141750D01*
X218821000Y-118491000D01*
X218841000Y-118491000D01*
X218841000Y-118745000D01*
X218821000Y-118745000D01*
X218821000Y-120094250D01*
X218979750Y-120253000D01*
X219820310Y-120253000D01*
X220053699Y-120156327D01*
X220232327Y-119977698D01*
X220270000Y-119886747D01*
X220270000Y-120448000D01*
X122122000Y-120448000D01*
X122122000Y-112542285D01*
X135266760Y-112542285D01*
X135477169Y-113051515D01*
X135866436Y-113441461D01*
X136375298Y-113652759D01*
X136926285Y-113653240D01*
X137435515Y-113442831D01*
X137825461Y-113053564D01*
X138036759Y-112544702D01*
X138037240Y-111993715D01*
X137826831Y-111484485D01*
X137437564Y-111094539D01*
X136928702Y-110883241D01*
X136377715Y-110882760D01*
X135868485Y-111093169D01*
X135478539Y-111482436D01*
X135267241Y-111991298D01*
X135266760Y-112542285D01*
X122122000Y-112542285D01*
X122122000Y-106680000D01*
X138560999Y-106680000D01*
X138561000Y-106680005D01*
X138561000Y-115823995D01*
X138560999Y-115824000D01*
X138603950Y-116039923D01*
X138628367Y-116162675D01*
X138820210Y-116449790D01*
X141868208Y-119497787D01*
X141868210Y-119497790D01*
X142155325Y-119689633D01*
X142211516Y-119700810D01*
X142494000Y-119757001D01*
X142494005Y-119757000D01*
X202945995Y-119757000D01*
X202946000Y-119757001D01*
X203228484Y-119700810D01*
X203284675Y-119689633D01*
X203571790Y-119497790D01*
X204165829Y-118903750D01*
X208931000Y-118903750D01*
X208931000Y-119744309D01*
X209027673Y-119977698D01*
X209206301Y-120156327D01*
X209439690Y-120253000D01*
X210280250Y-120253000D01*
X210439000Y-120094250D01*
X210439000Y-118745000D01*
X210693000Y-118745000D01*
X210693000Y-120094250D01*
X210851750Y-120253000D01*
X211692310Y-120253000D01*
X211925699Y-120156327D01*
X212104327Y-119977698D01*
X212201000Y-119744309D01*
X212201000Y-118903750D01*
X217059000Y-118903750D01*
X217059000Y-119744309D01*
X217155673Y-119977698D01*
X217334301Y-120156327D01*
X217567690Y-120253000D01*
X218408250Y-120253000D01*
X218567000Y-120094250D01*
X218567000Y-118745000D01*
X217217750Y-118745000D01*
X217059000Y-118903750D01*
X212201000Y-118903750D01*
X212042250Y-118745000D01*
X210693000Y-118745000D01*
X210439000Y-118745000D01*
X209089750Y-118745000D01*
X208931000Y-118903750D01*
X204165829Y-118903750D01*
X205577888Y-117491691D01*
X208931000Y-117491691D01*
X208931000Y-118332250D01*
X209089750Y-118491000D01*
X210439000Y-118491000D01*
X210439000Y-117141750D01*
X210693000Y-117141750D01*
X210693000Y-118491000D01*
X212042250Y-118491000D01*
X212201000Y-118332250D01*
X212201000Y-117491691D01*
X217059000Y-117491691D01*
X217059000Y-118332250D01*
X217217750Y-118491000D01*
X218567000Y-118491000D01*
X218567000Y-117141750D01*
X218408250Y-116983000D01*
X217567690Y-116983000D01*
X217334301Y-117079673D01*
X217155673Y-117258302D01*
X217059000Y-117491691D01*
X212201000Y-117491691D01*
X212104327Y-117258302D01*
X211925699Y-117079673D01*
X211692310Y-116983000D01*
X210851750Y-116983000D01*
X210693000Y-117141750D01*
X210439000Y-117141750D01*
X210280250Y-116983000D01*
X209439690Y-116983000D01*
X209206301Y-117079673D01*
X209027673Y-117258302D01*
X208931000Y-117491691D01*
X205577888Y-117491691D01*
X207630579Y-115439000D01*
X213226602Y-115439000D01*
X213243106Y-115478943D01*
X213702637Y-115939278D01*
X214303352Y-116188716D01*
X214953795Y-116189284D01*
X215554943Y-115940894D01*
X216015278Y-115481363D01*
X216264716Y-114880648D01*
X216265284Y-114230205D01*
X216016894Y-113629057D01*
X215557363Y-113168722D01*
X214956648Y-112919284D01*
X214306205Y-112918716D01*
X213705057Y-113167106D01*
X213244722Y-113626637D01*
X213227131Y-113669000D01*
X207264005Y-113669000D01*
X207264000Y-113668999D01*
X206926718Y-113736090D01*
X206925325Y-113736367D01*
X206638210Y-113928210D01*
X206638208Y-113928213D01*
X202579420Y-117987000D01*
X142860579Y-117987000D01*
X141161097Y-116287517D01*
X143734088Y-116287517D01*
X143802077Y-116528460D01*
X144321171Y-116713201D01*
X144871448Y-116685230D01*
X145249923Y-116528460D01*
X145317912Y-116287517D01*
X144526000Y-115495605D01*
X143734088Y-116287517D01*
X141161097Y-116287517D01*
X140331000Y-115457420D01*
X140331000Y-115111171D01*
X143128799Y-115111171D01*
X143156770Y-115661448D01*
X143313540Y-116039923D01*
X143554483Y-116107912D01*
X144346395Y-115316000D01*
X144705605Y-115316000D01*
X145497517Y-116107912D01*
X145738460Y-116039923D01*
X145923201Y-115520829D01*
X145895230Y-114970552D01*
X145738460Y-114592077D01*
X145497517Y-114524088D01*
X144705605Y-115316000D01*
X144346395Y-115316000D01*
X143554483Y-114524088D01*
X143313540Y-114592077D01*
X143128799Y-115111171D01*
X140331000Y-115111171D01*
X140331000Y-114344483D01*
X143734088Y-114344483D01*
X144526000Y-115136395D01*
X145317912Y-114344483D01*
X145249923Y-114103540D01*
X144730829Y-113918799D01*
X144180552Y-113946770D01*
X143802077Y-114103540D01*
X143734088Y-114344483D01*
X140331000Y-114344483D01*
X140331000Y-111772000D01*
X146176560Y-111772000D01*
X146176560Y-113272000D01*
X146220838Y-113507317D01*
X146359910Y-113723441D01*
X146572110Y-113868431D01*
X146709747Y-113896303D01*
X146745190Y-114074484D01*
X146756367Y-114130675D01*
X146899228Y-114344483D01*
X146948210Y-114417790D01*
X148980208Y-116449787D01*
X148980210Y-116449790D01*
X149267325Y-116641633D01*
X149323516Y-116652810D01*
X149606000Y-116709001D01*
X149606005Y-116709000D01*
X152342477Y-116709000D01*
X152630436Y-116997461D01*
X153139298Y-117208759D01*
X153690285Y-117209240D01*
X154199515Y-116998831D01*
X154589461Y-116609564D01*
X154800759Y-116100702D01*
X154800761Y-116098285D01*
X168794760Y-116098285D01*
X169005169Y-116607515D01*
X169394436Y-116997461D01*
X169903298Y-117208759D01*
X170454285Y-117209240D01*
X170963515Y-116998831D01*
X171353461Y-116609564D01*
X171564759Y-116100702D01*
X171565117Y-115690463D01*
X173336139Y-113919440D01*
X174232000Y-113919440D01*
X174467317Y-113875162D01*
X174683441Y-113736090D01*
X174828431Y-113523890D01*
X174832820Y-113502213D01*
X175221392Y-113502213D01*
X175290857Y-113744397D01*
X175814302Y-113931144D01*
X176369368Y-113903362D01*
X176753143Y-113744397D01*
X176822608Y-113502213D01*
X176022000Y-112701605D01*
X175221392Y-113502213D01*
X174832820Y-113502213D01*
X174878666Y-113275821D01*
X175041787Y-113322608D01*
X175842395Y-112522000D01*
X176201605Y-112522000D01*
X177002213Y-113322608D01*
X177244397Y-113253143D01*
X177431144Y-112729698D01*
X177403362Y-112174632D01*
X177244397Y-111790857D01*
X177002213Y-111721392D01*
X176201605Y-112522000D01*
X175842395Y-112522000D01*
X175041787Y-111721392D01*
X174878718Y-111768165D01*
X174836123Y-111541787D01*
X175221392Y-111541787D01*
X176022000Y-112342395D01*
X176822608Y-111541787D01*
X176753143Y-111299603D01*
X176229698Y-111112856D01*
X175674632Y-111140638D01*
X175290857Y-111299603D01*
X175221392Y-111541787D01*
X174836123Y-111541787D01*
X174835162Y-111536683D01*
X174696090Y-111320559D01*
X174483890Y-111175569D01*
X174232000Y-111124560D01*
X172732000Y-111124560D01*
X172496683Y-111168838D01*
X172280559Y-111307910D01*
X172135569Y-111520110D01*
X172084560Y-111772000D01*
X172084560Y-112667861D01*
X170313304Y-114439116D01*
X169905715Y-114438760D01*
X169396485Y-114649169D01*
X169006539Y-115038436D01*
X168795241Y-115547298D01*
X168794760Y-116098285D01*
X154800761Y-116098285D01*
X154801240Y-115549715D01*
X154590831Y-115040485D01*
X154201564Y-114650539D01*
X153692702Y-114439241D01*
X153141715Y-114438760D01*
X152632485Y-114649169D01*
X152342148Y-114939000D01*
X149972579Y-114939000D01*
X148771929Y-113738350D01*
X148775441Y-113736090D01*
X148920431Y-113523890D01*
X148924820Y-113502213D01*
X149313392Y-113502213D01*
X149382857Y-113744397D01*
X149906302Y-113931144D01*
X150461368Y-113903362D01*
X150845143Y-113744397D01*
X150914608Y-113502213D01*
X150114000Y-112701605D01*
X149313392Y-113502213D01*
X148924820Y-113502213D01*
X148970666Y-113275821D01*
X149133787Y-113322608D01*
X149934395Y-112522000D01*
X150293605Y-112522000D01*
X151094213Y-113322608D01*
X151336397Y-113253143D01*
X151499388Y-112796285D01*
X155332760Y-112796285D01*
X155543169Y-113305515D01*
X155932436Y-113695461D01*
X156441298Y-113906759D01*
X156992285Y-113907240D01*
X157501515Y-113696831D01*
X157861000Y-113337972D01*
X157861000Y-113398309D01*
X157957673Y-113631698D01*
X158136301Y-113810327D01*
X158369690Y-113907000D01*
X158972250Y-113907000D01*
X159131000Y-113748250D01*
X159131000Y-112649000D01*
X159111000Y-112649000D01*
X159111000Y-112395000D01*
X159131000Y-112395000D01*
X159131000Y-111295750D01*
X158972250Y-111137000D01*
X158369690Y-111137000D01*
X158136301Y-111233673D01*
X157957673Y-111412302D01*
X157861000Y-111645691D01*
X157861000Y-111706598D01*
X157603000Y-111448148D01*
X157603000Y-107554580D01*
X159433284Y-105724295D01*
X159870298Y-105905759D01*
X160421285Y-105906240D01*
X160930515Y-105695831D01*
X161163064Y-105463687D01*
X161393436Y-105694461D01*
X161902298Y-105905759D01*
X162453285Y-105906240D01*
X162962515Y-105695831D01*
X163199000Y-105459758D01*
X163199000Y-107329421D01*
X161172210Y-109356210D01*
X160980367Y-109643325D01*
X160980367Y-109643326D01*
X160912999Y-109982000D01*
X160913000Y-109982005D01*
X160913000Y-111448477D01*
X160655000Y-111706028D01*
X160655000Y-111645691D01*
X160558327Y-111412302D01*
X160379699Y-111233673D01*
X160146310Y-111137000D01*
X159543750Y-111137000D01*
X159385000Y-111295750D01*
X159385000Y-112395000D01*
X159405000Y-112395000D01*
X159405000Y-112649000D01*
X159385000Y-112649000D01*
X159385000Y-113748250D01*
X159543750Y-113907000D01*
X160146310Y-113907000D01*
X160379699Y-113810327D01*
X160558327Y-113631698D01*
X160655000Y-113398309D01*
X160655000Y-113337402D01*
X161012436Y-113695461D01*
X161521298Y-113906759D01*
X162072285Y-113907240D01*
X162581515Y-113696831D01*
X162941000Y-113337972D01*
X162941000Y-113398309D01*
X163037673Y-113631698D01*
X163216301Y-113810327D01*
X163449690Y-113907000D01*
X164052250Y-113907000D01*
X164211000Y-113748250D01*
X164211000Y-112649000D01*
X164191000Y-112649000D01*
X164191000Y-112395000D01*
X164211000Y-112395000D01*
X164211000Y-111295750D01*
X164052250Y-111137000D01*
X163449690Y-111137000D01*
X163216301Y-111233673D01*
X163037673Y-111412302D01*
X162941000Y-111645691D01*
X162941000Y-111706598D01*
X162683000Y-111448148D01*
X162683000Y-110348580D01*
X164709787Y-108321792D01*
X164709790Y-108321790D01*
X164901633Y-108034675D01*
X164921283Y-107935890D01*
X164969001Y-107696000D01*
X164969000Y-107695995D01*
X164969000Y-102108005D01*
X164969001Y-102108000D01*
X164901633Y-101769326D01*
X164901633Y-101769325D01*
X164709790Y-101482210D01*
X164709787Y-101482208D01*
X163563884Y-100336305D01*
X163564240Y-99928715D01*
X163353831Y-99419485D01*
X162964564Y-99029539D01*
X162455702Y-98818241D01*
X161904715Y-98817760D01*
X161395485Y-99028169D01*
X161162936Y-99260313D01*
X160932564Y-99029539D01*
X160423702Y-98818241D01*
X159872715Y-98817760D01*
X159363485Y-99028169D01*
X158973539Y-99417436D01*
X158762241Y-99926298D01*
X158761760Y-100477285D01*
X158972169Y-100986515D01*
X159361436Y-101376461D01*
X159870298Y-101587759D01*
X160421285Y-101588240D01*
X160930515Y-101377831D01*
X161163064Y-101145687D01*
X161393436Y-101376461D01*
X161902298Y-101587759D01*
X162312538Y-101588117D01*
X163199000Y-102474579D01*
X163199000Y-103582384D01*
X162964564Y-103347539D01*
X162455702Y-103136241D01*
X161904715Y-103135760D01*
X161395485Y-103346169D01*
X161162936Y-103578313D01*
X160932564Y-103347539D01*
X160423702Y-103136241D01*
X159872715Y-103135760D01*
X159363485Y-103346169D01*
X158973539Y-103735436D01*
X158964020Y-103758361D01*
X158957079Y-103762999D01*
X158759210Y-103895210D01*
X158759208Y-103895213D01*
X156092210Y-106562210D01*
X155900367Y-106849325D01*
X155900367Y-106849326D01*
X155832999Y-107188000D01*
X155833000Y-107188005D01*
X155833000Y-111448477D01*
X155544539Y-111736436D01*
X155333241Y-112245298D01*
X155332760Y-112796285D01*
X151499388Y-112796285D01*
X151523144Y-112729698D01*
X151495362Y-112174632D01*
X151336397Y-111790857D01*
X151094213Y-111721392D01*
X150293605Y-112522000D01*
X149934395Y-112522000D01*
X149133787Y-111721392D01*
X148970718Y-111768165D01*
X148928123Y-111541787D01*
X149313392Y-111541787D01*
X150114000Y-112342395D01*
X150914608Y-111541787D01*
X150845143Y-111299603D01*
X150321698Y-111112856D01*
X149766632Y-111140638D01*
X149382857Y-111299603D01*
X149313392Y-111541787D01*
X148928123Y-111541787D01*
X148927162Y-111536683D01*
X148788090Y-111320559D01*
X148575890Y-111175569D01*
X148324000Y-111124560D01*
X146824000Y-111124560D01*
X146588683Y-111168838D01*
X146372559Y-111307910D01*
X146227569Y-111520110D01*
X146176560Y-111772000D01*
X140331000Y-111772000D01*
X140331000Y-107046580D01*
X141251454Y-106126125D01*
X141454436Y-106329461D01*
X141686870Y-106425976D01*
X141456485Y-106521169D01*
X141066539Y-106910436D01*
X140855241Y-107419298D01*
X140854760Y-107970285D01*
X141065169Y-108479515D01*
X141454436Y-108869461D01*
X141686870Y-108965976D01*
X141456485Y-109061169D01*
X141066539Y-109450436D01*
X140855241Y-109959298D01*
X140854760Y-110510285D01*
X141065169Y-111019515D01*
X141454436Y-111409461D01*
X141963298Y-111620759D01*
X142514285Y-111621240D01*
X143023515Y-111410831D01*
X143313852Y-111121000D01*
X143452477Y-111121000D01*
X143740436Y-111409461D01*
X144249298Y-111620759D01*
X144800285Y-111621240D01*
X145309515Y-111410831D01*
X145699461Y-111021564D01*
X145910759Y-110512702D01*
X145911117Y-110102463D01*
X148194579Y-107819000D01*
X152043962Y-107819000D01*
X152062838Y-107919317D01*
X152201910Y-108135441D01*
X152414110Y-108280431D01*
X152666000Y-108331440D01*
X154166000Y-108331440D01*
X154401317Y-108287162D01*
X154617441Y-108148090D01*
X154762431Y-107935890D01*
X154813440Y-107684000D01*
X154813440Y-106184000D01*
X154769162Y-105948683D01*
X154630090Y-105732559D01*
X154417890Y-105587569D01*
X154166000Y-105536560D01*
X152666000Y-105536560D01*
X152430683Y-105580838D01*
X152214559Y-105719910D01*
X152069569Y-105932110D01*
X152045898Y-106049000D01*
X147828005Y-106049000D01*
X147828000Y-106048999D01*
X147522339Y-106109800D01*
X147489325Y-106116367D01*
X147202210Y-106308210D01*
X147202208Y-106308213D01*
X144659304Y-108851116D01*
X144251715Y-108850760D01*
X143742485Y-109061169D01*
X143452148Y-109351000D01*
X143313523Y-109351000D01*
X143025564Y-109062539D01*
X142793130Y-108966024D01*
X143023515Y-108870831D01*
X143413461Y-108481564D01*
X143624759Y-107972702D01*
X143625240Y-107421715D01*
X143414831Y-106912485D01*
X143025564Y-106522539D01*
X142793130Y-106426024D01*
X143023515Y-106330831D01*
X143413461Y-105941564D01*
X143624759Y-105432702D01*
X143625039Y-105111517D01*
X144496088Y-105111517D01*
X144564077Y-105352460D01*
X145083171Y-105537201D01*
X145633448Y-105509230D01*
X146011923Y-105352460D01*
X146079912Y-105111517D01*
X145288000Y-104319605D01*
X144496088Y-105111517D01*
X143625039Y-105111517D01*
X143625240Y-104881715D01*
X143414831Y-104372485D01*
X143025564Y-103982539D01*
X142911489Y-103935171D01*
X143890799Y-103935171D01*
X143918770Y-104485448D01*
X144075540Y-104863923D01*
X144316483Y-104931912D01*
X145108395Y-104140000D01*
X145467605Y-104140000D01*
X146259517Y-104931912D01*
X146500460Y-104863923D01*
X146685201Y-104344829D01*
X146657230Y-103794552D01*
X146500460Y-103416077D01*
X146259517Y-103348088D01*
X145467605Y-104140000D01*
X145108395Y-104140000D01*
X144316483Y-103348088D01*
X144075540Y-103416077D01*
X143890799Y-103935171D01*
X142911489Y-103935171D01*
X142809021Y-103892623D01*
X142963923Y-103828460D01*
X143031912Y-103587517D01*
X142240000Y-102795605D01*
X141448088Y-103587517D01*
X141516077Y-103828460D01*
X141682621Y-103887732D01*
X141456485Y-103981169D01*
X141166148Y-104271000D01*
X140970000Y-104271000D01*
X140631325Y-104338367D01*
X140344210Y-104530210D01*
X140344208Y-104530213D01*
X138820210Y-106054210D01*
X138628367Y-106341325D01*
X138628367Y-106341326D01*
X138560999Y-106680000D01*
X122122000Y-106680000D01*
X122122000Y-102411171D01*
X140842799Y-102411171D01*
X140870770Y-102961448D01*
X141027540Y-103339923D01*
X141268483Y-103407912D01*
X142060395Y-102616000D01*
X142419605Y-102616000D01*
X143211517Y-103407912D01*
X143452460Y-103339923D01*
X143513473Y-103168483D01*
X144496088Y-103168483D01*
X145288000Y-103960395D01*
X146079912Y-103168483D01*
X146011923Y-102927540D01*
X145492829Y-102742799D01*
X144942552Y-102770770D01*
X144564077Y-102927540D01*
X144496088Y-103168483D01*
X143513473Y-103168483D01*
X143637201Y-102820829D01*
X143609230Y-102270552D01*
X143452460Y-101892077D01*
X143211517Y-101824088D01*
X142419605Y-102616000D01*
X142060395Y-102616000D01*
X141268483Y-101824088D01*
X141027540Y-101892077D01*
X140842799Y-102411171D01*
X122122000Y-102411171D01*
X122122000Y-90698285D01*
X135266760Y-90698285D01*
X135477169Y-91207515D01*
X135866436Y-91597461D01*
X136375298Y-91808759D01*
X136926285Y-91809240D01*
X137435515Y-91598831D01*
X137825461Y-91209564D01*
X138036759Y-90700702D01*
X138037240Y-90149715D01*
X137826831Y-89640485D01*
X137437564Y-89250539D01*
X136928702Y-89039241D01*
X136377715Y-89038760D01*
X135868485Y-89249169D01*
X135478539Y-89638436D01*
X135267241Y-90147298D01*
X135266760Y-90698285D01*
X122122000Y-90698285D01*
X122122000Y-84750815D01*
X136548630Y-84750815D01*
X136872980Y-85535800D01*
X137473041Y-86136909D01*
X138257459Y-86462628D01*
X139106815Y-86463370D01*
X139891800Y-86139020D01*
X140492909Y-85538959D01*
X140818628Y-84754541D01*
X140819370Y-83905185D01*
X140495020Y-83120200D01*
X139894959Y-82519091D01*
X139110541Y-82193372D01*
X138261185Y-82192630D01*
X137476200Y-82516980D01*
X136875091Y-83117041D01*
X136549372Y-83901459D01*
X136548630Y-84750815D01*
X122122000Y-84750815D01*
X122122000Y-72084000D01*
X126492918Y-72084000D01*
X126310254Y-72229575D01*
G36*
X177485748Y-81773858D02*
X177471605Y-81788000D01*
X178263517Y-82579912D01*
X178504460Y-82511923D01*
X178563732Y-82345379D01*
X178657169Y-82571515D01*
X179020021Y-82935000D01*
X178034394Y-82935000D01*
X178083912Y-82759517D01*
X177292000Y-81967605D01*
X176500088Y-82759517D01*
X176549606Y-82935000D01*
X175563395Y-82935000D01*
X175925461Y-82573564D01*
X176015377Y-82357021D01*
X176079540Y-82511923D01*
X176320483Y-82579912D01*
X177112395Y-81788000D01*
X177098253Y-81773858D01*
X177277858Y-81594253D01*
X177292000Y-81608395D01*
X177306143Y-81594253D01*
X177485748Y-81773858D01*
X177485748Y-81773858D01*
G37*
X177485748Y-81773858D02*
X177471605Y-81788000D01*
X178263517Y-82579912D01*
X178504460Y-82511923D01*
X178563732Y-82345379D01*
X178657169Y-82571515D01*
X179020021Y-82935000D01*
X178034394Y-82935000D01*
X178083912Y-82759517D01*
X177292000Y-81967605D01*
X176500088Y-82759517D01*
X176549606Y-82935000D01*
X175563395Y-82935000D01*
X175925461Y-82573564D01*
X176015377Y-82357021D01*
X176079540Y-82511923D01*
X176320483Y-82579912D01*
X177112395Y-81788000D01*
X177098253Y-81773858D01*
X177277858Y-81594253D01*
X177292000Y-81608395D01*
X177306143Y-81594253D01*
X177485748Y-81773858D01*
G36*
X183238848Y-74001458D02*
X183224705Y-74015600D01*
X184016617Y-74807512D01*
X184257560Y-74739523D01*
X184316832Y-74572979D01*
X184410269Y-74799115D01*
X184700100Y-75089452D01*
X184700100Y-75095095D01*
X184700099Y-75095100D01*
X184743705Y-75314318D01*
X184767467Y-75433775D01*
X184933337Y-75682018D01*
X184959310Y-75720890D01*
X185315420Y-76077000D01*
X182738579Y-76077000D01*
X181648696Y-74987117D01*
X182253188Y-74987117D01*
X182321177Y-75228060D01*
X182840271Y-75412801D01*
X183390548Y-75384830D01*
X183769023Y-75228060D01*
X183837012Y-74987117D01*
X183045100Y-74195205D01*
X182253188Y-74987117D01*
X181648696Y-74987117D01*
X181570558Y-74908979D01*
X181678561Y-74801164D01*
X181768477Y-74584621D01*
X181832640Y-74739523D01*
X182073583Y-74807512D01*
X182865495Y-74015600D01*
X182851353Y-74001458D01*
X183030958Y-73821853D01*
X183045100Y-73835995D01*
X183059243Y-73821853D01*
X183238848Y-74001458D01*
X183238848Y-74001458D01*
G37*
X183238848Y-74001458D02*
X183224705Y-74015600D01*
X184016617Y-74807512D01*
X184257560Y-74739523D01*
X184316832Y-74572979D01*
X184410269Y-74799115D01*
X184700100Y-75089452D01*
X184700100Y-75095095D01*
X184700099Y-75095100D01*
X184743705Y-75314318D01*
X184767467Y-75433775D01*
X184933337Y-75682018D01*
X184959310Y-75720890D01*
X185315420Y-76077000D01*
X182738579Y-76077000D01*
X181648696Y-74987117D01*
X182253188Y-74987117D01*
X182321177Y-75228060D01*
X182840271Y-75412801D01*
X183390548Y-75384830D01*
X183769023Y-75228060D01*
X183837012Y-74987117D01*
X183045100Y-74195205D01*
X182253188Y-74987117D01*
X181648696Y-74987117D01*
X181570558Y-74908979D01*
X181678561Y-74801164D01*
X181768477Y-74584621D01*
X181832640Y-74739523D01*
X182073583Y-74807512D01*
X182865495Y-74015600D01*
X182851353Y-74001458D01*
X183030958Y-73821853D01*
X183045100Y-73835995D01*
X183059243Y-73821853D01*
X183238848Y-74001458D01*
M02*
