G04 #@! TF.FileFunction,Copper,L1,Top,Signal*
%FSLAX46Y46*%
G04 Gerber Fmt 4.6, Leading zero omitted, Abs format (unit mm)*
G04 Created by KiCad (PCBNEW 4.0.7) date Thursday, 04 January 2018 'PMt' 04:22:12 PM*
%MOMM*%
%LPD*%
G01*
G04 APERTURE LIST*
%ADD10C,0.100000*%
%ADD11C,0.200000*%
%ADD12C,0.300000*%
%ADD13C,0.600000*%
%ADD14C,5.000000*%
%ADD15C,1.500000*%
%ADD16R,1.524000X1.500000*%
%ADD17R,1.500000X1.500000*%
%ADD18R,1.524000X4.064000*%
%ADD19C,0.500000*%
%ADD20C,0.250000*%
%ADD21C,0.254000*%
G04 APERTURE END LIST*
D10*
D11*
X109590002Y-64857381D02*
X110518573Y-64857381D01*
X110018573Y-65238333D01*
X110232859Y-65238333D01*
X110375716Y-65285952D01*
X110447145Y-65333571D01*
X110518573Y-65428810D01*
X110518573Y-65666905D01*
X110447145Y-65762143D01*
X110375716Y-65809762D01*
X110232859Y-65857381D01*
X109804287Y-65857381D01*
X109661430Y-65809762D01*
X109590002Y-65762143D01*
X111947144Y-65857381D02*
X111090001Y-65857381D01*
X111518573Y-65857381D02*
X111518573Y-64857381D01*
X111375716Y-65000238D01*
X111232858Y-65095476D01*
X111090001Y-65143095D01*
X113732858Y-65857381D02*
X113732858Y-64857381D01*
X114090001Y-64857381D01*
X114304286Y-64905000D01*
X114447144Y-65000238D01*
X114518572Y-65095476D01*
X114590001Y-65285952D01*
X114590001Y-65428810D01*
X114518572Y-65619286D01*
X114447144Y-65714524D01*
X114304286Y-65809762D01*
X114090001Y-65857381D01*
X113732858Y-65857381D01*
X115804286Y-65809762D02*
X115661429Y-65857381D01*
X115375715Y-65857381D01*
X115232858Y-65809762D01*
X115161429Y-65714524D01*
X115161429Y-65333571D01*
X115232858Y-65238333D01*
X115375715Y-65190714D01*
X115661429Y-65190714D01*
X115804286Y-65238333D01*
X115875715Y-65333571D01*
X115875715Y-65428810D01*
X115161429Y-65524048D01*
X117161429Y-65809762D02*
X117018572Y-65857381D01*
X116732858Y-65857381D01*
X116590000Y-65809762D01*
X116518572Y-65762143D01*
X116447143Y-65666905D01*
X116447143Y-65381190D01*
X116518572Y-65285952D01*
X116590000Y-65238333D01*
X116732858Y-65190714D01*
X117018572Y-65190714D01*
X117161429Y-65238333D01*
X118875714Y-64952619D02*
X118947143Y-64905000D01*
X119090000Y-64857381D01*
X119447143Y-64857381D01*
X119590000Y-64905000D01*
X119661429Y-64952619D01*
X119732857Y-65047857D01*
X119732857Y-65143095D01*
X119661429Y-65285952D01*
X118804286Y-65857381D01*
X119732857Y-65857381D01*
X120661428Y-64857381D02*
X120804285Y-64857381D01*
X120947142Y-64905000D01*
X121018571Y-64952619D01*
X121090000Y-65047857D01*
X121161428Y-65238333D01*
X121161428Y-65476429D01*
X121090000Y-65666905D01*
X121018571Y-65762143D01*
X120947142Y-65809762D01*
X120804285Y-65857381D01*
X120661428Y-65857381D01*
X120518571Y-65809762D01*
X120447142Y-65762143D01*
X120375714Y-65666905D01*
X120304285Y-65476429D01*
X120304285Y-65238333D01*
X120375714Y-65047857D01*
X120447142Y-64952619D01*
X120518571Y-64905000D01*
X120661428Y-64857381D01*
X122589999Y-65857381D02*
X121732856Y-65857381D01*
X122161428Y-65857381D02*
X122161428Y-64857381D01*
X122018571Y-65000238D01*
X121875713Y-65095476D01*
X121732856Y-65143095D01*
X123089999Y-64857381D02*
X124089999Y-64857381D01*
X123447142Y-65857381D01*
D12*
X103554287Y-63543571D02*
X103554287Y-62043571D01*
X103911430Y-62043571D01*
X104125715Y-62115000D01*
X104268573Y-62257857D01*
X104340001Y-62400714D01*
X104411430Y-62686429D01*
X104411430Y-62900714D01*
X104340001Y-63186429D01*
X104268573Y-63329286D01*
X104125715Y-63472143D01*
X103911430Y-63543571D01*
X103554287Y-63543571D01*
X105054287Y-63543571D02*
X105054287Y-62543571D01*
X105054287Y-62043571D02*
X104982858Y-62115000D01*
X105054287Y-62186429D01*
X105125715Y-62115000D01*
X105054287Y-62043571D01*
X105054287Y-62186429D01*
X106411430Y-62543571D02*
X106411430Y-63757857D01*
X106340001Y-63900714D01*
X106268573Y-63972143D01*
X106125716Y-64043571D01*
X105911430Y-64043571D01*
X105768573Y-63972143D01*
X106411430Y-63472143D02*
X106268573Y-63543571D01*
X105982859Y-63543571D01*
X105840001Y-63472143D01*
X105768573Y-63400714D01*
X105697144Y-63257857D01*
X105697144Y-62829286D01*
X105768573Y-62686429D01*
X105840001Y-62615000D01*
X105982859Y-62543571D01*
X106268573Y-62543571D01*
X106411430Y-62615000D01*
X107125716Y-63543571D02*
X107125716Y-62543571D01*
X107125716Y-62043571D02*
X107054287Y-62115000D01*
X107125716Y-62186429D01*
X107197144Y-62115000D01*
X107125716Y-62043571D01*
X107125716Y-62186429D01*
X107625716Y-62543571D02*
X108197145Y-62543571D01*
X107840002Y-62043571D02*
X107840002Y-63329286D01*
X107911430Y-63472143D01*
X108054288Y-63543571D01*
X108197145Y-63543571D01*
X109340002Y-63543571D02*
X109340002Y-62757857D01*
X109268573Y-62615000D01*
X109125716Y-62543571D01*
X108840002Y-62543571D01*
X108697145Y-62615000D01*
X109340002Y-63472143D02*
X109197145Y-63543571D01*
X108840002Y-63543571D01*
X108697145Y-63472143D01*
X108625716Y-63329286D01*
X108625716Y-63186429D01*
X108697145Y-63043571D01*
X108840002Y-62972143D01*
X109197145Y-62972143D01*
X109340002Y-62900714D01*
X110268574Y-63543571D02*
X110125716Y-63472143D01*
X110054288Y-63329286D01*
X110054288Y-62043571D01*
X110625716Y-62043571D02*
X111125716Y-63543571D01*
X111625716Y-62043571D01*
X112625716Y-62757857D02*
X112125716Y-62757857D01*
X112125716Y-63543571D02*
X112125716Y-62043571D01*
X112840002Y-62043571D01*
X113697144Y-62043571D02*
X113982858Y-62043571D01*
X114125716Y-62115000D01*
X114268573Y-62257857D01*
X114340001Y-62543571D01*
X114340001Y-63043571D01*
X114268573Y-63329286D01*
X114125716Y-63472143D01*
X113982858Y-63543571D01*
X113697144Y-63543571D01*
X113554287Y-63472143D01*
X113411430Y-63329286D01*
X113340001Y-63043571D01*
X113340001Y-62543571D01*
X113411430Y-62257857D01*
X113554287Y-62115000D01*
X113697144Y-62043571D01*
X116911430Y-63543571D02*
X116054287Y-63543571D01*
X116482859Y-63543571D02*
X116482859Y-62043571D01*
X116340002Y-62257857D01*
X116197144Y-62400714D01*
X116054287Y-62472143D01*
X117554287Y-63400714D02*
X117625715Y-63472143D01*
X117554287Y-63543571D01*
X117482858Y-63472143D01*
X117554287Y-63400714D01*
X117554287Y-63543571D01*
X119054287Y-63543571D02*
X118197144Y-63543571D01*
X118625716Y-63543571D02*
X118625716Y-62043571D01*
X118482859Y-62257857D01*
X118340001Y-62400714D01*
X118197144Y-62472143D01*
X120625715Y-62043571D02*
X121125715Y-63543571D01*
X121625715Y-62043571D01*
X122125715Y-63543571D02*
X122125715Y-62043571D01*
X122982858Y-63543571D02*
X122340001Y-62686429D01*
X122982858Y-62043571D02*
X122125715Y-62900714D01*
X124268572Y-62543571D02*
X124268572Y-63543571D01*
X123911429Y-61972143D02*
X123554286Y-63043571D01*
X124482858Y-63043571D01*
X125554286Y-62757857D02*
X125054286Y-62757857D01*
X125054286Y-63543571D02*
X125054286Y-62043571D01*
X125768572Y-62043571D01*
X126268571Y-63115000D02*
X126982857Y-63115000D01*
X126125714Y-63543571D02*
X126625714Y-62043571D01*
X127125714Y-63543571D01*
X127482857Y-62043571D02*
X127840000Y-63543571D01*
X128125714Y-62472143D01*
X128411428Y-63543571D01*
X128768571Y-62043571D01*
X130197143Y-63543571D02*
X129697143Y-62829286D01*
X129340000Y-63543571D02*
X129340000Y-62043571D01*
X129911428Y-62043571D01*
X130054286Y-62115000D01*
X130125714Y-62186429D01*
X130197143Y-62329286D01*
X130197143Y-62543571D01*
X130125714Y-62686429D01*
X130054286Y-62757857D01*
X129911428Y-62829286D01*
X129340000Y-62829286D01*
D13*
X111760000Y-73660000D03*
X161925000Y-73660000D03*
D14*
X100965000Y-65405000D03*
X100965000Y-113030000D03*
X177800000Y-106680000D03*
X177800000Y-69215000D03*
D13*
X172720000Y-111760000D03*
X180340000Y-111760000D03*
X143510000Y-111125000D03*
X158750000Y-85090000D03*
X139065000Y-111125000D03*
D15*
X171450000Y-62865000D03*
D16*
X173990000Y-62865000D03*
D15*
X176530000Y-62865000D03*
X132715000Y-62865000D03*
X137795000Y-62865000D03*
X137668000Y-88265000D03*
X146558000Y-88265000D03*
X162052000Y-89535000D03*
X153162000Y-89535000D03*
X162052000Y-102870000D03*
X153162000Y-102870000D03*
D17*
X140970000Y-100965000D03*
D15*
X143510000Y-100965000D03*
X137668000Y-93980000D03*
X146558000Y-93980000D03*
X106680000Y-86233000D03*
X106680000Y-95123000D03*
X111760000Y-86233000D03*
X111760000Y-95123000D03*
X116840000Y-86233000D03*
X116840000Y-95123000D03*
X106680000Y-97663000D03*
X106680000Y-106553000D03*
X111760000Y-97663000D03*
X111760000Y-106553000D03*
X116840000Y-97663000D03*
X116840000Y-106553000D03*
X106680000Y-109220000D03*
X106680000Y-114300000D03*
X111760000Y-109220000D03*
X111760000Y-114300000D03*
X116840000Y-109220000D03*
X116840000Y-114300000D03*
X100076000Y-102870000D03*
X100076000Y-100330000D03*
X100076000Y-97790000D03*
X100076000Y-95250000D03*
X100076000Y-92710000D03*
D18*
X176530000Y-114935000D03*
X173990000Y-114935000D03*
X179070000Y-114935000D03*
D15*
X160020000Y-96520000D03*
X157480000Y-96520000D03*
X154940000Y-96520000D03*
D17*
X133985000Y-81280000D03*
D15*
X136525000Y-81280000D03*
X139065000Y-81280000D03*
X141605000Y-81280000D03*
X144145000Y-81280000D03*
X146685000Y-81280000D03*
X149225000Y-81280000D03*
X151765000Y-81280000D03*
X154305000Y-81280000D03*
X156845000Y-81280000D03*
X159385000Y-81280000D03*
X161925000Y-81280000D03*
X164465000Y-81280000D03*
X167005000Y-81280000D03*
X167005000Y-66040000D03*
X164465000Y-66040000D03*
X161925000Y-66040000D03*
X159385000Y-66040000D03*
X156845000Y-66040000D03*
X154305000Y-66040000D03*
X151765000Y-66040000D03*
X149225000Y-66040000D03*
X146685000Y-66040000D03*
X144145000Y-66040000D03*
X141605000Y-66040000D03*
X139065000Y-66040000D03*
X136525000Y-66040000D03*
X133985000Y-66040000D03*
X172720000Y-78105000D03*
X172720000Y-80645000D03*
X172720000Y-83185000D03*
X172720000Y-85725000D03*
X172720000Y-88265000D03*
X172720000Y-90805000D03*
X172720000Y-93345000D03*
D17*
X172720000Y-95885000D03*
X124460000Y-88900000D03*
D15*
X124460000Y-91440000D03*
X124460000Y-93980000D03*
X124460000Y-96520000D03*
X124460000Y-99060000D03*
X124460000Y-101600000D03*
X124460000Y-104140000D03*
X132080000Y-104140000D03*
X132080000Y-101600000D03*
X132080000Y-99060000D03*
X132080000Y-96520000D03*
X132080000Y-93980000D03*
X132080000Y-91440000D03*
X132080000Y-88900000D03*
D17*
X128270000Y-113665000D03*
D15*
X130810000Y-113665000D03*
X133350000Y-113665000D03*
X135890000Y-113665000D03*
X138430000Y-113665000D03*
X140970000Y-113665000D03*
X143510000Y-113665000D03*
X146050000Y-113665000D03*
X148590000Y-113665000D03*
X151130000Y-113665000D03*
X153670000Y-113665000D03*
X156210000Y-113665000D03*
X158750000Y-113665000D03*
X161290000Y-113665000D03*
X163830000Y-113665000D03*
X166370000Y-113665000D03*
D19*
X172720000Y-83185000D02*
X173990000Y-83185000D01*
X176530000Y-112395000D02*
X176530000Y-114935000D01*
X172720000Y-108585000D02*
X176530000Y-112395000D01*
X172720000Y-104140000D02*
X172720000Y-108585000D01*
X175260000Y-101600000D02*
X172720000Y-104140000D01*
X175260000Y-84455000D02*
X175260000Y-101600000D01*
X173990000Y-83185000D02*
X175260000Y-84455000D01*
X172085000Y-83185000D02*
X172720000Y-83185000D01*
X124460000Y-88900000D02*
X123190000Y-88900000D01*
X123190000Y-88900000D02*
X120015000Y-92075000D01*
X120015000Y-92075000D02*
X120015000Y-98425000D01*
X120015000Y-98425000D02*
X114935000Y-103505000D01*
X114935000Y-103505000D02*
X109728000Y-103505000D01*
X109728000Y-103505000D02*
X106680000Y-106553000D01*
D20*
X106680000Y-106045000D02*
X106680000Y-106553000D01*
D19*
X106680000Y-106553000D02*
X106680000Y-109220000D01*
X124460000Y-93980000D02*
X123190000Y-93980000D01*
X113030000Y-104775000D02*
X115570000Y-104775000D01*
X115570000Y-104775000D02*
X121285000Y-99060000D01*
X121285000Y-99060000D02*
X121285000Y-95885000D01*
X113030000Y-104775000D02*
X111760000Y-106045000D01*
X123190000Y-93980000D02*
X121285000Y-95885000D01*
X111760000Y-106553000D02*
X111760000Y-106045000D01*
X111760000Y-106553000D02*
X111760000Y-109220000D01*
X124460000Y-99060000D02*
X123190000Y-99060000D01*
X116840000Y-105410000D02*
X116840000Y-106553000D01*
X123190000Y-99060000D02*
X116840000Y-105410000D01*
X124460000Y-99060000D02*
X124333000Y-99060000D01*
X124460000Y-99060000D02*
X123825000Y-99060000D01*
X116840000Y-109220000D02*
X116840000Y-106553000D01*
X133350000Y-113665000D02*
X133350000Y-112395000D01*
X140970000Y-104775000D02*
X140970000Y-100965000D01*
X133350000Y-112395000D02*
X140970000Y-104775000D01*
X137668000Y-93980000D02*
X137668000Y-97663000D01*
X137668000Y-97663000D02*
X140970000Y-100965000D01*
X137668000Y-88265000D02*
X137668000Y-93980000D01*
X163830000Y-113665000D02*
X163830000Y-114300000D01*
X132715000Y-62865000D02*
X132715000Y-64770000D01*
X132715000Y-64770000D02*
X133985000Y-66040000D01*
X173990000Y-62865000D02*
X173990000Y-64770000D01*
X172720000Y-66040000D02*
X172720000Y-78105000D01*
X173990000Y-64770000D02*
X172720000Y-66040000D01*
X160020000Y-96520000D02*
X162052000Y-98552000D01*
X162052000Y-98552000D02*
X162052000Y-102870000D01*
X162052000Y-89535000D02*
X162052000Y-90678000D01*
X157480000Y-95250000D02*
X157480000Y-96520000D01*
X162052000Y-90678000D02*
X157480000Y-95250000D01*
X100076000Y-92710000D02*
X101600000Y-92710000D01*
X104013000Y-95123000D02*
X106680000Y-95123000D01*
X101600000Y-92710000D02*
X104013000Y-95123000D01*
X106680000Y-95123000D02*
X106680000Y-97663000D01*
X100076000Y-97790000D02*
X101727000Y-97790000D01*
X109855000Y-99695000D02*
X111760000Y-97663000D01*
X103505000Y-99695000D02*
X109855000Y-99695000D01*
X101727000Y-97790000D02*
X103505000Y-99695000D01*
X111760000Y-95123000D02*
X111760000Y-97663000D01*
X100076000Y-97790000D02*
X100711000Y-97790000D01*
X100076000Y-102870000D02*
X103505000Y-102870000D01*
X113665000Y-100965000D02*
X116840000Y-97663000D01*
X105410000Y-100965000D02*
X113665000Y-100965000D01*
X103505000Y-102870000D02*
X105410000Y-100965000D01*
X116840000Y-97790000D02*
X116840000Y-97663000D01*
X116840000Y-95123000D02*
X116840000Y-97663000D01*
X151765000Y-81280000D02*
X151765000Y-83185000D01*
X151765000Y-83185000D02*
X146685000Y-88265000D01*
X146685000Y-88265000D02*
X146558000Y-88265000D01*
X146558000Y-87757000D02*
X146558000Y-88265000D01*
X151765000Y-81280000D02*
X151765000Y-81915000D01*
X141605000Y-81280000D02*
X141605000Y-82550000D01*
X140335000Y-83820000D02*
X127635000Y-83820000D01*
X141605000Y-82550000D02*
X140335000Y-83820000D01*
X124460000Y-91440000D02*
X125730000Y-91440000D01*
X126365000Y-85090000D02*
X127635000Y-83820000D01*
X126365000Y-90805000D02*
X126365000Y-85090000D01*
X125730000Y-91440000D02*
X126365000Y-90805000D01*
X128905000Y-85090000D02*
X141605000Y-85090000D01*
X144145000Y-82550000D02*
X141605000Y-85090000D01*
X144145000Y-82550000D02*
X144145000Y-81280000D01*
X124460000Y-96520000D02*
X125730000Y-96520000D01*
X127635000Y-86360000D02*
X128905000Y-85090000D01*
X127635000Y-94615000D02*
X127635000Y-86360000D01*
X125730000Y-96520000D02*
X127635000Y-94615000D01*
X146685000Y-81280000D02*
X146685000Y-82550000D01*
X125730000Y-101600000D02*
X128905000Y-98425000D01*
X128905000Y-98425000D02*
X128905000Y-87630000D01*
X128905000Y-87630000D02*
X130175000Y-86360000D01*
X130175000Y-86360000D02*
X142875000Y-86360000D01*
X125730000Y-101600000D02*
X124460000Y-101600000D01*
X146685000Y-82550000D02*
X142875000Y-86360000D01*
X135890000Y-113665000D02*
X135890000Y-111760000D01*
X154305000Y-82550000D02*
X149225000Y-87630000D01*
X149225000Y-87630000D02*
X149225000Y-98425000D01*
X154305000Y-82550000D02*
X154305000Y-81280000D01*
X135890000Y-111760000D02*
X149225000Y-98425000D01*
X140970000Y-108585000D02*
X140970000Y-113665000D01*
X156845000Y-81280000D02*
X156845000Y-82550000D01*
X150495000Y-99060000D02*
X140970000Y-108585000D01*
X150495000Y-88900000D02*
X150495000Y-99060000D01*
X156845000Y-82550000D02*
X150495000Y-88900000D01*
X153670000Y-113665000D02*
X153670000Y-112395000D01*
X159385000Y-82550000D02*
X165100000Y-88265000D01*
X165100000Y-88265000D02*
X165100000Y-104140000D01*
X159385000Y-82550000D02*
X159385000Y-81280000D01*
X163830000Y-105410000D02*
X165100000Y-104140000D01*
X160655000Y-105410000D02*
X163830000Y-105410000D01*
X153670000Y-112395000D02*
X160655000Y-105410000D01*
X159385000Y-81280000D02*
X159385000Y-81915000D01*
X156210000Y-113665000D02*
X156210000Y-112395000D01*
X161925000Y-82550000D02*
X166370000Y-86995000D01*
X166370000Y-86995000D02*
X166370000Y-105410000D01*
X161925000Y-82550000D02*
X161925000Y-81280000D01*
X165100000Y-106680000D02*
X166370000Y-105410000D01*
X161925000Y-106680000D02*
X165100000Y-106680000D01*
X156210000Y-112395000D02*
X161925000Y-106680000D01*
X156083000Y-113538000D02*
X156210000Y-113665000D01*
X167640000Y-106680000D02*
X167640000Y-85725000D01*
X164465000Y-82550000D02*
X167640000Y-85725000D01*
X164465000Y-81280000D02*
X164465000Y-82550000D01*
X158750000Y-112395000D02*
X158750000Y-113665000D01*
X166370000Y-107950000D02*
X167640000Y-106680000D01*
X163195000Y-107950000D02*
X166370000Y-107950000D01*
X158750000Y-112395000D02*
X163195000Y-107950000D01*
X158750000Y-113030000D02*
X158750000Y-113665000D01*
X161290000Y-113665000D02*
X161290000Y-112395000D01*
X167005000Y-82550000D02*
X167005000Y-81280000D01*
X168910000Y-84455000D02*
X168910000Y-107950000D01*
X167005000Y-82550000D02*
X168910000Y-84455000D01*
X167640000Y-109220000D02*
X168910000Y-107950000D01*
X164465000Y-109220000D02*
X167640000Y-109220000D01*
X161290000Y-112395000D02*
X164465000Y-109220000D01*
X173355000Y-90805000D02*
X172720000Y-90805000D01*
X172085000Y-80645000D02*
X172720000Y-80645000D01*
D21*
G36*
X175738088Y-61893483D02*
X176530000Y-62685395D01*
X177321912Y-61893483D01*
X177287632Y-61772000D01*
X181687000Y-61772000D01*
X181687000Y-116917000D01*
X180479440Y-116917000D01*
X180479440Y-112903000D01*
X180435162Y-112667683D01*
X180296090Y-112451559D01*
X180083890Y-112306569D01*
X179832000Y-112255560D01*
X178308000Y-112255560D01*
X178072683Y-112299838D01*
X177856559Y-112438910D01*
X177800626Y-112520770D01*
X177756090Y-112451559D01*
X177543890Y-112306569D01*
X177391262Y-112275661D01*
X177347633Y-112056326D01*
X177347633Y-112056325D01*
X177155790Y-111769210D01*
X177155787Y-111769208D01*
X173605000Y-108218420D01*
X173605000Y-107300854D01*
X174664457Y-107300854D01*
X175140727Y-108453515D01*
X176021847Y-109336174D01*
X177173674Y-109814454D01*
X178420854Y-109815543D01*
X179573515Y-109339273D01*
X180456174Y-108458153D01*
X180934454Y-107306326D01*
X180935543Y-106059146D01*
X180459273Y-104906485D01*
X179578153Y-104023826D01*
X178426326Y-103545546D01*
X177179146Y-103544457D01*
X176026485Y-104020727D01*
X175143826Y-104901847D01*
X174665546Y-106053674D01*
X174664457Y-107300854D01*
X173605000Y-107300854D01*
X173605000Y-104506580D01*
X175885787Y-102225792D01*
X175885790Y-102225790D01*
X176077633Y-101938675D01*
X176145000Y-101600000D01*
X176145000Y-84455005D01*
X176145001Y-84455000D01*
X176077633Y-84116325D01*
X176046680Y-84070000D01*
X175885790Y-83829210D01*
X175885787Y-83829208D01*
X174615790Y-82559210D01*
X174536529Y-82506250D01*
X174328675Y-82367367D01*
X174272484Y-82356190D01*
X173990000Y-82299999D01*
X173989995Y-82300000D01*
X173793523Y-82300000D01*
X173505564Y-82011539D01*
X173273130Y-81915024D01*
X173503515Y-81819831D01*
X173893461Y-81430564D01*
X174104759Y-80921702D01*
X174105240Y-80370715D01*
X173894831Y-79861485D01*
X173505564Y-79471539D01*
X173273130Y-79375024D01*
X173503515Y-79279831D01*
X173893461Y-78890564D01*
X174104759Y-78381702D01*
X174105240Y-77830715D01*
X173894831Y-77321485D01*
X173605000Y-77031148D01*
X173605000Y-69835854D01*
X174664457Y-69835854D01*
X175140727Y-70988515D01*
X176021847Y-71871174D01*
X177173674Y-72349454D01*
X178420854Y-72350543D01*
X179573515Y-71874273D01*
X180456174Y-70993153D01*
X180934454Y-69841326D01*
X180935543Y-68594146D01*
X180459273Y-67441485D01*
X179578153Y-66558826D01*
X178426326Y-66080546D01*
X177179146Y-66079457D01*
X176026485Y-66555727D01*
X175143826Y-67436847D01*
X174665546Y-68588674D01*
X174664457Y-69835854D01*
X173605000Y-69835854D01*
X173605000Y-66406580D01*
X174615787Y-65395792D01*
X174615790Y-65395790D01*
X174807633Y-65108675D01*
X174815628Y-65068483D01*
X174875001Y-64770000D01*
X174875000Y-64769995D01*
X174875000Y-64239296D01*
X174987317Y-64218162D01*
X175203441Y-64079090D01*
X175348431Y-63866890D01*
X175354581Y-63836517D01*
X175738088Y-63836517D01*
X175806077Y-64077460D01*
X176325171Y-64262201D01*
X176875448Y-64234230D01*
X177253923Y-64077460D01*
X177321912Y-63836517D01*
X176530000Y-63044605D01*
X175738088Y-63836517D01*
X175354581Y-63836517D01*
X175399440Y-63615000D01*
X175399440Y-63612033D01*
X175558483Y-63656912D01*
X176350395Y-62865000D01*
X176709605Y-62865000D01*
X177501517Y-63656912D01*
X177742460Y-63588923D01*
X177927201Y-63069829D01*
X177899230Y-62519552D01*
X177742460Y-62141077D01*
X177501517Y-62073088D01*
X176709605Y-62865000D01*
X176350395Y-62865000D01*
X175558483Y-62073088D01*
X175399440Y-62117967D01*
X175399440Y-62115000D01*
X175355162Y-61879683D01*
X175285870Y-61772000D01*
X175772368Y-61772000D01*
X175738088Y-61893483D01*
X175738088Y-61893483D01*
G37*
X175738088Y-61893483D02*
X176530000Y-62685395D01*
X177321912Y-61893483D01*
X177287632Y-61772000D01*
X181687000Y-61772000D01*
X181687000Y-116917000D01*
X180479440Y-116917000D01*
X180479440Y-112903000D01*
X180435162Y-112667683D01*
X180296090Y-112451559D01*
X180083890Y-112306569D01*
X179832000Y-112255560D01*
X178308000Y-112255560D01*
X178072683Y-112299838D01*
X177856559Y-112438910D01*
X177800626Y-112520770D01*
X177756090Y-112451559D01*
X177543890Y-112306569D01*
X177391262Y-112275661D01*
X177347633Y-112056326D01*
X177347633Y-112056325D01*
X177155790Y-111769210D01*
X177155787Y-111769208D01*
X173605000Y-108218420D01*
X173605000Y-107300854D01*
X174664457Y-107300854D01*
X175140727Y-108453515D01*
X176021847Y-109336174D01*
X177173674Y-109814454D01*
X178420854Y-109815543D01*
X179573515Y-109339273D01*
X180456174Y-108458153D01*
X180934454Y-107306326D01*
X180935543Y-106059146D01*
X180459273Y-104906485D01*
X179578153Y-104023826D01*
X178426326Y-103545546D01*
X177179146Y-103544457D01*
X176026485Y-104020727D01*
X175143826Y-104901847D01*
X174665546Y-106053674D01*
X174664457Y-107300854D01*
X173605000Y-107300854D01*
X173605000Y-104506580D01*
X175885787Y-102225792D01*
X175885790Y-102225790D01*
X176077633Y-101938675D01*
X176145000Y-101600000D01*
X176145000Y-84455005D01*
X176145001Y-84455000D01*
X176077633Y-84116325D01*
X176046680Y-84070000D01*
X175885790Y-83829210D01*
X175885787Y-83829208D01*
X174615790Y-82559210D01*
X174536529Y-82506250D01*
X174328675Y-82367367D01*
X174272484Y-82356190D01*
X173990000Y-82299999D01*
X173989995Y-82300000D01*
X173793523Y-82300000D01*
X173505564Y-82011539D01*
X173273130Y-81915024D01*
X173503515Y-81819831D01*
X173893461Y-81430564D01*
X174104759Y-80921702D01*
X174105240Y-80370715D01*
X173894831Y-79861485D01*
X173505564Y-79471539D01*
X173273130Y-79375024D01*
X173503515Y-79279831D01*
X173893461Y-78890564D01*
X174104759Y-78381702D01*
X174105240Y-77830715D01*
X173894831Y-77321485D01*
X173605000Y-77031148D01*
X173605000Y-69835854D01*
X174664457Y-69835854D01*
X175140727Y-70988515D01*
X176021847Y-71871174D01*
X177173674Y-72349454D01*
X178420854Y-72350543D01*
X179573515Y-71874273D01*
X180456174Y-70993153D01*
X180934454Y-69841326D01*
X180935543Y-68594146D01*
X180459273Y-67441485D01*
X179578153Y-66558826D01*
X178426326Y-66080546D01*
X177179146Y-66079457D01*
X176026485Y-66555727D01*
X175143826Y-67436847D01*
X174665546Y-68588674D01*
X174664457Y-69835854D01*
X173605000Y-69835854D01*
X173605000Y-66406580D01*
X174615787Y-65395792D01*
X174615790Y-65395790D01*
X174807633Y-65108675D01*
X174815628Y-65068483D01*
X174875001Y-64770000D01*
X174875000Y-64769995D01*
X174875000Y-64239296D01*
X174987317Y-64218162D01*
X175203441Y-64079090D01*
X175348431Y-63866890D01*
X175354581Y-63836517D01*
X175738088Y-63836517D01*
X175806077Y-64077460D01*
X176325171Y-64262201D01*
X176875448Y-64234230D01*
X177253923Y-64077460D01*
X177321912Y-63836517D01*
X176530000Y-63044605D01*
X175738088Y-63836517D01*
X175354581Y-63836517D01*
X175399440Y-63615000D01*
X175399440Y-63612033D01*
X175558483Y-63656912D01*
X176350395Y-62865000D01*
X176709605Y-62865000D01*
X177501517Y-63656912D01*
X177742460Y-63588923D01*
X177927201Y-63069829D01*
X177899230Y-62519552D01*
X177742460Y-62141077D01*
X177501517Y-62073088D01*
X176709605Y-62865000D01*
X176350395Y-62865000D01*
X175558483Y-62073088D01*
X175399440Y-62117967D01*
X175399440Y-62115000D01*
X175355162Y-61879683D01*
X175285870Y-61772000D01*
X175772368Y-61772000D01*
X175738088Y-61893483D01*
G36*
X102562144Y-62673665D02*
X101591326Y-62270546D01*
X100344146Y-62269457D01*
X99191485Y-62745727D01*
X98308826Y-63626847D01*
X97830546Y-64778674D01*
X97829457Y-66025854D01*
X98305727Y-67178515D01*
X99186847Y-68061174D01*
X100338674Y-68539454D01*
X101585854Y-68540543D01*
X102738515Y-68064273D01*
X103621174Y-67183153D01*
X104099454Y-66031326D01*
X104100485Y-64850000D01*
X108740716Y-64850000D01*
X108740716Y-66940000D01*
X124939284Y-66940000D01*
X124939284Y-64850000D01*
X131117857Y-64850000D01*
X131117857Y-61772000D01*
X131849511Y-61772000D01*
X131541539Y-62079436D01*
X131330241Y-62588298D01*
X131329760Y-63139285D01*
X131540169Y-63648515D01*
X131830000Y-63938852D01*
X131830000Y-64769995D01*
X131829999Y-64770000D01*
X131886190Y-65052484D01*
X131897367Y-65108675D01*
X131994761Y-65254436D01*
X132089210Y-65395790D01*
X132600116Y-65906695D01*
X132599760Y-66314285D01*
X132810169Y-66823515D01*
X133199436Y-67213461D01*
X133708298Y-67424759D01*
X134259285Y-67425240D01*
X134768515Y-67214831D01*
X134972183Y-67011517D01*
X135733088Y-67011517D01*
X135801077Y-67252460D01*
X136320171Y-67437201D01*
X136870448Y-67409230D01*
X137248923Y-67252460D01*
X137316912Y-67011517D01*
X136525000Y-66219605D01*
X135733088Y-67011517D01*
X134972183Y-67011517D01*
X135158461Y-66825564D01*
X135248377Y-66609021D01*
X135312540Y-66763923D01*
X135553483Y-66831912D01*
X136345395Y-66040000D01*
X136704605Y-66040000D01*
X137496517Y-66831912D01*
X137737460Y-66763923D01*
X137796732Y-66597379D01*
X137890169Y-66823515D01*
X138279436Y-67213461D01*
X138788298Y-67424759D01*
X139339285Y-67425240D01*
X139848515Y-67214831D01*
X140238461Y-66825564D01*
X140334976Y-66593130D01*
X140430169Y-66823515D01*
X140819436Y-67213461D01*
X141328298Y-67424759D01*
X141879285Y-67425240D01*
X142388515Y-67214831D01*
X142778461Y-66825564D01*
X142874976Y-66593130D01*
X142970169Y-66823515D01*
X143359436Y-67213461D01*
X143868298Y-67424759D01*
X144419285Y-67425240D01*
X144928515Y-67214831D01*
X145318461Y-66825564D01*
X145414976Y-66593130D01*
X145510169Y-66823515D01*
X145899436Y-67213461D01*
X146408298Y-67424759D01*
X146959285Y-67425240D01*
X147468515Y-67214831D01*
X147858461Y-66825564D01*
X147954976Y-66593130D01*
X148050169Y-66823515D01*
X148439436Y-67213461D01*
X148948298Y-67424759D01*
X149499285Y-67425240D01*
X150008515Y-67214831D01*
X150398461Y-66825564D01*
X150494976Y-66593130D01*
X150590169Y-66823515D01*
X150979436Y-67213461D01*
X151488298Y-67424759D01*
X152039285Y-67425240D01*
X152548515Y-67214831D01*
X152938461Y-66825564D01*
X153034976Y-66593130D01*
X153130169Y-66823515D01*
X153519436Y-67213461D01*
X154028298Y-67424759D01*
X154579285Y-67425240D01*
X155088515Y-67214831D01*
X155478461Y-66825564D01*
X155574976Y-66593130D01*
X155670169Y-66823515D01*
X156059436Y-67213461D01*
X156568298Y-67424759D01*
X157119285Y-67425240D01*
X157628515Y-67214831D01*
X158018461Y-66825564D01*
X158114976Y-66593130D01*
X158210169Y-66823515D01*
X158599436Y-67213461D01*
X159108298Y-67424759D01*
X159659285Y-67425240D01*
X160168515Y-67214831D01*
X160558461Y-66825564D01*
X160654976Y-66593130D01*
X160750169Y-66823515D01*
X161139436Y-67213461D01*
X161648298Y-67424759D01*
X162199285Y-67425240D01*
X162708515Y-67214831D01*
X163098461Y-66825564D01*
X163194976Y-66593130D01*
X163290169Y-66823515D01*
X163679436Y-67213461D01*
X164188298Y-67424759D01*
X164739285Y-67425240D01*
X165248515Y-67214831D01*
X165638461Y-66825564D01*
X165734976Y-66593130D01*
X165830169Y-66823515D01*
X166219436Y-67213461D01*
X166728298Y-67424759D01*
X167279285Y-67425240D01*
X167788515Y-67214831D01*
X168178461Y-66825564D01*
X168389759Y-66316702D01*
X168390240Y-65765715D01*
X168179831Y-65256485D01*
X167790564Y-64866539D01*
X167281702Y-64655241D01*
X166730715Y-64654760D01*
X166221485Y-64865169D01*
X165831539Y-65254436D01*
X165735024Y-65486870D01*
X165639831Y-65256485D01*
X165250564Y-64866539D01*
X164741702Y-64655241D01*
X164190715Y-64654760D01*
X163681485Y-64865169D01*
X163291539Y-65254436D01*
X163195024Y-65486870D01*
X163099831Y-65256485D01*
X162710564Y-64866539D01*
X162201702Y-64655241D01*
X161650715Y-64654760D01*
X161141485Y-64865169D01*
X160751539Y-65254436D01*
X160655024Y-65486870D01*
X160559831Y-65256485D01*
X160170564Y-64866539D01*
X159661702Y-64655241D01*
X159110715Y-64654760D01*
X158601485Y-64865169D01*
X158211539Y-65254436D01*
X158115024Y-65486870D01*
X158019831Y-65256485D01*
X157630564Y-64866539D01*
X157121702Y-64655241D01*
X156570715Y-64654760D01*
X156061485Y-64865169D01*
X155671539Y-65254436D01*
X155575024Y-65486870D01*
X155479831Y-65256485D01*
X155090564Y-64866539D01*
X154581702Y-64655241D01*
X154030715Y-64654760D01*
X153521485Y-64865169D01*
X153131539Y-65254436D01*
X153035024Y-65486870D01*
X152939831Y-65256485D01*
X152550564Y-64866539D01*
X152041702Y-64655241D01*
X151490715Y-64654760D01*
X150981485Y-64865169D01*
X150591539Y-65254436D01*
X150495024Y-65486870D01*
X150399831Y-65256485D01*
X150010564Y-64866539D01*
X149501702Y-64655241D01*
X148950715Y-64654760D01*
X148441485Y-64865169D01*
X148051539Y-65254436D01*
X147955024Y-65486870D01*
X147859831Y-65256485D01*
X147470564Y-64866539D01*
X146961702Y-64655241D01*
X146410715Y-64654760D01*
X145901485Y-64865169D01*
X145511539Y-65254436D01*
X145415024Y-65486870D01*
X145319831Y-65256485D01*
X144930564Y-64866539D01*
X144421702Y-64655241D01*
X143870715Y-64654760D01*
X143361485Y-64865169D01*
X142971539Y-65254436D01*
X142875024Y-65486870D01*
X142779831Y-65256485D01*
X142390564Y-64866539D01*
X141881702Y-64655241D01*
X141330715Y-64654760D01*
X140821485Y-64865169D01*
X140431539Y-65254436D01*
X140335024Y-65486870D01*
X140239831Y-65256485D01*
X139850564Y-64866539D01*
X139341702Y-64655241D01*
X138790715Y-64654760D01*
X138281485Y-64865169D01*
X137891539Y-65254436D01*
X137801623Y-65470979D01*
X137737460Y-65316077D01*
X137496517Y-65248088D01*
X136704605Y-66040000D01*
X136345395Y-66040000D01*
X135553483Y-65248088D01*
X135312540Y-65316077D01*
X135253268Y-65482621D01*
X135159831Y-65256485D01*
X134972157Y-65068483D01*
X135733088Y-65068483D01*
X136525000Y-65860395D01*
X137316912Y-65068483D01*
X137248923Y-64827540D01*
X136729829Y-64642799D01*
X136179552Y-64670770D01*
X135801077Y-64827540D01*
X135733088Y-65068483D01*
X134972157Y-65068483D01*
X134770564Y-64866539D01*
X134261702Y-64655241D01*
X133851462Y-64654883D01*
X133600000Y-64403420D01*
X133600000Y-63938523D01*
X133702183Y-63836517D01*
X137003088Y-63836517D01*
X137071077Y-64077460D01*
X137590171Y-64262201D01*
X138140448Y-64234230D01*
X138518923Y-64077460D01*
X138586912Y-63836517D01*
X170658088Y-63836517D01*
X170726077Y-64077460D01*
X171245171Y-64262201D01*
X171795448Y-64234230D01*
X172173923Y-64077460D01*
X172241912Y-63836517D01*
X171450000Y-63044605D01*
X170658088Y-63836517D01*
X138586912Y-63836517D01*
X137795000Y-63044605D01*
X137003088Y-63836517D01*
X133702183Y-63836517D01*
X133888461Y-63650564D01*
X134099759Y-63141702D01*
X134100179Y-62660171D01*
X136397799Y-62660171D01*
X136425770Y-63210448D01*
X136582540Y-63588923D01*
X136823483Y-63656912D01*
X137615395Y-62865000D01*
X137974605Y-62865000D01*
X138766517Y-63656912D01*
X139007460Y-63588923D01*
X139192201Y-63069829D01*
X139171378Y-62660171D01*
X170052799Y-62660171D01*
X170080770Y-63210448D01*
X170237540Y-63588923D01*
X170478483Y-63656912D01*
X171270395Y-62865000D01*
X170478483Y-62073088D01*
X170237540Y-62141077D01*
X170052799Y-62660171D01*
X139171378Y-62660171D01*
X139164230Y-62519552D01*
X139007460Y-62141077D01*
X138766517Y-62073088D01*
X137974605Y-62865000D01*
X137615395Y-62865000D01*
X136823483Y-62073088D01*
X136582540Y-62141077D01*
X136397799Y-62660171D01*
X134100179Y-62660171D01*
X134100240Y-62590715D01*
X133889831Y-62081485D01*
X133580885Y-61772000D01*
X137037368Y-61772000D01*
X137003088Y-61893483D01*
X137795000Y-62685395D01*
X138586912Y-61893483D01*
X138552632Y-61772000D01*
X170692368Y-61772000D01*
X170658088Y-61893483D01*
X171450000Y-62685395D01*
X172241912Y-61893483D01*
X172207632Y-61772000D01*
X172693822Y-61772000D01*
X172631569Y-61863110D01*
X172580560Y-62115000D01*
X172580560Y-62117967D01*
X172421517Y-62073088D01*
X171629605Y-62865000D01*
X172421517Y-63656912D01*
X172580560Y-63612033D01*
X172580560Y-63615000D01*
X172624838Y-63850317D01*
X172763910Y-64066441D01*
X172976110Y-64211431D01*
X173105000Y-64237532D01*
X173105000Y-64403421D01*
X172094210Y-65414210D01*
X171902367Y-65701325D01*
X171902367Y-65701326D01*
X171834999Y-66040000D01*
X171835000Y-66040005D01*
X171835000Y-77031477D01*
X171546539Y-77319436D01*
X171335241Y-77828298D01*
X171334760Y-78379285D01*
X171545169Y-78888515D01*
X171934436Y-79278461D01*
X172166870Y-79374976D01*
X171936485Y-79470169D01*
X171546539Y-79859436D01*
X171488253Y-79999804D01*
X171459210Y-80019210D01*
X171267367Y-80306325D01*
X171200000Y-80645000D01*
X171267367Y-80983675D01*
X171459210Y-81270790D01*
X171487927Y-81289978D01*
X171545169Y-81428515D01*
X171934436Y-81818461D01*
X172166870Y-81914976D01*
X171936485Y-82010169D01*
X171546539Y-82399436D01*
X171488253Y-82539804D01*
X171459210Y-82559210D01*
X171267367Y-82846325D01*
X171200000Y-83185000D01*
X171267367Y-83523675D01*
X171459210Y-83810790D01*
X171487927Y-83829978D01*
X171545169Y-83968515D01*
X171934436Y-84358461D01*
X172150979Y-84448377D01*
X171996077Y-84512540D01*
X171928088Y-84753483D01*
X172720000Y-85545395D01*
X173511912Y-84753483D01*
X173443923Y-84512540D01*
X173277379Y-84453268D01*
X173503515Y-84359831D01*
X173708562Y-84155141D01*
X174375000Y-84821579D01*
X174375000Y-101233421D01*
X172094210Y-103514210D01*
X171902367Y-103801325D01*
X171902367Y-103801326D01*
X171834999Y-104140000D01*
X171835000Y-104140005D01*
X171835000Y-108584995D01*
X171834999Y-108585000D01*
X171891190Y-108867484D01*
X171902367Y-108923675D01*
X171915479Y-108943298D01*
X172094210Y-109210790D01*
X175320071Y-112436650D01*
X175316559Y-112438910D01*
X175263537Y-112516511D01*
X175111698Y-112364673D01*
X174878309Y-112268000D01*
X174275750Y-112268000D01*
X174117000Y-112426750D01*
X174117000Y-114808000D01*
X174137000Y-114808000D01*
X174137000Y-115062000D01*
X174117000Y-115062000D01*
X174117000Y-115082000D01*
X173863000Y-115082000D01*
X173863000Y-115062000D01*
X172751750Y-115062000D01*
X172593000Y-115220750D01*
X172593000Y-116917000D01*
X97078000Y-116917000D01*
X97078000Y-113650854D01*
X97829457Y-113650854D01*
X98305727Y-114803515D01*
X99186847Y-115686174D01*
X100338674Y-116164454D01*
X101585854Y-116165543D01*
X102738515Y-115689273D01*
X103157000Y-115271517D01*
X105888088Y-115271517D01*
X105956077Y-115512460D01*
X106475171Y-115697201D01*
X107025448Y-115669230D01*
X107403923Y-115512460D01*
X107471912Y-115271517D01*
X110968088Y-115271517D01*
X111036077Y-115512460D01*
X111555171Y-115697201D01*
X112105448Y-115669230D01*
X112483923Y-115512460D01*
X112551912Y-115271517D01*
X116048088Y-115271517D01*
X116116077Y-115512460D01*
X116635171Y-115697201D01*
X117185448Y-115669230D01*
X117563923Y-115512460D01*
X117631912Y-115271517D01*
X116840000Y-114479605D01*
X116048088Y-115271517D01*
X112551912Y-115271517D01*
X111760000Y-114479605D01*
X110968088Y-115271517D01*
X107471912Y-115271517D01*
X106680000Y-114479605D01*
X105888088Y-115271517D01*
X103157000Y-115271517D01*
X103621174Y-114808153D01*
X103917229Y-114095171D01*
X105282799Y-114095171D01*
X105310770Y-114645448D01*
X105467540Y-115023923D01*
X105708483Y-115091912D01*
X106500395Y-114300000D01*
X106859605Y-114300000D01*
X107651517Y-115091912D01*
X107892460Y-115023923D01*
X108077201Y-114504829D01*
X108056378Y-114095171D01*
X110362799Y-114095171D01*
X110390770Y-114645448D01*
X110547540Y-115023923D01*
X110788483Y-115091912D01*
X111580395Y-114300000D01*
X111939605Y-114300000D01*
X112731517Y-115091912D01*
X112972460Y-115023923D01*
X113157201Y-114504829D01*
X113136378Y-114095171D01*
X115442799Y-114095171D01*
X115470770Y-114645448D01*
X115627540Y-115023923D01*
X115868483Y-115091912D01*
X116660395Y-114300000D01*
X117019605Y-114300000D01*
X117811517Y-115091912D01*
X118052460Y-115023923D01*
X118237201Y-114504829D01*
X118209230Y-113954552D01*
X118207656Y-113950750D01*
X126885000Y-113950750D01*
X126885000Y-114541310D01*
X126981673Y-114774699D01*
X127160302Y-114953327D01*
X127393691Y-115050000D01*
X127984250Y-115050000D01*
X128143000Y-114891250D01*
X128143000Y-113792000D01*
X127043750Y-113792000D01*
X126885000Y-113950750D01*
X118207656Y-113950750D01*
X118052460Y-113576077D01*
X117811517Y-113508088D01*
X117019605Y-114300000D01*
X116660395Y-114300000D01*
X115868483Y-113508088D01*
X115627540Y-113576077D01*
X115442799Y-114095171D01*
X113136378Y-114095171D01*
X113129230Y-113954552D01*
X112972460Y-113576077D01*
X112731517Y-113508088D01*
X111939605Y-114300000D01*
X111580395Y-114300000D01*
X110788483Y-113508088D01*
X110547540Y-113576077D01*
X110362799Y-114095171D01*
X108056378Y-114095171D01*
X108049230Y-113954552D01*
X107892460Y-113576077D01*
X107651517Y-113508088D01*
X106859605Y-114300000D01*
X106500395Y-114300000D01*
X105708483Y-113508088D01*
X105467540Y-113576077D01*
X105282799Y-114095171D01*
X103917229Y-114095171D01*
X104099454Y-113656326D01*
X104099740Y-113328483D01*
X105888088Y-113328483D01*
X106680000Y-114120395D01*
X107471912Y-113328483D01*
X110968088Y-113328483D01*
X111760000Y-114120395D01*
X112551912Y-113328483D01*
X116048088Y-113328483D01*
X116840000Y-114120395D01*
X117631912Y-113328483D01*
X117563923Y-113087540D01*
X117044829Y-112902799D01*
X116494552Y-112930770D01*
X116116077Y-113087540D01*
X116048088Y-113328483D01*
X112551912Y-113328483D01*
X112483923Y-113087540D01*
X111964829Y-112902799D01*
X111414552Y-112930770D01*
X111036077Y-113087540D01*
X110968088Y-113328483D01*
X107471912Y-113328483D01*
X107403923Y-113087540D01*
X106884829Y-112902799D01*
X106334552Y-112930770D01*
X105956077Y-113087540D01*
X105888088Y-113328483D01*
X104099740Y-113328483D01*
X104100211Y-112788690D01*
X126885000Y-112788690D01*
X126885000Y-113379250D01*
X127043750Y-113538000D01*
X128143000Y-113538000D01*
X128143000Y-112438750D01*
X127984250Y-112280000D01*
X127393691Y-112280000D01*
X127160302Y-112376673D01*
X126981673Y-112555301D01*
X126885000Y-112788690D01*
X104100211Y-112788690D01*
X104100543Y-112409146D01*
X103624273Y-111256485D01*
X102743153Y-110373826D01*
X101591326Y-109895546D01*
X100344146Y-109894457D01*
X99191485Y-110370727D01*
X98308826Y-111251847D01*
X97830546Y-112403674D01*
X97829457Y-113650854D01*
X97078000Y-113650854D01*
X97078000Y-106827285D01*
X105294760Y-106827285D01*
X105505169Y-107336515D01*
X105795000Y-107626852D01*
X105795000Y-108146477D01*
X105506539Y-108434436D01*
X105295241Y-108943298D01*
X105294760Y-109494285D01*
X105505169Y-110003515D01*
X105894436Y-110393461D01*
X106403298Y-110604759D01*
X106954285Y-110605240D01*
X107463515Y-110394831D01*
X107853461Y-110005564D01*
X108064759Y-109496702D01*
X108065240Y-108945715D01*
X107854831Y-108436485D01*
X107565000Y-108146148D01*
X107565000Y-107626523D01*
X107853461Y-107338564D01*
X108064759Y-106829702D01*
X108065117Y-106419463D01*
X110094579Y-104390000D01*
X112163421Y-104390000D01*
X111315208Y-105238212D01*
X110976485Y-105378169D01*
X110586539Y-105767436D01*
X110375241Y-106276298D01*
X110374760Y-106827285D01*
X110585169Y-107336515D01*
X110875000Y-107626852D01*
X110875000Y-108146477D01*
X110586539Y-108434436D01*
X110375241Y-108943298D01*
X110374760Y-109494285D01*
X110585169Y-110003515D01*
X110974436Y-110393461D01*
X111483298Y-110604759D01*
X112034285Y-110605240D01*
X112543515Y-110394831D01*
X112933461Y-110005564D01*
X113144759Y-109496702D01*
X113145240Y-108945715D01*
X112934831Y-108436485D01*
X112645000Y-108146148D01*
X112645000Y-107626523D01*
X112933461Y-107338564D01*
X113144759Y-106829702D01*
X113145240Y-106278715D01*
X113037826Y-106018753D01*
X113396579Y-105660000D01*
X115569995Y-105660000D01*
X115570000Y-105660001D01*
X115824967Y-105609284D01*
X115666539Y-105767436D01*
X115455241Y-106276298D01*
X115454760Y-106827285D01*
X115665169Y-107336515D01*
X115955000Y-107626852D01*
X115955000Y-108146477D01*
X115666539Y-108434436D01*
X115455241Y-108943298D01*
X115454760Y-109494285D01*
X115665169Y-110003515D01*
X116054436Y-110393461D01*
X116563298Y-110604759D01*
X117114285Y-110605240D01*
X117623515Y-110394831D01*
X118013461Y-110005564D01*
X118224759Y-109496702D01*
X118225240Y-108945715D01*
X118014831Y-108436485D01*
X117725000Y-108146148D01*
X117725000Y-107626523D01*
X118013461Y-107338564D01*
X118224759Y-106829702D01*
X118225240Y-106278715D01*
X118014831Y-105769485D01*
X117873586Y-105627994D01*
X118390062Y-105111517D01*
X123668088Y-105111517D01*
X123736077Y-105352460D01*
X124255171Y-105537201D01*
X124805448Y-105509230D01*
X125183923Y-105352460D01*
X125251912Y-105111517D01*
X124460000Y-104319605D01*
X123668088Y-105111517D01*
X118390062Y-105111517D01*
X119566408Y-103935171D01*
X123062799Y-103935171D01*
X123090770Y-104485448D01*
X123247540Y-104863923D01*
X123488483Y-104931912D01*
X124280395Y-104140000D01*
X124639605Y-104140000D01*
X125431517Y-104931912D01*
X125672460Y-104863923D01*
X125832482Y-104414285D01*
X130694760Y-104414285D01*
X130905169Y-104923515D01*
X131294436Y-105313461D01*
X131803298Y-105524759D01*
X132354285Y-105525240D01*
X132863515Y-105314831D01*
X133253461Y-104925564D01*
X133464759Y-104416702D01*
X133465240Y-103865715D01*
X133254831Y-103356485D01*
X132865564Y-102966539D01*
X132649021Y-102876623D01*
X132803923Y-102812460D01*
X132871912Y-102571517D01*
X132080000Y-101779605D01*
X131288088Y-102571517D01*
X131356077Y-102812460D01*
X131522621Y-102871732D01*
X131296485Y-102965169D01*
X130906539Y-103354436D01*
X130695241Y-103863298D01*
X130694760Y-104414285D01*
X125832482Y-104414285D01*
X125857201Y-104344829D01*
X125829230Y-103794552D01*
X125672460Y-103416077D01*
X125431517Y-103348088D01*
X124639605Y-104140000D01*
X124280395Y-104140000D01*
X123488483Y-103348088D01*
X123247540Y-103416077D01*
X123062799Y-103935171D01*
X119566408Y-103935171D01*
X123471454Y-100030125D01*
X123674436Y-100233461D01*
X123906870Y-100329976D01*
X123676485Y-100425169D01*
X123286539Y-100814436D01*
X123075241Y-101323298D01*
X123074760Y-101874285D01*
X123285169Y-102383515D01*
X123674436Y-102773461D01*
X123890979Y-102863377D01*
X123736077Y-102927540D01*
X123668088Y-103168483D01*
X124460000Y-103960395D01*
X125251912Y-103168483D01*
X125183923Y-102927540D01*
X125017379Y-102868268D01*
X125243515Y-102774831D01*
X125533852Y-102485000D01*
X125729995Y-102485000D01*
X125730000Y-102485001D01*
X126012484Y-102428810D01*
X126068675Y-102417633D01*
X126355790Y-102225790D01*
X127186408Y-101395171D01*
X130682799Y-101395171D01*
X130710770Y-101945448D01*
X130867540Y-102323923D01*
X131108483Y-102391912D01*
X131900395Y-101600000D01*
X132259605Y-101600000D01*
X133051517Y-102391912D01*
X133292460Y-102323923D01*
X133477201Y-101804829D01*
X133449230Y-101254552D01*
X133292460Y-100876077D01*
X133051517Y-100808088D01*
X132259605Y-101600000D01*
X131900395Y-101600000D01*
X131108483Y-100808088D01*
X130867540Y-100876077D01*
X130682799Y-101395171D01*
X127186408Y-101395171D01*
X129247294Y-99334285D01*
X130694760Y-99334285D01*
X130905169Y-99843515D01*
X131294436Y-100233461D01*
X131510979Y-100323377D01*
X131356077Y-100387540D01*
X131288088Y-100628483D01*
X132080000Y-101420395D01*
X132871912Y-100628483D01*
X132803923Y-100387540D01*
X132637379Y-100328268D01*
X132863515Y-100234831D01*
X133253461Y-99845564D01*
X133464759Y-99336702D01*
X133465240Y-98785715D01*
X133254831Y-98276485D01*
X132865564Y-97886539D01*
X132649021Y-97796623D01*
X132803923Y-97732460D01*
X132871912Y-97491517D01*
X132080000Y-96699605D01*
X131288088Y-97491517D01*
X131356077Y-97732460D01*
X131522621Y-97791732D01*
X131296485Y-97885169D01*
X130906539Y-98274436D01*
X130695241Y-98783298D01*
X130694760Y-99334285D01*
X129247294Y-99334285D01*
X129530787Y-99050792D01*
X129530790Y-99050790D01*
X129722633Y-98763675D01*
X129760051Y-98575564D01*
X129790001Y-98425000D01*
X129790000Y-98424995D01*
X129790000Y-96315171D01*
X130682799Y-96315171D01*
X130710770Y-96865448D01*
X130867540Y-97243923D01*
X131108483Y-97311912D01*
X131900395Y-96520000D01*
X132259605Y-96520000D01*
X133051517Y-97311912D01*
X133292460Y-97243923D01*
X133477201Y-96724829D01*
X133449230Y-96174552D01*
X133292460Y-95796077D01*
X133051517Y-95728088D01*
X132259605Y-96520000D01*
X131900395Y-96520000D01*
X131108483Y-95728088D01*
X130867540Y-95796077D01*
X130682799Y-96315171D01*
X129790000Y-96315171D01*
X129790000Y-94254285D01*
X130694760Y-94254285D01*
X130905169Y-94763515D01*
X131294436Y-95153461D01*
X131510979Y-95243377D01*
X131356077Y-95307540D01*
X131288088Y-95548483D01*
X132080000Y-96340395D01*
X132871912Y-95548483D01*
X132803923Y-95307540D01*
X132637379Y-95248268D01*
X132863515Y-95154831D01*
X133253461Y-94765564D01*
X133464759Y-94256702D01*
X133465240Y-93705715D01*
X133254831Y-93196485D01*
X132865564Y-92806539D01*
X132649021Y-92716623D01*
X132803923Y-92652460D01*
X132871912Y-92411517D01*
X132080000Y-91619605D01*
X131288088Y-92411517D01*
X131356077Y-92652460D01*
X131522621Y-92711732D01*
X131296485Y-92805169D01*
X130906539Y-93194436D01*
X130695241Y-93703298D01*
X130694760Y-94254285D01*
X129790000Y-94254285D01*
X129790000Y-91235171D01*
X130682799Y-91235171D01*
X130710770Y-91785448D01*
X130867540Y-92163923D01*
X131108483Y-92231912D01*
X131900395Y-91440000D01*
X132259605Y-91440000D01*
X133051517Y-92231912D01*
X133292460Y-92163923D01*
X133477201Y-91644829D01*
X133449230Y-91094552D01*
X133292460Y-90716077D01*
X133051517Y-90648088D01*
X132259605Y-91440000D01*
X131900395Y-91440000D01*
X131108483Y-90648088D01*
X130867540Y-90716077D01*
X130682799Y-91235171D01*
X129790000Y-91235171D01*
X129790000Y-89174285D01*
X130694760Y-89174285D01*
X130905169Y-89683515D01*
X131294436Y-90073461D01*
X131510979Y-90163377D01*
X131356077Y-90227540D01*
X131288088Y-90468483D01*
X132080000Y-91260395D01*
X132871912Y-90468483D01*
X132803923Y-90227540D01*
X132637379Y-90168268D01*
X132863515Y-90074831D01*
X133253461Y-89685564D01*
X133464759Y-89176702D01*
X133465240Y-88625715D01*
X133254831Y-88116485D01*
X132865564Y-87726539D01*
X132356702Y-87515241D01*
X131805715Y-87514760D01*
X131296485Y-87725169D01*
X130906539Y-88114436D01*
X130695241Y-88623298D01*
X130694760Y-89174285D01*
X129790000Y-89174285D01*
X129790000Y-87996580D01*
X130541579Y-87245000D01*
X136729384Y-87245000D01*
X136494539Y-87479436D01*
X136283241Y-87988298D01*
X136282760Y-88539285D01*
X136493169Y-89048515D01*
X136783000Y-89338852D01*
X136783000Y-92906477D01*
X136494539Y-93194436D01*
X136283241Y-93703298D01*
X136282760Y-94254285D01*
X136493169Y-94763515D01*
X136783000Y-95053852D01*
X136783000Y-97662995D01*
X136782999Y-97663000D01*
X136810094Y-97799211D01*
X136850367Y-98001675D01*
X136991786Y-98213325D01*
X137042210Y-98288790D01*
X139572560Y-100819139D01*
X139572560Y-101715000D01*
X139616838Y-101950317D01*
X139755910Y-102166441D01*
X139968110Y-102311431D01*
X140085000Y-102335102D01*
X140085000Y-104408421D01*
X132724210Y-111769210D01*
X132532367Y-112056325D01*
X132532367Y-112056326D01*
X132464999Y-112395000D01*
X132465000Y-112395005D01*
X132465000Y-112591477D01*
X132176539Y-112879436D01*
X132080024Y-113111870D01*
X131984831Y-112881485D01*
X131595564Y-112491539D01*
X131086702Y-112280241D01*
X130535715Y-112279760D01*
X130026485Y-112490169D01*
X129655000Y-112861007D01*
X129655000Y-112788690D01*
X129558327Y-112555301D01*
X129379698Y-112376673D01*
X129146309Y-112280000D01*
X128555750Y-112280000D01*
X128397000Y-112438750D01*
X128397000Y-113538000D01*
X128417000Y-113538000D01*
X128417000Y-113792000D01*
X128397000Y-113792000D01*
X128397000Y-114891250D01*
X128555750Y-115050000D01*
X129146309Y-115050000D01*
X129379698Y-114953327D01*
X129558327Y-114774699D01*
X129655000Y-114541310D01*
X129655000Y-114468381D01*
X130024436Y-114838461D01*
X130533298Y-115049759D01*
X131084285Y-115050240D01*
X131593515Y-114839831D01*
X131983461Y-114450564D01*
X132079976Y-114218130D01*
X132175169Y-114448515D01*
X132564436Y-114838461D01*
X133073298Y-115049759D01*
X133624285Y-115050240D01*
X134133515Y-114839831D01*
X134523461Y-114450564D01*
X134619976Y-114218130D01*
X134715169Y-114448515D01*
X135104436Y-114838461D01*
X135613298Y-115049759D01*
X136164285Y-115050240D01*
X136673515Y-114839831D01*
X136877183Y-114636517D01*
X137638088Y-114636517D01*
X137706077Y-114877460D01*
X138225171Y-115062201D01*
X138775448Y-115034230D01*
X139153923Y-114877460D01*
X139221912Y-114636517D01*
X138430000Y-113844605D01*
X137638088Y-114636517D01*
X136877183Y-114636517D01*
X137063461Y-114450564D01*
X137153377Y-114234021D01*
X137217540Y-114388923D01*
X137458483Y-114456912D01*
X138250395Y-113665000D01*
X137458483Y-112873088D01*
X137217540Y-112941077D01*
X137158268Y-113107621D01*
X137064831Y-112881485D01*
X136877157Y-112693483D01*
X137638088Y-112693483D01*
X138430000Y-113485395D01*
X139221912Y-112693483D01*
X139153923Y-112452540D01*
X138634829Y-112267799D01*
X138084552Y-112295770D01*
X137706077Y-112452540D01*
X137638088Y-112693483D01*
X136877157Y-112693483D01*
X136775000Y-112591148D01*
X136775000Y-112126580D01*
X140085000Y-108816580D01*
X140085000Y-112591477D01*
X139796539Y-112879436D01*
X139706623Y-113095979D01*
X139642460Y-112941077D01*
X139401517Y-112873088D01*
X138609605Y-113665000D01*
X139401517Y-114456912D01*
X139642460Y-114388923D01*
X139701732Y-114222379D01*
X139795169Y-114448515D01*
X140184436Y-114838461D01*
X140693298Y-115049759D01*
X141244285Y-115050240D01*
X141753515Y-114839831D01*
X142143461Y-114450564D01*
X142239976Y-114218130D01*
X142335169Y-114448515D01*
X142724436Y-114838461D01*
X143233298Y-115049759D01*
X143784285Y-115050240D01*
X144293515Y-114839831D01*
X144683461Y-114450564D01*
X144779976Y-114218130D01*
X144875169Y-114448515D01*
X145264436Y-114838461D01*
X145773298Y-115049759D01*
X146324285Y-115050240D01*
X146833515Y-114839831D01*
X147223461Y-114450564D01*
X147319976Y-114218130D01*
X147415169Y-114448515D01*
X147804436Y-114838461D01*
X148313298Y-115049759D01*
X148864285Y-115050240D01*
X149373515Y-114839831D01*
X149763461Y-114450564D01*
X149859976Y-114218130D01*
X149955169Y-114448515D01*
X150344436Y-114838461D01*
X150853298Y-115049759D01*
X151404285Y-115050240D01*
X151913515Y-114839831D01*
X152303461Y-114450564D01*
X152399976Y-114218130D01*
X152495169Y-114448515D01*
X152884436Y-114838461D01*
X153393298Y-115049759D01*
X153944285Y-115050240D01*
X154453515Y-114839831D01*
X154843461Y-114450564D01*
X154939976Y-114218130D01*
X155035169Y-114448515D01*
X155424436Y-114838461D01*
X155933298Y-115049759D01*
X156484285Y-115050240D01*
X156993515Y-114839831D01*
X157383461Y-114450564D01*
X157479976Y-114218130D01*
X157575169Y-114448515D01*
X157964436Y-114838461D01*
X158473298Y-115049759D01*
X159024285Y-115050240D01*
X159533515Y-114839831D01*
X159923461Y-114450564D01*
X160019976Y-114218130D01*
X160115169Y-114448515D01*
X160504436Y-114838461D01*
X161013298Y-115049759D01*
X161564285Y-115050240D01*
X162073515Y-114839831D01*
X162463461Y-114450564D01*
X162559976Y-114218130D01*
X162655169Y-114448515D01*
X163044436Y-114838461D01*
X163184804Y-114896747D01*
X163204210Y-114925790D01*
X163491325Y-115117633D01*
X163830000Y-115185000D01*
X164168675Y-115117633D01*
X164455790Y-114925790D01*
X164474978Y-114897073D01*
X164613515Y-114839831D01*
X165003461Y-114450564D01*
X165099976Y-114218130D01*
X165195169Y-114448515D01*
X165584436Y-114838461D01*
X166093298Y-115049759D01*
X166644285Y-115050240D01*
X167153515Y-114839831D01*
X167543461Y-114450564D01*
X167754759Y-113941702D01*
X167755240Y-113390715D01*
X167544831Y-112881485D01*
X167440219Y-112776690D01*
X172593000Y-112776690D01*
X172593000Y-114649250D01*
X172751750Y-114808000D01*
X173863000Y-114808000D01*
X173863000Y-112426750D01*
X173704250Y-112268000D01*
X173101691Y-112268000D01*
X172868302Y-112364673D01*
X172689673Y-112543301D01*
X172593000Y-112776690D01*
X167440219Y-112776690D01*
X167155564Y-112491539D01*
X166646702Y-112280241D01*
X166095715Y-112279760D01*
X165586485Y-112490169D01*
X165196539Y-112879436D01*
X165100024Y-113111870D01*
X165004831Y-112881485D01*
X164615564Y-112491539D01*
X164106702Y-112280241D01*
X163555715Y-112279760D01*
X163046485Y-112490169D01*
X162656539Y-112879436D01*
X162560024Y-113111870D01*
X162464831Y-112881485D01*
X162260141Y-112676438D01*
X164831579Y-110105000D01*
X167639995Y-110105000D01*
X167640000Y-110105001D01*
X167922484Y-110048810D01*
X167978675Y-110037633D01*
X168265790Y-109845790D01*
X169535787Y-108575792D01*
X169535790Y-108575790D01*
X169727633Y-108288675D01*
X169736057Y-108246325D01*
X169795001Y-107950000D01*
X169795000Y-107949995D01*
X169795000Y-95135000D01*
X171322560Y-95135000D01*
X171322560Y-96635000D01*
X171366838Y-96870317D01*
X171505910Y-97086441D01*
X171718110Y-97231431D01*
X171970000Y-97282440D01*
X173470000Y-97282440D01*
X173705317Y-97238162D01*
X173921441Y-97099090D01*
X174066431Y-96886890D01*
X174117440Y-96635000D01*
X174117440Y-95135000D01*
X174073162Y-94899683D01*
X173934090Y-94683559D01*
X173721890Y-94538569D01*
X173524738Y-94498645D01*
X173893461Y-94130564D01*
X174104759Y-93621702D01*
X174105240Y-93070715D01*
X173894831Y-92561485D01*
X173505564Y-92171539D01*
X173273130Y-92075024D01*
X173503515Y-91979831D01*
X173893461Y-91590564D01*
X173951747Y-91450196D01*
X173980790Y-91430790D01*
X174172633Y-91143675D01*
X174240000Y-90805000D01*
X174172633Y-90466325D01*
X173980790Y-90179210D01*
X173952073Y-90160022D01*
X173894831Y-90021485D01*
X173505564Y-89631539D01*
X173273130Y-89535024D01*
X173503515Y-89439831D01*
X173893461Y-89050564D01*
X174104759Y-88541702D01*
X174105240Y-87990715D01*
X173894831Y-87481485D01*
X173505564Y-87091539D01*
X173289021Y-87001623D01*
X173443923Y-86937460D01*
X173511912Y-86696517D01*
X172720000Y-85904605D01*
X171928088Y-86696517D01*
X171996077Y-86937460D01*
X172162621Y-86996732D01*
X171936485Y-87090169D01*
X171546539Y-87479436D01*
X171335241Y-87988298D01*
X171334760Y-88539285D01*
X171545169Y-89048515D01*
X171934436Y-89438461D01*
X172166870Y-89534976D01*
X171936485Y-89630169D01*
X171546539Y-90019436D01*
X171335241Y-90528298D01*
X171334760Y-91079285D01*
X171545169Y-91588515D01*
X171934436Y-91978461D01*
X172166870Y-92074976D01*
X171936485Y-92170169D01*
X171546539Y-92559436D01*
X171335241Y-93068298D01*
X171334760Y-93619285D01*
X171545169Y-94128515D01*
X171914091Y-94498080D01*
X171734683Y-94531838D01*
X171518559Y-94670910D01*
X171373569Y-94883110D01*
X171322560Y-95135000D01*
X169795000Y-95135000D01*
X169795000Y-85520171D01*
X171322799Y-85520171D01*
X171350770Y-86070448D01*
X171507540Y-86448923D01*
X171748483Y-86516912D01*
X172540395Y-85725000D01*
X172899605Y-85725000D01*
X173691517Y-86516912D01*
X173932460Y-86448923D01*
X174117201Y-85929829D01*
X174089230Y-85379552D01*
X173932460Y-85001077D01*
X173691517Y-84933088D01*
X172899605Y-85725000D01*
X172540395Y-85725000D01*
X171748483Y-84933088D01*
X171507540Y-85001077D01*
X171322799Y-85520171D01*
X169795000Y-85520171D01*
X169795000Y-84455005D01*
X169795001Y-84455000D01*
X169727633Y-84116326D01*
X169727633Y-84116325D01*
X169535790Y-83829210D01*
X169535787Y-83829208D01*
X167975125Y-82268546D01*
X168178461Y-82065564D01*
X168389759Y-81556702D01*
X168390240Y-81005715D01*
X168179831Y-80496485D01*
X167790564Y-80106539D01*
X167281702Y-79895241D01*
X166730715Y-79894760D01*
X166221485Y-80105169D01*
X165831539Y-80494436D01*
X165735024Y-80726870D01*
X165639831Y-80496485D01*
X165250564Y-80106539D01*
X164741702Y-79895241D01*
X164190715Y-79894760D01*
X163681485Y-80105169D01*
X163291539Y-80494436D01*
X163195024Y-80726870D01*
X163099831Y-80496485D01*
X162710564Y-80106539D01*
X162201702Y-79895241D01*
X161650715Y-79894760D01*
X161141485Y-80105169D01*
X160751539Y-80494436D01*
X160655024Y-80726870D01*
X160559831Y-80496485D01*
X160170564Y-80106539D01*
X159661702Y-79895241D01*
X159110715Y-79894760D01*
X158601485Y-80105169D01*
X158211539Y-80494436D01*
X158115024Y-80726870D01*
X158019831Y-80496485D01*
X157630564Y-80106539D01*
X157121702Y-79895241D01*
X156570715Y-79894760D01*
X156061485Y-80105169D01*
X155671539Y-80494436D01*
X155575024Y-80726870D01*
X155479831Y-80496485D01*
X155090564Y-80106539D01*
X154581702Y-79895241D01*
X154030715Y-79894760D01*
X153521485Y-80105169D01*
X153131539Y-80494436D01*
X153035024Y-80726870D01*
X152939831Y-80496485D01*
X152550564Y-80106539D01*
X152041702Y-79895241D01*
X151490715Y-79894760D01*
X150981485Y-80105169D01*
X150591539Y-80494436D01*
X150495024Y-80726870D01*
X150399831Y-80496485D01*
X150010564Y-80106539D01*
X149501702Y-79895241D01*
X148950715Y-79894760D01*
X148441485Y-80105169D01*
X148051539Y-80494436D01*
X147955024Y-80726870D01*
X147859831Y-80496485D01*
X147470564Y-80106539D01*
X146961702Y-79895241D01*
X146410715Y-79894760D01*
X145901485Y-80105169D01*
X145511539Y-80494436D01*
X145415024Y-80726870D01*
X145319831Y-80496485D01*
X144930564Y-80106539D01*
X144421702Y-79895241D01*
X143870715Y-79894760D01*
X143361485Y-80105169D01*
X142971539Y-80494436D01*
X142875024Y-80726870D01*
X142779831Y-80496485D01*
X142390564Y-80106539D01*
X141881702Y-79895241D01*
X141330715Y-79894760D01*
X140821485Y-80105169D01*
X140431539Y-80494436D01*
X140335024Y-80726870D01*
X140239831Y-80496485D01*
X139850564Y-80106539D01*
X139341702Y-79895241D01*
X138790715Y-79894760D01*
X138281485Y-80105169D01*
X137891539Y-80494436D01*
X137795024Y-80726870D01*
X137699831Y-80496485D01*
X137310564Y-80106539D01*
X136801702Y-79895241D01*
X136250715Y-79894760D01*
X135741485Y-80105169D01*
X135370000Y-80476007D01*
X135370000Y-80403691D01*
X135273327Y-80170302D01*
X135094699Y-79991673D01*
X134861310Y-79895000D01*
X134270750Y-79895000D01*
X134112000Y-80053750D01*
X134112000Y-81153000D01*
X134132000Y-81153000D01*
X134132000Y-81407000D01*
X134112000Y-81407000D01*
X134112000Y-82506250D01*
X134270750Y-82665000D01*
X134861310Y-82665000D01*
X135094699Y-82568327D01*
X135273327Y-82389698D01*
X135370000Y-82156309D01*
X135370000Y-82083381D01*
X135739436Y-82453461D01*
X136248298Y-82664759D01*
X136799285Y-82665240D01*
X137308515Y-82454831D01*
X137698461Y-82065564D01*
X137794976Y-81833130D01*
X137890169Y-82063515D01*
X138279436Y-82453461D01*
X138788298Y-82664759D01*
X139339285Y-82665240D01*
X139848515Y-82454831D01*
X140238461Y-82065564D01*
X140334976Y-81833130D01*
X140430169Y-82063515D01*
X140634859Y-82268562D01*
X139968420Y-82935000D01*
X127635005Y-82935000D01*
X127635000Y-82934999D01*
X127296325Y-83002367D01*
X127009210Y-83194210D01*
X127009208Y-83194213D01*
X125739210Y-84464210D01*
X125547367Y-84751325D01*
X125547367Y-84751326D01*
X125479999Y-85090000D01*
X125480000Y-85090005D01*
X125480000Y-87565943D01*
X125461890Y-87553569D01*
X125210000Y-87502560D01*
X123710000Y-87502560D01*
X123474683Y-87546838D01*
X123258559Y-87685910D01*
X123113569Y-87898110D01*
X123085697Y-88035747D01*
X122907516Y-88071190D01*
X122851325Y-88082367D01*
X122564210Y-88274210D01*
X122564208Y-88274213D01*
X119389210Y-91449210D01*
X119197367Y-91736325D01*
X119197367Y-91736326D01*
X119129999Y-92075000D01*
X119130000Y-92075005D01*
X119130000Y-98058421D01*
X114568420Y-102620000D01*
X109728005Y-102620000D01*
X109728000Y-102619999D01*
X109445516Y-102676190D01*
X109389325Y-102687367D01*
X109102210Y-102879210D01*
X109102208Y-102879213D01*
X106813304Y-105168116D01*
X106405715Y-105167760D01*
X105896485Y-105378169D01*
X105506539Y-105767436D01*
X105295241Y-106276298D01*
X105294760Y-106827285D01*
X97078000Y-106827285D01*
X97078000Y-100125171D01*
X98678799Y-100125171D01*
X98706770Y-100675448D01*
X98863540Y-101053923D01*
X99104483Y-101121912D01*
X99896395Y-100330000D01*
X100255605Y-100330000D01*
X101047517Y-101121912D01*
X101288460Y-101053923D01*
X101473201Y-100534829D01*
X101445230Y-99984552D01*
X101288460Y-99606077D01*
X101047517Y-99538088D01*
X100255605Y-100330000D01*
X99896395Y-100330000D01*
X99104483Y-99538088D01*
X98863540Y-99606077D01*
X98678799Y-100125171D01*
X97078000Y-100125171D01*
X97078000Y-95045171D01*
X98678799Y-95045171D01*
X98706770Y-95595448D01*
X98863540Y-95973923D01*
X99104483Y-96041912D01*
X99896395Y-95250000D01*
X100255605Y-95250000D01*
X101047517Y-96041912D01*
X101288460Y-95973923D01*
X101473201Y-95454829D01*
X101445230Y-94904552D01*
X101288460Y-94526077D01*
X101047517Y-94458088D01*
X100255605Y-95250000D01*
X99896395Y-95250000D01*
X99104483Y-94458088D01*
X98863540Y-94526077D01*
X98678799Y-95045171D01*
X97078000Y-95045171D01*
X97078000Y-92984285D01*
X98690760Y-92984285D01*
X98901169Y-93493515D01*
X99290436Y-93883461D01*
X99506979Y-93973377D01*
X99352077Y-94037540D01*
X99284088Y-94278483D01*
X100076000Y-95070395D01*
X100867912Y-94278483D01*
X100799923Y-94037540D01*
X100633379Y-93978268D01*
X100859515Y-93884831D01*
X101149852Y-93595000D01*
X101233420Y-93595000D01*
X103387208Y-95748787D01*
X103387210Y-95748790D01*
X103591064Y-95885000D01*
X103674325Y-95940633D01*
X104013000Y-96008000D01*
X105606477Y-96008000D01*
X105795000Y-96196852D01*
X105795000Y-96589477D01*
X105506539Y-96877436D01*
X105295241Y-97386298D01*
X105294760Y-97937285D01*
X105505169Y-98446515D01*
X105868021Y-98810000D01*
X103889579Y-98810000D01*
X102373984Y-97186148D01*
X102361402Y-97177098D01*
X102352790Y-97164210D01*
X102221666Y-97076596D01*
X102093651Y-96984524D01*
X102078562Y-96980978D01*
X102065675Y-96972367D01*
X101911023Y-96941605D01*
X101757499Y-96905525D01*
X101742200Y-96908024D01*
X101727000Y-96905000D01*
X101149523Y-96905000D01*
X100861564Y-96616539D01*
X100645021Y-96526623D01*
X100799923Y-96462460D01*
X100867912Y-96221517D01*
X100076000Y-95429605D01*
X99284088Y-96221517D01*
X99352077Y-96462460D01*
X99518621Y-96521732D01*
X99292485Y-96615169D01*
X98902539Y-97004436D01*
X98691241Y-97513298D01*
X98690760Y-98064285D01*
X98901169Y-98573515D01*
X99290436Y-98963461D01*
X99506979Y-99053377D01*
X99352077Y-99117540D01*
X99284088Y-99358483D01*
X100076000Y-100150395D01*
X100867912Y-99358483D01*
X100799923Y-99117540D01*
X100633379Y-99058268D01*
X100859515Y-98964831D01*
X101149852Y-98675000D01*
X101342421Y-98675000D01*
X102858016Y-100298852D01*
X102870598Y-100307902D01*
X102879210Y-100320790D01*
X103010334Y-100408404D01*
X103138349Y-100500476D01*
X103153438Y-100504022D01*
X103166325Y-100512633D01*
X103320977Y-100543395D01*
X103474501Y-100579475D01*
X103489800Y-100576976D01*
X103505000Y-100580000D01*
X104543421Y-100580000D01*
X103138420Y-101985000D01*
X101149523Y-101985000D01*
X100861564Y-101696539D01*
X100645021Y-101606623D01*
X100799923Y-101542460D01*
X100867912Y-101301517D01*
X100076000Y-100509605D01*
X99284088Y-101301517D01*
X99352077Y-101542460D01*
X99518621Y-101601732D01*
X99292485Y-101695169D01*
X98902539Y-102084436D01*
X98691241Y-102593298D01*
X98690760Y-103144285D01*
X98901169Y-103653515D01*
X99290436Y-104043461D01*
X99799298Y-104254759D01*
X100350285Y-104255240D01*
X100859515Y-104044831D01*
X101149852Y-103755000D01*
X103504995Y-103755000D01*
X103505000Y-103755001D01*
X103787484Y-103698810D01*
X103843675Y-103687633D01*
X104130790Y-103495790D01*
X105776579Y-101850000D01*
X113665000Y-101850000D01*
X113673656Y-101848278D01*
X113682350Y-101849831D01*
X113842722Y-101814649D01*
X114003675Y-101782633D01*
X114011015Y-101777729D01*
X114019638Y-101775837D01*
X114154284Y-101682000D01*
X114290790Y-101590790D01*
X114295696Y-101583447D01*
X114302937Y-101578401D01*
X116736102Y-99047910D01*
X117114285Y-99048240D01*
X117623515Y-98837831D01*
X118013461Y-98448564D01*
X118224759Y-97939702D01*
X118225240Y-97388715D01*
X118014831Y-96879485D01*
X117725000Y-96589148D01*
X117725000Y-96196523D01*
X118013461Y-95908564D01*
X118224759Y-95399702D01*
X118225240Y-94848715D01*
X118014831Y-94339485D01*
X117625564Y-93949539D01*
X117116702Y-93738241D01*
X116565715Y-93737760D01*
X116056485Y-93948169D01*
X115666539Y-94337436D01*
X115455241Y-94846298D01*
X115454760Y-95397285D01*
X115665169Y-95906515D01*
X115955000Y-96196852D01*
X115955000Y-96589477D01*
X115666539Y-96877436D01*
X115455241Y-97386298D01*
X115454857Y-97826694D01*
X113288216Y-100080000D01*
X110707160Y-100080000D01*
X111674729Y-99047926D01*
X112034285Y-99048240D01*
X112543515Y-98837831D01*
X112933461Y-98448564D01*
X113144759Y-97939702D01*
X113145240Y-97388715D01*
X112934831Y-96879485D01*
X112645000Y-96589148D01*
X112645000Y-96196523D01*
X112933461Y-95908564D01*
X113144759Y-95399702D01*
X113145240Y-94848715D01*
X112934831Y-94339485D01*
X112545564Y-93949539D01*
X112036702Y-93738241D01*
X111485715Y-93737760D01*
X110976485Y-93948169D01*
X110586539Y-94337436D01*
X110375241Y-94846298D01*
X110374760Y-95397285D01*
X110585169Y-95906515D01*
X110875000Y-96196852D01*
X110875000Y-96589477D01*
X110586539Y-96877436D01*
X110375241Y-97386298D01*
X110374839Y-97846534D01*
X109471590Y-98810000D01*
X107491395Y-98810000D01*
X107853461Y-98448564D01*
X108064759Y-97939702D01*
X108065240Y-97388715D01*
X107854831Y-96879485D01*
X107565000Y-96589148D01*
X107565000Y-96196523D01*
X107853461Y-95908564D01*
X108064759Y-95399702D01*
X108065240Y-94848715D01*
X107854831Y-94339485D01*
X107465564Y-93949539D01*
X106956702Y-93738241D01*
X106405715Y-93737760D01*
X105896485Y-93948169D01*
X105606148Y-94238000D01*
X104379579Y-94238000D01*
X102225790Y-92084210D01*
X102198222Y-92065790D01*
X101938675Y-91892367D01*
X101882484Y-91881190D01*
X101600000Y-91824999D01*
X101599995Y-91825000D01*
X101149523Y-91825000D01*
X100861564Y-91536539D01*
X100352702Y-91325241D01*
X99801715Y-91324760D01*
X99292485Y-91535169D01*
X98902539Y-91924436D01*
X98691241Y-92433298D01*
X98690760Y-92984285D01*
X97078000Y-92984285D01*
X97078000Y-86507285D01*
X105294760Y-86507285D01*
X105505169Y-87016515D01*
X105894436Y-87406461D01*
X106403298Y-87617759D01*
X106954285Y-87618240D01*
X107463515Y-87407831D01*
X107853461Y-87018564D01*
X108064759Y-86509702D01*
X108064761Y-86507285D01*
X110374760Y-86507285D01*
X110585169Y-87016515D01*
X110974436Y-87406461D01*
X111483298Y-87617759D01*
X112034285Y-87618240D01*
X112543515Y-87407831D01*
X112933461Y-87018564D01*
X113144759Y-86509702D01*
X113144761Y-86507285D01*
X115454760Y-86507285D01*
X115665169Y-87016515D01*
X116054436Y-87406461D01*
X116563298Y-87617759D01*
X117114285Y-87618240D01*
X117623515Y-87407831D01*
X118013461Y-87018564D01*
X118224759Y-86509702D01*
X118225240Y-85958715D01*
X118014831Y-85449485D01*
X117625564Y-85059539D01*
X117116702Y-84848241D01*
X116565715Y-84847760D01*
X116056485Y-85058169D01*
X115666539Y-85447436D01*
X115455241Y-85956298D01*
X115454760Y-86507285D01*
X113144761Y-86507285D01*
X113145240Y-85958715D01*
X112934831Y-85449485D01*
X112545564Y-85059539D01*
X112036702Y-84848241D01*
X111485715Y-84847760D01*
X110976485Y-85058169D01*
X110586539Y-85447436D01*
X110375241Y-85956298D01*
X110374760Y-86507285D01*
X108064761Y-86507285D01*
X108065240Y-85958715D01*
X107854831Y-85449485D01*
X107465564Y-85059539D01*
X106956702Y-84848241D01*
X106405715Y-84847760D01*
X105896485Y-85058169D01*
X105506539Y-85447436D01*
X105295241Y-85956298D01*
X105294760Y-86507285D01*
X97078000Y-86507285D01*
X97078000Y-81565750D01*
X132600000Y-81565750D01*
X132600000Y-82156309D01*
X132696673Y-82389698D01*
X132875301Y-82568327D01*
X133108690Y-82665000D01*
X133699250Y-82665000D01*
X133858000Y-82506250D01*
X133858000Y-81407000D01*
X132758750Y-81407000D01*
X132600000Y-81565750D01*
X97078000Y-81565750D01*
X97078000Y-80403691D01*
X132600000Y-80403691D01*
X132600000Y-80994250D01*
X132758750Y-81153000D01*
X133858000Y-81153000D01*
X133858000Y-80053750D01*
X133699250Y-79895000D01*
X133108690Y-79895000D01*
X132875301Y-79991673D01*
X132696673Y-80170302D01*
X132600000Y-80403691D01*
X97078000Y-80403691D01*
X97078000Y-61772000D01*
X102562144Y-61772000D01*
X102562144Y-62673665D01*
X102562144Y-62673665D01*
G37*
X102562144Y-62673665D02*
X101591326Y-62270546D01*
X100344146Y-62269457D01*
X99191485Y-62745727D01*
X98308826Y-63626847D01*
X97830546Y-64778674D01*
X97829457Y-66025854D01*
X98305727Y-67178515D01*
X99186847Y-68061174D01*
X100338674Y-68539454D01*
X101585854Y-68540543D01*
X102738515Y-68064273D01*
X103621174Y-67183153D01*
X104099454Y-66031326D01*
X104100485Y-64850000D01*
X108740716Y-64850000D01*
X108740716Y-66940000D01*
X124939284Y-66940000D01*
X124939284Y-64850000D01*
X131117857Y-64850000D01*
X131117857Y-61772000D01*
X131849511Y-61772000D01*
X131541539Y-62079436D01*
X131330241Y-62588298D01*
X131329760Y-63139285D01*
X131540169Y-63648515D01*
X131830000Y-63938852D01*
X131830000Y-64769995D01*
X131829999Y-64770000D01*
X131886190Y-65052484D01*
X131897367Y-65108675D01*
X131994761Y-65254436D01*
X132089210Y-65395790D01*
X132600116Y-65906695D01*
X132599760Y-66314285D01*
X132810169Y-66823515D01*
X133199436Y-67213461D01*
X133708298Y-67424759D01*
X134259285Y-67425240D01*
X134768515Y-67214831D01*
X134972183Y-67011517D01*
X135733088Y-67011517D01*
X135801077Y-67252460D01*
X136320171Y-67437201D01*
X136870448Y-67409230D01*
X137248923Y-67252460D01*
X137316912Y-67011517D01*
X136525000Y-66219605D01*
X135733088Y-67011517D01*
X134972183Y-67011517D01*
X135158461Y-66825564D01*
X135248377Y-66609021D01*
X135312540Y-66763923D01*
X135553483Y-66831912D01*
X136345395Y-66040000D01*
X136704605Y-66040000D01*
X137496517Y-66831912D01*
X137737460Y-66763923D01*
X137796732Y-66597379D01*
X137890169Y-66823515D01*
X138279436Y-67213461D01*
X138788298Y-67424759D01*
X139339285Y-67425240D01*
X139848515Y-67214831D01*
X140238461Y-66825564D01*
X140334976Y-66593130D01*
X140430169Y-66823515D01*
X140819436Y-67213461D01*
X141328298Y-67424759D01*
X141879285Y-67425240D01*
X142388515Y-67214831D01*
X142778461Y-66825564D01*
X142874976Y-66593130D01*
X142970169Y-66823515D01*
X143359436Y-67213461D01*
X143868298Y-67424759D01*
X144419285Y-67425240D01*
X144928515Y-67214831D01*
X145318461Y-66825564D01*
X145414976Y-66593130D01*
X145510169Y-66823515D01*
X145899436Y-67213461D01*
X146408298Y-67424759D01*
X146959285Y-67425240D01*
X147468515Y-67214831D01*
X147858461Y-66825564D01*
X147954976Y-66593130D01*
X148050169Y-66823515D01*
X148439436Y-67213461D01*
X148948298Y-67424759D01*
X149499285Y-67425240D01*
X150008515Y-67214831D01*
X150398461Y-66825564D01*
X150494976Y-66593130D01*
X150590169Y-66823515D01*
X150979436Y-67213461D01*
X151488298Y-67424759D01*
X152039285Y-67425240D01*
X152548515Y-67214831D01*
X152938461Y-66825564D01*
X153034976Y-66593130D01*
X153130169Y-66823515D01*
X153519436Y-67213461D01*
X154028298Y-67424759D01*
X154579285Y-67425240D01*
X155088515Y-67214831D01*
X155478461Y-66825564D01*
X155574976Y-66593130D01*
X155670169Y-66823515D01*
X156059436Y-67213461D01*
X156568298Y-67424759D01*
X157119285Y-67425240D01*
X157628515Y-67214831D01*
X158018461Y-66825564D01*
X158114976Y-66593130D01*
X158210169Y-66823515D01*
X158599436Y-67213461D01*
X159108298Y-67424759D01*
X159659285Y-67425240D01*
X160168515Y-67214831D01*
X160558461Y-66825564D01*
X160654976Y-66593130D01*
X160750169Y-66823515D01*
X161139436Y-67213461D01*
X161648298Y-67424759D01*
X162199285Y-67425240D01*
X162708515Y-67214831D01*
X163098461Y-66825564D01*
X163194976Y-66593130D01*
X163290169Y-66823515D01*
X163679436Y-67213461D01*
X164188298Y-67424759D01*
X164739285Y-67425240D01*
X165248515Y-67214831D01*
X165638461Y-66825564D01*
X165734976Y-66593130D01*
X165830169Y-66823515D01*
X166219436Y-67213461D01*
X166728298Y-67424759D01*
X167279285Y-67425240D01*
X167788515Y-67214831D01*
X168178461Y-66825564D01*
X168389759Y-66316702D01*
X168390240Y-65765715D01*
X168179831Y-65256485D01*
X167790564Y-64866539D01*
X167281702Y-64655241D01*
X166730715Y-64654760D01*
X166221485Y-64865169D01*
X165831539Y-65254436D01*
X165735024Y-65486870D01*
X165639831Y-65256485D01*
X165250564Y-64866539D01*
X164741702Y-64655241D01*
X164190715Y-64654760D01*
X163681485Y-64865169D01*
X163291539Y-65254436D01*
X163195024Y-65486870D01*
X163099831Y-65256485D01*
X162710564Y-64866539D01*
X162201702Y-64655241D01*
X161650715Y-64654760D01*
X161141485Y-64865169D01*
X160751539Y-65254436D01*
X160655024Y-65486870D01*
X160559831Y-65256485D01*
X160170564Y-64866539D01*
X159661702Y-64655241D01*
X159110715Y-64654760D01*
X158601485Y-64865169D01*
X158211539Y-65254436D01*
X158115024Y-65486870D01*
X158019831Y-65256485D01*
X157630564Y-64866539D01*
X157121702Y-64655241D01*
X156570715Y-64654760D01*
X156061485Y-64865169D01*
X155671539Y-65254436D01*
X155575024Y-65486870D01*
X155479831Y-65256485D01*
X155090564Y-64866539D01*
X154581702Y-64655241D01*
X154030715Y-64654760D01*
X153521485Y-64865169D01*
X153131539Y-65254436D01*
X153035024Y-65486870D01*
X152939831Y-65256485D01*
X152550564Y-64866539D01*
X152041702Y-64655241D01*
X151490715Y-64654760D01*
X150981485Y-64865169D01*
X150591539Y-65254436D01*
X150495024Y-65486870D01*
X150399831Y-65256485D01*
X150010564Y-64866539D01*
X149501702Y-64655241D01*
X148950715Y-64654760D01*
X148441485Y-64865169D01*
X148051539Y-65254436D01*
X147955024Y-65486870D01*
X147859831Y-65256485D01*
X147470564Y-64866539D01*
X146961702Y-64655241D01*
X146410715Y-64654760D01*
X145901485Y-64865169D01*
X145511539Y-65254436D01*
X145415024Y-65486870D01*
X145319831Y-65256485D01*
X144930564Y-64866539D01*
X144421702Y-64655241D01*
X143870715Y-64654760D01*
X143361485Y-64865169D01*
X142971539Y-65254436D01*
X142875024Y-65486870D01*
X142779831Y-65256485D01*
X142390564Y-64866539D01*
X141881702Y-64655241D01*
X141330715Y-64654760D01*
X140821485Y-64865169D01*
X140431539Y-65254436D01*
X140335024Y-65486870D01*
X140239831Y-65256485D01*
X139850564Y-64866539D01*
X139341702Y-64655241D01*
X138790715Y-64654760D01*
X138281485Y-64865169D01*
X137891539Y-65254436D01*
X137801623Y-65470979D01*
X137737460Y-65316077D01*
X137496517Y-65248088D01*
X136704605Y-66040000D01*
X136345395Y-66040000D01*
X135553483Y-65248088D01*
X135312540Y-65316077D01*
X135253268Y-65482621D01*
X135159831Y-65256485D01*
X134972157Y-65068483D01*
X135733088Y-65068483D01*
X136525000Y-65860395D01*
X137316912Y-65068483D01*
X137248923Y-64827540D01*
X136729829Y-64642799D01*
X136179552Y-64670770D01*
X135801077Y-64827540D01*
X135733088Y-65068483D01*
X134972157Y-65068483D01*
X134770564Y-64866539D01*
X134261702Y-64655241D01*
X133851462Y-64654883D01*
X133600000Y-64403420D01*
X133600000Y-63938523D01*
X133702183Y-63836517D01*
X137003088Y-63836517D01*
X137071077Y-64077460D01*
X137590171Y-64262201D01*
X138140448Y-64234230D01*
X138518923Y-64077460D01*
X138586912Y-63836517D01*
X170658088Y-63836517D01*
X170726077Y-64077460D01*
X171245171Y-64262201D01*
X171795448Y-64234230D01*
X172173923Y-64077460D01*
X172241912Y-63836517D01*
X171450000Y-63044605D01*
X170658088Y-63836517D01*
X138586912Y-63836517D01*
X137795000Y-63044605D01*
X137003088Y-63836517D01*
X133702183Y-63836517D01*
X133888461Y-63650564D01*
X134099759Y-63141702D01*
X134100179Y-62660171D01*
X136397799Y-62660171D01*
X136425770Y-63210448D01*
X136582540Y-63588923D01*
X136823483Y-63656912D01*
X137615395Y-62865000D01*
X137974605Y-62865000D01*
X138766517Y-63656912D01*
X139007460Y-63588923D01*
X139192201Y-63069829D01*
X139171378Y-62660171D01*
X170052799Y-62660171D01*
X170080770Y-63210448D01*
X170237540Y-63588923D01*
X170478483Y-63656912D01*
X171270395Y-62865000D01*
X170478483Y-62073088D01*
X170237540Y-62141077D01*
X170052799Y-62660171D01*
X139171378Y-62660171D01*
X139164230Y-62519552D01*
X139007460Y-62141077D01*
X138766517Y-62073088D01*
X137974605Y-62865000D01*
X137615395Y-62865000D01*
X136823483Y-62073088D01*
X136582540Y-62141077D01*
X136397799Y-62660171D01*
X134100179Y-62660171D01*
X134100240Y-62590715D01*
X133889831Y-62081485D01*
X133580885Y-61772000D01*
X137037368Y-61772000D01*
X137003088Y-61893483D01*
X137795000Y-62685395D01*
X138586912Y-61893483D01*
X138552632Y-61772000D01*
X170692368Y-61772000D01*
X170658088Y-61893483D01*
X171450000Y-62685395D01*
X172241912Y-61893483D01*
X172207632Y-61772000D01*
X172693822Y-61772000D01*
X172631569Y-61863110D01*
X172580560Y-62115000D01*
X172580560Y-62117967D01*
X172421517Y-62073088D01*
X171629605Y-62865000D01*
X172421517Y-63656912D01*
X172580560Y-63612033D01*
X172580560Y-63615000D01*
X172624838Y-63850317D01*
X172763910Y-64066441D01*
X172976110Y-64211431D01*
X173105000Y-64237532D01*
X173105000Y-64403421D01*
X172094210Y-65414210D01*
X171902367Y-65701325D01*
X171902367Y-65701326D01*
X171834999Y-66040000D01*
X171835000Y-66040005D01*
X171835000Y-77031477D01*
X171546539Y-77319436D01*
X171335241Y-77828298D01*
X171334760Y-78379285D01*
X171545169Y-78888515D01*
X171934436Y-79278461D01*
X172166870Y-79374976D01*
X171936485Y-79470169D01*
X171546539Y-79859436D01*
X171488253Y-79999804D01*
X171459210Y-80019210D01*
X171267367Y-80306325D01*
X171200000Y-80645000D01*
X171267367Y-80983675D01*
X171459210Y-81270790D01*
X171487927Y-81289978D01*
X171545169Y-81428515D01*
X171934436Y-81818461D01*
X172166870Y-81914976D01*
X171936485Y-82010169D01*
X171546539Y-82399436D01*
X171488253Y-82539804D01*
X171459210Y-82559210D01*
X171267367Y-82846325D01*
X171200000Y-83185000D01*
X171267367Y-83523675D01*
X171459210Y-83810790D01*
X171487927Y-83829978D01*
X171545169Y-83968515D01*
X171934436Y-84358461D01*
X172150979Y-84448377D01*
X171996077Y-84512540D01*
X171928088Y-84753483D01*
X172720000Y-85545395D01*
X173511912Y-84753483D01*
X173443923Y-84512540D01*
X173277379Y-84453268D01*
X173503515Y-84359831D01*
X173708562Y-84155141D01*
X174375000Y-84821579D01*
X174375000Y-101233421D01*
X172094210Y-103514210D01*
X171902367Y-103801325D01*
X171902367Y-103801326D01*
X171834999Y-104140000D01*
X171835000Y-104140005D01*
X171835000Y-108584995D01*
X171834999Y-108585000D01*
X171891190Y-108867484D01*
X171902367Y-108923675D01*
X171915479Y-108943298D01*
X172094210Y-109210790D01*
X175320071Y-112436650D01*
X175316559Y-112438910D01*
X175263537Y-112516511D01*
X175111698Y-112364673D01*
X174878309Y-112268000D01*
X174275750Y-112268000D01*
X174117000Y-112426750D01*
X174117000Y-114808000D01*
X174137000Y-114808000D01*
X174137000Y-115062000D01*
X174117000Y-115062000D01*
X174117000Y-115082000D01*
X173863000Y-115082000D01*
X173863000Y-115062000D01*
X172751750Y-115062000D01*
X172593000Y-115220750D01*
X172593000Y-116917000D01*
X97078000Y-116917000D01*
X97078000Y-113650854D01*
X97829457Y-113650854D01*
X98305727Y-114803515D01*
X99186847Y-115686174D01*
X100338674Y-116164454D01*
X101585854Y-116165543D01*
X102738515Y-115689273D01*
X103157000Y-115271517D01*
X105888088Y-115271517D01*
X105956077Y-115512460D01*
X106475171Y-115697201D01*
X107025448Y-115669230D01*
X107403923Y-115512460D01*
X107471912Y-115271517D01*
X110968088Y-115271517D01*
X111036077Y-115512460D01*
X111555171Y-115697201D01*
X112105448Y-115669230D01*
X112483923Y-115512460D01*
X112551912Y-115271517D01*
X116048088Y-115271517D01*
X116116077Y-115512460D01*
X116635171Y-115697201D01*
X117185448Y-115669230D01*
X117563923Y-115512460D01*
X117631912Y-115271517D01*
X116840000Y-114479605D01*
X116048088Y-115271517D01*
X112551912Y-115271517D01*
X111760000Y-114479605D01*
X110968088Y-115271517D01*
X107471912Y-115271517D01*
X106680000Y-114479605D01*
X105888088Y-115271517D01*
X103157000Y-115271517D01*
X103621174Y-114808153D01*
X103917229Y-114095171D01*
X105282799Y-114095171D01*
X105310770Y-114645448D01*
X105467540Y-115023923D01*
X105708483Y-115091912D01*
X106500395Y-114300000D01*
X106859605Y-114300000D01*
X107651517Y-115091912D01*
X107892460Y-115023923D01*
X108077201Y-114504829D01*
X108056378Y-114095171D01*
X110362799Y-114095171D01*
X110390770Y-114645448D01*
X110547540Y-115023923D01*
X110788483Y-115091912D01*
X111580395Y-114300000D01*
X111939605Y-114300000D01*
X112731517Y-115091912D01*
X112972460Y-115023923D01*
X113157201Y-114504829D01*
X113136378Y-114095171D01*
X115442799Y-114095171D01*
X115470770Y-114645448D01*
X115627540Y-115023923D01*
X115868483Y-115091912D01*
X116660395Y-114300000D01*
X117019605Y-114300000D01*
X117811517Y-115091912D01*
X118052460Y-115023923D01*
X118237201Y-114504829D01*
X118209230Y-113954552D01*
X118207656Y-113950750D01*
X126885000Y-113950750D01*
X126885000Y-114541310D01*
X126981673Y-114774699D01*
X127160302Y-114953327D01*
X127393691Y-115050000D01*
X127984250Y-115050000D01*
X128143000Y-114891250D01*
X128143000Y-113792000D01*
X127043750Y-113792000D01*
X126885000Y-113950750D01*
X118207656Y-113950750D01*
X118052460Y-113576077D01*
X117811517Y-113508088D01*
X117019605Y-114300000D01*
X116660395Y-114300000D01*
X115868483Y-113508088D01*
X115627540Y-113576077D01*
X115442799Y-114095171D01*
X113136378Y-114095171D01*
X113129230Y-113954552D01*
X112972460Y-113576077D01*
X112731517Y-113508088D01*
X111939605Y-114300000D01*
X111580395Y-114300000D01*
X110788483Y-113508088D01*
X110547540Y-113576077D01*
X110362799Y-114095171D01*
X108056378Y-114095171D01*
X108049230Y-113954552D01*
X107892460Y-113576077D01*
X107651517Y-113508088D01*
X106859605Y-114300000D01*
X106500395Y-114300000D01*
X105708483Y-113508088D01*
X105467540Y-113576077D01*
X105282799Y-114095171D01*
X103917229Y-114095171D01*
X104099454Y-113656326D01*
X104099740Y-113328483D01*
X105888088Y-113328483D01*
X106680000Y-114120395D01*
X107471912Y-113328483D01*
X110968088Y-113328483D01*
X111760000Y-114120395D01*
X112551912Y-113328483D01*
X116048088Y-113328483D01*
X116840000Y-114120395D01*
X117631912Y-113328483D01*
X117563923Y-113087540D01*
X117044829Y-112902799D01*
X116494552Y-112930770D01*
X116116077Y-113087540D01*
X116048088Y-113328483D01*
X112551912Y-113328483D01*
X112483923Y-113087540D01*
X111964829Y-112902799D01*
X111414552Y-112930770D01*
X111036077Y-113087540D01*
X110968088Y-113328483D01*
X107471912Y-113328483D01*
X107403923Y-113087540D01*
X106884829Y-112902799D01*
X106334552Y-112930770D01*
X105956077Y-113087540D01*
X105888088Y-113328483D01*
X104099740Y-113328483D01*
X104100211Y-112788690D01*
X126885000Y-112788690D01*
X126885000Y-113379250D01*
X127043750Y-113538000D01*
X128143000Y-113538000D01*
X128143000Y-112438750D01*
X127984250Y-112280000D01*
X127393691Y-112280000D01*
X127160302Y-112376673D01*
X126981673Y-112555301D01*
X126885000Y-112788690D01*
X104100211Y-112788690D01*
X104100543Y-112409146D01*
X103624273Y-111256485D01*
X102743153Y-110373826D01*
X101591326Y-109895546D01*
X100344146Y-109894457D01*
X99191485Y-110370727D01*
X98308826Y-111251847D01*
X97830546Y-112403674D01*
X97829457Y-113650854D01*
X97078000Y-113650854D01*
X97078000Y-106827285D01*
X105294760Y-106827285D01*
X105505169Y-107336515D01*
X105795000Y-107626852D01*
X105795000Y-108146477D01*
X105506539Y-108434436D01*
X105295241Y-108943298D01*
X105294760Y-109494285D01*
X105505169Y-110003515D01*
X105894436Y-110393461D01*
X106403298Y-110604759D01*
X106954285Y-110605240D01*
X107463515Y-110394831D01*
X107853461Y-110005564D01*
X108064759Y-109496702D01*
X108065240Y-108945715D01*
X107854831Y-108436485D01*
X107565000Y-108146148D01*
X107565000Y-107626523D01*
X107853461Y-107338564D01*
X108064759Y-106829702D01*
X108065117Y-106419463D01*
X110094579Y-104390000D01*
X112163421Y-104390000D01*
X111315208Y-105238212D01*
X110976485Y-105378169D01*
X110586539Y-105767436D01*
X110375241Y-106276298D01*
X110374760Y-106827285D01*
X110585169Y-107336515D01*
X110875000Y-107626852D01*
X110875000Y-108146477D01*
X110586539Y-108434436D01*
X110375241Y-108943298D01*
X110374760Y-109494285D01*
X110585169Y-110003515D01*
X110974436Y-110393461D01*
X111483298Y-110604759D01*
X112034285Y-110605240D01*
X112543515Y-110394831D01*
X112933461Y-110005564D01*
X113144759Y-109496702D01*
X113145240Y-108945715D01*
X112934831Y-108436485D01*
X112645000Y-108146148D01*
X112645000Y-107626523D01*
X112933461Y-107338564D01*
X113144759Y-106829702D01*
X113145240Y-106278715D01*
X113037826Y-106018753D01*
X113396579Y-105660000D01*
X115569995Y-105660000D01*
X115570000Y-105660001D01*
X115824967Y-105609284D01*
X115666539Y-105767436D01*
X115455241Y-106276298D01*
X115454760Y-106827285D01*
X115665169Y-107336515D01*
X115955000Y-107626852D01*
X115955000Y-108146477D01*
X115666539Y-108434436D01*
X115455241Y-108943298D01*
X115454760Y-109494285D01*
X115665169Y-110003515D01*
X116054436Y-110393461D01*
X116563298Y-110604759D01*
X117114285Y-110605240D01*
X117623515Y-110394831D01*
X118013461Y-110005564D01*
X118224759Y-109496702D01*
X118225240Y-108945715D01*
X118014831Y-108436485D01*
X117725000Y-108146148D01*
X117725000Y-107626523D01*
X118013461Y-107338564D01*
X118224759Y-106829702D01*
X118225240Y-106278715D01*
X118014831Y-105769485D01*
X117873586Y-105627994D01*
X118390062Y-105111517D01*
X123668088Y-105111517D01*
X123736077Y-105352460D01*
X124255171Y-105537201D01*
X124805448Y-105509230D01*
X125183923Y-105352460D01*
X125251912Y-105111517D01*
X124460000Y-104319605D01*
X123668088Y-105111517D01*
X118390062Y-105111517D01*
X119566408Y-103935171D01*
X123062799Y-103935171D01*
X123090770Y-104485448D01*
X123247540Y-104863923D01*
X123488483Y-104931912D01*
X124280395Y-104140000D01*
X124639605Y-104140000D01*
X125431517Y-104931912D01*
X125672460Y-104863923D01*
X125832482Y-104414285D01*
X130694760Y-104414285D01*
X130905169Y-104923515D01*
X131294436Y-105313461D01*
X131803298Y-105524759D01*
X132354285Y-105525240D01*
X132863515Y-105314831D01*
X133253461Y-104925564D01*
X133464759Y-104416702D01*
X133465240Y-103865715D01*
X133254831Y-103356485D01*
X132865564Y-102966539D01*
X132649021Y-102876623D01*
X132803923Y-102812460D01*
X132871912Y-102571517D01*
X132080000Y-101779605D01*
X131288088Y-102571517D01*
X131356077Y-102812460D01*
X131522621Y-102871732D01*
X131296485Y-102965169D01*
X130906539Y-103354436D01*
X130695241Y-103863298D01*
X130694760Y-104414285D01*
X125832482Y-104414285D01*
X125857201Y-104344829D01*
X125829230Y-103794552D01*
X125672460Y-103416077D01*
X125431517Y-103348088D01*
X124639605Y-104140000D01*
X124280395Y-104140000D01*
X123488483Y-103348088D01*
X123247540Y-103416077D01*
X123062799Y-103935171D01*
X119566408Y-103935171D01*
X123471454Y-100030125D01*
X123674436Y-100233461D01*
X123906870Y-100329976D01*
X123676485Y-100425169D01*
X123286539Y-100814436D01*
X123075241Y-101323298D01*
X123074760Y-101874285D01*
X123285169Y-102383515D01*
X123674436Y-102773461D01*
X123890979Y-102863377D01*
X123736077Y-102927540D01*
X123668088Y-103168483D01*
X124460000Y-103960395D01*
X125251912Y-103168483D01*
X125183923Y-102927540D01*
X125017379Y-102868268D01*
X125243515Y-102774831D01*
X125533852Y-102485000D01*
X125729995Y-102485000D01*
X125730000Y-102485001D01*
X126012484Y-102428810D01*
X126068675Y-102417633D01*
X126355790Y-102225790D01*
X127186408Y-101395171D01*
X130682799Y-101395171D01*
X130710770Y-101945448D01*
X130867540Y-102323923D01*
X131108483Y-102391912D01*
X131900395Y-101600000D01*
X132259605Y-101600000D01*
X133051517Y-102391912D01*
X133292460Y-102323923D01*
X133477201Y-101804829D01*
X133449230Y-101254552D01*
X133292460Y-100876077D01*
X133051517Y-100808088D01*
X132259605Y-101600000D01*
X131900395Y-101600000D01*
X131108483Y-100808088D01*
X130867540Y-100876077D01*
X130682799Y-101395171D01*
X127186408Y-101395171D01*
X129247294Y-99334285D01*
X130694760Y-99334285D01*
X130905169Y-99843515D01*
X131294436Y-100233461D01*
X131510979Y-100323377D01*
X131356077Y-100387540D01*
X131288088Y-100628483D01*
X132080000Y-101420395D01*
X132871912Y-100628483D01*
X132803923Y-100387540D01*
X132637379Y-100328268D01*
X132863515Y-100234831D01*
X133253461Y-99845564D01*
X133464759Y-99336702D01*
X133465240Y-98785715D01*
X133254831Y-98276485D01*
X132865564Y-97886539D01*
X132649021Y-97796623D01*
X132803923Y-97732460D01*
X132871912Y-97491517D01*
X132080000Y-96699605D01*
X131288088Y-97491517D01*
X131356077Y-97732460D01*
X131522621Y-97791732D01*
X131296485Y-97885169D01*
X130906539Y-98274436D01*
X130695241Y-98783298D01*
X130694760Y-99334285D01*
X129247294Y-99334285D01*
X129530787Y-99050792D01*
X129530790Y-99050790D01*
X129722633Y-98763675D01*
X129760051Y-98575564D01*
X129790001Y-98425000D01*
X129790000Y-98424995D01*
X129790000Y-96315171D01*
X130682799Y-96315171D01*
X130710770Y-96865448D01*
X130867540Y-97243923D01*
X131108483Y-97311912D01*
X131900395Y-96520000D01*
X132259605Y-96520000D01*
X133051517Y-97311912D01*
X133292460Y-97243923D01*
X133477201Y-96724829D01*
X133449230Y-96174552D01*
X133292460Y-95796077D01*
X133051517Y-95728088D01*
X132259605Y-96520000D01*
X131900395Y-96520000D01*
X131108483Y-95728088D01*
X130867540Y-95796077D01*
X130682799Y-96315171D01*
X129790000Y-96315171D01*
X129790000Y-94254285D01*
X130694760Y-94254285D01*
X130905169Y-94763515D01*
X131294436Y-95153461D01*
X131510979Y-95243377D01*
X131356077Y-95307540D01*
X131288088Y-95548483D01*
X132080000Y-96340395D01*
X132871912Y-95548483D01*
X132803923Y-95307540D01*
X132637379Y-95248268D01*
X132863515Y-95154831D01*
X133253461Y-94765564D01*
X133464759Y-94256702D01*
X133465240Y-93705715D01*
X133254831Y-93196485D01*
X132865564Y-92806539D01*
X132649021Y-92716623D01*
X132803923Y-92652460D01*
X132871912Y-92411517D01*
X132080000Y-91619605D01*
X131288088Y-92411517D01*
X131356077Y-92652460D01*
X131522621Y-92711732D01*
X131296485Y-92805169D01*
X130906539Y-93194436D01*
X130695241Y-93703298D01*
X130694760Y-94254285D01*
X129790000Y-94254285D01*
X129790000Y-91235171D01*
X130682799Y-91235171D01*
X130710770Y-91785448D01*
X130867540Y-92163923D01*
X131108483Y-92231912D01*
X131900395Y-91440000D01*
X132259605Y-91440000D01*
X133051517Y-92231912D01*
X133292460Y-92163923D01*
X133477201Y-91644829D01*
X133449230Y-91094552D01*
X133292460Y-90716077D01*
X133051517Y-90648088D01*
X132259605Y-91440000D01*
X131900395Y-91440000D01*
X131108483Y-90648088D01*
X130867540Y-90716077D01*
X130682799Y-91235171D01*
X129790000Y-91235171D01*
X129790000Y-89174285D01*
X130694760Y-89174285D01*
X130905169Y-89683515D01*
X131294436Y-90073461D01*
X131510979Y-90163377D01*
X131356077Y-90227540D01*
X131288088Y-90468483D01*
X132080000Y-91260395D01*
X132871912Y-90468483D01*
X132803923Y-90227540D01*
X132637379Y-90168268D01*
X132863515Y-90074831D01*
X133253461Y-89685564D01*
X133464759Y-89176702D01*
X133465240Y-88625715D01*
X133254831Y-88116485D01*
X132865564Y-87726539D01*
X132356702Y-87515241D01*
X131805715Y-87514760D01*
X131296485Y-87725169D01*
X130906539Y-88114436D01*
X130695241Y-88623298D01*
X130694760Y-89174285D01*
X129790000Y-89174285D01*
X129790000Y-87996580D01*
X130541579Y-87245000D01*
X136729384Y-87245000D01*
X136494539Y-87479436D01*
X136283241Y-87988298D01*
X136282760Y-88539285D01*
X136493169Y-89048515D01*
X136783000Y-89338852D01*
X136783000Y-92906477D01*
X136494539Y-93194436D01*
X136283241Y-93703298D01*
X136282760Y-94254285D01*
X136493169Y-94763515D01*
X136783000Y-95053852D01*
X136783000Y-97662995D01*
X136782999Y-97663000D01*
X136810094Y-97799211D01*
X136850367Y-98001675D01*
X136991786Y-98213325D01*
X137042210Y-98288790D01*
X139572560Y-100819139D01*
X139572560Y-101715000D01*
X139616838Y-101950317D01*
X139755910Y-102166441D01*
X139968110Y-102311431D01*
X140085000Y-102335102D01*
X140085000Y-104408421D01*
X132724210Y-111769210D01*
X132532367Y-112056325D01*
X132532367Y-112056326D01*
X132464999Y-112395000D01*
X132465000Y-112395005D01*
X132465000Y-112591477D01*
X132176539Y-112879436D01*
X132080024Y-113111870D01*
X131984831Y-112881485D01*
X131595564Y-112491539D01*
X131086702Y-112280241D01*
X130535715Y-112279760D01*
X130026485Y-112490169D01*
X129655000Y-112861007D01*
X129655000Y-112788690D01*
X129558327Y-112555301D01*
X129379698Y-112376673D01*
X129146309Y-112280000D01*
X128555750Y-112280000D01*
X128397000Y-112438750D01*
X128397000Y-113538000D01*
X128417000Y-113538000D01*
X128417000Y-113792000D01*
X128397000Y-113792000D01*
X128397000Y-114891250D01*
X128555750Y-115050000D01*
X129146309Y-115050000D01*
X129379698Y-114953327D01*
X129558327Y-114774699D01*
X129655000Y-114541310D01*
X129655000Y-114468381D01*
X130024436Y-114838461D01*
X130533298Y-115049759D01*
X131084285Y-115050240D01*
X131593515Y-114839831D01*
X131983461Y-114450564D01*
X132079976Y-114218130D01*
X132175169Y-114448515D01*
X132564436Y-114838461D01*
X133073298Y-115049759D01*
X133624285Y-115050240D01*
X134133515Y-114839831D01*
X134523461Y-114450564D01*
X134619976Y-114218130D01*
X134715169Y-114448515D01*
X135104436Y-114838461D01*
X135613298Y-115049759D01*
X136164285Y-115050240D01*
X136673515Y-114839831D01*
X136877183Y-114636517D01*
X137638088Y-114636517D01*
X137706077Y-114877460D01*
X138225171Y-115062201D01*
X138775448Y-115034230D01*
X139153923Y-114877460D01*
X139221912Y-114636517D01*
X138430000Y-113844605D01*
X137638088Y-114636517D01*
X136877183Y-114636517D01*
X137063461Y-114450564D01*
X137153377Y-114234021D01*
X137217540Y-114388923D01*
X137458483Y-114456912D01*
X138250395Y-113665000D01*
X137458483Y-112873088D01*
X137217540Y-112941077D01*
X137158268Y-113107621D01*
X137064831Y-112881485D01*
X136877157Y-112693483D01*
X137638088Y-112693483D01*
X138430000Y-113485395D01*
X139221912Y-112693483D01*
X139153923Y-112452540D01*
X138634829Y-112267799D01*
X138084552Y-112295770D01*
X137706077Y-112452540D01*
X137638088Y-112693483D01*
X136877157Y-112693483D01*
X136775000Y-112591148D01*
X136775000Y-112126580D01*
X140085000Y-108816580D01*
X140085000Y-112591477D01*
X139796539Y-112879436D01*
X139706623Y-113095979D01*
X139642460Y-112941077D01*
X139401517Y-112873088D01*
X138609605Y-113665000D01*
X139401517Y-114456912D01*
X139642460Y-114388923D01*
X139701732Y-114222379D01*
X139795169Y-114448515D01*
X140184436Y-114838461D01*
X140693298Y-115049759D01*
X141244285Y-115050240D01*
X141753515Y-114839831D01*
X142143461Y-114450564D01*
X142239976Y-114218130D01*
X142335169Y-114448515D01*
X142724436Y-114838461D01*
X143233298Y-115049759D01*
X143784285Y-115050240D01*
X144293515Y-114839831D01*
X144683461Y-114450564D01*
X144779976Y-114218130D01*
X144875169Y-114448515D01*
X145264436Y-114838461D01*
X145773298Y-115049759D01*
X146324285Y-115050240D01*
X146833515Y-114839831D01*
X147223461Y-114450564D01*
X147319976Y-114218130D01*
X147415169Y-114448515D01*
X147804436Y-114838461D01*
X148313298Y-115049759D01*
X148864285Y-115050240D01*
X149373515Y-114839831D01*
X149763461Y-114450564D01*
X149859976Y-114218130D01*
X149955169Y-114448515D01*
X150344436Y-114838461D01*
X150853298Y-115049759D01*
X151404285Y-115050240D01*
X151913515Y-114839831D01*
X152303461Y-114450564D01*
X152399976Y-114218130D01*
X152495169Y-114448515D01*
X152884436Y-114838461D01*
X153393298Y-115049759D01*
X153944285Y-115050240D01*
X154453515Y-114839831D01*
X154843461Y-114450564D01*
X154939976Y-114218130D01*
X155035169Y-114448515D01*
X155424436Y-114838461D01*
X155933298Y-115049759D01*
X156484285Y-115050240D01*
X156993515Y-114839831D01*
X157383461Y-114450564D01*
X157479976Y-114218130D01*
X157575169Y-114448515D01*
X157964436Y-114838461D01*
X158473298Y-115049759D01*
X159024285Y-115050240D01*
X159533515Y-114839831D01*
X159923461Y-114450564D01*
X160019976Y-114218130D01*
X160115169Y-114448515D01*
X160504436Y-114838461D01*
X161013298Y-115049759D01*
X161564285Y-115050240D01*
X162073515Y-114839831D01*
X162463461Y-114450564D01*
X162559976Y-114218130D01*
X162655169Y-114448515D01*
X163044436Y-114838461D01*
X163184804Y-114896747D01*
X163204210Y-114925790D01*
X163491325Y-115117633D01*
X163830000Y-115185000D01*
X164168675Y-115117633D01*
X164455790Y-114925790D01*
X164474978Y-114897073D01*
X164613515Y-114839831D01*
X165003461Y-114450564D01*
X165099976Y-114218130D01*
X165195169Y-114448515D01*
X165584436Y-114838461D01*
X166093298Y-115049759D01*
X166644285Y-115050240D01*
X167153515Y-114839831D01*
X167543461Y-114450564D01*
X167754759Y-113941702D01*
X167755240Y-113390715D01*
X167544831Y-112881485D01*
X167440219Y-112776690D01*
X172593000Y-112776690D01*
X172593000Y-114649250D01*
X172751750Y-114808000D01*
X173863000Y-114808000D01*
X173863000Y-112426750D01*
X173704250Y-112268000D01*
X173101691Y-112268000D01*
X172868302Y-112364673D01*
X172689673Y-112543301D01*
X172593000Y-112776690D01*
X167440219Y-112776690D01*
X167155564Y-112491539D01*
X166646702Y-112280241D01*
X166095715Y-112279760D01*
X165586485Y-112490169D01*
X165196539Y-112879436D01*
X165100024Y-113111870D01*
X165004831Y-112881485D01*
X164615564Y-112491539D01*
X164106702Y-112280241D01*
X163555715Y-112279760D01*
X163046485Y-112490169D01*
X162656539Y-112879436D01*
X162560024Y-113111870D01*
X162464831Y-112881485D01*
X162260141Y-112676438D01*
X164831579Y-110105000D01*
X167639995Y-110105000D01*
X167640000Y-110105001D01*
X167922484Y-110048810D01*
X167978675Y-110037633D01*
X168265790Y-109845790D01*
X169535787Y-108575792D01*
X169535790Y-108575790D01*
X169727633Y-108288675D01*
X169736057Y-108246325D01*
X169795001Y-107950000D01*
X169795000Y-107949995D01*
X169795000Y-95135000D01*
X171322560Y-95135000D01*
X171322560Y-96635000D01*
X171366838Y-96870317D01*
X171505910Y-97086441D01*
X171718110Y-97231431D01*
X171970000Y-97282440D01*
X173470000Y-97282440D01*
X173705317Y-97238162D01*
X173921441Y-97099090D01*
X174066431Y-96886890D01*
X174117440Y-96635000D01*
X174117440Y-95135000D01*
X174073162Y-94899683D01*
X173934090Y-94683559D01*
X173721890Y-94538569D01*
X173524738Y-94498645D01*
X173893461Y-94130564D01*
X174104759Y-93621702D01*
X174105240Y-93070715D01*
X173894831Y-92561485D01*
X173505564Y-92171539D01*
X173273130Y-92075024D01*
X173503515Y-91979831D01*
X173893461Y-91590564D01*
X173951747Y-91450196D01*
X173980790Y-91430790D01*
X174172633Y-91143675D01*
X174240000Y-90805000D01*
X174172633Y-90466325D01*
X173980790Y-90179210D01*
X173952073Y-90160022D01*
X173894831Y-90021485D01*
X173505564Y-89631539D01*
X173273130Y-89535024D01*
X173503515Y-89439831D01*
X173893461Y-89050564D01*
X174104759Y-88541702D01*
X174105240Y-87990715D01*
X173894831Y-87481485D01*
X173505564Y-87091539D01*
X173289021Y-87001623D01*
X173443923Y-86937460D01*
X173511912Y-86696517D01*
X172720000Y-85904605D01*
X171928088Y-86696517D01*
X171996077Y-86937460D01*
X172162621Y-86996732D01*
X171936485Y-87090169D01*
X171546539Y-87479436D01*
X171335241Y-87988298D01*
X171334760Y-88539285D01*
X171545169Y-89048515D01*
X171934436Y-89438461D01*
X172166870Y-89534976D01*
X171936485Y-89630169D01*
X171546539Y-90019436D01*
X171335241Y-90528298D01*
X171334760Y-91079285D01*
X171545169Y-91588515D01*
X171934436Y-91978461D01*
X172166870Y-92074976D01*
X171936485Y-92170169D01*
X171546539Y-92559436D01*
X171335241Y-93068298D01*
X171334760Y-93619285D01*
X171545169Y-94128515D01*
X171914091Y-94498080D01*
X171734683Y-94531838D01*
X171518559Y-94670910D01*
X171373569Y-94883110D01*
X171322560Y-95135000D01*
X169795000Y-95135000D01*
X169795000Y-85520171D01*
X171322799Y-85520171D01*
X171350770Y-86070448D01*
X171507540Y-86448923D01*
X171748483Y-86516912D01*
X172540395Y-85725000D01*
X172899605Y-85725000D01*
X173691517Y-86516912D01*
X173932460Y-86448923D01*
X174117201Y-85929829D01*
X174089230Y-85379552D01*
X173932460Y-85001077D01*
X173691517Y-84933088D01*
X172899605Y-85725000D01*
X172540395Y-85725000D01*
X171748483Y-84933088D01*
X171507540Y-85001077D01*
X171322799Y-85520171D01*
X169795000Y-85520171D01*
X169795000Y-84455005D01*
X169795001Y-84455000D01*
X169727633Y-84116326D01*
X169727633Y-84116325D01*
X169535790Y-83829210D01*
X169535787Y-83829208D01*
X167975125Y-82268546D01*
X168178461Y-82065564D01*
X168389759Y-81556702D01*
X168390240Y-81005715D01*
X168179831Y-80496485D01*
X167790564Y-80106539D01*
X167281702Y-79895241D01*
X166730715Y-79894760D01*
X166221485Y-80105169D01*
X165831539Y-80494436D01*
X165735024Y-80726870D01*
X165639831Y-80496485D01*
X165250564Y-80106539D01*
X164741702Y-79895241D01*
X164190715Y-79894760D01*
X163681485Y-80105169D01*
X163291539Y-80494436D01*
X163195024Y-80726870D01*
X163099831Y-80496485D01*
X162710564Y-80106539D01*
X162201702Y-79895241D01*
X161650715Y-79894760D01*
X161141485Y-80105169D01*
X160751539Y-80494436D01*
X160655024Y-80726870D01*
X160559831Y-80496485D01*
X160170564Y-80106539D01*
X159661702Y-79895241D01*
X159110715Y-79894760D01*
X158601485Y-80105169D01*
X158211539Y-80494436D01*
X158115024Y-80726870D01*
X158019831Y-80496485D01*
X157630564Y-80106539D01*
X157121702Y-79895241D01*
X156570715Y-79894760D01*
X156061485Y-80105169D01*
X155671539Y-80494436D01*
X155575024Y-80726870D01*
X155479831Y-80496485D01*
X155090564Y-80106539D01*
X154581702Y-79895241D01*
X154030715Y-79894760D01*
X153521485Y-80105169D01*
X153131539Y-80494436D01*
X153035024Y-80726870D01*
X152939831Y-80496485D01*
X152550564Y-80106539D01*
X152041702Y-79895241D01*
X151490715Y-79894760D01*
X150981485Y-80105169D01*
X150591539Y-80494436D01*
X150495024Y-80726870D01*
X150399831Y-80496485D01*
X150010564Y-80106539D01*
X149501702Y-79895241D01*
X148950715Y-79894760D01*
X148441485Y-80105169D01*
X148051539Y-80494436D01*
X147955024Y-80726870D01*
X147859831Y-80496485D01*
X147470564Y-80106539D01*
X146961702Y-79895241D01*
X146410715Y-79894760D01*
X145901485Y-80105169D01*
X145511539Y-80494436D01*
X145415024Y-80726870D01*
X145319831Y-80496485D01*
X144930564Y-80106539D01*
X144421702Y-79895241D01*
X143870715Y-79894760D01*
X143361485Y-80105169D01*
X142971539Y-80494436D01*
X142875024Y-80726870D01*
X142779831Y-80496485D01*
X142390564Y-80106539D01*
X141881702Y-79895241D01*
X141330715Y-79894760D01*
X140821485Y-80105169D01*
X140431539Y-80494436D01*
X140335024Y-80726870D01*
X140239831Y-80496485D01*
X139850564Y-80106539D01*
X139341702Y-79895241D01*
X138790715Y-79894760D01*
X138281485Y-80105169D01*
X137891539Y-80494436D01*
X137795024Y-80726870D01*
X137699831Y-80496485D01*
X137310564Y-80106539D01*
X136801702Y-79895241D01*
X136250715Y-79894760D01*
X135741485Y-80105169D01*
X135370000Y-80476007D01*
X135370000Y-80403691D01*
X135273327Y-80170302D01*
X135094699Y-79991673D01*
X134861310Y-79895000D01*
X134270750Y-79895000D01*
X134112000Y-80053750D01*
X134112000Y-81153000D01*
X134132000Y-81153000D01*
X134132000Y-81407000D01*
X134112000Y-81407000D01*
X134112000Y-82506250D01*
X134270750Y-82665000D01*
X134861310Y-82665000D01*
X135094699Y-82568327D01*
X135273327Y-82389698D01*
X135370000Y-82156309D01*
X135370000Y-82083381D01*
X135739436Y-82453461D01*
X136248298Y-82664759D01*
X136799285Y-82665240D01*
X137308515Y-82454831D01*
X137698461Y-82065564D01*
X137794976Y-81833130D01*
X137890169Y-82063515D01*
X138279436Y-82453461D01*
X138788298Y-82664759D01*
X139339285Y-82665240D01*
X139848515Y-82454831D01*
X140238461Y-82065564D01*
X140334976Y-81833130D01*
X140430169Y-82063515D01*
X140634859Y-82268562D01*
X139968420Y-82935000D01*
X127635005Y-82935000D01*
X127635000Y-82934999D01*
X127296325Y-83002367D01*
X127009210Y-83194210D01*
X127009208Y-83194213D01*
X125739210Y-84464210D01*
X125547367Y-84751325D01*
X125547367Y-84751326D01*
X125479999Y-85090000D01*
X125480000Y-85090005D01*
X125480000Y-87565943D01*
X125461890Y-87553569D01*
X125210000Y-87502560D01*
X123710000Y-87502560D01*
X123474683Y-87546838D01*
X123258559Y-87685910D01*
X123113569Y-87898110D01*
X123085697Y-88035747D01*
X122907516Y-88071190D01*
X122851325Y-88082367D01*
X122564210Y-88274210D01*
X122564208Y-88274213D01*
X119389210Y-91449210D01*
X119197367Y-91736325D01*
X119197367Y-91736326D01*
X119129999Y-92075000D01*
X119130000Y-92075005D01*
X119130000Y-98058421D01*
X114568420Y-102620000D01*
X109728005Y-102620000D01*
X109728000Y-102619999D01*
X109445516Y-102676190D01*
X109389325Y-102687367D01*
X109102210Y-102879210D01*
X109102208Y-102879213D01*
X106813304Y-105168116D01*
X106405715Y-105167760D01*
X105896485Y-105378169D01*
X105506539Y-105767436D01*
X105295241Y-106276298D01*
X105294760Y-106827285D01*
X97078000Y-106827285D01*
X97078000Y-100125171D01*
X98678799Y-100125171D01*
X98706770Y-100675448D01*
X98863540Y-101053923D01*
X99104483Y-101121912D01*
X99896395Y-100330000D01*
X100255605Y-100330000D01*
X101047517Y-101121912D01*
X101288460Y-101053923D01*
X101473201Y-100534829D01*
X101445230Y-99984552D01*
X101288460Y-99606077D01*
X101047517Y-99538088D01*
X100255605Y-100330000D01*
X99896395Y-100330000D01*
X99104483Y-99538088D01*
X98863540Y-99606077D01*
X98678799Y-100125171D01*
X97078000Y-100125171D01*
X97078000Y-95045171D01*
X98678799Y-95045171D01*
X98706770Y-95595448D01*
X98863540Y-95973923D01*
X99104483Y-96041912D01*
X99896395Y-95250000D01*
X100255605Y-95250000D01*
X101047517Y-96041912D01*
X101288460Y-95973923D01*
X101473201Y-95454829D01*
X101445230Y-94904552D01*
X101288460Y-94526077D01*
X101047517Y-94458088D01*
X100255605Y-95250000D01*
X99896395Y-95250000D01*
X99104483Y-94458088D01*
X98863540Y-94526077D01*
X98678799Y-95045171D01*
X97078000Y-95045171D01*
X97078000Y-92984285D01*
X98690760Y-92984285D01*
X98901169Y-93493515D01*
X99290436Y-93883461D01*
X99506979Y-93973377D01*
X99352077Y-94037540D01*
X99284088Y-94278483D01*
X100076000Y-95070395D01*
X100867912Y-94278483D01*
X100799923Y-94037540D01*
X100633379Y-93978268D01*
X100859515Y-93884831D01*
X101149852Y-93595000D01*
X101233420Y-93595000D01*
X103387208Y-95748787D01*
X103387210Y-95748790D01*
X103591064Y-95885000D01*
X103674325Y-95940633D01*
X104013000Y-96008000D01*
X105606477Y-96008000D01*
X105795000Y-96196852D01*
X105795000Y-96589477D01*
X105506539Y-96877436D01*
X105295241Y-97386298D01*
X105294760Y-97937285D01*
X105505169Y-98446515D01*
X105868021Y-98810000D01*
X103889579Y-98810000D01*
X102373984Y-97186148D01*
X102361402Y-97177098D01*
X102352790Y-97164210D01*
X102221666Y-97076596D01*
X102093651Y-96984524D01*
X102078562Y-96980978D01*
X102065675Y-96972367D01*
X101911023Y-96941605D01*
X101757499Y-96905525D01*
X101742200Y-96908024D01*
X101727000Y-96905000D01*
X101149523Y-96905000D01*
X100861564Y-96616539D01*
X100645021Y-96526623D01*
X100799923Y-96462460D01*
X100867912Y-96221517D01*
X100076000Y-95429605D01*
X99284088Y-96221517D01*
X99352077Y-96462460D01*
X99518621Y-96521732D01*
X99292485Y-96615169D01*
X98902539Y-97004436D01*
X98691241Y-97513298D01*
X98690760Y-98064285D01*
X98901169Y-98573515D01*
X99290436Y-98963461D01*
X99506979Y-99053377D01*
X99352077Y-99117540D01*
X99284088Y-99358483D01*
X100076000Y-100150395D01*
X100867912Y-99358483D01*
X100799923Y-99117540D01*
X100633379Y-99058268D01*
X100859515Y-98964831D01*
X101149852Y-98675000D01*
X101342421Y-98675000D01*
X102858016Y-100298852D01*
X102870598Y-100307902D01*
X102879210Y-100320790D01*
X103010334Y-100408404D01*
X103138349Y-100500476D01*
X103153438Y-100504022D01*
X103166325Y-100512633D01*
X103320977Y-100543395D01*
X103474501Y-100579475D01*
X103489800Y-100576976D01*
X103505000Y-100580000D01*
X104543421Y-100580000D01*
X103138420Y-101985000D01*
X101149523Y-101985000D01*
X100861564Y-101696539D01*
X100645021Y-101606623D01*
X100799923Y-101542460D01*
X100867912Y-101301517D01*
X100076000Y-100509605D01*
X99284088Y-101301517D01*
X99352077Y-101542460D01*
X99518621Y-101601732D01*
X99292485Y-101695169D01*
X98902539Y-102084436D01*
X98691241Y-102593298D01*
X98690760Y-103144285D01*
X98901169Y-103653515D01*
X99290436Y-104043461D01*
X99799298Y-104254759D01*
X100350285Y-104255240D01*
X100859515Y-104044831D01*
X101149852Y-103755000D01*
X103504995Y-103755000D01*
X103505000Y-103755001D01*
X103787484Y-103698810D01*
X103843675Y-103687633D01*
X104130790Y-103495790D01*
X105776579Y-101850000D01*
X113665000Y-101850000D01*
X113673656Y-101848278D01*
X113682350Y-101849831D01*
X113842722Y-101814649D01*
X114003675Y-101782633D01*
X114011015Y-101777729D01*
X114019638Y-101775837D01*
X114154284Y-101682000D01*
X114290790Y-101590790D01*
X114295696Y-101583447D01*
X114302937Y-101578401D01*
X116736102Y-99047910D01*
X117114285Y-99048240D01*
X117623515Y-98837831D01*
X118013461Y-98448564D01*
X118224759Y-97939702D01*
X118225240Y-97388715D01*
X118014831Y-96879485D01*
X117725000Y-96589148D01*
X117725000Y-96196523D01*
X118013461Y-95908564D01*
X118224759Y-95399702D01*
X118225240Y-94848715D01*
X118014831Y-94339485D01*
X117625564Y-93949539D01*
X117116702Y-93738241D01*
X116565715Y-93737760D01*
X116056485Y-93948169D01*
X115666539Y-94337436D01*
X115455241Y-94846298D01*
X115454760Y-95397285D01*
X115665169Y-95906515D01*
X115955000Y-96196852D01*
X115955000Y-96589477D01*
X115666539Y-96877436D01*
X115455241Y-97386298D01*
X115454857Y-97826694D01*
X113288216Y-100080000D01*
X110707160Y-100080000D01*
X111674729Y-99047926D01*
X112034285Y-99048240D01*
X112543515Y-98837831D01*
X112933461Y-98448564D01*
X113144759Y-97939702D01*
X113145240Y-97388715D01*
X112934831Y-96879485D01*
X112645000Y-96589148D01*
X112645000Y-96196523D01*
X112933461Y-95908564D01*
X113144759Y-95399702D01*
X113145240Y-94848715D01*
X112934831Y-94339485D01*
X112545564Y-93949539D01*
X112036702Y-93738241D01*
X111485715Y-93737760D01*
X110976485Y-93948169D01*
X110586539Y-94337436D01*
X110375241Y-94846298D01*
X110374760Y-95397285D01*
X110585169Y-95906515D01*
X110875000Y-96196852D01*
X110875000Y-96589477D01*
X110586539Y-96877436D01*
X110375241Y-97386298D01*
X110374839Y-97846534D01*
X109471590Y-98810000D01*
X107491395Y-98810000D01*
X107853461Y-98448564D01*
X108064759Y-97939702D01*
X108065240Y-97388715D01*
X107854831Y-96879485D01*
X107565000Y-96589148D01*
X107565000Y-96196523D01*
X107853461Y-95908564D01*
X108064759Y-95399702D01*
X108065240Y-94848715D01*
X107854831Y-94339485D01*
X107465564Y-93949539D01*
X106956702Y-93738241D01*
X106405715Y-93737760D01*
X105896485Y-93948169D01*
X105606148Y-94238000D01*
X104379579Y-94238000D01*
X102225790Y-92084210D01*
X102198222Y-92065790D01*
X101938675Y-91892367D01*
X101882484Y-91881190D01*
X101600000Y-91824999D01*
X101599995Y-91825000D01*
X101149523Y-91825000D01*
X100861564Y-91536539D01*
X100352702Y-91325241D01*
X99801715Y-91324760D01*
X99292485Y-91535169D01*
X98902539Y-91924436D01*
X98691241Y-92433298D01*
X98690760Y-92984285D01*
X97078000Y-92984285D01*
X97078000Y-86507285D01*
X105294760Y-86507285D01*
X105505169Y-87016515D01*
X105894436Y-87406461D01*
X106403298Y-87617759D01*
X106954285Y-87618240D01*
X107463515Y-87407831D01*
X107853461Y-87018564D01*
X108064759Y-86509702D01*
X108064761Y-86507285D01*
X110374760Y-86507285D01*
X110585169Y-87016515D01*
X110974436Y-87406461D01*
X111483298Y-87617759D01*
X112034285Y-87618240D01*
X112543515Y-87407831D01*
X112933461Y-87018564D01*
X113144759Y-86509702D01*
X113144761Y-86507285D01*
X115454760Y-86507285D01*
X115665169Y-87016515D01*
X116054436Y-87406461D01*
X116563298Y-87617759D01*
X117114285Y-87618240D01*
X117623515Y-87407831D01*
X118013461Y-87018564D01*
X118224759Y-86509702D01*
X118225240Y-85958715D01*
X118014831Y-85449485D01*
X117625564Y-85059539D01*
X117116702Y-84848241D01*
X116565715Y-84847760D01*
X116056485Y-85058169D01*
X115666539Y-85447436D01*
X115455241Y-85956298D01*
X115454760Y-86507285D01*
X113144761Y-86507285D01*
X113145240Y-85958715D01*
X112934831Y-85449485D01*
X112545564Y-85059539D01*
X112036702Y-84848241D01*
X111485715Y-84847760D01*
X110976485Y-85058169D01*
X110586539Y-85447436D01*
X110375241Y-85956298D01*
X110374760Y-86507285D01*
X108064761Y-86507285D01*
X108065240Y-85958715D01*
X107854831Y-85449485D01*
X107465564Y-85059539D01*
X106956702Y-84848241D01*
X106405715Y-84847760D01*
X105896485Y-85058169D01*
X105506539Y-85447436D01*
X105295241Y-85956298D01*
X105294760Y-86507285D01*
X97078000Y-86507285D01*
X97078000Y-81565750D01*
X132600000Y-81565750D01*
X132600000Y-82156309D01*
X132696673Y-82389698D01*
X132875301Y-82568327D01*
X133108690Y-82665000D01*
X133699250Y-82665000D01*
X133858000Y-82506250D01*
X133858000Y-81407000D01*
X132758750Y-81407000D01*
X132600000Y-81565750D01*
X97078000Y-81565750D01*
X97078000Y-80403691D01*
X132600000Y-80403691D01*
X132600000Y-80994250D01*
X132758750Y-81153000D01*
X133858000Y-81153000D01*
X133858000Y-80053750D01*
X133699250Y-79895000D01*
X133108690Y-79895000D01*
X132875301Y-79991673D01*
X132696673Y-80170302D01*
X132600000Y-80403691D01*
X97078000Y-80403691D01*
X97078000Y-61772000D01*
X102562144Y-61772000D01*
X102562144Y-62673665D01*
G36*
X158210169Y-82063515D02*
X158500000Y-82353852D01*
X158500000Y-82549995D01*
X158499999Y-82550000D01*
X158536328Y-82732633D01*
X158567367Y-82888675D01*
X158759209Y-83175789D01*
X158759210Y-83175790D01*
X164215000Y-88631579D01*
X164215000Y-103773421D01*
X163463420Y-104525000D01*
X160655005Y-104525000D01*
X160655000Y-104524999D01*
X160372516Y-104581190D01*
X160316325Y-104592367D01*
X160029210Y-104784210D01*
X160029208Y-104784213D01*
X153044210Y-111769210D01*
X152852367Y-112056325D01*
X152852367Y-112056326D01*
X152784999Y-112395000D01*
X152785000Y-112395005D01*
X152785000Y-112591477D01*
X152496539Y-112879436D01*
X152400024Y-113111870D01*
X152304831Y-112881485D01*
X151915564Y-112491539D01*
X151406702Y-112280241D01*
X150855715Y-112279760D01*
X150346485Y-112490169D01*
X149956539Y-112879436D01*
X149860024Y-113111870D01*
X149764831Y-112881485D01*
X149375564Y-112491539D01*
X148866702Y-112280241D01*
X148315715Y-112279760D01*
X147806485Y-112490169D01*
X147416539Y-112879436D01*
X147320024Y-113111870D01*
X147224831Y-112881485D01*
X146835564Y-112491539D01*
X146326702Y-112280241D01*
X145775715Y-112279760D01*
X145266485Y-112490169D01*
X144876539Y-112879436D01*
X144780024Y-113111870D01*
X144684831Y-112881485D01*
X144295564Y-112491539D01*
X143786702Y-112280241D01*
X143235715Y-112279760D01*
X142726485Y-112490169D01*
X142336539Y-112879436D01*
X142240024Y-113111870D01*
X142144831Y-112881485D01*
X141855000Y-112591148D01*
X141855000Y-108951580D01*
X146965062Y-103841517D01*
X152370088Y-103841517D01*
X152438077Y-104082460D01*
X152957171Y-104267201D01*
X153507448Y-104239230D01*
X153885923Y-104082460D01*
X153953912Y-103841517D01*
X153162000Y-103049605D01*
X152370088Y-103841517D01*
X146965062Y-103841517D01*
X148141408Y-102665171D01*
X151764799Y-102665171D01*
X151792770Y-103215448D01*
X151949540Y-103593923D01*
X152190483Y-103661912D01*
X152982395Y-102870000D01*
X153341605Y-102870000D01*
X154133517Y-103661912D01*
X154374460Y-103593923D01*
X154559201Y-103074829D01*
X154531230Y-102524552D01*
X154374460Y-102146077D01*
X154133517Y-102078088D01*
X153341605Y-102870000D01*
X152982395Y-102870000D01*
X152190483Y-102078088D01*
X151949540Y-102146077D01*
X151764799Y-102665171D01*
X148141408Y-102665171D01*
X148908096Y-101898483D01*
X152370088Y-101898483D01*
X153162000Y-102690395D01*
X153953912Y-101898483D01*
X153885923Y-101657540D01*
X153366829Y-101472799D01*
X152816552Y-101500770D01*
X152438077Y-101657540D01*
X152370088Y-101898483D01*
X148908096Y-101898483D01*
X151120787Y-99685792D01*
X151120790Y-99685790D01*
X151312633Y-99398675D01*
X151343672Y-99242633D01*
X151380001Y-99060000D01*
X151380000Y-99059995D01*
X151380000Y-96794285D01*
X153554760Y-96794285D01*
X153765169Y-97303515D01*
X154154436Y-97693461D01*
X154663298Y-97904759D01*
X155214285Y-97905240D01*
X155723515Y-97694831D01*
X156113461Y-97305564D01*
X156209976Y-97073130D01*
X156305169Y-97303515D01*
X156694436Y-97693461D01*
X157203298Y-97904759D01*
X157754285Y-97905240D01*
X158263515Y-97694831D01*
X158653461Y-97305564D01*
X158749976Y-97073130D01*
X158845169Y-97303515D01*
X159234436Y-97693461D01*
X159743298Y-97904759D01*
X160153538Y-97905117D01*
X161167000Y-98918579D01*
X161167000Y-101796477D01*
X160878539Y-102084436D01*
X160667241Y-102593298D01*
X160666760Y-103144285D01*
X160877169Y-103653515D01*
X161266436Y-104043461D01*
X161775298Y-104254759D01*
X162326285Y-104255240D01*
X162835515Y-104044831D01*
X163225461Y-103655564D01*
X163436759Y-103146702D01*
X163437240Y-102595715D01*
X163226831Y-102086485D01*
X162937000Y-101796148D01*
X162937000Y-98552005D01*
X162937001Y-98552000D01*
X162869633Y-98213326D01*
X162869633Y-98213325D01*
X162677790Y-97926210D01*
X162677787Y-97926208D01*
X161404884Y-96653305D01*
X161405240Y-96245715D01*
X161194831Y-95736485D01*
X160805564Y-95346539D01*
X160296702Y-95135241D01*
X159745715Y-95134760D01*
X159236485Y-95345169D01*
X158846539Y-95734436D01*
X158750024Y-95966870D01*
X158654831Y-95736485D01*
X158450141Y-95531438D01*
X162677787Y-91303792D01*
X162677790Y-91303790D01*
X162869633Y-91016675D01*
X162937000Y-90678000D01*
X162937000Y-90608523D01*
X163225461Y-90320564D01*
X163436759Y-89811702D01*
X163437240Y-89260715D01*
X163226831Y-88751485D01*
X162837564Y-88361539D01*
X162328702Y-88150241D01*
X161777715Y-88149760D01*
X161268485Y-88360169D01*
X160878539Y-88749436D01*
X160667241Y-89258298D01*
X160666760Y-89809285D01*
X160877169Y-90318515D01*
X161018414Y-90460007D01*
X156854210Y-94624210D01*
X156662367Y-94911325D01*
X156662367Y-94911326D01*
X156594999Y-95250000D01*
X156595000Y-95250005D01*
X156595000Y-95446477D01*
X156306539Y-95734436D01*
X156210024Y-95966870D01*
X156114831Y-95736485D01*
X155725564Y-95346539D01*
X155216702Y-95135241D01*
X154665715Y-95134760D01*
X154156485Y-95345169D01*
X153766539Y-95734436D01*
X153555241Y-96243298D01*
X153554760Y-96794285D01*
X151380000Y-96794285D01*
X151380000Y-89809285D01*
X151776760Y-89809285D01*
X151987169Y-90318515D01*
X152376436Y-90708461D01*
X152885298Y-90919759D01*
X153436285Y-90920240D01*
X153945515Y-90709831D01*
X154335461Y-90320564D01*
X154546759Y-89811702D01*
X154547240Y-89260715D01*
X154336831Y-88751485D01*
X153947564Y-88361539D01*
X153438702Y-88150241D01*
X152887715Y-88149760D01*
X152378485Y-88360169D01*
X151988539Y-88749436D01*
X151777241Y-89258298D01*
X151776760Y-89809285D01*
X151380000Y-89809285D01*
X151380000Y-89266580D01*
X157470787Y-83175792D01*
X157470790Y-83175790D01*
X157662633Y-82888675D01*
X157693672Y-82732633D01*
X157730001Y-82550000D01*
X157730000Y-82549995D01*
X157730000Y-82353523D01*
X158018461Y-82065564D01*
X158114976Y-81833130D01*
X158210169Y-82063515D01*
X158210169Y-82063515D01*
G37*
X158210169Y-82063515D02*
X158500000Y-82353852D01*
X158500000Y-82549995D01*
X158499999Y-82550000D01*
X158536328Y-82732633D01*
X158567367Y-82888675D01*
X158759209Y-83175789D01*
X158759210Y-83175790D01*
X164215000Y-88631579D01*
X164215000Y-103773421D01*
X163463420Y-104525000D01*
X160655005Y-104525000D01*
X160655000Y-104524999D01*
X160372516Y-104581190D01*
X160316325Y-104592367D01*
X160029210Y-104784210D01*
X160029208Y-104784213D01*
X153044210Y-111769210D01*
X152852367Y-112056325D01*
X152852367Y-112056326D01*
X152784999Y-112395000D01*
X152785000Y-112395005D01*
X152785000Y-112591477D01*
X152496539Y-112879436D01*
X152400024Y-113111870D01*
X152304831Y-112881485D01*
X151915564Y-112491539D01*
X151406702Y-112280241D01*
X150855715Y-112279760D01*
X150346485Y-112490169D01*
X149956539Y-112879436D01*
X149860024Y-113111870D01*
X149764831Y-112881485D01*
X149375564Y-112491539D01*
X148866702Y-112280241D01*
X148315715Y-112279760D01*
X147806485Y-112490169D01*
X147416539Y-112879436D01*
X147320024Y-113111870D01*
X147224831Y-112881485D01*
X146835564Y-112491539D01*
X146326702Y-112280241D01*
X145775715Y-112279760D01*
X145266485Y-112490169D01*
X144876539Y-112879436D01*
X144780024Y-113111870D01*
X144684831Y-112881485D01*
X144295564Y-112491539D01*
X143786702Y-112280241D01*
X143235715Y-112279760D01*
X142726485Y-112490169D01*
X142336539Y-112879436D01*
X142240024Y-113111870D01*
X142144831Y-112881485D01*
X141855000Y-112591148D01*
X141855000Y-108951580D01*
X146965062Y-103841517D01*
X152370088Y-103841517D01*
X152438077Y-104082460D01*
X152957171Y-104267201D01*
X153507448Y-104239230D01*
X153885923Y-104082460D01*
X153953912Y-103841517D01*
X153162000Y-103049605D01*
X152370088Y-103841517D01*
X146965062Y-103841517D01*
X148141408Y-102665171D01*
X151764799Y-102665171D01*
X151792770Y-103215448D01*
X151949540Y-103593923D01*
X152190483Y-103661912D01*
X152982395Y-102870000D01*
X153341605Y-102870000D01*
X154133517Y-103661912D01*
X154374460Y-103593923D01*
X154559201Y-103074829D01*
X154531230Y-102524552D01*
X154374460Y-102146077D01*
X154133517Y-102078088D01*
X153341605Y-102870000D01*
X152982395Y-102870000D01*
X152190483Y-102078088D01*
X151949540Y-102146077D01*
X151764799Y-102665171D01*
X148141408Y-102665171D01*
X148908096Y-101898483D01*
X152370088Y-101898483D01*
X153162000Y-102690395D01*
X153953912Y-101898483D01*
X153885923Y-101657540D01*
X153366829Y-101472799D01*
X152816552Y-101500770D01*
X152438077Y-101657540D01*
X152370088Y-101898483D01*
X148908096Y-101898483D01*
X151120787Y-99685792D01*
X151120790Y-99685790D01*
X151312633Y-99398675D01*
X151343672Y-99242633D01*
X151380001Y-99060000D01*
X151380000Y-99059995D01*
X151380000Y-96794285D01*
X153554760Y-96794285D01*
X153765169Y-97303515D01*
X154154436Y-97693461D01*
X154663298Y-97904759D01*
X155214285Y-97905240D01*
X155723515Y-97694831D01*
X156113461Y-97305564D01*
X156209976Y-97073130D01*
X156305169Y-97303515D01*
X156694436Y-97693461D01*
X157203298Y-97904759D01*
X157754285Y-97905240D01*
X158263515Y-97694831D01*
X158653461Y-97305564D01*
X158749976Y-97073130D01*
X158845169Y-97303515D01*
X159234436Y-97693461D01*
X159743298Y-97904759D01*
X160153538Y-97905117D01*
X161167000Y-98918579D01*
X161167000Y-101796477D01*
X160878539Y-102084436D01*
X160667241Y-102593298D01*
X160666760Y-103144285D01*
X160877169Y-103653515D01*
X161266436Y-104043461D01*
X161775298Y-104254759D01*
X162326285Y-104255240D01*
X162835515Y-104044831D01*
X163225461Y-103655564D01*
X163436759Y-103146702D01*
X163437240Y-102595715D01*
X163226831Y-102086485D01*
X162937000Y-101796148D01*
X162937000Y-98552005D01*
X162937001Y-98552000D01*
X162869633Y-98213326D01*
X162869633Y-98213325D01*
X162677790Y-97926210D01*
X162677787Y-97926208D01*
X161404884Y-96653305D01*
X161405240Y-96245715D01*
X161194831Y-95736485D01*
X160805564Y-95346539D01*
X160296702Y-95135241D01*
X159745715Y-95134760D01*
X159236485Y-95345169D01*
X158846539Y-95734436D01*
X158750024Y-95966870D01*
X158654831Y-95736485D01*
X158450141Y-95531438D01*
X162677787Y-91303792D01*
X162677790Y-91303790D01*
X162869633Y-91016675D01*
X162937000Y-90678000D01*
X162937000Y-90608523D01*
X163225461Y-90320564D01*
X163436759Y-89811702D01*
X163437240Y-89260715D01*
X163226831Y-88751485D01*
X162837564Y-88361539D01*
X162328702Y-88150241D01*
X161777715Y-88149760D01*
X161268485Y-88360169D01*
X160878539Y-88749436D01*
X160667241Y-89258298D01*
X160666760Y-89809285D01*
X160877169Y-90318515D01*
X161018414Y-90460007D01*
X156854210Y-94624210D01*
X156662367Y-94911325D01*
X156662367Y-94911326D01*
X156594999Y-95250000D01*
X156595000Y-95250005D01*
X156595000Y-95446477D01*
X156306539Y-95734436D01*
X156210024Y-95966870D01*
X156114831Y-95736485D01*
X155725564Y-95346539D01*
X155216702Y-95135241D01*
X154665715Y-95134760D01*
X154156485Y-95345169D01*
X153766539Y-95734436D01*
X153555241Y-96243298D01*
X153554760Y-96794285D01*
X151380000Y-96794285D01*
X151380000Y-89809285D01*
X151776760Y-89809285D01*
X151987169Y-90318515D01*
X152376436Y-90708461D01*
X152885298Y-90919759D01*
X153436285Y-90920240D01*
X153945515Y-90709831D01*
X154335461Y-90320564D01*
X154546759Y-89811702D01*
X154547240Y-89260715D01*
X154336831Y-88751485D01*
X153947564Y-88361539D01*
X153438702Y-88150241D01*
X152887715Y-88149760D01*
X152378485Y-88360169D01*
X151988539Y-88749436D01*
X151777241Y-89258298D01*
X151776760Y-89809285D01*
X151380000Y-89809285D01*
X151380000Y-89266580D01*
X157470787Y-83175792D01*
X157470790Y-83175790D01*
X157662633Y-82888675D01*
X157693672Y-82732633D01*
X157730001Y-82550000D01*
X157730000Y-82549995D01*
X157730000Y-82353523D01*
X158018461Y-82065564D01*
X158114976Y-81833130D01*
X158210169Y-82063515D01*
G36*
X150590169Y-82063515D02*
X150880000Y-82353852D01*
X150880000Y-82818421D01*
X146818194Y-86880227D01*
X146598393Y-86880035D01*
X146558000Y-86872000D01*
X146517960Y-86879964D01*
X146283715Y-86879760D01*
X145774485Y-87090169D01*
X145384539Y-87479436D01*
X145173241Y-87988298D01*
X145172760Y-88539285D01*
X145383169Y-89048515D01*
X145772436Y-89438461D01*
X146281298Y-89649759D01*
X146832285Y-89650240D01*
X147341515Y-89439831D01*
X147731461Y-89050564D01*
X147942759Y-88541702D01*
X147943006Y-88258574D01*
X148340000Y-87861580D01*
X148340000Y-98058421D01*
X144729622Y-101668799D01*
X144907201Y-101169829D01*
X144879230Y-100619552D01*
X144722460Y-100241077D01*
X144481517Y-100173088D01*
X143689605Y-100965000D01*
X143703748Y-100979143D01*
X143524143Y-101158748D01*
X143510000Y-101144605D01*
X142718088Y-101936517D01*
X142786077Y-102177460D01*
X143305171Y-102362201D01*
X143855448Y-102334230D01*
X144211795Y-102186626D01*
X141855000Y-104543420D01*
X141855000Y-102337038D01*
X141955317Y-102318162D01*
X142171441Y-102179090D01*
X142316431Y-101966890D01*
X142367440Y-101715000D01*
X142367440Y-101708647D01*
X142538483Y-101756912D01*
X143330395Y-100965000D01*
X142538483Y-100173088D01*
X142367440Y-100221353D01*
X142367440Y-100215000D01*
X142325759Y-99993483D01*
X142718088Y-99993483D01*
X143510000Y-100785395D01*
X144301912Y-99993483D01*
X144233923Y-99752540D01*
X143714829Y-99567799D01*
X143164552Y-99595770D01*
X142786077Y-99752540D01*
X142718088Y-99993483D01*
X142325759Y-99993483D01*
X142323162Y-99979683D01*
X142184090Y-99763559D01*
X141971890Y-99618569D01*
X141720000Y-99567560D01*
X140824139Y-99567560D01*
X138553000Y-97296420D01*
X138553000Y-95053523D01*
X138655183Y-94951517D01*
X145766088Y-94951517D01*
X145834077Y-95192460D01*
X146353171Y-95377201D01*
X146903448Y-95349230D01*
X147281923Y-95192460D01*
X147349912Y-94951517D01*
X146558000Y-94159605D01*
X145766088Y-94951517D01*
X138655183Y-94951517D01*
X138841461Y-94765564D01*
X139052759Y-94256702D01*
X139053179Y-93775171D01*
X145160799Y-93775171D01*
X145188770Y-94325448D01*
X145345540Y-94703923D01*
X145586483Y-94771912D01*
X146378395Y-93980000D01*
X146737605Y-93980000D01*
X147529517Y-94771912D01*
X147770460Y-94703923D01*
X147955201Y-94184829D01*
X147927230Y-93634552D01*
X147770460Y-93256077D01*
X147529517Y-93188088D01*
X146737605Y-93980000D01*
X146378395Y-93980000D01*
X145586483Y-93188088D01*
X145345540Y-93256077D01*
X145160799Y-93775171D01*
X139053179Y-93775171D01*
X139053240Y-93705715D01*
X138842831Y-93196485D01*
X138655157Y-93008483D01*
X145766088Y-93008483D01*
X146558000Y-93800395D01*
X147349912Y-93008483D01*
X147281923Y-92767540D01*
X146762829Y-92582799D01*
X146212552Y-92610770D01*
X145834077Y-92767540D01*
X145766088Y-93008483D01*
X138655157Y-93008483D01*
X138553000Y-92906148D01*
X138553000Y-89338523D01*
X138841461Y-89050564D01*
X139052759Y-88541702D01*
X139053240Y-87990715D01*
X138842831Y-87481485D01*
X138606758Y-87245000D01*
X142874995Y-87245000D01*
X142875000Y-87245001D01*
X143157484Y-87188810D01*
X143213675Y-87177633D01*
X143500790Y-86985790D01*
X147310787Y-83175792D01*
X147310790Y-83175790D01*
X147502633Y-82888675D01*
X147533672Y-82732633D01*
X147570001Y-82550000D01*
X147570000Y-82549995D01*
X147570000Y-82353523D01*
X147858461Y-82065564D01*
X147954976Y-81833130D01*
X148050169Y-82063515D01*
X148439436Y-82453461D01*
X148948298Y-82664759D01*
X149499285Y-82665240D01*
X150008515Y-82454831D01*
X150398461Y-82065564D01*
X150494976Y-81833130D01*
X150590169Y-82063515D01*
X150590169Y-82063515D01*
G37*
X150590169Y-82063515D02*
X150880000Y-82353852D01*
X150880000Y-82818421D01*
X146818194Y-86880227D01*
X146598393Y-86880035D01*
X146558000Y-86872000D01*
X146517960Y-86879964D01*
X146283715Y-86879760D01*
X145774485Y-87090169D01*
X145384539Y-87479436D01*
X145173241Y-87988298D01*
X145172760Y-88539285D01*
X145383169Y-89048515D01*
X145772436Y-89438461D01*
X146281298Y-89649759D01*
X146832285Y-89650240D01*
X147341515Y-89439831D01*
X147731461Y-89050564D01*
X147942759Y-88541702D01*
X147943006Y-88258574D01*
X148340000Y-87861580D01*
X148340000Y-98058421D01*
X144729622Y-101668799D01*
X144907201Y-101169829D01*
X144879230Y-100619552D01*
X144722460Y-100241077D01*
X144481517Y-100173088D01*
X143689605Y-100965000D01*
X143703748Y-100979143D01*
X143524143Y-101158748D01*
X143510000Y-101144605D01*
X142718088Y-101936517D01*
X142786077Y-102177460D01*
X143305171Y-102362201D01*
X143855448Y-102334230D01*
X144211795Y-102186626D01*
X141855000Y-104543420D01*
X141855000Y-102337038D01*
X141955317Y-102318162D01*
X142171441Y-102179090D01*
X142316431Y-101966890D01*
X142367440Y-101715000D01*
X142367440Y-101708647D01*
X142538483Y-101756912D01*
X143330395Y-100965000D01*
X142538483Y-100173088D01*
X142367440Y-100221353D01*
X142367440Y-100215000D01*
X142325759Y-99993483D01*
X142718088Y-99993483D01*
X143510000Y-100785395D01*
X144301912Y-99993483D01*
X144233923Y-99752540D01*
X143714829Y-99567799D01*
X143164552Y-99595770D01*
X142786077Y-99752540D01*
X142718088Y-99993483D01*
X142325759Y-99993483D01*
X142323162Y-99979683D01*
X142184090Y-99763559D01*
X141971890Y-99618569D01*
X141720000Y-99567560D01*
X140824139Y-99567560D01*
X138553000Y-97296420D01*
X138553000Y-95053523D01*
X138655183Y-94951517D01*
X145766088Y-94951517D01*
X145834077Y-95192460D01*
X146353171Y-95377201D01*
X146903448Y-95349230D01*
X147281923Y-95192460D01*
X147349912Y-94951517D01*
X146558000Y-94159605D01*
X145766088Y-94951517D01*
X138655183Y-94951517D01*
X138841461Y-94765564D01*
X139052759Y-94256702D01*
X139053179Y-93775171D01*
X145160799Y-93775171D01*
X145188770Y-94325448D01*
X145345540Y-94703923D01*
X145586483Y-94771912D01*
X146378395Y-93980000D01*
X146737605Y-93980000D01*
X147529517Y-94771912D01*
X147770460Y-94703923D01*
X147955201Y-94184829D01*
X147927230Y-93634552D01*
X147770460Y-93256077D01*
X147529517Y-93188088D01*
X146737605Y-93980000D01*
X146378395Y-93980000D01*
X145586483Y-93188088D01*
X145345540Y-93256077D01*
X145160799Y-93775171D01*
X139053179Y-93775171D01*
X139053240Y-93705715D01*
X138842831Y-93196485D01*
X138655157Y-93008483D01*
X145766088Y-93008483D01*
X146558000Y-93800395D01*
X147349912Y-93008483D01*
X147281923Y-92767540D01*
X146762829Y-92582799D01*
X146212552Y-92610770D01*
X145834077Y-92767540D01*
X145766088Y-93008483D01*
X138655157Y-93008483D01*
X138553000Y-92906148D01*
X138553000Y-89338523D01*
X138841461Y-89050564D01*
X139052759Y-88541702D01*
X139053240Y-87990715D01*
X138842831Y-87481485D01*
X138606758Y-87245000D01*
X142874995Y-87245000D01*
X142875000Y-87245001D01*
X143157484Y-87188810D01*
X143213675Y-87177633D01*
X143500790Y-86985790D01*
X147310787Y-83175792D01*
X147310790Y-83175790D01*
X147502633Y-82888675D01*
X147533672Y-82732633D01*
X147570001Y-82550000D01*
X147570000Y-82549995D01*
X147570000Y-82353523D01*
X147858461Y-82065564D01*
X147954976Y-81833130D01*
X148050169Y-82063515D01*
X148439436Y-82453461D01*
X148948298Y-82664759D01*
X149499285Y-82665240D01*
X150008515Y-82454831D01*
X150398461Y-82065564D01*
X150494976Y-81833130D01*
X150590169Y-82063515D01*
M02*
