G04 #@! TF.FileFunction,Copper,L2,Bot,Signal*
%FSLAX46Y46*%
G04 Gerber Fmt 4.6, Leading zero omitted, Abs format (unit mm)*
G04 Created by KiCad (PCBNEW 4.0.7) date Thursday, 04 January 2018 'PMt' 04:22:12 PM*
%MOMM*%
%LPD*%
G01*
G04 APERTURE LIST*
%ADD10C,0.100000*%
%ADD11C,0.250000*%
%ADD12C,0.300000*%
%ADD13C,0.600000*%
%ADD14C,5.000000*%
%ADD15C,1.500000*%
%ADD16R,1.524000X1.500000*%
%ADD17R,1.500000X1.500000*%
%ADD18R,1.524000X4.064000*%
%ADD19C,0.500000*%
%ADD20C,0.254000*%
G04 APERTURE END LIST*
D10*
D11*
X123454998Y-64857381D02*
X122526427Y-64857381D01*
X123026427Y-65238333D01*
X122812141Y-65238333D01*
X122669284Y-65285952D01*
X122597855Y-65333571D01*
X122526427Y-65428810D01*
X122526427Y-65666905D01*
X122597855Y-65762143D01*
X122669284Y-65809762D01*
X122812141Y-65857381D01*
X123240713Y-65857381D01*
X123383570Y-65809762D01*
X123454998Y-65762143D01*
X121097856Y-65857381D02*
X121954999Y-65857381D01*
X121526427Y-65857381D02*
X121526427Y-64857381D01*
X121669284Y-65000238D01*
X121812142Y-65095476D01*
X121954999Y-65143095D01*
X119312142Y-65857381D02*
X119312142Y-64857381D01*
X118954999Y-64857381D01*
X118740714Y-64905000D01*
X118597856Y-65000238D01*
X118526428Y-65095476D01*
X118454999Y-65285952D01*
X118454999Y-65428810D01*
X118526428Y-65619286D01*
X118597856Y-65714524D01*
X118740714Y-65809762D01*
X118954999Y-65857381D01*
X119312142Y-65857381D01*
X117240714Y-65809762D02*
X117383571Y-65857381D01*
X117669285Y-65857381D01*
X117812142Y-65809762D01*
X117883571Y-65714524D01*
X117883571Y-65333571D01*
X117812142Y-65238333D01*
X117669285Y-65190714D01*
X117383571Y-65190714D01*
X117240714Y-65238333D01*
X117169285Y-65333571D01*
X117169285Y-65428810D01*
X117883571Y-65524048D01*
X115883571Y-65809762D02*
X116026428Y-65857381D01*
X116312142Y-65857381D01*
X116455000Y-65809762D01*
X116526428Y-65762143D01*
X116597857Y-65666905D01*
X116597857Y-65381190D01*
X116526428Y-65285952D01*
X116455000Y-65238333D01*
X116312142Y-65190714D01*
X116026428Y-65190714D01*
X115883571Y-65238333D01*
X114169286Y-64952619D02*
X114097857Y-64905000D01*
X113955000Y-64857381D01*
X113597857Y-64857381D01*
X113455000Y-64905000D01*
X113383571Y-64952619D01*
X113312143Y-65047857D01*
X113312143Y-65143095D01*
X113383571Y-65285952D01*
X114240714Y-65857381D01*
X113312143Y-65857381D01*
X112383572Y-64857381D02*
X112240715Y-64857381D01*
X112097858Y-64905000D01*
X112026429Y-64952619D01*
X111955000Y-65047857D01*
X111883572Y-65238333D01*
X111883572Y-65476429D01*
X111955000Y-65666905D01*
X112026429Y-65762143D01*
X112097858Y-65809762D01*
X112240715Y-65857381D01*
X112383572Y-65857381D01*
X112526429Y-65809762D01*
X112597858Y-65762143D01*
X112669286Y-65666905D01*
X112740715Y-65476429D01*
X112740715Y-65238333D01*
X112669286Y-65047857D01*
X112597858Y-64952619D01*
X112526429Y-64905000D01*
X112383572Y-64857381D01*
X110455001Y-65857381D02*
X111312144Y-65857381D01*
X110883572Y-65857381D02*
X110883572Y-64857381D01*
X111026429Y-65000238D01*
X111169287Y-65095476D01*
X111312144Y-65143095D01*
X109955001Y-64857381D02*
X108955001Y-64857381D01*
X109597858Y-65857381D01*
D12*
X130760713Y-63543571D02*
X130760713Y-62043571D01*
X130403570Y-62043571D01*
X130189285Y-62115000D01*
X130046427Y-62257857D01*
X129974999Y-62400714D01*
X129903570Y-62686429D01*
X129903570Y-62900714D01*
X129974999Y-63186429D01*
X130046427Y-63329286D01*
X130189285Y-63472143D01*
X130403570Y-63543571D01*
X130760713Y-63543571D01*
X129260713Y-63543571D02*
X129260713Y-62543571D01*
X129260713Y-62043571D02*
X129332142Y-62115000D01*
X129260713Y-62186429D01*
X129189285Y-62115000D01*
X129260713Y-62043571D01*
X129260713Y-62186429D01*
X127903570Y-62543571D02*
X127903570Y-63757857D01*
X127974999Y-63900714D01*
X128046427Y-63972143D01*
X128189284Y-64043571D01*
X128403570Y-64043571D01*
X128546427Y-63972143D01*
X127903570Y-63472143D02*
X128046427Y-63543571D01*
X128332141Y-63543571D01*
X128474999Y-63472143D01*
X128546427Y-63400714D01*
X128617856Y-63257857D01*
X128617856Y-62829286D01*
X128546427Y-62686429D01*
X128474999Y-62615000D01*
X128332141Y-62543571D01*
X128046427Y-62543571D01*
X127903570Y-62615000D01*
X127189284Y-63543571D02*
X127189284Y-62543571D01*
X127189284Y-62043571D02*
X127260713Y-62115000D01*
X127189284Y-62186429D01*
X127117856Y-62115000D01*
X127189284Y-62043571D01*
X127189284Y-62186429D01*
X126689284Y-62543571D02*
X126117855Y-62543571D01*
X126474998Y-62043571D02*
X126474998Y-63329286D01*
X126403570Y-63472143D01*
X126260712Y-63543571D01*
X126117855Y-63543571D01*
X124974998Y-63543571D02*
X124974998Y-62757857D01*
X125046427Y-62615000D01*
X125189284Y-62543571D01*
X125474998Y-62543571D01*
X125617855Y-62615000D01*
X124974998Y-63472143D02*
X125117855Y-63543571D01*
X125474998Y-63543571D01*
X125617855Y-63472143D01*
X125689284Y-63329286D01*
X125689284Y-63186429D01*
X125617855Y-63043571D01*
X125474998Y-62972143D01*
X125117855Y-62972143D01*
X124974998Y-62900714D01*
X124046426Y-63543571D02*
X124189284Y-63472143D01*
X124260712Y-63329286D01*
X124260712Y-62043571D01*
X123689284Y-62043571D02*
X123189284Y-63543571D01*
X122689284Y-62043571D01*
X121689284Y-62757857D02*
X122189284Y-62757857D01*
X122189284Y-63543571D02*
X122189284Y-62043571D01*
X121474998Y-62043571D01*
X120617856Y-62043571D02*
X120332142Y-62043571D01*
X120189284Y-62115000D01*
X120046427Y-62257857D01*
X119974999Y-62543571D01*
X119974999Y-63043571D01*
X120046427Y-63329286D01*
X120189284Y-63472143D01*
X120332142Y-63543571D01*
X120617856Y-63543571D01*
X120760713Y-63472143D01*
X120903570Y-63329286D01*
X120974999Y-63043571D01*
X120974999Y-62543571D01*
X120903570Y-62257857D01*
X120760713Y-62115000D01*
X120617856Y-62043571D01*
X117403570Y-63543571D02*
X118260713Y-63543571D01*
X117832141Y-63543571D02*
X117832141Y-62043571D01*
X117974998Y-62257857D01*
X118117856Y-62400714D01*
X118260713Y-62472143D01*
X116760713Y-63400714D02*
X116689285Y-63472143D01*
X116760713Y-63543571D01*
X116832142Y-63472143D01*
X116760713Y-63400714D01*
X116760713Y-63543571D01*
X115260713Y-63543571D02*
X116117856Y-63543571D01*
X115689284Y-63543571D02*
X115689284Y-62043571D01*
X115832141Y-62257857D01*
X115974999Y-62400714D01*
X116117856Y-62472143D01*
X113689285Y-62043571D02*
X113189285Y-63543571D01*
X112689285Y-62043571D01*
X112189285Y-63543571D02*
X112189285Y-62043571D01*
X111332142Y-63543571D02*
X111974999Y-62686429D01*
X111332142Y-62043571D02*
X112189285Y-62900714D01*
X110046428Y-62543571D02*
X110046428Y-63543571D01*
X110403571Y-61972143D02*
X110760714Y-63043571D01*
X109832142Y-63043571D01*
X108760714Y-62757857D02*
X109260714Y-62757857D01*
X109260714Y-63543571D02*
X109260714Y-62043571D01*
X108546428Y-62043571D01*
X108046429Y-63115000D02*
X107332143Y-63115000D01*
X108189286Y-63543571D02*
X107689286Y-62043571D01*
X107189286Y-63543571D01*
X106832143Y-62043571D02*
X106475000Y-63543571D01*
X106189286Y-62472143D01*
X105903572Y-63543571D01*
X105546429Y-62043571D01*
X104117857Y-63543571D02*
X104617857Y-62829286D01*
X104975000Y-63543571D02*
X104975000Y-62043571D01*
X104403572Y-62043571D01*
X104260714Y-62115000D01*
X104189286Y-62186429D01*
X104117857Y-62329286D01*
X104117857Y-62543571D01*
X104189286Y-62686429D01*
X104260714Y-62757857D01*
X104403572Y-62829286D01*
X104975000Y-62829286D01*
D13*
X111760000Y-73660000D03*
X161925000Y-73660000D03*
D14*
X100965000Y-65405000D03*
X100965000Y-113030000D03*
X177800000Y-106680000D03*
X177800000Y-69215000D03*
D13*
X172720000Y-111760000D03*
X180340000Y-111760000D03*
X143510000Y-111125000D03*
X158750000Y-85090000D03*
X139065000Y-111125000D03*
D15*
X171450000Y-62865000D03*
D16*
X173990000Y-62865000D03*
D15*
X176530000Y-62865000D03*
X132715000Y-62865000D03*
X137795000Y-62865000D03*
X137668000Y-88265000D03*
X146558000Y-88265000D03*
X162052000Y-89535000D03*
X153162000Y-89535000D03*
X162052000Y-102870000D03*
X153162000Y-102870000D03*
D17*
X140970000Y-100965000D03*
D15*
X143510000Y-100965000D03*
X137668000Y-93980000D03*
X146558000Y-93980000D03*
X106680000Y-86233000D03*
X106680000Y-95123000D03*
X111760000Y-86233000D03*
X111760000Y-95123000D03*
X116840000Y-86233000D03*
X116840000Y-95123000D03*
X106680000Y-97663000D03*
X106680000Y-106553000D03*
X111760000Y-97663000D03*
X111760000Y-106553000D03*
X116840000Y-97663000D03*
X116840000Y-106553000D03*
X106680000Y-109220000D03*
X106680000Y-114300000D03*
X111760000Y-109220000D03*
X111760000Y-114300000D03*
X116840000Y-109220000D03*
X116840000Y-114300000D03*
X100076000Y-102870000D03*
X100076000Y-100330000D03*
X100076000Y-97790000D03*
X100076000Y-95250000D03*
X100076000Y-92710000D03*
D18*
X173990000Y-114935000D03*
X179070000Y-114935000D03*
D15*
X160020000Y-96520000D03*
X157480000Y-96520000D03*
X154940000Y-96520000D03*
D17*
X133985000Y-81280000D03*
D15*
X136525000Y-81280000D03*
X139065000Y-81280000D03*
X141605000Y-81280000D03*
X144145000Y-81280000D03*
X146685000Y-81280000D03*
X149225000Y-81280000D03*
X151765000Y-81280000D03*
X154305000Y-81280000D03*
X156845000Y-81280000D03*
X159385000Y-81280000D03*
X161925000Y-81280000D03*
X164465000Y-81280000D03*
X167005000Y-81280000D03*
X167005000Y-66040000D03*
X164465000Y-66040000D03*
X161925000Y-66040000D03*
X159385000Y-66040000D03*
X156845000Y-66040000D03*
X154305000Y-66040000D03*
X151765000Y-66040000D03*
X149225000Y-66040000D03*
X146685000Y-66040000D03*
X144145000Y-66040000D03*
X141605000Y-66040000D03*
X139065000Y-66040000D03*
X136525000Y-66040000D03*
X133985000Y-66040000D03*
X172720000Y-78105000D03*
X172720000Y-80645000D03*
X172720000Y-83185000D03*
X172720000Y-85725000D03*
X172720000Y-88265000D03*
X172720000Y-90805000D03*
X172720000Y-93345000D03*
D17*
X172720000Y-95885000D03*
X124460000Y-88900000D03*
D15*
X124460000Y-91440000D03*
X124460000Y-93980000D03*
X124460000Y-96520000D03*
X124460000Y-99060000D03*
X124460000Y-101600000D03*
X124460000Y-104140000D03*
X132080000Y-104140000D03*
X132080000Y-101600000D03*
X132080000Y-99060000D03*
X132080000Y-96520000D03*
X132080000Y-93980000D03*
X132080000Y-91440000D03*
X132080000Y-88900000D03*
D17*
X128270000Y-113665000D03*
D15*
X130810000Y-113665000D03*
X133350000Y-113665000D03*
X135890000Y-113665000D03*
X138430000Y-113665000D03*
X140970000Y-113665000D03*
X143510000Y-113665000D03*
X146050000Y-113665000D03*
X148590000Y-113665000D03*
X151130000Y-113665000D03*
X153670000Y-113665000D03*
X156210000Y-113665000D03*
X158750000Y-113665000D03*
X161290000Y-113665000D03*
X163830000Y-113665000D03*
X166370000Y-113665000D03*
D19*
X172720000Y-83185000D02*
X173355000Y-83185000D01*
X130810000Y-113665000D02*
X130810000Y-112395000D01*
X117983000Y-86233000D02*
X116840000Y-86233000D01*
X121285000Y-89535000D02*
X117983000Y-86233000D01*
X121285000Y-104140000D02*
X121285000Y-89535000D01*
X123825000Y-106680000D02*
X121285000Y-104140000D01*
X125095000Y-106680000D02*
X123825000Y-106680000D01*
X130810000Y-112395000D02*
X125095000Y-106680000D01*
X166370000Y-76200000D02*
X142875000Y-76200000D01*
X170180000Y-86995000D02*
X170180000Y-80010000D01*
X170180000Y-80010000D02*
X166370000Y-76200000D01*
X171450000Y-88265000D02*
X170180000Y-86995000D01*
X133985000Y-67310000D02*
X133985000Y-66040000D01*
X142875000Y-76200000D02*
X133985000Y-67310000D01*
X132080000Y-88900000D02*
X129413000Y-86233000D01*
X129413000Y-86233000D02*
X129540000Y-69850000D01*
X129540000Y-69850000D02*
X133985000Y-66040000D01*
X116840000Y-86233000D02*
X129413000Y-86233000D01*
X111760000Y-86233000D02*
X116840000Y-86233000D01*
X106680000Y-86233000D02*
X111760000Y-86233000D01*
X171450000Y-88265000D02*
X170180000Y-89535000D01*
X170180000Y-89535000D02*
X170180000Y-114300000D01*
X169164000Y-115316000D02*
X170180000Y-114300000D01*
X164592000Y-115316000D02*
X169164000Y-115316000D01*
X164592000Y-115316000D02*
X163830000Y-114300000D01*
X171450000Y-88265000D02*
X172720000Y-88265000D01*
X163830000Y-113665000D02*
X163830000Y-114300000D01*
X130810000Y-114554000D02*
X130810000Y-113665000D01*
X163830000Y-114300000D02*
X163068000Y-115316000D01*
X163068000Y-115316000D02*
X131572000Y-115316000D01*
X131572000Y-115316000D02*
X130810000Y-114554000D01*
X133985000Y-66040000D02*
X133985000Y-66675000D01*
X154940000Y-96520000D02*
X154940000Y-97790000D01*
X166370000Y-112395000D02*
X166370000Y-113665000D01*
X158750000Y-104775000D02*
X166370000Y-112395000D01*
X158750000Y-101600000D02*
X158750000Y-104775000D01*
X154940000Y-97790000D02*
X158750000Y-101600000D01*
X149225000Y-81280000D02*
X149225000Y-82550000D01*
X153162000Y-86487000D02*
X153162000Y-89535000D01*
X149225000Y-82550000D02*
X153162000Y-86487000D01*
X172720000Y-95885000D02*
X173990000Y-95885000D01*
X164465000Y-67945000D02*
X165735000Y-69215000D01*
X165735000Y-69215000D02*
X171450000Y-69215000D01*
X171450000Y-69215000D02*
X180340000Y-78105000D01*
X180340000Y-78105000D02*
X180340000Y-89535000D01*
X180340000Y-89535000D02*
X173990000Y-95885000D01*
X164465000Y-67945000D02*
X164465000Y-66040000D01*
X172720000Y-93345000D02*
X173990000Y-93345000D01*
X161925000Y-67945000D02*
X161925000Y-66040000D01*
X179070000Y-78740000D02*
X179070000Y-88265000D01*
X170815000Y-70485000D02*
X179070000Y-78740000D01*
X164465000Y-70485000D02*
X170815000Y-70485000D01*
X161925000Y-67945000D02*
X164465000Y-70485000D01*
X179070000Y-88265000D02*
X173990000Y-93345000D01*
X172720000Y-90805000D02*
X173990000Y-90805000D01*
X177800000Y-86995000D02*
X177800000Y-79375000D01*
X159385000Y-67945000D02*
X159385000Y-66040000D01*
X170180000Y-71755000D02*
X177800000Y-79375000D01*
X163195000Y-71755000D02*
X170180000Y-71755000D01*
X159385000Y-67945000D02*
X163195000Y-71755000D01*
X173990000Y-90805000D02*
X177800000Y-86995000D01*
D20*
G36*
X103197144Y-63203610D02*
X102743153Y-62748826D01*
X101591326Y-62270546D01*
X100344146Y-62269457D01*
X99191485Y-62745727D01*
X98308826Y-63626847D01*
X97830546Y-64778674D01*
X97829457Y-66025854D01*
X98305727Y-67178515D01*
X99186847Y-68061174D01*
X100338674Y-68539454D01*
X101585854Y-68540543D01*
X102738515Y-68064273D01*
X103621174Y-67183153D01*
X104099454Y-66031326D01*
X104100485Y-64850000D01*
X108105716Y-64850000D01*
X108105716Y-66965000D01*
X124304284Y-66965000D01*
X124304284Y-64850000D01*
X131752857Y-64850000D01*
X131752857Y-63861574D01*
X131929436Y-64038461D01*
X132438298Y-64249759D01*
X132989285Y-64250240D01*
X133498515Y-64039831D01*
X133702183Y-63836517D01*
X137003088Y-63836517D01*
X137071077Y-64077460D01*
X137590171Y-64262201D01*
X138140448Y-64234230D01*
X138518923Y-64077460D01*
X138586912Y-63836517D01*
X170658088Y-63836517D01*
X170726077Y-64077460D01*
X171245171Y-64262201D01*
X171795448Y-64234230D01*
X172173923Y-64077460D01*
X172241912Y-63836517D01*
X171450000Y-63044605D01*
X170658088Y-63836517D01*
X138586912Y-63836517D01*
X137795000Y-63044605D01*
X137003088Y-63836517D01*
X133702183Y-63836517D01*
X133888461Y-63650564D01*
X134099759Y-63141702D01*
X134100179Y-62660171D01*
X136397799Y-62660171D01*
X136425770Y-63210448D01*
X136582540Y-63588923D01*
X136823483Y-63656912D01*
X137615395Y-62865000D01*
X137974605Y-62865000D01*
X138766517Y-63656912D01*
X139007460Y-63588923D01*
X139192201Y-63069829D01*
X139171378Y-62660171D01*
X170052799Y-62660171D01*
X170080770Y-63210448D01*
X170237540Y-63588923D01*
X170478483Y-63656912D01*
X171270395Y-62865000D01*
X170478483Y-62073088D01*
X170237540Y-62141077D01*
X170052799Y-62660171D01*
X139171378Y-62660171D01*
X139164230Y-62519552D01*
X139007460Y-62141077D01*
X138766517Y-62073088D01*
X137974605Y-62865000D01*
X137615395Y-62865000D01*
X136823483Y-62073088D01*
X136582540Y-62141077D01*
X136397799Y-62660171D01*
X134100179Y-62660171D01*
X134100240Y-62590715D01*
X133889831Y-62081485D01*
X133580885Y-61772000D01*
X137037368Y-61772000D01*
X137003088Y-61893483D01*
X137795000Y-62685395D01*
X138586912Y-61893483D01*
X138552632Y-61772000D01*
X170692368Y-61772000D01*
X170658088Y-61893483D01*
X171450000Y-62685395D01*
X172241912Y-61893483D01*
X172207632Y-61772000D01*
X172693822Y-61772000D01*
X172631569Y-61863110D01*
X172580560Y-62115000D01*
X172580560Y-62117967D01*
X172421517Y-62073088D01*
X171629605Y-62865000D01*
X172421517Y-63656912D01*
X172580560Y-63612033D01*
X172580560Y-63615000D01*
X172624838Y-63850317D01*
X172763910Y-64066441D01*
X172976110Y-64211431D01*
X173228000Y-64262440D01*
X174752000Y-64262440D01*
X174987317Y-64218162D01*
X175203441Y-64079090D01*
X175348431Y-63866890D01*
X175354581Y-63836517D01*
X175738088Y-63836517D01*
X175806077Y-64077460D01*
X176325171Y-64262201D01*
X176875448Y-64234230D01*
X177253923Y-64077460D01*
X177321912Y-63836517D01*
X176530000Y-63044605D01*
X175738088Y-63836517D01*
X175354581Y-63836517D01*
X175399440Y-63615000D01*
X175399440Y-63612033D01*
X175558483Y-63656912D01*
X176350395Y-62865000D01*
X176709605Y-62865000D01*
X177501517Y-63656912D01*
X177742460Y-63588923D01*
X177927201Y-63069829D01*
X177899230Y-62519552D01*
X177742460Y-62141077D01*
X177501517Y-62073088D01*
X176709605Y-62865000D01*
X176350395Y-62865000D01*
X175558483Y-62073088D01*
X175399440Y-62117967D01*
X175399440Y-62115000D01*
X175355162Y-61879683D01*
X175285870Y-61772000D01*
X175772368Y-61772000D01*
X175738088Y-61893483D01*
X176530000Y-62685395D01*
X177321912Y-61893483D01*
X177287632Y-61772000D01*
X181687000Y-61772000D01*
X181687000Y-116917000D01*
X180479440Y-116917000D01*
X180479440Y-112903000D01*
X180435162Y-112667683D01*
X180296090Y-112451559D01*
X180083890Y-112306569D01*
X179832000Y-112255560D01*
X178308000Y-112255560D01*
X178072683Y-112299838D01*
X177856559Y-112438910D01*
X177711569Y-112651110D01*
X177660560Y-112903000D01*
X177660560Y-116917000D01*
X175399440Y-116917000D01*
X175399440Y-112903000D01*
X175355162Y-112667683D01*
X175216090Y-112451559D01*
X175003890Y-112306569D01*
X174752000Y-112255560D01*
X173228000Y-112255560D01*
X172992683Y-112299838D01*
X172776559Y-112438910D01*
X172631569Y-112651110D01*
X172580560Y-112903000D01*
X172580560Y-116917000D01*
X97078000Y-116917000D01*
X97078000Y-113650854D01*
X97829457Y-113650854D01*
X98305727Y-114803515D01*
X99186847Y-115686174D01*
X100338674Y-116164454D01*
X101585854Y-116165543D01*
X102738515Y-115689273D01*
X103157000Y-115271517D01*
X105888088Y-115271517D01*
X105956077Y-115512460D01*
X106475171Y-115697201D01*
X107025448Y-115669230D01*
X107403923Y-115512460D01*
X107471912Y-115271517D01*
X110968088Y-115271517D01*
X111036077Y-115512460D01*
X111555171Y-115697201D01*
X112105448Y-115669230D01*
X112483923Y-115512460D01*
X112551912Y-115271517D01*
X116048088Y-115271517D01*
X116116077Y-115512460D01*
X116635171Y-115697201D01*
X117185448Y-115669230D01*
X117563923Y-115512460D01*
X117631912Y-115271517D01*
X116840000Y-114479605D01*
X116048088Y-115271517D01*
X112551912Y-115271517D01*
X111760000Y-114479605D01*
X110968088Y-115271517D01*
X107471912Y-115271517D01*
X106680000Y-114479605D01*
X105888088Y-115271517D01*
X103157000Y-115271517D01*
X103621174Y-114808153D01*
X103917229Y-114095171D01*
X105282799Y-114095171D01*
X105310770Y-114645448D01*
X105467540Y-115023923D01*
X105708483Y-115091912D01*
X106500395Y-114300000D01*
X106859605Y-114300000D01*
X107651517Y-115091912D01*
X107892460Y-115023923D01*
X108077201Y-114504829D01*
X108056378Y-114095171D01*
X110362799Y-114095171D01*
X110390770Y-114645448D01*
X110547540Y-115023923D01*
X110788483Y-115091912D01*
X111580395Y-114300000D01*
X111939605Y-114300000D01*
X112731517Y-115091912D01*
X112972460Y-115023923D01*
X113157201Y-114504829D01*
X113136378Y-114095171D01*
X115442799Y-114095171D01*
X115470770Y-114645448D01*
X115627540Y-115023923D01*
X115868483Y-115091912D01*
X116660395Y-114300000D01*
X117019605Y-114300000D01*
X117811517Y-115091912D01*
X118052460Y-115023923D01*
X118237201Y-114504829D01*
X118209230Y-113954552D01*
X118207656Y-113950750D01*
X126885000Y-113950750D01*
X126885000Y-114541310D01*
X126981673Y-114774699D01*
X127160302Y-114953327D01*
X127393691Y-115050000D01*
X127984250Y-115050000D01*
X128143000Y-114891250D01*
X128143000Y-113792000D01*
X127043750Y-113792000D01*
X126885000Y-113950750D01*
X118207656Y-113950750D01*
X118052460Y-113576077D01*
X117811517Y-113508088D01*
X117019605Y-114300000D01*
X116660395Y-114300000D01*
X115868483Y-113508088D01*
X115627540Y-113576077D01*
X115442799Y-114095171D01*
X113136378Y-114095171D01*
X113129230Y-113954552D01*
X112972460Y-113576077D01*
X112731517Y-113508088D01*
X111939605Y-114300000D01*
X111580395Y-114300000D01*
X110788483Y-113508088D01*
X110547540Y-113576077D01*
X110362799Y-114095171D01*
X108056378Y-114095171D01*
X108049230Y-113954552D01*
X107892460Y-113576077D01*
X107651517Y-113508088D01*
X106859605Y-114300000D01*
X106500395Y-114300000D01*
X105708483Y-113508088D01*
X105467540Y-113576077D01*
X105282799Y-114095171D01*
X103917229Y-114095171D01*
X104099454Y-113656326D01*
X104099740Y-113328483D01*
X105888088Y-113328483D01*
X106680000Y-114120395D01*
X107471912Y-113328483D01*
X110968088Y-113328483D01*
X111760000Y-114120395D01*
X112551912Y-113328483D01*
X116048088Y-113328483D01*
X116840000Y-114120395D01*
X117631912Y-113328483D01*
X117563923Y-113087540D01*
X117044829Y-112902799D01*
X116494552Y-112930770D01*
X116116077Y-113087540D01*
X116048088Y-113328483D01*
X112551912Y-113328483D01*
X112483923Y-113087540D01*
X111964829Y-112902799D01*
X111414552Y-112930770D01*
X111036077Y-113087540D01*
X110968088Y-113328483D01*
X107471912Y-113328483D01*
X107403923Y-113087540D01*
X106884829Y-112902799D01*
X106334552Y-112930770D01*
X105956077Y-113087540D01*
X105888088Y-113328483D01*
X104099740Y-113328483D01*
X104100211Y-112788690D01*
X126885000Y-112788690D01*
X126885000Y-113379250D01*
X127043750Y-113538000D01*
X128143000Y-113538000D01*
X128143000Y-112438750D01*
X127984250Y-112280000D01*
X127393691Y-112280000D01*
X127160302Y-112376673D01*
X126981673Y-112555301D01*
X126885000Y-112788690D01*
X104100211Y-112788690D01*
X104100543Y-112409146D01*
X103624273Y-111256485D01*
X102743153Y-110373826D01*
X101591326Y-109895546D01*
X100344146Y-109894457D01*
X99191485Y-110370727D01*
X98308826Y-111251847D01*
X97830546Y-112403674D01*
X97829457Y-113650854D01*
X97078000Y-113650854D01*
X97078000Y-106827285D01*
X105294760Y-106827285D01*
X105505169Y-107336515D01*
X105894436Y-107726461D01*
X106280173Y-107886633D01*
X105896485Y-108045169D01*
X105506539Y-108434436D01*
X105295241Y-108943298D01*
X105294760Y-109494285D01*
X105505169Y-110003515D01*
X105894436Y-110393461D01*
X106403298Y-110604759D01*
X106954285Y-110605240D01*
X107463515Y-110394831D01*
X107853461Y-110005564D01*
X108064759Y-109496702D01*
X108065240Y-108945715D01*
X107854831Y-108436485D01*
X107465564Y-108046539D01*
X107079827Y-107886367D01*
X107463515Y-107727831D01*
X107853461Y-107338564D01*
X108064759Y-106829702D01*
X108064761Y-106827285D01*
X110374760Y-106827285D01*
X110585169Y-107336515D01*
X110974436Y-107726461D01*
X111360173Y-107886633D01*
X110976485Y-108045169D01*
X110586539Y-108434436D01*
X110375241Y-108943298D01*
X110374760Y-109494285D01*
X110585169Y-110003515D01*
X110974436Y-110393461D01*
X111483298Y-110604759D01*
X112034285Y-110605240D01*
X112543515Y-110394831D01*
X112933461Y-110005564D01*
X113144759Y-109496702D01*
X113145240Y-108945715D01*
X112934831Y-108436485D01*
X112545564Y-108046539D01*
X112159827Y-107886367D01*
X112543515Y-107727831D01*
X112933461Y-107338564D01*
X113144759Y-106829702D01*
X113144761Y-106827285D01*
X115454760Y-106827285D01*
X115665169Y-107336515D01*
X116054436Y-107726461D01*
X116440173Y-107886633D01*
X116056485Y-108045169D01*
X115666539Y-108434436D01*
X115455241Y-108943298D01*
X115454760Y-109494285D01*
X115665169Y-110003515D01*
X116054436Y-110393461D01*
X116563298Y-110604759D01*
X117114285Y-110605240D01*
X117623515Y-110394831D01*
X118013461Y-110005564D01*
X118224759Y-109496702D01*
X118225240Y-108945715D01*
X118014831Y-108436485D01*
X117625564Y-108046539D01*
X117239827Y-107886367D01*
X117623515Y-107727831D01*
X118013461Y-107338564D01*
X118224759Y-106829702D01*
X118225240Y-106278715D01*
X118014831Y-105769485D01*
X117625564Y-105379539D01*
X117116702Y-105168241D01*
X116565715Y-105167760D01*
X116056485Y-105378169D01*
X115666539Y-105767436D01*
X115455241Y-106276298D01*
X115454760Y-106827285D01*
X113144761Y-106827285D01*
X113145240Y-106278715D01*
X112934831Y-105769485D01*
X112545564Y-105379539D01*
X112036702Y-105168241D01*
X111485715Y-105167760D01*
X110976485Y-105378169D01*
X110586539Y-105767436D01*
X110375241Y-106276298D01*
X110374760Y-106827285D01*
X108064761Y-106827285D01*
X108065240Y-106278715D01*
X107854831Y-105769485D01*
X107465564Y-105379539D01*
X106956702Y-105168241D01*
X106405715Y-105167760D01*
X105896485Y-105378169D01*
X105506539Y-105767436D01*
X105295241Y-106276298D01*
X105294760Y-106827285D01*
X97078000Y-106827285D01*
X97078000Y-103144285D01*
X98690760Y-103144285D01*
X98901169Y-103653515D01*
X99290436Y-104043461D01*
X99799298Y-104254759D01*
X100350285Y-104255240D01*
X100859515Y-104044831D01*
X101249461Y-103655564D01*
X101460759Y-103146702D01*
X101461240Y-102595715D01*
X101250831Y-102086485D01*
X100861564Y-101696539D01*
X100645021Y-101606623D01*
X100799923Y-101542460D01*
X100867912Y-101301517D01*
X100076000Y-100509605D01*
X99284088Y-101301517D01*
X99352077Y-101542460D01*
X99518621Y-101601732D01*
X99292485Y-101695169D01*
X98902539Y-102084436D01*
X98691241Y-102593298D01*
X98690760Y-103144285D01*
X97078000Y-103144285D01*
X97078000Y-100125171D01*
X98678799Y-100125171D01*
X98706770Y-100675448D01*
X98863540Y-101053923D01*
X99104483Y-101121912D01*
X99896395Y-100330000D01*
X100255605Y-100330000D01*
X101047517Y-101121912D01*
X101288460Y-101053923D01*
X101473201Y-100534829D01*
X101445230Y-99984552D01*
X101288460Y-99606077D01*
X101047517Y-99538088D01*
X100255605Y-100330000D01*
X99896395Y-100330000D01*
X99104483Y-99538088D01*
X98863540Y-99606077D01*
X98678799Y-100125171D01*
X97078000Y-100125171D01*
X97078000Y-98064285D01*
X98690760Y-98064285D01*
X98901169Y-98573515D01*
X99290436Y-98963461D01*
X99506979Y-99053377D01*
X99352077Y-99117540D01*
X99284088Y-99358483D01*
X100076000Y-100150395D01*
X100867912Y-99358483D01*
X100799923Y-99117540D01*
X100633379Y-99058268D01*
X100859515Y-98964831D01*
X101249461Y-98575564D01*
X101460759Y-98066702D01*
X101461240Y-97515715D01*
X101250831Y-97006485D01*
X100861564Y-96616539D01*
X100645021Y-96526623D01*
X100799923Y-96462460D01*
X100867912Y-96221517D01*
X100076000Y-95429605D01*
X99284088Y-96221517D01*
X99352077Y-96462460D01*
X99518621Y-96521732D01*
X99292485Y-96615169D01*
X98902539Y-97004436D01*
X98691241Y-97513298D01*
X98690760Y-98064285D01*
X97078000Y-98064285D01*
X97078000Y-95045171D01*
X98678799Y-95045171D01*
X98706770Y-95595448D01*
X98863540Y-95973923D01*
X99104483Y-96041912D01*
X99896395Y-95250000D01*
X100255605Y-95250000D01*
X101047517Y-96041912D01*
X101288460Y-95973923D01*
X101473201Y-95454829D01*
X101470276Y-95397285D01*
X105294760Y-95397285D01*
X105505169Y-95906515D01*
X105894436Y-96296461D01*
X106126870Y-96392976D01*
X105896485Y-96488169D01*
X105506539Y-96877436D01*
X105295241Y-97386298D01*
X105294760Y-97937285D01*
X105505169Y-98446515D01*
X105894436Y-98836461D01*
X106403298Y-99047759D01*
X106954285Y-99048240D01*
X107463515Y-98837831D01*
X107853461Y-98448564D01*
X108064759Y-97939702D01*
X108065240Y-97388715D01*
X107854831Y-96879485D01*
X107465564Y-96489539D01*
X107233130Y-96393024D01*
X107463515Y-96297831D01*
X107853461Y-95908564D01*
X108064759Y-95399702D01*
X108064761Y-95397285D01*
X110374760Y-95397285D01*
X110585169Y-95906515D01*
X110974436Y-96296461D01*
X111206870Y-96392976D01*
X110976485Y-96488169D01*
X110586539Y-96877436D01*
X110375241Y-97386298D01*
X110374760Y-97937285D01*
X110585169Y-98446515D01*
X110974436Y-98836461D01*
X111483298Y-99047759D01*
X112034285Y-99048240D01*
X112543515Y-98837831D01*
X112933461Y-98448564D01*
X113144759Y-97939702D01*
X113145240Y-97388715D01*
X112934831Y-96879485D01*
X112545564Y-96489539D01*
X112313130Y-96393024D01*
X112543515Y-96297831D01*
X112933461Y-95908564D01*
X113144759Y-95399702D01*
X113144761Y-95397285D01*
X115454760Y-95397285D01*
X115665169Y-95906515D01*
X116054436Y-96296461D01*
X116286870Y-96392976D01*
X116056485Y-96488169D01*
X115666539Y-96877436D01*
X115455241Y-97386298D01*
X115454760Y-97937285D01*
X115665169Y-98446515D01*
X116054436Y-98836461D01*
X116563298Y-99047759D01*
X117114285Y-99048240D01*
X117623515Y-98837831D01*
X118013461Y-98448564D01*
X118224759Y-97939702D01*
X118225240Y-97388715D01*
X118014831Y-96879485D01*
X117625564Y-96489539D01*
X117393130Y-96393024D01*
X117623515Y-96297831D01*
X118013461Y-95908564D01*
X118224759Y-95399702D01*
X118225240Y-94848715D01*
X118014831Y-94339485D01*
X117625564Y-93949539D01*
X117116702Y-93738241D01*
X116565715Y-93737760D01*
X116056485Y-93948169D01*
X115666539Y-94337436D01*
X115455241Y-94846298D01*
X115454760Y-95397285D01*
X113144761Y-95397285D01*
X113145240Y-94848715D01*
X112934831Y-94339485D01*
X112545564Y-93949539D01*
X112036702Y-93738241D01*
X111485715Y-93737760D01*
X110976485Y-93948169D01*
X110586539Y-94337436D01*
X110375241Y-94846298D01*
X110374760Y-95397285D01*
X108064761Y-95397285D01*
X108065240Y-94848715D01*
X107854831Y-94339485D01*
X107465564Y-93949539D01*
X106956702Y-93738241D01*
X106405715Y-93737760D01*
X105896485Y-93948169D01*
X105506539Y-94337436D01*
X105295241Y-94846298D01*
X105294760Y-95397285D01*
X101470276Y-95397285D01*
X101445230Y-94904552D01*
X101288460Y-94526077D01*
X101047517Y-94458088D01*
X100255605Y-95250000D01*
X99896395Y-95250000D01*
X99104483Y-94458088D01*
X98863540Y-94526077D01*
X98678799Y-95045171D01*
X97078000Y-95045171D01*
X97078000Y-92984285D01*
X98690760Y-92984285D01*
X98901169Y-93493515D01*
X99290436Y-93883461D01*
X99506979Y-93973377D01*
X99352077Y-94037540D01*
X99284088Y-94278483D01*
X100076000Y-95070395D01*
X100867912Y-94278483D01*
X100799923Y-94037540D01*
X100633379Y-93978268D01*
X100859515Y-93884831D01*
X101249461Y-93495564D01*
X101460759Y-92986702D01*
X101461240Y-92435715D01*
X101250831Y-91926485D01*
X100861564Y-91536539D01*
X100352702Y-91325241D01*
X99801715Y-91324760D01*
X99292485Y-91535169D01*
X98902539Y-91924436D01*
X98691241Y-92433298D01*
X98690760Y-92984285D01*
X97078000Y-92984285D01*
X97078000Y-86507285D01*
X105294760Y-86507285D01*
X105505169Y-87016515D01*
X105894436Y-87406461D01*
X106403298Y-87617759D01*
X106954285Y-87618240D01*
X107463515Y-87407831D01*
X107753852Y-87118000D01*
X110686477Y-87118000D01*
X110974436Y-87406461D01*
X111483298Y-87617759D01*
X112034285Y-87618240D01*
X112543515Y-87407831D01*
X112833852Y-87118000D01*
X115766477Y-87118000D01*
X116054436Y-87406461D01*
X116563298Y-87617759D01*
X117114285Y-87618240D01*
X117623515Y-87407831D01*
X117765006Y-87266586D01*
X120400000Y-89901579D01*
X120400000Y-104139995D01*
X120399999Y-104140000D01*
X120440743Y-104344829D01*
X120467367Y-104478675D01*
X120471893Y-104485448D01*
X120659210Y-104765790D01*
X123199208Y-107305787D01*
X123199210Y-107305790D01*
X123486325Y-107497633D01*
X123825000Y-107565000D01*
X124728420Y-107565000D01*
X129839875Y-112676454D01*
X129655000Y-112861007D01*
X129655000Y-112788690D01*
X129558327Y-112555301D01*
X129379698Y-112376673D01*
X129146309Y-112280000D01*
X128555750Y-112280000D01*
X128397000Y-112438750D01*
X128397000Y-113538000D01*
X128417000Y-113538000D01*
X128417000Y-113792000D01*
X128397000Y-113792000D01*
X128397000Y-114891250D01*
X128555750Y-115050000D01*
X129146309Y-115050000D01*
X129379698Y-114953327D01*
X129558327Y-114774699D01*
X129655000Y-114541310D01*
X129655000Y-114468381D01*
X129970919Y-114784851D01*
X129992367Y-114892675D01*
X130097327Y-115049759D01*
X130184210Y-115179790D01*
X130946208Y-115941787D01*
X130946210Y-115941790D01*
X131233325Y-116133633D01*
X131289516Y-116144810D01*
X131572000Y-116201001D01*
X131572005Y-116201000D01*
X163068000Y-116201000D01*
X163130016Y-116188664D01*
X163193158Y-116192106D01*
X163297843Y-116155281D01*
X163406675Y-116133633D01*
X163459251Y-116098503D01*
X163518901Y-116077520D01*
X163601519Y-116003443D01*
X163693790Y-115941790D01*
X163728922Y-115889211D01*
X163776000Y-115847000D01*
X163830000Y-115775000D01*
X163884000Y-115847000D01*
X163931078Y-115889211D01*
X163966210Y-115941790D01*
X164058481Y-116003443D01*
X164141099Y-116077520D01*
X164200749Y-116098503D01*
X164253325Y-116133633D01*
X164362157Y-116155281D01*
X164466842Y-116192106D01*
X164529984Y-116188664D01*
X164592000Y-116201000D01*
X169163995Y-116201000D01*
X169164000Y-116201001D01*
X169446484Y-116144810D01*
X169502675Y-116133633D01*
X169789790Y-115941790D01*
X170805787Y-114925792D01*
X170805790Y-114925790D01*
X170997633Y-114638675D01*
X171028672Y-114482633D01*
X171065001Y-114300000D01*
X171065000Y-114299995D01*
X171065000Y-107300854D01*
X174664457Y-107300854D01*
X175140727Y-108453515D01*
X176021847Y-109336174D01*
X177173674Y-109814454D01*
X178420854Y-109815543D01*
X179573515Y-109339273D01*
X180456174Y-108458153D01*
X180934454Y-107306326D01*
X180935543Y-106059146D01*
X180459273Y-104906485D01*
X179578153Y-104023826D01*
X178426326Y-103545546D01*
X177179146Y-103544457D01*
X176026485Y-104020727D01*
X175143826Y-104901847D01*
X174665546Y-106053674D01*
X174664457Y-107300854D01*
X171065000Y-107300854D01*
X171065000Y-89901580D01*
X171731454Y-89235125D01*
X171934436Y-89438461D01*
X172166870Y-89534976D01*
X171936485Y-89630169D01*
X171546539Y-90019436D01*
X171335241Y-90528298D01*
X171334760Y-91079285D01*
X171545169Y-91588515D01*
X171934436Y-91978461D01*
X172166870Y-92074976D01*
X171936485Y-92170169D01*
X171546539Y-92559436D01*
X171335241Y-93068298D01*
X171334760Y-93619285D01*
X171545169Y-94128515D01*
X171914091Y-94498080D01*
X171734683Y-94531838D01*
X171518559Y-94670910D01*
X171373569Y-94883110D01*
X171322560Y-95135000D01*
X171322560Y-96635000D01*
X171366838Y-96870317D01*
X171505910Y-97086441D01*
X171718110Y-97231431D01*
X171970000Y-97282440D01*
X173470000Y-97282440D01*
X173705317Y-97238162D01*
X173921441Y-97099090D01*
X174066431Y-96886890D01*
X174094303Y-96749253D01*
X174272484Y-96713810D01*
X174328675Y-96702633D01*
X174615790Y-96510790D01*
X180965787Y-90160792D01*
X180965790Y-90160790D01*
X181157633Y-89873675D01*
X181170441Y-89809285D01*
X181225001Y-89535000D01*
X181225000Y-89534995D01*
X181225000Y-78105005D01*
X181225001Y-78105000D01*
X181157634Y-77766326D01*
X181093975Y-77671054D01*
X180965790Y-77479210D01*
X180965787Y-77479208D01*
X173322434Y-69835854D01*
X174664457Y-69835854D01*
X175140727Y-70988515D01*
X176021847Y-71871174D01*
X177173674Y-72349454D01*
X178420854Y-72350543D01*
X179573515Y-71874273D01*
X180456174Y-70993153D01*
X180934454Y-69841326D01*
X180935543Y-68594146D01*
X180459273Y-67441485D01*
X179578153Y-66558826D01*
X178426326Y-66080546D01*
X177179146Y-66079457D01*
X176026485Y-66555727D01*
X175143826Y-67436847D01*
X174665546Y-68588674D01*
X174664457Y-69835854D01*
X173322434Y-69835854D01*
X172075790Y-68589210D01*
X172001324Y-68539454D01*
X171788675Y-68397367D01*
X171732484Y-68386190D01*
X171450000Y-68329999D01*
X171449995Y-68330000D01*
X166101579Y-68330000D01*
X165350000Y-67578420D01*
X165350000Y-67113523D01*
X165638461Y-66825564D01*
X165734976Y-66593130D01*
X165830169Y-66823515D01*
X166219436Y-67213461D01*
X166728298Y-67424759D01*
X167279285Y-67425240D01*
X167788515Y-67214831D01*
X168178461Y-66825564D01*
X168389759Y-66316702D01*
X168390240Y-65765715D01*
X168179831Y-65256485D01*
X167790564Y-64866539D01*
X167281702Y-64655241D01*
X166730715Y-64654760D01*
X166221485Y-64865169D01*
X165831539Y-65254436D01*
X165735024Y-65486870D01*
X165639831Y-65256485D01*
X165250564Y-64866539D01*
X164741702Y-64655241D01*
X164190715Y-64654760D01*
X163681485Y-64865169D01*
X163291539Y-65254436D01*
X163195024Y-65486870D01*
X163099831Y-65256485D01*
X162710564Y-64866539D01*
X162201702Y-64655241D01*
X161650715Y-64654760D01*
X161141485Y-64865169D01*
X160751539Y-65254436D01*
X160655024Y-65486870D01*
X160559831Y-65256485D01*
X160170564Y-64866539D01*
X159661702Y-64655241D01*
X159110715Y-64654760D01*
X158601485Y-64865169D01*
X158211539Y-65254436D01*
X158115024Y-65486870D01*
X158019831Y-65256485D01*
X157630564Y-64866539D01*
X157121702Y-64655241D01*
X156570715Y-64654760D01*
X156061485Y-64865169D01*
X155671539Y-65254436D01*
X155575024Y-65486870D01*
X155479831Y-65256485D01*
X155090564Y-64866539D01*
X154581702Y-64655241D01*
X154030715Y-64654760D01*
X153521485Y-64865169D01*
X153131539Y-65254436D01*
X153035024Y-65486870D01*
X152939831Y-65256485D01*
X152550564Y-64866539D01*
X152041702Y-64655241D01*
X151490715Y-64654760D01*
X150981485Y-64865169D01*
X150591539Y-65254436D01*
X150495024Y-65486870D01*
X150399831Y-65256485D01*
X150010564Y-64866539D01*
X149501702Y-64655241D01*
X148950715Y-64654760D01*
X148441485Y-64865169D01*
X148051539Y-65254436D01*
X147955024Y-65486870D01*
X147859831Y-65256485D01*
X147470564Y-64866539D01*
X146961702Y-64655241D01*
X146410715Y-64654760D01*
X145901485Y-64865169D01*
X145511539Y-65254436D01*
X145415024Y-65486870D01*
X145319831Y-65256485D01*
X144930564Y-64866539D01*
X144421702Y-64655241D01*
X143870715Y-64654760D01*
X143361485Y-64865169D01*
X142971539Y-65254436D01*
X142875024Y-65486870D01*
X142779831Y-65256485D01*
X142390564Y-64866539D01*
X141881702Y-64655241D01*
X141330715Y-64654760D01*
X140821485Y-64865169D01*
X140431539Y-65254436D01*
X140335024Y-65486870D01*
X140239831Y-65256485D01*
X139850564Y-64866539D01*
X139341702Y-64655241D01*
X138790715Y-64654760D01*
X138281485Y-64865169D01*
X137891539Y-65254436D01*
X137801623Y-65470979D01*
X137737460Y-65316077D01*
X137496517Y-65248088D01*
X136704605Y-66040000D01*
X137496517Y-66831912D01*
X137737460Y-66763923D01*
X137796732Y-66597379D01*
X137890169Y-66823515D01*
X138279436Y-67213461D01*
X138788298Y-67424759D01*
X139339285Y-67425240D01*
X139848515Y-67214831D01*
X140238461Y-66825564D01*
X140334976Y-66593130D01*
X140430169Y-66823515D01*
X140819436Y-67213461D01*
X141328298Y-67424759D01*
X141879285Y-67425240D01*
X142388515Y-67214831D01*
X142778461Y-66825564D01*
X142874976Y-66593130D01*
X142970169Y-66823515D01*
X143359436Y-67213461D01*
X143868298Y-67424759D01*
X144419285Y-67425240D01*
X144928515Y-67214831D01*
X145318461Y-66825564D01*
X145414976Y-66593130D01*
X145510169Y-66823515D01*
X145899436Y-67213461D01*
X146408298Y-67424759D01*
X146959285Y-67425240D01*
X147468515Y-67214831D01*
X147858461Y-66825564D01*
X147954976Y-66593130D01*
X148050169Y-66823515D01*
X148439436Y-67213461D01*
X148948298Y-67424759D01*
X149499285Y-67425240D01*
X150008515Y-67214831D01*
X150398461Y-66825564D01*
X150494976Y-66593130D01*
X150590169Y-66823515D01*
X150979436Y-67213461D01*
X151488298Y-67424759D01*
X152039285Y-67425240D01*
X152548515Y-67214831D01*
X152938461Y-66825564D01*
X153034976Y-66593130D01*
X153130169Y-66823515D01*
X153519436Y-67213461D01*
X154028298Y-67424759D01*
X154579285Y-67425240D01*
X155088515Y-67214831D01*
X155478461Y-66825564D01*
X155574976Y-66593130D01*
X155670169Y-66823515D01*
X156059436Y-67213461D01*
X156568298Y-67424759D01*
X157119285Y-67425240D01*
X157628515Y-67214831D01*
X158018461Y-66825564D01*
X158114976Y-66593130D01*
X158210169Y-66823515D01*
X158500000Y-67113852D01*
X158500000Y-67944995D01*
X158499999Y-67945000D01*
X158536328Y-68127633D01*
X158567367Y-68283675D01*
X158738272Y-68539454D01*
X158759210Y-68570790D01*
X162569208Y-72380787D01*
X162569210Y-72380790D01*
X162856325Y-72572633D01*
X162912516Y-72583810D01*
X163195000Y-72640001D01*
X163195005Y-72640000D01*
X169813420Y-72640000D01*
X176915000Y-79741579D01*
X176915000Y-86628421D01*
X173708546Y-89834875D01*
X173505564Y-89631539D01*
X173273130Y-89535024D01*
X173503515Y-89439831D01*
X173893461Y-89050564D01*
X174104759Y-88541702D01*
X174105240Y-87990715D01*
X173894831Y-87481485D01*
X173505564Y-87091539D01*
X173289021Y-87001623D01*
X173443923Y-86937460D01*
X173511912Y-86696517D01*
X172720000Y-85904605D01*
X171928088Y-86696517D01*
X171996077Y-86937460D01*
X172162621Y-86996732D01*
X171936485Y-87090169D01*
X171731438Y-87294859D01*
X171065000Y-86628420D01*
X171065000Y-85520171D01*
X171322799Y-85520171D01*
X171350770Y-86070448D01*
X171507540Y-86448923D01*
X171748483Y-86516912D01*
X172540395Y-85725000D01*
X172899605Y-85725000D01*
X173691517Y-86516912D01*
X173932460Y-86448923D01*
X174117201Y-85929829D01*
X174089230Y-85379552D01*
X173932460Y-85001077D01*
X173691517Y-84933088D01*
X172899605Y-85725000D01*
X172540395Y-85725000D01*
X171748483Y-84933088D01*
X171507540Y-85001077D01*
X171322799Y-85520171D01*
X171065000Y-85520171D01*
X171065000Y-80010005D01*
X171065001Y-80010000D01*
X170997633Y-79671326D01*
X170997633Y-79671325D01*
X170805790Y-79384210D01*
X170805787Y-79384208D01*
X169800865Y-78379285D01*
X171334760Y-78379285D01*
X171545169Y-78888515D01*
X171934436Y-79278461D01*
X172166870Y-79374976D01*
X171936485Y-79470169D01*
X171546539Y-79859436D01*
X171335241Y-80368298D01*
X171334760Y-80919285D01*
X171545169Y-81428515D01*
X171934436Y-81818461D01*
X172166870Y-81914976D01*
X171936485Y-82010169D01*
X171546539Y-82399436D01*
X171335241Y-82908298D01*
X171334760Y-83459285D01*
X171545169Y-83968515D01*
X171934436Y-84358461D01*
X172150979Y-84448377D01*
X171996077Y-84512540D01*
X171928088Y-84753483D01*
X172720000Y-85545395D01*
X173511912Y-84753483D01*
X173443923Y-84512540D01*
X173277379Y-84453268D01*
X173503515Y-84359831D01*
X173893461Y-83970564D01*
X173951747Y-83830196D01*
X173980790Y-83810790D01*
X174172633Y-83523675D01*
X174240000Y-83185000D01*
X174172633Y-82846325D01*
X173980790Y-82559210D01*
X173952073Y-82540022D01*
X173894831Y-82401485D01*
X173505564Y-82011539D01*
X173273130Y-81915024D01*
X173503515Y-81819831D01*
X173893461Y-81430564D01*
X174104759Y-80921702D01*
X174105240Y-80370715D01*
X173894831Y-79861485D01*
X173505564Y-79471539D01*
X173273130Y-79375024D01*
X173503515Y-79279831D01*
X173893461Y-78890564D01*
X174104759Y-78381702D01*
X174105240Y-77830715D01*
X173894831Y-77321485D01*
X173505564Y-76931539D01*
X172996702Y-76720241D01*
X172445715Y-76719760D01*
X171936485Y-76930169D01*
X171546539Y-77319436D01*
X171335241Y-77828298D01*
X171334760Y-78379285D01*
X169800865Y-78379285D01*
X166995790Y-75574210D01*
X166708675Y-75382367D01*
X166652484Y-75371190D01*
X166370000Y-75314999D01*
X166369995Y-75315000D01*
X143241579Y-75315000D01*
X134955125Y-67028545D01*
X134972182Y-67011517D01*
X135733088Y-67011517D01*
X135801077Y-67252460D01*
X136320171Y-67437201D01*
X136870448Y-67409230D01*
X137248923Y-67252460D01*
X137316912Y-67011517D01*
X136525000Y-66219605D01*
X135733088Y-67011517D01*
X134972182Y-67011517D01*
X135158461Y-66825564D01*
X135248377Y-66609021D01*
X135312540Y-66763923D01*
X135553483Y-66831912D01*
X136345395Y-66040000D01*
X135553483Y-65248088D01*
X135312540Y-65316077D01*
X135253268Y-65482621D01*
X135159831Y-65256485D01*
X134972157Y-65068483D01*
X135733088Y-65068483D01*
X136525000Y-65860395D01*
X137316912Y-65068483D01*
X137248923Y-64827540D01*
X136729829Y-64642799D01*
X136179552Y-64670770D01*
X135801077Y-64827540D01*
X135733088Y-65068483D01*
X134972157Y-65068483D01*
X134770564Y-64866539D01*
X134261702Y-64655241D01*
X133710715Y-64654760D01*
X133201485Y-64865169D01*
X132811539Y-65254436D01*
X132600241Y-65763298D01*
X132599981Y-66061546D01*
X128964050Y-69178058D01*
X128944940Y-69202388D01*
X128919080Y-69219378D01*
X128838885Y-69337408D01*
X128750750Y-69449614D01*
X128742404Y-69479406D01*
X128725017Y-69504997D01*
X128696098Y-69644713D01*
X128657606Y-69782124D01*
X128661297Y-69812846D01*
X128655027Y-69843140D01*
X128534834Y-85348000D01*
X117983005Y-85348000D01*
X117983000Y-85347999D01*
X117982995Y-85348000D01*
X117913523Y-85348000D01*
X117625564Y-85059539D01*
X117116702Y-84848241D01*
X116565715Y-84847760D01*
X116056485Y-85058169D01*
X115766148Y-85348000D01*
X112833523Y-85348000D01*
X112545564Y-85059539D01*
X112036702Y-84848241D01*
X111485715Y-84847760D01*
X110976485Y-85058169D01*
X110686148Y-85348000D01*
X107753523Y-85348000D01*
X107465564Y-85059539D01*
X106956702Y-84848241D01*
X106405715Y-84847760D01*
X105896485Y-85058169D01*
X105506539Y-85447436D01*
X105295241Y-85956298D01*
X105294760Y-86507285D01*
X97078000Y-86507285D01*
X97078000Y-61772000D01*
X103197144Y-61772000D01*
X103197144Y-63203610D01*
X103197144Y-63203610D01*
G37*
X103197144Y-63203610D02*
X102743153Y-62748826D01*
X101591326Y-62270546D01*
X100344146Y-62269457D01*
X99191485Y-62745727D01*
X98308826Y-63626847D01*
X97830546Y-64778674D01*
X97829457Y-66025854D01*
X98305727Y-67178515D01*
X99186847Y-68061174D01*
X100338674Y-68539454D01*
X101585854Y-68540543D01*
X102738515Y-68064273D01*
X103621174Y-67183153D01*
X104099454Y-66031326D01*
X104100485Y-64850000D01*
X108105716Y-64850000D01*
X108105716Y-66965000D01*
X124304284Y-66965000D01*
X124304284Y-64850000D01*
X131752857Y-64850000D01*
X131752857Y-63861574D01*
X131929436Y-64038461D01*
X132438298Y-64249759D01*
X132989285Y-64250240D01*
X133498515Y-64039831D01*
X133702183Y-63836517D01*
X137003088Y-63836517D01*
X137071077Y-64077460D01*
X137590171Y-64262201D01*
X138140448Y-64234230D01*
X138518923Y-64077460D01*
X138586912Y-63836517D01*
X170658088Y-63836517D01*
X170726077Y-64077460D01*
X171245171Y-64262201D01*
X171795448Y-64234230D01*
X172173923Y-64077460D01*
X172241912Y-63836517D01*
X171450000Y-63044605D01*
X170658088Y-63836517D01*
X138586912Y-63836517D01*
X137795000Y-63044605D01*
X137003088Y-63836517D01*
X133702183Y-63836517D01*
X133888461Y-63650564D01*
X134099759Y-63141702D01*
X134100179Y-62660171D01*
X136397799Y-62660171D01*
X136425770Y-63210448D01*
X136582540Y-63588923D01*
X136823483Y-63656912D01*
X137615395Y-62865000D01*
X137974605Y-62865000D01*
X138766517Y-63656912D01*
X139007460Y-63588923D01*
X139192201Y-63069829D01*
X139171378Y-62660171D01*
X170052799Y-62660171D01*
X170080770Y-63210448D01*
X170237540Y-63588923D01*
X170478483Y-63656912D01*
X171270395Y-62865000D01*
X170478483Y-62073088D01*
X170237540Y-62141077D01*
X170052799Y-62660171D01*
X139171378Y-62660171D01*
X139164230Y-62519552D01*
X139007460Y-62141077D01*
X138766517Y-62073088D01*
X137974605Y-62865000D01*
X137615395Y-62865000D01*
X136823483Y-62073088D01*
X136582540Y-62141077D01*
X136397799Y-62660171D01*
X134100179Y-62660171D01*
X134100240Y-62590715D01*
X133889831Y-62081485D01*
X133580885Y-61772000D01*
X137037368Y-61772000D01*
X137003088Y-61893483D01*
X137795000Y-62685395D01*
X138586912Y-61893483D01*
X138552632Y-61772000D01*
X170692368Y-61772000D01*
X170658088Y-61893483D01*
X171450000Y-62685395D01*
X172241912Y-61893483D01*
X172207632Y-61772000D01*
X172693822Y-61772000D01*
X172631569Y-61863110D01*
X172580560Y-62115000D01*
X172580560Y-62117967D01*
X172421517Y-62073088D01*
X171629605Y-62865000D01*
X172421517Y-63656912D01*
X172580560Y-63612033D01*
X172580560Y-63615000D01*
X172624838Y-63850317D01*
X172763910Y-64066441D01*
X172976110Y-64211431D01*
X173228000Y-64262440D01*
X174752000Y-64262440D01*
X174987317Y-64218162D01*
X175203441Y-64079090D01*
X175348431Y-63866890D01*
X175354581Y-63836517D01*
X175738088Y-63836517D01*
X175806077Y-64077460D01*
X176325171Y-64262201D01*
X176875448Y-64234230D01*
X177253923Y-64077460D01*
X177321912Y-63836517D01*
X176530000Y-63044605D01*
X175738088Y-63836517D01*
X175354581Y-63836517D01*
X175399440Y-63615000D01*
X175399440Y-63612033D01*
X175558483Y-63656912D01*
X176350395Y-62865000D01*
X176709605Y-62865000D01*
X177501517Y-63656912D01*
X177742460Y-63588923D01*
X177927201Y-63069829D01*
X177899230Y-62519552D01*
X177742460Y-62141077D01*
X177501517Y-62073088D01*
X176709605Y-62865000D01*
X176350395Y-62865000D01*
X175558483Y-62073088D01*
X175399440Y-62117967D01*
X175399440Y-62115000D01*
X175355162Y-61879683D01*
X175285870Y-61772000D01*
X175772368Y-61772000D01*
X175738088Y-61893483D01*
X176530000Y-62685395D01*
X177321912Y-61893483D01*
X177287632Y-61772000D01*
X181687000Y-61772000D01*
X181687000Y-116917000D01*
X180479440Y-116917000D01*
X180479440Y-112903000D01*
X180435162Y-112667683D01*
X180296090Y-112451559D01*
X180083890Y-112306569D01*
X179832000Y-112255560D01*
X178308000Y-112255560D01*
X178072683Y-112299838D01*
X177856559Y-112438910D01*
X177711569Y-112651110D01*
X177660560Y-112903000D01*
X177660560Y-116917000D01*
X175399440Y-116917000D01*
X175399440Y-112903000D01*
X175355162Y-112667683D01*
X175216090Y-112451559D01*
X175003890Y-112306569D01*
X174752000Y-112255560D01*
X173228000Y-112255560D01*
X172992683Y-112299838D01*
X172776559Y-112438910D01*
X172631569Y-112651110D01*
X172580560Y-112903000D01*
X172580560Y-116917000D01*
X97078000Y-116917000D01*
X97078000Y-113650854D01*
X97829457Y-113650854D01*
X98305727Y-114803515D01*
X99186847Y-115686174D01*
X100338674Y-116164454D01*
X101585854Y-116165543D01*
X102738515Y-115689273D01*
X103157000Y-115271517D01*
X105888088Y-115271517D01*
X105956077Y-115512460D01*
X106475171Y-115697201D01*
X107025448Y-115669230D01*
X107403923Y-115512460D01*
X107471912Y-115271517D01*
X110968088Y-115271517D01*
X111036077Y-115512460D01*
X111555171Y-115697201D01*
X112105448Y-115669230D01*
X112483923Y-115512460D01*
X112551912Y-115271517D01*
X116048088Y-115271517D01*
X116116077Y-115512460D01*
X116635171Y-115697201D01*
X117185448Y-115669230D01*
X117563923Y-115512460D01*
X117631912Y-115271517D01*
X116840000Y-114479605D01*
X116048088Y-115271517D01*
X112551912Y-115271517D01*
X111760000Y-114479605D01*
X110968088Y-115271517D01*
X107471912Y-115271517D01*
X106680000Y-114479605D01*
X105888088Y-115271517D01*
X103157000Y-115271517D01*
X103621174Y-114808153D01*
X103917229Y-114095171D01*
X105282799Y-114095171D01*
X105310770Y-114645448D01*
X105467540Y-115023923D01*
X105708483Y-115091912D01*
X106500395Y-114300000D01*
X106859605Y-114300000D01*
X107651517Y-115091912D01*
X107892460Y-115023923D01*
X108077201Y-114504829D01*
X108056378Y-114095171D01*
X110362799Y-114095171D01*
X110390770Y-114645448D01*
X110547540Y-115023923D01*
X110788483Y-115091912D01*
X111580395Y-114300000D01*
X111939605Y-114300000D01*
X112731517Y-115091912D01*
X112972460Y-115023923D01*
X113157201Y-114504829D01*
X113136378Y-114095171D01*
X115442799Y-114095171D01*
X115470770Y-114645448D01*
X115627540Y-115023923D01*
X115868483Y-115091912D01*
X116660395Y-114300000D01*
X117019605Y-114300000D01*
X117811517Y-115091912D01*
X118052460Y-115023923D01*
X118237201Y-114504829D01*
X118209230Y-113954552D01*
X118207656Y-113950750D01*
X126885000Y-113950750D01*
X126885000Y-114541310D01*
X126981673Y-114774699D01*
X127160302Y-114953327D01*
X127393691Y-115050000D01*
X127984250Y-115050000D01*
X128143000Y-114891250D01*
X128143000Y-113792000D01*
X127043750Y-113792000D01*
X126885000Y-113950750D01*
X118207656Y-113950750D01*
X118052460Y-113576077D01*
X117811517Y-113508088D01*
X117019605Y-114300000D01*
X116660395Y-114300000D01*
X115868483Y-113508088D01*
X115627540Y-113576077D01*
X115442799Y-114095171D01*
X113136378Y-114095171D01*
X113129230Y-113954552D01*
X112972460Y-113576077D01*
X112731517Y-113508088D01*
X111939605Y-114300000D01*
X111580395Y-114300000D01*
X110788483Y-113508088D01*
X110547540Y-113576077D01*
X110362799Y-114095171D01*
X108056378Y-114095171D01*
X108049230Y-113954552D01*
X107892460Y-113576077D01*
X107651517Y-113508088D01*
X106859605Y-114300000D01*
X106500395Y-114300000D01*
X105708483Y-113508088D01*
X105467540Y-113576077D01*
X105282799Y-114095171D01*
X103917229Y-114095171D01*
X104099454Y-113656326D01*
X104099740Y-113328483D01*
X105888088Y-113328483D01*
X106680000Y-114120395D01*
X107471912Y-113328483D01*
X110968088Y-113328483D01*
X111760000Y-114120395D01*
X112551912Y-113328483D01*
X116048088Y-113328483D01*
X116840000Y-114120395D01*
X117631912Y-113328483D01*
X117563923Y-113087540D01*
X117044829Y-112902799D01*
X116494552Y-112930770D01*
X116116077Y-113087540D01*
X116048088Y-113328483D01*
X112551912Y-113328483D01*
X112483923Y-113087540D01*
X111964829Y-112902799D01*
X111414552Y-112930770D01*
X111036077Y-113087540D01*
X110968088Y-113328483D01*
X107471912Y-113328483D01*
X107403923Y-113087540D01*
X106884829Y-112902799D01*
X106334552Y-112930770D01*
X105956077Y-113087540D01*
X105888088Y-113328483D01*
X104099740Y-113328483D01*
X104100211Y-112788690D01*
X126885000Y-112788690D01*
X126885000Y-113379250D01*
X127043750Y-113538000D01*
X128143000Y-113538000D01*
X128143000Y-112438750D01*
X127984250Y-112280000D01*
X127393691Y-112280000D01*
X127160302Y-112376673D01*
X126981673Y-112555301D01*
X126885000Y-112788690D01*
X104100211Y-112788690D01*
X104100543Y-112409146D01*
X103624273Y-111256485D01*
X102743153Y-110373826D01*
X101591326Y-109895546D01*
X100344146Y-109894457D01*
X99191485Y-110370727D01*
X98308826Y-111251847D01*
X97830546Y-112403674D01*
X97829457Y-113650854D01*
X97078000Y-113650854D01*
X97078000Y-106827285D01*
X105294760Y-106827285D01*
X105505169Y-107336515D01*
X105894436Y-107726461D01*
X106280173Y-107886633D01*
X105896485Y-108045169D01*
X105506539Y-108434436D01*
X105295241Y-108943298D01*
X105294760Y-109494285D01*
X105505169Y-110003515D01*
X105894436Y-110393461D01*
X106403298Y-110604759D01*
X106954285Y-110605240D01*
X107463515Y-110394831D01*
X107853461Y-110005564D01*
X108064759Y-109496702D01*
X108065240Y-108945715D01*
X107854831Y-108436485D01*
X107465564Y-108046539D01*
X107079827Y-107886367D01*
X107463515Y-107727831D01*
X107853461Y-107338564D01*
X108064759Y-106829702D01*
X108064761Y-106827285D01*
X110374760Y-106827285D01*
X110585169Y-107336515D01*
X110974436Y-107726461D01*
X111360173Y-107886633D01*
X110976485Y-108045169D01*
X110586539Y-108434436D01*
X110375241Y-108943298D01*
X110374760Y-109494285D01*
X110585169Y-110003515D01*
X110974436Y-110393461D01*
X111483298Y-110604759D01*
X112034285Y-110605240D01*
X112543515Y-110394831D01*
X112933461Y-110005564D01*
X113144759Y-109496702D01*
X113145240Y-108945715D01*
X112934831Y-108436485D01*
X112545564Y-108046539D01*
X112159827Y-107886367D01*
X112543515Y-107727831D01*
X112933461Y-107338564D01*
X113144759Y-106829702D01*
X113144761Y-106827285D01*
X115454760Y-106827285D01*
X115665169Y-107336515D01*
X116054436Y-107726461D01*
X116440173Y-107886633D01*
X116056485Y-108045169D01*
X115666539Y-108434436D01*
X115455241Y-108943298D01*
X115454760Y-109494285D01*
X115665169Y-110003515D01*
X116054436Y-110393461D01*
X116563298Y-110604759D01*
X117114285Y-110605240D01*
X117623515Y-110394831D01*
X118013461Y-110005564D01*
X118224759Y-109496702D01*
X118225240Y-108945715D01*
X118014831Y-108436485D01*
X117625564Y-108046539D01*
X117239827Y-107886367D01*
X117623515Y-107727831D01*
X118013461Y-107338564D01*
X118224759Y-106829702D01*
X118225240Y-106278715D01*
X118014831Y-105769485D01*
X117625564Y-105379539D01*
X117116702Y-105168241D01*
X116565715Y-105167760D01*
X116056485Y-105378169D01*
X115666539Y-105767436D01*
X115455241Y-106276298D01*
X115454760Y-106827285D01*
X113144761Y-106827285D01*
X113145240Y-106278715D01*
X112934831Y-105769485D01*
X112545564Y-105379539D01*
X112036702Y-105168241D01*
X111485715Y-105167760D01*
X110976485Y-105378169D01*
X110586539Y-105767436D01*
X110375241Y-106276298D01*
X110374760Y-106827285D01*
X108064761Y-106827285D01*
X108065240Y-106278715D01*
X107854831Y-105769485D01*
X107465564Y-105379539D01*
X106956702Y-105168241D01*
X106405715Y-105167760D01*
X105896485Y-105378169D01*
X105506539Y-105767436D01*
X105295241Y-106276298D01*
X105294760Y-106827285D01*
X97078000Y-106827285D01*
X97078000Y-103144285D01*
X98690760Y-103144285D01*
X98901169Y-103653515D01*
X99290436Y-104043461D01*
X99799298Y-104254759D01*
X100350285Y-104255240D01*
X100859515Y-104044831D01*
X101249461Y-103655564D01*
X101460759Y-103146702D01*
X101461240Y-102595715D01*
X101250831Y-102086485D01*
X100861564Y-101696539D01*
X100645021Y-101606623D01*
X100799923Y-101542460D01*
X100867912Y-101301517D01*
X100076000Y-100509605D01*
X99284088Y-101301517D01*
X99352077Y-101542460D01*
X99518621Y-101601732D01*
X99292485Y-101695169D01*
X98902539Y-102084436D01*
X98691241Y-102593298D01*
X98690760Y-103144285D01*
X97078000Y-103144285D01*
X97078000Y-100125171D01*
X98678799Y-100125171D01*
X98706770Y-100675448D01*
X98863540Y-101053923D01*
X99104483Y-101121912D01*
X99896395Y-100330000D01*
X100255605Y-100330000D01*
X101047517Y-101121912D01*
X101288460Y-101053923D01*
X101473201Y-100534829D01*
X101445230Y-99984552D01*
X101288460Y-99606077D01*
X101047517Y-99538088D01*
X100255605Y-100330000D01*
X99896395Y-100330000D01*
X99104483Y-99538088D01*
X98863540Y-99606077D01*
X98678799Y-100125171D01*
X97078000Y-100125171D01*
X97078000Y-98064285D01*
X98690760Y-98064285D01*
X98901169Y-98573515D01*
X99290436Y-98963461D01*
X99506979Y-99053377D01*
X99352077Y-99117540D01*
X99284088Y-99358483D01*
X100076000Y-100150395D01*
X100867912Y-99358483D01*
X100799923Y-99117540D01*
X100633379Y-99058268D01*
X100859515Y-98964831D01*
X101249461Y-98575564D01*
X101460759Y-98066702D01*
X101461240Y-97515715D01*
X101250831Y-97006485D01*
X100861564Y-96616539D01*
X100645021Y-96526623D01*
X100799923Y-96462460D01*
X100867912Y-96221517D01*
X100076000Y-95429605D01*
X99284088Y-96221517D01*
X99352077Y-96462460D01*
X99518621Y-96521732D01*
X99292485Y-96615169D01*
X98902539Y-97004436D01*
X98691241Y-97513298D01*
X98690760Y-98064285D01*
X97078000Y-98064285D01*
X97078000Y-95045171D01*
X98678799Y-95045171D01*
X98706770Y-95595448D01*
X98863540Y-95973923D01*
X99104483Y-96041912D01*
X99896395Y-95250000D01*
X100255605Y-95250000D01*
X101047517Y-96041912D01*
X101288460Y-95973923D01*
X101473201Y-95454829D01*
X101470276Y-95397285D01*
X105294760Y-95397285D01*
X105505169Y-95906515D01*
X105894436Y-96296461D01*
X106126870Y-96392976D01*
X105896485Y-96488169D01*
X105506539Y-96877436D01*
X105295241Y-97386298D01*
X105294760Y-97937285D01*
X105505169Y-98446515D01*
X105894436Y-98836461D01*
X106403298Y-99047759D01*
X106954285Y-99048240D01*
X107463515Y-98837831D01*
X107853461Y-98448564D01*
X108064759Y-97939702D01*
X108065240Y-97388715D01*
X107854831Y-96879485D01*
X107465564Y-96489539D01*
X107233130Y-96393024D01*
X107463515Y-96297831D01*
X107853461Y-95908564D01*
X108064759Y-95399702D01*
X108064761Y-95397285D01*
X110374760Y-95397285D01*
X110585169Y-95906515D01*
X110974436Y-96296461D01*
X111206870Y-96392976D01*
X110976485Y-96488169D01*
X110586539Y-96877436D01*
X110375241Y-97386298D01*
X110374760Y-97937285D01*
X110585169Y-98446515D01*
X110974436Y-98836461D01*
X111483298Y-99047759D01*
X112034285Y-99048240D01*
X112543515Y-98837831D01*
X112933461Y-98448564D01*
X113144759Y-97939702D01*
X113145240Y-97388715D01*
X112934831Y-96879485D01*
X112545564Y-96489539D01*
X112313130Y-96393024D01*
X112543515Y-96297831D01*
X112933461Y-95908564D01*
X113144759Y-95399702D01*
X113144761Y-95397285D01*
X115454760Y-95397285D01*
X115665169Y-95906515D01*
X116054436Y-96296461D01*
X116286870Y-96392976D01*
X116056485Y-96488169D01*
X115666539Y-96877436D01*
X115455241Y-97386298D01*
X115454760Y-97937285D01*
X115665169Y-98446515D01*
X116054436Y-98836461D01*
X116563298Y-99047759D01*
X117114285Y-99048240D01*
X117623515Y-98837831D01*
X118013461Y-98448564D01*
X118224759Y-97939702D01*
X118225240Y-97388715D01*
X118014831Y-96879485D01*
X117625564Y-96489539D01*
X117393130Y-96393024D01*
X117623515Y-96297831D01*
X118013461Y-95908564D01*
X118224759Y-95399702D01*
X118225240Y-94848715D01*
X118014831Y-94339485D01*
X117625564Y-93949539D01*
X117116702Y-93738241D01*
X116565715Y-93737760D01*
X116056485Y-93948169D01*
X115666539Y-94337436D01*
X115455241Y-94846298D01*
X115454760Y-95397285D01*
X113144761Y-95397285D01*
X113145240Y-94848715D01*
X112934831Y-94339485D01*
X112545564Y-93949539D01*
X112036702Y-93738241D01*
X111485715Y-93737760D01*
X110976485Y-93948169D01*
X110586539Y-94337436D01*
X110375241Y-94846298D01*
X110374760Y-95397285D01*
X108064761Y-95397285D01*
X108065240Y-94848715D01*
X107854831Y-94339485D01*
X107465564Y-93949539D01*
X106956702Y-93738241D01*
X106405715Y-93737760D01*
X105896485Y-93948169D01*
X105506539Y-94337436D01*
X105295241Y-94846298D01*
X105294760Y-95397285D01*
X101470276Y-95397285D01*
X101445230Y-94904552D01*
X101288460Y-94526077D01*
X101047517Y-94458088D01*
X100255605Y-95250000D01*
X99896395Y-95250000D01*
X99104483Y-94458088D01*
X98863540Y-94526077D01*
X98678799Y-95045171D01*
X97078000Y-95045171D01*
X97078000Y-92984285D01*
X98690760Y-92984285D01*
X98901169Y-93493515D01*
X99290436Y-93883461D01*
X99506979Y-93973377D01*
X99352077Y-94037540D01*
X99284088Y-94278483D01*
X100076000Y-95070395D01*
X100867912Y-94278483D01*
X100799923Y-94037540D01*
X100633379Y-93978268D01*
X100859515Y-93884831D01*
X101249461Y-93495564D01*
X101460759Y-92986702D01*
X101461240Y-92435715D01*
X101250831Y-91926485D01*
X100861564Y-91536539D01*
X100352702Y-91325241D01*
X99801715Y-91324760D01*
X99292485Y-91535169D01*
X98902539Y-91924436D01*
X98691241Y-92433298D01*
X98690760Y-92984285D01*
X97078000Y-92984285D01*
X97078000Y-86507285D01*
X105294760Y-86507285D01*
X105505169Y-87016515D01*
X105894436Y-87406461D01*
X106403298Y-87617759D01*
X106954285Y-87618240D01*
X107463515Y-87407831D01*
X107753852Y-87118000D01*
X110686477Y-87118000D01*
X110974436Y-87406461D01*
X111483298Y-87617759D01*
X112034285Y-87618240D01*
X112543515Y-87407831D01*
X112833852Y-87118000D01*
X115766477Y-87118000D01*
X116054436Y-87406461D01*
X116563298Y-87617759D01*
X117114285Y-87618240D01*
X117623515Y-87407831D01*
X117765006Y-87266586D01*
X120400000Y-89901579D01*
X120400000Y-104139995D01*
X120399999Y-104140000D01*
X120440743Y-104344829D01*
X120467367Y-104478675D01*
X120471893Y-104485448D01*
X120659210Y-104765790D01*
X123199208Y-107305787D01*
X123199210Y-107305790D01*
X123486325Y-107497633D01*
X123825000Y-107565000D01*
X124728420Y-107565000D01*
X129839875Y-112676454D01*
X129655000Y-112861007D01*
X129655000Y-112788690D01*
X129558327Y-112555301D01*
X129379698Y-112376673D01*
X129146309Y-112280000D01*
X128555750Y-112280000D01*
X128397000Y-112438750D01*
X128397000Y-113538000D01*
X128417000Y-113538000D01*
X128417000Y-113792000D01*
X128397000Y-113792000D01*
X128397000Y-114891250D01*
X128555750Y-115050000D01*
X129146309Y-115050000D01*
X129379698Y-114953327D01*
X129558327Y-114774699D01*
X129655000Y-114541310D01*
X129655000Y-114468381D01*
X129970919Y-114784851D01*
X129992367Y-114892675D01*
X130097327Y-115049759D01*
X130184210Y-115179790D01*
X130946208Y-115941787D01*
X130946210Y-115941790D01*
X131233325Y-116133633D01*
X131289516Y-116144810D01*
X131572000Y-116201001D01*
X131572005Y-116201000D01*
X163068000Y-116201000D01*
X163130016Y-116188664D01*
X163193158Y-116192106D01*
X163297843Y-116155281D01*
X163406675Y-116133633D01*
X163459251Y-116098503D01*
X163518901Y-116077520D01*
X163601519Y-116003443D01*
X163693790Y-115941790D01*
X163728922Y-115889211D01*
X163776000Y-115847000D01*
X163830000Y-115775000D01*
X163884000Y-115847000D01*
X163931078Y-115889211D01*
X163966210Y-115941790D01*
X164058481Y-116003443D01*
X164141099Y-116077520D01*
X164200749Y-116098503D01*
X164253325Y-116133633D01*
X164362157Y-116155281D01*
X164466842Y-116192106D01*
X164529984Y-116188664D01*
X164592000Y-116201000D01*
X169163995Y-116201000D01*
X169164000Y-116201001D01*
X169446484Y-116144810D01*
X169502675Y-116133633D01*
X169789790Y-115941790D01*
X170805787Y-114925792D01*
X170805790Y-114925790D01*
X170997633Y-114638675D01*
X171028672Y-114482633D01*
X171065001Y-114300000D01*
X171065000Y-114299995D01*
X171065000Y-107300854D01*
X174664457Y-107300854D01*
X175140727Y-108453515D01*
X176021847Y-109336174D01*
X177173674Y-109814454D01*
X178420854Y-109815543D01*
X179573515Y-109339273D01*
X180456174Y-108458153D01*
X180934454Y-107306326D01*
X180935543Y-106059146D01*
X180459273Y-104906485D01*
X179578153Y-104023826D01*
X178426326Y-103545546D01*
X177179146Y-103544457D01*
X176026485Y-104020727D01*
X175143826Y-104901847D01*
X174665546Y-106053674D01*
X174664457Y-107300854D01*
X171065000Y-107300854D01*
X171065000Y-89901580D01*
X171731454Y-89235125D01*
X171934436Y-89438461D01*
X172166870Y-89534976D01*
X171936485Y-89630169D01*
X171546539Y-90019436D01*
X171335241Y-90528298D01*
X171334760Y-91079285D01*
X171545169Y-91588515D01*
X171934436Y-91978461D01*
X172166870Y-92074976D01*
X171936485Y-92170169D01*
X171546539Y-92559436D01*
X171335241Y-93068298D01*
X171334760Y-93619285D01*
X171545169Y-94128515D01*
X171914091Y-94498080D01*
X171734683Y-94531838D01*
X171518559Y-94670910D01*
X171373569Y-94883110D01*
X171322560Y-95135000D01*
X171322560Y-96635000D01*
X171366838Y-96870317D01*
X171505910Y-97086441D01*
X171718110Y-97231431D01*
X171970000Y-97282440D01*
X173470000Y-97282440D01*
X173705317Y-97238162D01*
X173921441Y-97099090D01*
X174066431Y-96886890D01*
X174094303Y-96749253D01*
X174272484Y-96713810D01*
X174328675Y-96702633D01*
X174615790Y-96510790D01*
X180965787Y-90160792D01*
X180965790Y-90160790D01*
X181157633Y-89873675D01*
X181170441Y-89809285D01*
X181225001Y-89535000D01*
X181225000Y-89534995D01*
X181225000Y-78105005D01*
X181225001Y-78105000D01*
X181157634Y-77766326D01*
X181093975Y-77671054D01*
X180965790Y-77479210D01*
X180965787Y-77479208D01*
X173322434Y-69835854D01*
X174664457Y-69835854D01*
X175140727Y-70988515D01*
X176021847Y-71871174D01*
X177173674Y-72349454D01*
X178420854Y-72350543D01*
X179573515Y-71874273D01*
X180456174Y-70993153D01*
X180934454Y-69841326D01*
X180935543Y-68594146D01*
X180459273Y-67441485D01*
X179578153Y-66558826D01*
X178426326Y-66080546D01*
X177179146Y-66079457D01*
X176026485Y-66555727D01*
X175143826Y-67436847D01*
X174665546Y-68588674D01*
X174664457Y-69835854D01*
X173322434Y-69835854D01*
X172075790Y-68589210D01*
X172001324Y-68539454D01*
X171788675Y-68397367D01*
X171732484Y-68386190D01*
X171450000Y-68329999D01*
X171449995Y-68330000D01*
X166101579Y-68330000D01*
X165350000Y-67578420D01*
X165350000Y-67113523D01*
X165638461Y-66825564D01*
X165734976Y-66593130D01*
X165830169Y-66823515D01*
X166219436Y-67213461D01*
X166728298Y-67424759D01*
X167279285Y-67425240D01*
X167788515Y-67214831D01*
X168178461Y-66825564D01*
X168389759Y-66316702D01*
X168390240Y-65765715D01*
X168179831Y-65256485D01*
X167790564Y-64866539D01*
X167281702Y-64655241D01*
X166730715Y-64654760D01*
X166221485Y-64865169D01*
X165831539Y-65254436D01*
X165735024Y-65486870D01*
X165639831Y-65256485D01*
X165250564Y-64866539D01*
X164741702Y-64655241D01*
X164190715Y-64654760D01*
X163681485Y-64865169D01*
X163291539Y-65254436D01*
X163195024Y-65486870D01*
X163099831Y-65256485D01*
X162710564Y-64866539D01*
X162201702Y-64655241D01*
X161650715Y-64654760D01*
X161141485Y-64865169D01*
X160751539Y-65254436D01*
X160655024Y-65486870D01*
X160559831Y-65256485D01*
X160170564Y-64866539D01*
X159661702Y-64655241D01*
X159110715Y-64654760D01*
X158601485Y-64865169D01*
X158211539Y-65254436D01*
X158115024Y-65486870D01*
X158019831Y-65256485D01*
X157630564Y-64866539D01*
X157121702Y-64655241D01*
X156570715Y-64654760D01*
X156061485Y-64865169D01*
X155671539Y-65254436D01*
X155575024Y-65486870D01*
X155479831Y-65256485D01*
X155090564Y-64866539D01*
X154581702Y-64655241D01*
X154030715Y-64654760D01*
X153521485Y-64865169D01*
X153131539Y-65254436D01*
X153035024Y-65486870D01*
X152939831Y-65256485D01*
X152550564Y-64866539D01*
X152041702Y-64655241D01*
X151490715Y-64654760D01*
X150981485Y-64865169D01*
X150591539Y-65254436D01*
X150495024Y-65486870D01*
X150399831Y-65256485D01*
X150010564Y-64866539D01*
X149501702Y-64655241D01*
X148950715Y-64654760D01*
X148441485Y-64865169D01*
X148051539Y-65254436D01*
X147955024Y-65486870D01*
X147859831Y-65256485D01*
X147470564Y-64866539D01*
X146961702Y-64655241D01*
X146410715Y-64654760D01*
X145901485Y-64865169D01*
X145511539Y-65254436D01*
X145415024Y-65486870D01*
X145319831Y-65256485D01*
X144930564Y-64866539D01*
X144421702Y-64655241D01*
X143870715Y-64654760D01*
X143361485Y-64865169D01*
X142971539Y-65254436D01*
X142875024Y-65486870D01*
X142779831Y-65256485D01*
X142390564Y-64866539D01*
X141881702Y-64655241D01*
X141330715Y-64654760D01*
X140821485Y-64865169D01*
X140431539Y-65254436D01*
X140335024Y-65486870D01*
X140239831Y-65256485D01*
X139850564Y-64866539D01*
X139341702Y-64655241D01*
X138790715Y-64654760D01*
X138281485Y-64865169D01*
X137891539Y-65254436D01*
X137801623Y-65470979D01*
X137737460Y-65316077D01*
X137496517Y-65248088D01*
X136704605Y-66040000D01*
X137496517Y-66831912D01*
X137737460Y-66763923D01*
X137796732Y-66597379D01*
X137890169Y-66823515D01*
X138279436Y-67213461D01*
X138788298Y-67424759D01*
X139339285Y-67425240D01*
X139848515Y-67214831D01*
X140238461Y-66825564D01*
X140334976Y-66593130D01*
X140430169Y-66823515D01*
X140819436Y-67213461D01*
X141328298Y-67424759D01*
X141879285Y-67425240D01*
X142388515Y-67214831D01*
X142778461Y-66825564D01*
X142874976Y-66593130D01*
X142970169Y-66823515D01*
X143359436Y-67213461D01*
X143868298Y-67424759D01*
X144419285Y-67425240D01*
X144928515Y-67214831D01*
X145318461Y-66825564D01*
X145414976Y-66593130D01*
X145510169Y-66823515D01*
X145899436Y-67213461D01*
X146408298Y-67424759D01*
X146959285Y-67425240D01*
X147468515Y-67214831D01*
X147858461Y-66825564D01*
X147954976Y-66593130D01*
X148050169Y-66823515D01*
X148439436Y-67213461D01*
X148948298Y-67424759D01*
X149499285Y-67425240D01*
X150008515Y-67214831D01*
X150398461Y-66825564D01*
X150494976Y-66593130D01*
X150590169Y-66823515D01*
X150979436Y-67213461D01*
X151488298Y-67424759D01*
X152039285Y-67425240D01*
X152548515Y-67214831D01*
X152938461Y-66825564D01*
X153034976Y-66593130D01*
X153130169Y-66823515D01*
X153519436Y-67213461D01*
X154028298Y-67424759D01*
X154579285Y-67425240D01*
X155088515Y-67214831D01*
X155478461Y-66825564D01*
X155574976Y-66593130D01*
X155670169Y-66823515D01*
X156059436Y-67213461D01*
X156568298Y-67424759D01*
X157119285Y-67425240D01*
X157628515Y-67214831D01*
X158018461Y-66825564D01*
X158114976Y-66593130D01*
X158210169Y-66823515D01*
X158500000Y-67113852D01*
X158500000Y-67944995D01*
X158499999Y-67945000D01*
X158536328Y-68127633D01*
X158567367Y-68283675D01*
X158738272Y-68539454D01*
X158759210Y-68570790D01*
X162569208Y-72380787D01*
X162569210Y-72380790D01*
X162856325Y-72572633D01*
X162912516Y-72583810D01*
X163195000Y-72640001D01*
X163195005Y-72640000D01*
X169813420Y-72640000D01*
X176915000Y-79741579D01*
X176915000Y-86628421D01*
X173708546Y-89834875D01*
X173505564Y-89631539D01*
X173273130Y-89535024D01*
X173503515Y-89439831D01*
X173893461Y-89050564D01*
X174104759Y-88541702D01*
X174105240Y-87990715D01*
X173894831Y-87481485D01*
X173505564Y-87091539D01*
X173289021Y-87001623D01*
X173443923Y-86937460D01*
X173511912Y-86696517D01*
X172720000Y-85904605D01*
X171928088Y-86696517D01*
X171996077Y-86937460D01*
X172162621Y-86996732D01*
X171936485Y-87090169D01*
X171731438Y-87294859D01*
X171065000Y-86628420D01*
X171065000Y-85520171D01*
X171322799Y-85520171D01*
X171350770Y-86070448D01*
X171507540Y-86448923D01*
X171748483Y-86516912D01*
X172540395Y-85725000D01*
X172899605Y-85725000D01*
X173691517Y-86516912D01*
X173932460Y-86448923D01*
X174117201Y-85929829D01*
X174089230Y-85379552D01*
X173932460Y-85001077D01*
X173691517Y-84933088D01*
X172899605Y-85725000D01*
X172540395Y-85725000D01*
X171748483Y-84933088D01*
X171507540Y-85001077D01*
X171322799Y-85520171D01*
X171065000Y-85520171D01*
X171065000Y-80010005D01*
X171065001Y-80010000D01*
X170997633Y-79671326D01*
X170997633Y-79671325D01*
X170805790Y-79384210D01*
X170805787Y-79384208D01*
X169800865Y-78379285D01*
X171334760Y-78379285D01*
X171545169Y-78888515D01*
X171934436Y-79278461D01*
X172166870Y-79374976D01*
X171936485Y-79470169D01*
X171546539Y-79859436D01*
X171335241Y-80368298D01*
X171334760Y-80919285D01*
X171545169Y-81428515D01*
X171934436Y-81818461D01*
X172166870Y-81914976D01*
X171936485Y-82010169D01*
X171546539Y-82399436D01*
X171335241Y-82908298D01*
X171334760Y-83459285D01*
X171545169Y-83968515D01*
X171934436Y-84358461D01*
X172150979Y-84448377D01*
X171996077Y-84512540D01*
X171928088Y-84753483D01*
X172720000Y-85545395D01*
X173511912Y-84753483D01*
X173443923Y-84512540D01*
X173277379Y-84453268D01*
X173503515Y-84359831D01*
X173893461Y-83970564D01*
X173951747Y-83830196D01*
X173980790Y-83810790D01*
X174172633Y-83523675D01*
X174240000Y-83185000D01*
X174172633Y-82846325D01*
X173980790Y-82559210D01*
X173952073Y-82540022D01*
X173894831Y-82401485D01*
X173505564Y-82011539D01*
X173273130Y-81915024D01*
X173503515Y-81819831D01*
X173893461Y-81430564D01*
X174104759Y-80921702D01*
X174105240Y-80370715D01*
X173894831Y-79861485D01*
X173505564Y-79471539D01*
X173273130Y-79375024D01*
X173503515Y-79279831D01*
X173893461Y-78890564D01*
X174104759Y-78381702D01*
X174105240Y-77830715D01*
X173894831Y-77321485D01*
X173505564Y-76931539D01*
X172996702Y-76720241D01*
X172445715Y-76719760D01*
X171936485Y-76930169D01*
X171546539Y-77319436D01*
X171335241Y-77828298D01*
X171334760Y-78379285D01*
X169800865Y-78379285D01*
X166995790Y-75574210D01*
X166708675Y-75382367D01*
X166652484Y-75371190D01*
X166370000Y-75314999D01*
X166369995Y-75315000D01*
X143241579Y-75315000D01*
X134955125Y-67028545D01*
X134972182Y-67011517D01*
X135733088Y-67011517D01*
X135801077Y-67252460D01*
X136320171Y-67437201D01*
X136870448Y-67409230D01*
X137248923Y-67252460D01*
X137316912Y-67011517D01*
X136525000Y-66219605D01*
X135733088Y-67011517D01*
X134972182Y-67011517D01*
X135158461Y-66825564D01*
X135248377Y-66609021D01*
X135312540Y-66763923D01*
X135553483Y-66831912D01*
X136345395Y-66040000D01*
X135553483Y-65248088D01*
X135312540Y-65316077D01*
X135253268Y-65482621D01*
X135159831Y-65256485D01*
X134972157Y-65068483D01*
X135733088Y-65068483D01*
X136525000Y-65860395D01*
X137316912Y-65068483D01*
X137248923Y-64827540D01*
X136729829Y-64642799D01*
X136179552Y-64670770D01*
X135801077Y-64827540D01*
X135733088Y-65068483D01*
X134972157Y-65068483D01*
X134770564Y-64866539D01*
X134261702Y-64655241D01*
X133710715Y-64654760D01*
X133201485Y-64865169D01*
X132811539Y-65254436D01*
X132600241Y-65763298D01*
X132599981Y-66061546D01*
X128964050Y-69178058D01*
X128944940Y-69202388D01*
X128919080Y-69219378D01*
X128838885Y-69337408D01*
X128750750Y-69449614D01*
X128742404Y-69479406D01*
X128725017Y-69504997D01*
X128696098Y-69644713D01*
X128657606Y-69782124D01*
X128661297Y-69812846D01*
X128655027Y-69843140D01*
X128534834Y-85348000D01*
X117983005Y-85348000D01*
X117983000Y-85347999D01*
X117982995Y-85348000D01*
X117913523Y-85348000D01*
X117625564Y-85059539D01*
X117116702Y-84848241D01*
X116565715Y-84847760D01*
X116056485Y-85058169D01*
X115766148Y-85348000D01*
X112833523Y-85348000D01*
X112545564Y-85059539D01*
X112036702Y-84848241D01*
X111485715Y-84847760D01*
X110976485Y-85058169D01*
X110686148Y-85348000D01*
X107753523Y-85348000D01*
X107465564Y-85059539D01*
X106956702Y-84848241D01*
X106405715Y-84847760D01*
X105896485Y-85058169D01*
X105506539Y-85447436D01*
X105295241Y-85956298D01*
X105294760Y-86507285D01*
X97078000Y-86507285D01*
X97078000Y-61772000D01*
X103197144Y-61772000D01*
X103197144Y-63203610D01*
G36*
X133359210Y-67935790D02*
X142249208Y-76825787D01*
X142249210Y-76825790D01*
X142441054Y-76953975D01*
X142536326Y-77017634D01*
X142875000Y-77085001D01*
X142875005Y-77085000D01*
X166003420Y-77085000D01*
X169295000Y-80376579D01*
X169295000Y-86994995D01*
X169294999Y-86995000D01*
X169351190Y-87277484D01*
X169362367Y-87333675D01*
X169483685Y-87515241D01*
X169554210Y-87620790D01*
X170198421Y-88265000D01*
X169554210Y-88909210D01*
X169362367Y-89196325D01*
X169362367Y-89196326D01*
X169294999Y-89535000D01*
X169295000Y-89535005D01*
X169295000Y-113933421D01*
X168797420Y-114431000D01*
X167551585Y-114431000D01*
X167754759Y-113941702D01*
X167755240Y-113390715D01*
X167544831Y-112881485D01*
X167255000Y-112591148D01*
X167255000Y-112395000D01*
X167187633Y-112056325D01*
X166995790Y-111769210D01*
X166995787Y-111769208D01*
X159635000Y-104408420D01*
X159635000Y-103144285D01*
X160666760Y-103144285D01*
X160877169Y-103653515D01*
X161266436Y-104043461D01*
X161775298Y-104254759D01*
X162326285Y-104255240D01*
X162835515Y-104044831D01*
X163225461Y-103655564D01*
X163436759Y-103146702D01*
X163437240Y-102595715D01*
X163226831Y-102086485D01*
X162837564Y-101696539D01*
X162328702Y-101485241D01*
X161777715Y-101484760D01*
X161268485Y-101695169D01*
X160878539Y-102084436D01*
X160667241Y-102593298D01*
X160666760Y-103144285D01*
X159635000Y-103144285D01*
X159635000Y-101600005D01*
X159635001Y-101600000D01*
X159567633Y-101261326D01*
X159567633Y-101261325D01*
X159375790Y-100974210D01*
X159375787Y-100974208D01*
X155910125Y-97508546D01*
X156113461Y-97305564D01*
X156209976Y-97073130D01*
X156305169Y-97303515D01*
X156694436Y-97693461D01*
X157203298Y-97904759D01*
X157754285Y-97905240D01*
X158263515Y-97694831D01*
X158653461Y-97305564D01*
X158749976Y-97073130D01*
X158845169Y-97303515D01*
X159234436Y-97693461D01*
X159743298Y-97904759D01*
X160294285Y-97905240D01*
X160803515Y-97694831D01*
X161193461Y-97305564D01*
X161404759Y-96796702D01*
X161405240Y-96245715D01*
X161194831Y-95736485D01*
X160805564Y-95346539D01*
X160296702Y-95135241D01*
X159745715Y-95134760D01*
X159236485Y-95345169D01*
X158846539Y-95734436D01*
X158750024Y-95966870D01*
X158654831Y-95736485D01*
X158265564Y-95346539D01*
X157756702Y-95135241D01*
X157205715Y-95134760D01*
X156696485Y-95345169D01*
X156306539Y-95734436D01*
X156210024Y-95966870D01*
X156114831Y-95736485D01*
X155725564Y-95346539D01*
X155216702Y-95135241D01*
X154665715Y-95134760D01*
X154156485Y-95345169D01*
X153766539Y-95734436D01*
X153555241Y-96243298D01*
X153554760Y-96794285D01*
X153765169Y-97303515D01*
X154055000Y-97593852D01*
X154055000Y-97789995D01*
X154054999Y-97790000D01*
X154109559Y-98064285D01*
X154122367Y-98128675D01*
X154219761Y-98274436D01*
X154314210Y-98415790D01*
X157865000Y-101966579D01*
X157865000Y-104774995D01*
X157864999Y-104775000D01*
X157901328Y-104957633D01*
X157932367Y-105113675D01*
X158091917Y-105352460D01*
X158124210Y-105400790D01*
X165399875Y-112676454D01*
X165196539Y-112879436D01*
X165100024Y-113111870D01*
X165004831Y-112881485D01*
X164615564Y-112491539D01*
X164106702Y-112280241D01*
X163555715Y-112279760D01*
X163046485Y-112490169D01*
X162656539Y-112879436D01*
X162560024Y-113111870D01*
X162464831Y-112881485D01*
X162075564Y-112491539D01*
X161566702Y-112280241D01*
X161015715Y-112279760D01*
X160506485Y-112490169D01*
X160116539Y-112879436D01*
X160020024Y-113111870D01*
X159924831Y-112881485D01*
X159535564Y-112491539D01*
X159026702Y-112280241D01*
X158475715Y-112279760D01*
X157966485Y-112490169D01*
X157576539Y-112879436D01*
X157480024Y-113111870D01*
X157384831Y-112881485D01*
X156995564Y-112491539D01*
X156486702Y-112280241D01*
X155935715Y-112279760D01*
X155426485Y-112490169D01*
X155036539Y-112879436D01*
X154940024Y-113111870D01*
X154844831Y-112881485D01*
X154455564Y-112491539D01*
X153946702Y-112280241D01*
X153395715Y-112279760D01*
X152886485Y-112490169D01*
X152496539Y-112879436D01*
X152400024Y-113111870D01*
X152304831Y-112881485D01*
X151915564Y-112491539D01*
X151406702Y-112280241D01*
X150855715Y-112279760D01*
X150346485Y-112490169D01*
X149956539Y-112879436D01*
X149860024Y-113111870D01*
X149764831Y-112881485D01*
X149375564Y-112491539D01*
X148866702Y-112280241D01*
X148315715Y-112279760D01*
X147806485Y-112490169D01*
X147416539Y-112879436D01*
X147320024Y-113111870D01*
X147224831Y-112881485D01*
X146835564Y-112491539D01*
X146326702Y-112280241D01*
X145775715Y-112279760D01*
X145266485Y-112490169D01*
X144876539Y-112879436D01*
X144780024Y-113111870D01*
X144684831Y-112881485D01*
X144295564Y-112491539D01*
X143786702Y-112280241D01*
X143235715Y-112279760D01*
X142726485Y-112490169D01*
X142336539Y-112879436D01*
X142240024Y-113111870D01*
X142144831Y-112881485D01*
X141755564Y-112491539D01*
X141246702Y-112280241D01*
X140695715Y-112279760D01*
X140186485Y-112490169D01*
X139796539Y-112879436D01*
X139706623Y-113095979D01*
X139642460Y-112941077D01*
X139401517Y-112873088D01*
X138609605Y-113665000D01*
X138623748Y-113679143D01*
X138444143Y-113858748D01*
X138430000Y-113844605D01*
X138415858Y-113858748D01*
X138236253Y-113679143D01*
X138250395Y-113665000D01*
X137458483Y-112873088D01*
X137217540Y-112941077D01*
X137158268Y-113107621D01*
X137064831Y-112881485D01*
X136877157Y-112693483D01*
X137638088Y-112693483D01*
X138430000Y-113485395D01*
X139221912Y-112693483D01*
X139153923Y-112452540D01*
X138634829Y-112267799D01*
X138084552Y-112295770D01*
X137706077Y-112452540D01*
X137638088Y-112693483D01*
X136877157Y-112693483D01*
X136675564Y-112491539D01*
X136166702Y-112280241D01*
X135615715Y-112279760D01*
X135106485Y-112490169D01*
X134716539Y-112879436D01*
X134620024Y-113111870D01*
X134524831Y-112881485D01*
X134135564Y-112491539D01*
X133626702Y-112280241D01*
X133075715Y-112279760D01*
X132566485Y-112490169D01*
X132176539Y-112879436D01*
X132080024Y-113111870D01*
X131984831Y-112881485D01*
X131695000Y-112591148D01*
X131695000Y-112395005D01*
X131695001Y-112395000D01*
X131627634Y-112056326D01*
X131563975Y-111961054D01*
X131435790Y-111769210D01*
X131435787Y-111769208D01*
X125720790Y-106054210D01*
X125719988Y-106053674D01*
X125433675Y-105862367D01*
X125377484Y-105851190D01*
X125095000Y-105794999D01*
X125094995Y-105795000D01*
X124191579Y-105795000D01*
X123756201Y-105359622D01*
X124255171Y-105537201D01*
X124805448Y-105509230D01*
X125183923Y-105352460D01*
X125251912Y-105111517D01*
X124460000Y-104319605D01*
X124445858Y-104333748D01*
X124266253Y-104154143D01*
X124280395Y-104140000D01*
X124639605Y-104140000D01*
X125431517Y-104931912D01*
X125672460Y-104863923D01*
X125832482Y-104414285D01*
X130694760Y-104414285D01*
X130905169Y-104923515D01*
X131294436Y-105313461D01*
X131803298Y-105524759D01*
X132354285Y-105525240D01*
X132863515Y-105314831D01*
X133253461Y-104925564D01*
X133464759Y-104416702D01*
X133465240Y-103865715D01*
X133455242Y-103841517D01*
X152370088Y-103841517D01*
X152438077Y-104082460D01*
X152957171Y-104267201D01*
X153507448Y-104239230D01*
X153885923Y-104082460D01*
X153953912Y-103841517D01*
X153162000Y-103049605D01*
X152370088Y-103841517D01*
X133455242Y-103841517D01*
X133254831Y-103356485D01*
X132865564Y-102966539D01*
X132649021Y-102876623D01*
X132803923Y-102812460D01*
X132845484Y-102665171D01*
X151764799Y-102665171D01*
X151792770Y-103215448D01*
X151949540Y-103593923D01*
X152190483Y-103661912D01*
X152982395Y-102870000D01*
X153341605Y-102870000D01*
X154133517Y-103661912D01*
X154374460Y-103593923D01*
X154559201Y-103074829D01*
X154531230Y-102524552D01*
X154374460Y-102146077D01*
X154133517Y-102078088D01*
X153341605Y-102870000D01*
X152982395Y-102870000D01*
X152190483Y-102078088D01*
X151949540Y-102146077D01*
X151764799Y-102665171D01*
X132845484Y-102665171D01*
X132871912Y-102571517D01*
X132080000Y-101779605D01*
X131288088Y-102571517D01*
X131356077Y-102812460D01*
X131522621Y-102871732D01*
X131296485Y-102965169D01*
X130906539Y-103354436D01*
X130695241Y-103863298D01*
X130694760Y-104414285D01*
X125832482Y-104414285D01*
X125857201Y-104344829D01*
X125829230Y-103794552D01*
X125672460Y-103416077D01*
X125431517Y-103348088D01*
X124639605Y-104140000D01*
X124280395Y-104140000D01*
X123488483Y-103348088D01*
X123247540Y-103416077D01*
X123062799Y-103935171D01*
X123090770Y-104485448D01*
X123238374Y-104841795D01*
X122170000Y-103773420D01*
X122170000Y-89535005D01*
X122170001Y-89535000D01*
X122102633Y-89196325D01*
X122071680Y-89150000D01*
X121910790Y-88909210D01*
X121910787Y-88909208D01*
X121151580Y-88150000D01*
X123062560Y-88150000D01*
X123062560Y-89650000D01*
X123106838Y-89885317D01*
X123245910Y-90101441D01*
X123458110Y-90246431D01*
X123655262Y-90286355D01*
X123286539Y-90654436D01*
X123075241Y-91163298D01*
X123074760Y-91714285D01*
X123285169Y-92223515D01*
X123674436Y-92613461D01*
X123906870Y-92709976D01*
X123676485Y-92805169D01*
X123286539Y-93194436D01*
X123075241Y-93703298D01*
X123074760Y-94254285D01*
X123285169Y-94763515D01*
X123674436Y-95153461D01*
X123906870Y-95249976D01*
X123676485Y-95345169D01*
X123286539Y-95734436D01*
X123075241Y-96243298D01*
X123074760Y-96794285D01*
X123285169Y-97303515D01*
X123674436Y-97693461D01*
X123906870Y-97789976D01*
X123676485Y-97885169D01*
X123286539Y-98274436D01*
X123075241Y-98783298D01*
X123074760Y-99334285D01*
X123285169Y-99843515D01*
X123674436Y-100233461D01*
X123906870Y-100329976D01*
X123676485Y-100425169D01*
X123286539Y-100814436D01*
X123075241Y-101323298D01*
X123074760Y-101874285D01*
X123285169Y-102383515D01*
X123674436Y-102773461D01*
X123890979Y-102863377D01*
X123736077Y-102927540D01*
X123668088Y-103168483D01*
X124460000Y-103960395D01*
X125251912Y-103168483D01*
X125183923Y-102927540D01*
X125017379Y-102868268D01*
X125243515Y-102774831D01*
X125633461Y-102385564D01*
X125844759Y-101876702D01*
X125845179Y-101395171D01*
X130682799Y-101395171D01*
X130710770Y-101945448D01*
X130867540Y-102323923D01*
X131108483Y-102391912D01*
X131900395Y-101600000D01*
X132259605Y-101600000D01*
X133051517Y-102391912D01*
X133292460Y-102323923D01*
X133477201Y-101804829D01*
X133449230Y-101254552D01*
X133292460Y-100876077D01*
X133051517Y-100808088D01*
X132259605Y-101600000D01*
X131900395Y-101600000D01*
X131108483Y-100808088D01*
X130867540Y-100876077D01*
X130682799Y-101395171D01*
X125845179Y-101395171D01*
X125845240Y-101325715D01*
X125634831Y-100816485D01*
X125245564Y-100426539D01*
X125013130Y-100330024D01*
X125243515Y-100234831D01*
X125633461Y-99845564D01*
X125844759Y-99336702D01*
X125844761Y-99334285D01*
X130694760Y-99334285D01*
X130905169Y-99843515D01*
X131294436Y-100233461D01*
X131510979Y-100323377D01*
X131356077Y-100387540D01*
X131288088Y-100628483D01*
X132080000Y-101420395D01*
X132871912Y-100628483D01*
X132803923Y-100387540D01*
X132637379Y-100328268D01*
X132863515Y-100234831D01*
X132883380Y-100215000D01*
X139572560Y-100215000D01*
X139572560Y-101715000D01*
X139616838Y-101950317D01*
X139755910Y-102166441D01*
X139968110Y-102311431D01*
X140220000Y-102362440D01*
X141720000Y-102362440D01*
X141955317Y-102318162D01*
X142171441Y-102179090D01*
X142316431Y-101966890D01*
X142322581Y-101936517D01*
X142718088Y-101936517D01*
X142786077Y-102177460D01*
X143305171Y-102362201D01*
X143855448Y-102334230D01*
X144233923Y-102177460D01*
X144301912Y-101936517D01*
X144263878Y-101898483D01*
X152370088Y-101898483D01*
X153162000Y-102690395D01*
X153953912Y-101898483D01*
X153885923Y-101657540D01*
X153366829Y-101472799D01*
X152816552Y-101500770D01*
X152438077Y-101657540D01*
X152370088Y-101898483D01*
X144263878Y-101898483D01*
X143510000Y-101144605D01*
X142718088Y-101936517D01*
X142322581Y-101936517D01*
X142367440Y-101715000D01*
X142367440Y-101708647D01*
X142538483Y-101756912D01*
X143330395Y-100965000D01*
X143689605Y-100965000D01*
X144481517Y-101756912D01*
X144722460Y-101688923D01*
X144907201Y-101169829D01*
X144879230Y-100619552D01*
X144722460Y-100241077D01*
X144481517Y-100173088D01*
X143689605Y-100965000D01*
X143330395Y-100965000D01*
X142538483Y-100173088D01*
X142367440Y-100221353D01*
X142367440Y-100215000D01*
X142325759Y-99993483D01*
X142718088Y-99993483D01*
X143510000Y-100785395D01*
X144301912Y-99993483D01*
X144233923Y-99752540D01*
X143714829Y-99567799D01*
X143164552Y-99595770D01*
X142786077Y-99752540D01*
X142718088Y-99993483D01*
X142325759Y-99993483D01*
X142323162Y-99979683D01*
X142184090Y-99763559D01*
X141971890Y-99618569D01*
X141720000Y-99567560D01*
X140220000Y-99567560D01*
X139984683Y-99611838D01*
X139768559Y-99750910D01*
X139623569Y-99963110D01*
X139572560Y-100215000D01*
X132883380Y-100215000D01*
X133253461Y-99845564D01*
X133464759Y-99336702D01*
X133465240Y-98785715D01*
X133254831Y-98276485D01*
X132865564Y-97886539D01*
X132649021Y-97796623D01*
X132803923Y-97732460D01*
X132871912Y-97491517D01*
X132080000Y-96699605D01*
X131288088Y-97491517D01*
X131356077Y-97732460D01*
X131522621Y-97791732D01*
X131296485Y-97885169D01*
X130906539Y-98274436D01*
X130695241Y-98783298D01*
X130694760Y-99334285D01*
X125844761Y-99334285D01*
X125845240Y-98785715D01*
X125634831Y-98276485D01*
X125245564Y-97886539D01*
X125013130Y-97790024D01*
X125243515Y-97694831D01*
X125633461Y-97305564D01*
X125844759Y-96796702D01*
X125845179Y-96315171D01*
X130682799Y-96315171D01*
X130710770Y-96865448D01*
X130867540Y-97243923D01*
X131108483Y-97311912D01*
X131900395Y-96520000D01*
X132259605Y-96520000D01*
X133051517Y-97311912D01*
X133292460Y-97243923D01*
X133477201Y-96724829D01*
X133449230Y-96174552D01*
X133292460Y-95796077D01*
X133051517Y-95728088D01*
X132259605Y-96520000D01*
X131900395Y-96520000D01*
X131108483Y-95728088D01*
X130867540Y-95796077D01*
X130682799Y-96315171D01*
X125845179Y-96315171D01*
X125845240Y-96245715D01*
X125634831Y-95736485D01*
X125245564Y-95346539D01*
X125013130Y-95250024D01*
X125243515Y-95154831D01*
X125633461Y-94765564D01*
X125844759Y-94256702D01*
X125844761Y-94254285D01*
X130694760Y-94254285D01*
X130905169Y-94763515D01*
X131294436Y-95153461D01*
X131510979Y-95243377D01*
X131356077Y-95307540D01*
X131288088Y-95548483D01*
X132080000Y-96340395D01*
X132871912Y-95548483D01*
X132803923Y-95307540D01*
X132637379Y-95248268D01*
X132863515Y-95154831D01*
X133253461Y-94765564D01*
X133464759Y-94256702D01*
X133464761Y-94254285D01*
X136282760Y-94254285D01*
X136493169Y-94763515D01*
X136882436Y-95153461D01*
X137391298Y-95364759D01*
X137942285Y-95365240D01*
X138451515Y-95154831D01*
X138655183Y-94951517D01*
X145766088Y-94951517D01*
X145834077Y-95192460D01*
X146353171Y-95377201D01*
X146903448Y-95349230D01*
X147281923Y-95192460D01*
X147349912Y-94951517D01*
X146558000Y-94159605D01*
X145766088Y-94951517D01*
X138655183Y-94951517D01*
X138841461Y-94765564D01*
X139052759Y-94256702D01*
X139053179Y-93775171D01*
X145160799Y-93775171D01*
X145188770Y-94325448D01*
X145345540Y-94703923D01*
X145586483Y-94771912D01*
X146378395Y-93980000D01*
X146737605Y-93980000D01*
X147529517Y-94771912D01*
X147770460Y-94703923D01*
X147955201Y-94184829D01*
X147927230Y-93634552D01*
X147770460Y-93256077D01*
X147529517Y-93188088D01*
X146737605Y-93980000D01*
X146378395Y-93980000D01*
X145586483Y-93188088D01*
X145345540Y-93256077D01*
X145160799Y-93775171D01*
X139053179Y-93775171D01*
X139053240Y-93705715D01*
X138842831Y-93196485D01*
X138655157Y-93008483D01*
X145766088Y-93008483D01*
X146558000Y-93800395D01*
X147349912Y-93008483D01*
X147281923Y-92767540D01*
X146762829Y-92582799D01*
X146212552Y-92610770D01*
X145834077Y-92767540D01*
X145766088Y-93008483D01*
X138655157Y-93008483D01*
X138453564Y-92806539D01*
X137944702Y-92595241D01*
X137393715Y-92594760D01*
X136884485Y-92805169D01*
X136494539Y-93194436D01*
X136283241Y-93703298D01*
X136282760Y-94254285D01*
X133464761Y-94254285D01*
X133465240Y-93705715D01*
X133254831Y-93196485D01*
X132865564Y-92806539D01*
X132649021Y-92716623D01*
X132803923Y-92652460D01*
X132871912Y-92411517D01*
X132080000Y-91619605D01*
X131288088Y-92411517D01*
X131356077Y-92652460D01*
X131522621Y-92711732D01*
X131296485Y-92805169D01*
X130906539Y-93194436D01*
X130695241Y-93703298D01*
X130694760Y-94254285D01*
X125844761Y-94254285D01*
X125845240Y-93705715D01*
X125634831Y-93196485D01*
X125245564Y-92806539D01*
X125013130Y-92710024D01*
X125243515Y-92614831D01*
X125633461Y-92225564D01*
X125844759Y-91716702D01*
X125845179Y-91235171D01*
X130682799Y-91235171D01*
X130710770Y-91785448D01*
X130867540Y-92163923D01*
X131108483Y-92231912D01*
X131900395Y-91440000D01*
X132259605Y-91440000D01*
X133051517Y-92231912D01*
X133292460Y-92163923D01*
X133477201Y-91644829D01*
X133449230Y-91094552D01*
X133292460Y-90716077D01*
X133051517Y-90648088D01*
X132259605Y-91440000D01*
X131900395Y-91440000D01*
X131108483Y-90648088D01*
X130867540Y-90716077D01*
X130682799Y-91235171D01*
X125845179Y-91235171D01*
X125845240Y-91165715D01*
X125634831Y-90656485D01*
X125265909Y-90286920D01*
X125445317Y-90253162D01*
X125661441Y-90114090D01*
X125806431Y-89901890D01*
X125857440Y-89650000D01*
X125857440Y-88150000D01*
X125813162Y-87914683D01*
X125674090Y-87698559D01*
X125461890Y-87553569D01*
X125210000Y-87502560D01*
X123710000Y-87502560D01*
X123474683Y-87546838D01*
X123258559Y-87685910D01*
X123113569Y-87898110D01*
X123062560Y-88150000D01*
X121151580Y-88150000D01*
X120119580Y-87118000D01*
X129046420Y-87118000D01*
X130695116Y-88766695D01*
X130694760Y-89174285D01*
X130905169Y-89683515D01*
X131294436Y-90073461D01*
X131510979Y-90163377D01*
X131356077Y-90227540D01*
X131288088Y-90468483D01*
X132080000Y-91260395D01*
X132871912Y-90468483D01*
X132803923Y-90227540D01*
X132637379Y-90168268D01*
X132863515Y-90074831D01*
X133253461Y-89685564D01*
X133464759Y-89176702D01*
X133465240Y-88625715D01*
X133429528Y-88539285D01*
X136282760Y-88539285D01*
X136493169Y-89048515D01*
X136882436Y-89438461D01*
X137391298Y-89649759D01*
X137942285Y-89650240D01*
X138451515Y-89439831D01*
X138841461Y-89050564D01*
X139052759Y-88541702D01*
X139052761Y-88539285D01*
X145172760Y-88539285D01*
X145383169Y-89048515D01*
X145772436Y-89438461D01*
X146281298Y-89649759D01*
X146832285Y-89650240D01*
X147341515Y-89439831D01*
X147731461Y-89050564D01*
X147942759Y-88541702D01*
X147943240Y-87990715D01*
X147732831Y-87481485D01*
X147343564Y-87091539D01*
X146834702Y-86880241D01*
X146283715Y-86879760D01*
X145774485Y-87090169D01*
X145384539Y-87479436D01*
X145173241Y-87988298D01*
X145172760Y-88539285D01*
X139052761Y-88539285D01*
X139053240Y-87990715D01*
X138842831Y-87481485D01*
X138453564Y-87091539D01*
X137944702Y-86880241D01*
X137393715Y-86879760D01*
X136884485Y-87090169D01*
X136494539Y-87479436D01*
X136283241Y-87988298D01*
X136282760Y-88539285D01*
X133429528Y-88539285D01*
X133254831Y-88116485D01*
X132865564Y-87726539D01*
X132356702Y-87515241D01*
X131946462Y-87514883D01*
X130300846Y-85869266D01*
X130334206Y-81565750D01*
X132600000Y-81565750D01*
X132600000Y-82156309D01*
X132696673Y-82389698D01*
X132875301Y-82568327D01*
X133108690Y-82665000D01*
X133699250Y-82665000D01*
X133858000Y-82506250D01*
X133858000Y-81407000D01*
X132758750Y-81407000D01*
X132600000Y-81565750D01*
X130334206Y-81565750D01*
X130343214Y-80403691D01*
X132600000Y-80403691D01*
X132600000Y-80994250D01*
X132758750Y-81153000D01*
X133858000Y-81153000D01*
X133858000Y-80053750D01*
X134112000Y-80053750D01*
X134112000Y-81153000D01*
X134132000Y-81153000D01*
X134132000Y-81407000D01*
X134112000Y-81407000D01*
X134112000Y-82506250D01*
X134270750Y-82665000D01*
X134861310Y-82665000D01*
X135094699Y-82568327D01*
X135273327Y-82389698D01*
X135370000Y-82156309D01*
X135370000Y-82083381D01*
X135739436Y-82453461D01*
X136248298Y-82664759D01*
X136799285Y-82665240D01*
X137308515Y-82454831D01*
X137698461Y-82065564D01*
X137794976Y-81833130D01*
X137890169Y-82063515D01*
X138279436Y-82453461D01*
X138788298Y-82664759D01*
X139339285Y-82665240D01*
X139848515Y-82454831D01*
X140238461Y-82065564D01*
X140334976Y-81833130D01*
X140430169Y-82063515D01*
X140819436Y-82453461D01*
X141328298Y-82664759D01*
X141879285Y-82665240D01*
X142388515Y-82454831D01*
X142778461Y-82065564D01*
X142874976Y-81833130D01*
X142970169Y-82063515D01*
X143359436Y-82453461D01*
X143868298Y-82664759D01*
X144419285Y-82665240D01*
X144928515Y-82454831D01*
X145318461Y-82065564D01*
X145414976Y-81833130D01*
X145510169Y-82063515D01*
X145899436Y-82453461D01*
X146408298Y-82664759D01*
X146959285Y-82665240D01*
X147468515Y-82454831D01*
X147858461Y-82065564D01*
X147954976Y-81833130D01*
X148050169Y-82063515D01*
X148340000Y-82353852D01*
X148340000Y-82549995D01*
X148339999Y-82550000D01*
X148396190Y-82832484D01*
X148407367Y-82888675D01*
X148420479Y-82908298D01*
X148599210Y-83175790D01*
X152277000Y-86853579D01*
X152277000Y-88461477D01*
X151988539Y-88749436D01*
X151777241Y-89258298D01*
X151776760Y-89809285D01*
X151987169Y-90318515D01*
X152376436Y-90708461D01*
X152885298Y-90919759D01*
X153436285Y-90920240D01*
X153945515Y-90709831D01*
X154335461Y-90320564D01*
X154546759Y-89811702D01*
X154546761Y-89809285D01*
X160666760Y-89809285D01*
X160877169Y-90318515D01*
X161266436Y-90708461D01*
X161775298Y-90919759D01*
X162326285Y-90920240D01*
X162835515Y-90709831D01*
X163225461Y-90320564D01*
X163436759Y-89811702D01*
X163437240Y-89260715D01*
X163226831Y-88751485D01*
X162837564Y-88361539D01*
X162328702Y-88150241D01*
X161777715Y-88149760D01*
X161268485Y-88360169D01*
X160878539Y-88749436D01*
X160667241Y-89258298D01*
X160666760Y-89809285D01*
X154546761Y-89809285D01*
X154547240Y-89260715D01*
X154336831Y-88751485D01*
X154047000Y-88461148D01*
X154047000Y-86487005D01*
X154047001Y-86487000D01*
X153979633Y-86148326D01*
X153979633Y-86148325D01*
X153787790Y-85861210D01*
X153787787Y-85861208D01*
X150195125Y-82268546D01*
X150398461Y-82065564D01*
X150494976Y-81833130D01*
X150590169Y-82063515D01*
X150979436Y-82453461D01*
X151488298Y-82664759D01*
X152039285Y-82665240D01*
X152548515Y-82454831D01*
X152938461Y-82065564D01*
X153034976Y-81833130D01*
X153130169Y-82063515D01*
X153519436Y-82453461D01*
X154028298Y-82664759D01*
X154579285Y-82665240D01*
X155088515Y-82454831D01*
X155478461Y-82065564D01*
X155574976Y-81833130D01*
X155670169Y-82063515D01*
X156059436Y-82453461D01*
X156568298Y-82664759D01*
X157119285Y-82665240D01*
X157628515Y-82454831D01*
X158018461Y-82065564D01*
X158114976Y-81833130D01*
X158210169Y-82063515D01*
X158599436Y-82453461D01*
X159108298Y-82664759D01*
X159659285Y-82665240D01*
X160168515Y-82454831D01*
X160558461Y-82065564D01*
X160654976Y-81833130D01*
X160750169Y-82063515D01*
X161139436Y-82453461D01*
X161648298Y-82664759D01*
X162199285Y-82665240D01*
X162708515Y-82454831D01*
X163098461Y-82065564D01*
X163194976Y-81833130D01*
X163290169Y-82063515D01*
X163679436Y-82453461D01*
X164188298Y-82664759D01*
X164739285Y-82665240D01*
X165248515Y-82454831D01*
X165638461Y-82065564D01*
X165734976Y-81833130D01*
X165830169Y-82063515D01*
X166219436Y-82453461D01*
X166728298Y-82664759D01*
X167279285Y-82665240D01*
X167788515Y-82454831D01*
X168178461Y-82065564D01*
X168389759Y-81556702D01*
X168390240Y-81005715D01*
X168179831Y-80496485D01*
X167790564Y-80106539D01*
X167281702Y-79895241D01*
X166730715Y-79894760D01*
X166221485Y-80105169D01*
X165831539Y-80494436D01*
X165735024Y-80726870D01*
X165639831Y-80496485D01*
X165250564Y-80106539D01*
X164741702Y-79895241D01*
X164190715Y-79894760D01*
X163681485Y-80105169D01*
X163291539Y-80494436D01*
X163195024Y-80726870D01*
X163099831Y-80496485D01*
X162710564Y-80106539D01*
X162201702Y-79895241D01*
X161650715Y-79894760D01*
X161141485Y-80105169D01*
X160751539Y-80494436D01*
X160655024Y-80726870D01*
X160559831Y-80496485D01*
X160170564Y-80106539D01*
X159661702Y-79895241D01*
X159110715Y-79894760D01*
X158601485Y-80105169D01*
X158211539Y-80494436D01*
X158115024Y-80726870D01*
X158019831Y-80496485D01*
X157630564Y-80106539D01*
X157121702Y-79895241D01*
X156570715Y-79894760D01*
X156061485Y-80105169D01*
X155671539Y-80494436D01*
X155575024Y-80726870D01*
X155479831Y-80496485D01*
X155090564Y-80106539D01*
X154581702Y-79895241D01*
X154030715Y-79894760D01*
X153521485Y-80105169D01*
X153131539Y-80494436D01*
X153035024Y-80726870D01*
X152939831Y-80496485D01*
X152550564Y-80106539D01*
X152041702Y-79895241D01*
X151490715Y-79894760D01*
X150981485Y-80105169D01*
X150591539Y-80494436D01*
X150495024Y-80726870D01*
X150399831Y-80496485D01*
X150010564Y-80106539D01*
X149501702Y-79895241D01*
X148950715Y-79894760D01*
X148441485Y-80105169D01*
X148051539Y-80494436D01*
X147955024Y-80726870D01*
X147859831Y-80496485D01*
X147470564Y-80106539D01*
X146961702Y-79895241D01*
X146410715Y-79894760D01*
X145901485Y-80105169D01*
X145511539Y-80494436D01*
X145415024Y-80726870D01*
X145319831Y-80496485D01*
X144930564Y-80106539D01*
X144421702Y-79895241D01*
X143870715Y-79894760D01*
X143361485Y-80105169D01*
X142971539Y-80494436D01*
X142875024Y-80726870D01*
X142779831Y-80496485D01*
X142390564Y-80106539D01*
X141881702Y-79895241D01*
X141330715Y-79894760D01*
X140821485Y-80105169D01*
X140431539Y-80494436D01*
X140335024Y-80726870D01*
X140239831Y-80496485D01*
X139850564Y-80106539D01*
X139341702Y-79895241D01*
X138790715Y-79894760D01*
X138281485Y-80105169D01*
X137891539Y-80494436D01*
X137795024Y-80726870D01*
X137699831Y-80496485D01*
X137310564Y-80106539D01*
X136801702Y-79895241D01*
X136250715Y-79894760D01*
X135741485Y-80105169D01*
X135370000Y-80476007D01*
X135370000Y-80403691D01*
X135273327Y-80170302D01*
X135094699Y-79991673D01*
X134861310Y-79895000D01*
X134270750Y-79895000D01*
X134112000Y-80053750D01*
X133858000Y-80053750D01*
X133699250Y-79895000D01*
X133108690Y-79895000D01*
X132875301Y-79991673D01*
X132696673Y-80170302D01*
X132600000Y-80403691D01*
X130343214Y-80403691D01*
X130421850Y-70259742D01*
X133276880Y-67812574D01*
X133359210Y-67935790D01*
X133359210Y-67935790D01*
G37*
X133359210Y-67935790D02*
X142249208Y-76825787D01*
X142249210Y-76825790D01*
X142441054Y-76953975D01*
X142536326Y-77017634D01*
X142875000Y-77085001D01*
X142875005Y-77085000D01*
X166003420Y-77085000D01*
X169295000Y-80376579D01*
X169295000Y-86994995D01*
X169294999Y-86995000D01*
X169351190Y-87277484D01*
X169362367Y-87333675D01*
X169483685Y-87515241D01*
X169554210Y-87620790D01*
X170198421Y-88265000D01*
X169554210Y-88909210D01*
X169362367Y-89196325D01*
X169362367Y-89196326D01*
X169294999Y-89535000D01*
X169295000Y-89535005D01*
X169295000Y-113933421D01*
X168797420Y-114431000D01*
X167551585Y-114431000D01*
X167754759Y-113941702D01*
X167755240Y-113390715D01*
X167544831Y-112881485D01*
X167255000Y-112591148D01*
X167255000Y-112395000D01*
X167187633Y-112056325D01*
X166995790Y-111769210D01*
X166995787Y-111769208D01*
X159635000Y-104408420D01*
X159635000Y-103144285D01*
X160666760Y-103144285D01*
X160877169Y-103653515D01*
X161266436Y-104043461D01*
X161775298Y-104254759D01*
X162326285Y-104255240D01*
X162835515Y-104044831D01*
X163225461Y-103655564D01*
X163436759Y-103146702D01*
X163437240Y-102595715D01*
X163226831Y-102086485D01*
X162837564Y-101696539D01*
X162328702Y-101485241D01*
X161777715Y-101484760D01*
X161268485Y-101695169D01*
X160878539Y-102084436D01*
X160667241Y-102593298D01*
X160666760Y-103144285D01*
X159635000Y-103144285D01*
X159635000Y-101600005D01*
X159635001Y-101600000D01*
X159567633Y-101261326D01*
X159567633Y-101261325D01*
X159375790Y-100974210D01*
X159375787Y-100974208D01*
X155910125Y-97508546D01*
X156113461Y-97305564D01*
X156209976Y-97073130D01*
X156305169Y-97303515D01*
X156694436Y-97693461D01*
X157203298Y-97904759D01*
X157754285Y-97905240D01*
X158263515Y-97694831D01*
X158653461Y-97305564D01*
X158749976Y-97073130D01*
X158845169Y-97303515D01*
X159234436Y-97693461D01*
X159743298Y-97904759D01*
X160294285Y-97905240D01*
X160803515Y-97694831D01*
X161193461Y-97305564D01*
X161404759Y-96796702D01*
X161405240Y-96245715D01*
X161194831Y-95736485D01*
X160805564Y-95346539D01*
X160296702Y-95135241D01*
X159745715Y-95134760D01*
X159236485Y-95345169D01*
X158846539Y-95734436D01*
X158750024Y-95966870D01*
X158654831Y-95736485D01*
X158265564Y-95346539D01*
X157756702Y-95135241D01*
X157205715Y-95134760D01*
X156696485Y-95345169D01*
X156306539Y-95734436D01*
X156210024Y-95966870D01*
X156114831Y-95736485D01*
X155725564Y-95346539D01*
X155216702Y-95135241D01*
X154665715Y-95134760D01*
X154156485Y-95345169D01*
X153766539Y-95734436D01*
X153555241Y-96243298D01*
X153554760Y-96794285D01*
X153765169Y-97303515D01*
X154055000Y-97593852D01*
X154055000Y-97789995D01*
X154054999Y-97790000D01*
X154109559Y-98064285D01*
X154122367Y-98128675D01*
X154219761Y-98274436D01*
X154314210Y-98415790D01*
X157865000Y-101966579D01*
X157865000Y-104774995D01*
X157864999Y-104775000D01*
X157901328Y-104957633D01*
X157932367Y-105113675D01*
X158091917Y-105352460D01*
X158124210Y-105400790D01*
X165399875Y-112676454D01*
X165196539Y-112879436D01*
X165100024Y-113111870D01*
X165004831Y-112881485D01*
X164615564Y-112491539D01*
X164106702Y-112280241D01*
X163555715Y-112279760D01*
X163046485Y-112490169D01*
X162656539Y-112879436D01*
X162560024Y-113111870D01*
X162464831Y-112881485D01*
X162075564Y-112491539D01*
X161566702Y-112280241D01*
X161015715Y-112279760D01*
X160506485Y-112490169D01*
X160116539Y-112879436D01*
X160020024Y-113111870D01*
X159924831Y-112881485D01*
X159535564Y-112491539D01*
X159026702Y-112280241D01*
X158475715Y-112279760D01*
X157966485Y-112490169D01*
X157576539Y-112879436D01*
X157480024Y-113111870D01*
X157384831Y-112881485D01*
X156995564Y-112491539D01*
X156486702Y-112280241D01*
X155935715Y-112279760D01*
X155426485Y-112490169D01*
X155036539Y-112879436D01*
X154940024Y-113111870D01*
X154844831Y-112881485D01*
X154455564Y-112491539D01*
X153946702Y-112280241D01*
X153395715Y-112279760D01*
X152886485Y-112490169D01*
X152496539Y-112879436D01*
X152400024Y-113111870D01*
X152304831Y-112881485D01*
X151915564Y-112491539D01*
X151406702Y-112280241D01*
X150855715Y-112279760D01*
X150346485Y-112490169D01*
X149956539Y-112879436D01*
X149860024Y-113111870D01*
X149764831Y-112881485D01*
X149375564Y-112491539D01*
X148866702Y-112280241D01*
X148315715Y-112279760D01*
X147806485Y-112490169D01*
X147416539Y-112879436D01*
X147320024Y-113111870D01*
X147224831Y-112881485D01*
X146835564Y-112491539D01*
X146326702Y-112280241D01*
X145775715Y-112279760D01*
X145266485Y-112490169D01*
X144876539Y-112879436D01*
X144780024Y-113111870D01*
X144684831Y-112881485D01*
X144295564Y-112491539D01*
X143786702Y-112280241D01*
X143235715Y-112279760D01*
X142726485Y-112490169D01*
X142336539Y-112879436D01*
X142240024Y-113111870D01*
X142144831Y-112881485D01*
X141755564Y-112491539D01*
X141246702Y-112280241D01*
X140695715Y-112279760D01*
X140186485Y-112490169D01*
X139796539Y-112879436D01*
X139706623Y-113095979D01*
X139642460Y-112941077D01*
X139401517Y-112873088D01*
X138609605Y-113665000D01*
X138623748Y-113679143D01*
X138444143Y-113858748D01*
X138430000Y-113844605D01*
X138415858Y-113858748D01*
X138236253Y-113679143D01*
X138250395Y-113665000D01*
X137458483Y-112873088D01*
X137217540Y-112941077D01*
X137158268Y-113107621D01*
X137064831Y-112881485D01*
X136877157Y-112693483D01*
X137638088Y-112693483D01*
X138430000Y-113485395D01*
X139221912Y-112693483D01*
X139153923Y-112452540D01*
X138634829Y-112267799D01*
X138084552Y-112295770D01*
X137706077Y-112452540D01*
X137638088Y-112693483D01*
X136877157Y-112693483D01*
X136675564Y-112491539D01*
X136166702Y-112280241D01*
X135615715Y-112279760D01*
X135106485Y-112490169D01*
X134716539Y-112879436D01*
X134620024Y-113111870D01*
X134524831Y-112881485D01*
X134135564Y-112491539D01*
X133626702Y-112280241D01*
X133075715Y-112279760D01*
X132566485Y-112490169D01*
X132176539Y-112879436D01*
X132080024Y-113111870D01*
X131984831Y-112881485D01*
X131695000Y-112591148D01*
X131695000Y-112395005D01*
X131695001Y-112395000D01*
X131627634Y-112056326D01*
X131563975Y-111961054D01*
X131435790Y-111769210D01*
X131435787Y-111769208D01*
X125720790Y-106054210D01*
X125719988Y-106053674D01*
X125433675Y-105862367D01*
X125377484Y-105851190D01*
X125095000Y-105794999D01*
X125094995Y-105795000D01*
X124191579Y-105795000D01*
X123756201Y-105359622D01*
X124255171Y-105537201D01*
X124805448Y-105509230D01*
X125183923Y-105352460D01*
X125251912Y-105111517D01*
X124460000Y-104319605D01*
X124445858Y-104333748D01*
X124266253Y-104154143D01*
X124280395Y-104140000D01*
X124639605Y-104140000D01*
X125431517Y-104931912D01*
X125672460Y-104863923D01*
X125832482Y-104414285D01*
X130694760Y-104414285D01*
X130905169Y-104923515D01*
X131294436Y-105313461D01*
X131803298Y-105524759D01*
X132354285Y-105525240D01*
X132863515Y-105314831D01*
X133253461Y-104925564D01*
X133464759Y-104416702D01*
X133465240Y-103865715D01*
X133455242Y-103841517D01*
X152370088Y-103841517D01*
X152438077Y-104082460D01*
X152957171Y-104267201D01*
X153507448Y-104239230D01*
X153885923Y-104082460D01*
X153953912Y-103841517D01*
X153162000Y-103049605D01*
X152370088Y-103841517D01*
X133455242Y-103841517D01*
X133254831Y-103356485D01*
X132865564Y-102966539D01*
X132649021Y-102876623D01*
X132803923Y-102812460D01*
X132845484Y-102665171D01*
X151764799Y-102665171D01*
X151792770Y-103215448D01*
X151949540Y-103593923D01*
X152190483Y-103661912D01*
X152982395Y-102870000D01*
X153341605Y-102870000D01*
X154133517Y-103661912D01*
X154374460Y-103593923D01*
X154559201Y-103074829D01*
X154531230Y-102524552D01*
X154374460Y-102146077D01*
X154133517Y-102078088D01*
X153341605Y-102870000D01*
X152982395Y-102870000D01*
X152190483Y-102078088D01*
X151949540Y-102146077D01*
X151764799Y-102665171D01*
X132845484Y-102665171D01*
X132871912Y-102571517D01*
X132080000Y-101779605D01*
X131288088Y-102571517D01*
X131356077Y-102812460D01*
X131522621Y-102871732D01*
X131296485Y-102965169D01*
X130906539Y-103354436D01*
X130695241Y-103863298D01*
X130694760Y-104414285D01*
X125832482Y-104414285D01*
X125857201Y-104344829D01*
X125829230Y-103794552D01*
X125672460Y-103416077D01*
X125431517Y-103348088D01*
X124639605Y-104140000D01*
X124280395Y-104140000D01*
X123488483Y-103348088D01*
X123247540Y-103416077D01*
X123062799Y-103935171D01*
X123090770Y-104485448D01*
X123238374Y-104841795D01*
X122170000Y-103773420D01*
X122170000Y-89535005D01*
X122170001Y-89535000D01*
X122102633Y-89196325D01*
X122071680Y-89150000D01*
X121910790Y-88909210D01*
X121910787Y-88909208D01*
X121151580Y-88150000D01*
X123062560Y-88150000D01*
X123062560Y-89650000D01*
X123106838Y-89885317D01*
X123245910Y-90101441D01*
X123458110Y-90246431D01*
X123655262Y-90286355D01*
X123286539Y-90654436D01*
X123075241Y-91163298D01*
X123074760Y-91714285D01*
X123285169Y-92223515D01*
X123674436Y-92613461D01*
X123906870Y-92709976D01*
X123676485Y-92805169D01*
X123286539Y-93194436D01*
X123075241Y-93703298D01*
X123074760Y-94254285D01*
X123285169Y-94763515D01*
X123674436Y-95153461D01*
X123906870Y-95249976D01*
X123676485Y-95345169D01*
X123286539Y-95734436D01*
X123075241Y-96243298D01*
X123074760Y-96794285D01*
X123285169Y-97303515D01*
X123674436Y-97693461D01*
X123906870Y-97789976D01*
X123676485Y-97885169D01*
X123286539Y-98274436D01*
X123075241Y-98783298D01*
X123074760Y-99334285D01*
X123285169Y-99843515D01*
X123674436Y-100233461D01*
X123906870Y-100329976D01*
X123676485Y-100425169D01*
X123286539Y-100814436D01*
X123075241Y-101323298D01*
X123074760Y-101874285D01*
X123285169Y-102383515D01*
X123674436Y-102773461D01*
X123890979Y-102863377D01*
X123736077Y-102927540D01*
X123668088Y-103168483D01*
X124460000Y-103960395D01*
X125251912Y-103168483D01*
X125183923Y-102927540D01*
X125017379Y-102868268D01*
X125243515Y-102774831D01*
X125633461Y-102385564D01*
X125844759Y-101876702D01*
X125845179Y-101395171D01*
X130682799Y-101395171D01*
X130710770Y-101945448D01*
X130867540Y-102323923D01*
X131108483Y-102391912D01*
X131900395Y-101600000D01*
X132259605Y-101600000D01*
X133051517Y-102391912D01*
X133292460Y-102323923D01*
X133477201Y-101804829D01*
X133449230Y-101254552D01*
X133292460Y-100876077D01*
X133051517Y-100808088D01*
X132259605Y-101600000D01*
X131900395Y-101600000D01*
X131108483Y-100808088D01*
X130867540Y-100876077D01*
X130682799Y-101395171D01*
X125845179Y-101395171D01*
X125845240Y-101325715D01*
X125634831Y-100816485D01*
X125245564Y-100426539D01*
X125013130Y-100330024D01*
X125243515Y-100234831D01*
X125633461Y-99845564D01*
X125844759Y-99336702D01*
X125844761Y-99334285D01*
X130694760Y-99334285D01*
X130905169Y-99843515D01*
X131294436Y-100233461D01*
X131510979Y-100323377D01*
X131356077Y-100387540D01*
X131288088Y-100628483D01*
X132080000Y-101420395D01*
X132871912Y-100628483D01*
X132803923Y-100387540D01*
X132637379Y-100328268D01*
X132863515Y-100234831D01*
X132883380Y-100215000D01*
X139572560Y-100215000D01*
X139572560Y-101715000D01*
X139616838Y-101950317D01*
X139755910Y-102166441D01*
X139968110Y-102311431D01*
X140220000Y-102362440D01*
X141720000Y-102362440D01*
X141955317Y-102318162D01*
X142171441Y-102179090D01*
X142316431Y-101966890D01*
X142322581Y-101936517D01*
X142718088Y-101936517D01*
X142786077Y-102177460D01*
X143305171Y-102362201D01*
X143855448Y-102334230D01*
X144233923Y-102177460D01*
X144301912Y-101936517D01*
X144263878Y-101898483D01*
X152370088Y-101898483D01*
X153162000Y-102690395D01*
X153953912Y-101898483D01*
X153885923Y-101657540D01*
X153366829Y-101472799D01*
X152816552Y-101500770D01*
X152438077Y-101657540D01*
X152370088Y-101898483D01*
X144263878Y-101898483D01*
X143510000Y-101144605D01*
X142718088Y-101936517D01*
X142322581Y-101936517D01*
X142367440Y-101715000D01*
X142367440Y-101708647D01*
X142538483Y-101756912D01*
X143330395Y-100965000D01*
X143689605Y-100965000D01*
X144481517Y-101756912D01*
X144722460Y-101688923D01*
X144907201Y-101169829D01*
X144879230Y-100619552D01*
X144722460Y-100241077D01*
X144481517Y-100173088D01*
X143689605Y-100965000D01*
X143330395Y-100965000D01*
X142538483Y-100173088D01*
X142367440Y-100221353D01*
X142367440Y-100215000D01*
X142325759Y-99993483D01*
X142718088Y-99993483D01*
X143510000Y-100785395D01*
X144301912Y-99993483D01*
X144233923Y-99752540D01*
X143714829Y-99567799D01*
X143164552Y-99595770D01*
X142786077Y-99752540D01*
X142718088Y-99993483D01*
X142325759Y-99993483D01*
X142323162Y-99979683D01*
X142184090Y-99763559D01*
X141971890Y-99618569D01*
X141720000Y-99567560D01*
X140220000Y-99567560D01*
X139984683Y-99611838D01*
X139768559Y-99750910D01*
X139623569Y-99963110D01*
X139572560Y-100215000D01*
X132883380Y-100215000D01*
X133253461Y-99845564D01*
X133464759Y-99336702D01*
X133465240Y-98785715D01*
X133254831Y-98276485D01*
X132865564Y-97886539D01*
X132649021Y-97796623D01*
X132803923Y-97732460D01*
X132871912Y-97491517D01*
X132080000Y-96699605D01*
X131288088Y-97491517D01*
X131356077Y-97732460D01*
X131522621Y-97791732D01*
X131296485Y-97885169D01*
X130906539Y-98274436D01*
X130695241Y-98783298D01*
X130694760Y-99334285D01*
X125844761Y-99334285D01*
X125845240Y-98785715D01*
X125634831Y-98276485D01*
X125245564Y-97886539D01*
X125013130Y-97790024D01*
X125243515Y-97694831D01*
X125633461Y-97305564D01*
X125844759Y-96796702D01*
X125845179Y-96315171D01*
X130682799Y-96315171D01*
X130710770Y-96865448D01*
X130867540Y-97243923D01*
X131108483Y-97311912D01*
X131900395Y-96520000D01*
X132259605Y-96520000D01*
X133051517Y-97311912D01*
X133292460Y-97243923D01*
X133477201Y-96724829D01*
X133449230Y-96174552D01*
X133292460Y-95796077D01*
X133051517Y-95728088D01*
X132259605Y-96520000D01*
X131900395Y-96520000D01*
X131108483Y-95728088D01*
X130867540Y-95796077D01*
X130682799Y-96315171D01*
X125845179Y-96315171D01*
X125845240Y-96245715D01*
X125634831Y-95736485D01*
X125245564Y-95346539D01*
X125013130Y-95250024D01*
X125243515Y-95154831D01*
X125633461Y-94765564D01*
X125844759Y-94256702D01*
X125844761Y-94254285D01*
X130694760Y-94254285D01*
X130905169Y-94763515D01*
X131294436Y-95153461D01*
X131510979Y-95243377D01*
X131356077Y-95307540D01*
X131288088Y-95548483D01*
X132080000Y-96340395D01*
X132871912Y-95548483D01*
X132803923Y-95307540D01*
X132637379Y-95248268D01*
X132863515Y-95154831D01*
X133253461Y-94765564D01*
X133464759Y-94256702D01*
X133464761Y-94254285D01*
X136282760Y-94254285D01*
X136493169Y-94763515D01*
X136882436Y-95153461D01*
X137391298Y-95364759D01*
X137942285Y-95365240D01*
X138451515Y-95154831D01*
X138655183Y-94951517D01*
X145766088Y-94951517D01*
X145834077Y-95192460D01*
X146353171Y-95377201D01*
X146903448Y-95349230D01*
X147281923Y-95192460D01*
X147349912Y-94951517D01*
X146558000Y-94159605D01*
X145766088Y-94951517D01*
X138655183Y-94951517D01*
X138841461Y-94765564D01*
X139052759Y-94256702D01*
X139053179Y-93775171D01*
X145160799Y-93775171D01*
X145188770Y-94325448D01*
X145345540Y-94703923D01*
X145586483Y-94771912D01*
X146378395Y-93980000D01*
X146737605Y-93980000D01*
X147529517Y-94771912D01*
X147770460Y-94703923D01*
X147955201Y-94184829D01*
X147927230Y-93634552D01*
X147770460Y-93256077D01*
X147529517Y-93188088D01*
X146737605Y-93980000D01*
X146378395Y-93980000D01*
X145586483Y-93188088D01*
X145345540Y-93256077D01*
X145160799Y-93775171D01*
X139053179Y-93775171D01*
X139053240Y-93705715D01*
X138842831Y-93196485D01*
X138655157Y-93008483D01*
X145766088Y-93008483D01*
X146558000Y-93800395D01*
X147349912Y-93008483D01*
X147281923Y-92767540D01*
X146762829Y-92582799D01*
X146212552Y-92610770D01*
X145834077Y-92767540D01*
X145766088Y-93008483D01*
X138655157Y-93008483D01*
X138453564Y-92806539D01*
X137944702Y-92595241D01*
X137393715Y-92594760D01*
X136884485Y-92805169D01*
X136494539Y-93194436D01*
X136283241Y-93703298D01*
X136282760Y-94254285D01*
X133464761Y-94254285D01*
X133465240Y-93705715D01*
X133254831Y-93196485D01*
X132865564Y-92806539D01*
X132649021Y-92716623D01*
X132803923Y-92652460D01*
X132871912Y-92411517D01*
X132080000Y-91619605D01*
X131288088Y-92411517D01*
X131356077Y-92652460D01*
X131522621Y-92711732D01*
X131296485Y-92805169D01*
X130906539Y-93194436D01*
X130695241Y-93703298D01*
X130694760Y-94254285D01*
X125844761Y-94254285D01*
X125845240Y-93705715D01*
X125634831Y-93196485D01*
X125245564Y-92806539D01*
X125013130Y-92710024D01*
X125243515Y-92614831D01*
X125633461Y-92225564D01*
X125844759Y-91716702D01*
X125845179Y-91235171D01*
X130682799Y-91235171D01*
X130710770Y-91785448D01*
X130867540Y-92163923D01*
X131108483Y-92231912D01*
X131900395Y-91440000D01*
X132259605Y-91440000D01*
X133051517Y-92231912D01*
X133292460Y-92163923D01*
X133477201Y-91644829D01*
X133449230Y-91094552D01*
X133292460Y-90716077D01*
X133051517Y-90648088D01*
X132259605Y-91440000D01*
X131900395Y-91440000D01*
X131108483Y-90648088D01*
X130867540Y-90716077D01*
X130682799Y-91235171D01*
X125845179Y-91235171D01*
X125845240Y-91165715D01*
X125634831Y-90656485D01*
X125265909Y-90286920D01*
X125445317Y-90253162D01*
X125661441Y-90114090D01*
X125806431Y-89901890D01*
X125857440Y-89650000D01*
X125857440Y-88150000D01*
X125813162Y-87914683D01*
X125674090Y-87698559D01*
X125461890Y-87553569D01*
X125210000Y-87502560D01*
X123710000Y-87502560D01*
X123474683Y-87546838D01*
X123258559Y-87685910D01*
X123113569Y-87898110D01*
X123062560Y-88150000D01*
X121151580Y-88150000D01*
X120119580Y-87118000D01*
X129046420Y-87118000D01*
X130695116Y-88766695D01*
X130694760Y-89174285D01*
X130905169Y-89683515D01*
X131294436Y-90073461D01*
X131510979Y-90163377D01*
X131356077Y-90227540D01*
X131288088Y-90468483D01*
X132080000Y-91260395D01*
X132871912Y-90468483D01*
X132803923Y-90227540D01*
X132637379Y-90168268D01*
X132863515Y-90074831D01*
X133253461Y-89685564D01*
X133464759Y-89176702D01*
X133465240Y-88625715D01*
X133429528Y-88539285D01*
X136282760Y-88539285D01*
X136493169Y-89048515D01*
X136882436Y-89438461D01*
X137391298Y-89649759D01*
X137942285Y-89650240D01*
X138451515Y-89439831D01*
X138841461Y-89050564D01*
X139052759Y-88541702D01*
X139052761Y-88539285D01*
X145172760Y-88539285D01*
X145383169Y-89048515D01*
X145772436Y-89438461D01*
X146281298Y-89649759D01*
X146832285Y-89650240D01*
X147341515Y-89439831D01*
X147731461Y-89050564D01*
X147942759Y-88541702D01*
X147943240Y-87990715D01*
X147732831Y-87481485D01*
X147343564Y-87091539D01*
X146834702Y-86880241D01*
X146283715Y-86879760D01*
X145774485Y-87090169D01*
X145384539Y-87479436D01*
X145173241Y-87988298D01*
X145172760Y-88539285D01*
X139052761Y-88539285D01*
X139053240Y-87990715D01*
X138842831Y-87481485D01*
X138453564Y-87091539D01*
X137944702Y-86880241D01*
X137393715Y-86879760D01*
X136884485Y-87090169D01*
X136494539Y-87479436D01*
X136283241Y-87988298D01*
X136282760Y-88539285D01*
X133429528Y-88539285D01*
X133254831Y-88116485D01*
X132865564Y-87726539D01*
X132356702Y-87515241D01*
X131946462Y-87514883D01*
X130300846Y-85869266D01*
X130334206Y-81565750D01*
X132600000Y-81565750D01*
X132600000Y-82156309D01*
X132696673Y-82389698D01*
X132875301Y-82568327D01*
X133108690Y-82665000D01*
X133699250Y-82665000D01*
X133858000Y-82506250D01*
X133858000Y-81407000D01*
X132758750Y-81407000D01*
X132600000Y-81565750D01*
X130334206Y-81565750D01*
X130343214Y-80403691D01*
X132600000Y-80403691D01*
X132600000Y-80994250D01*
X132758750Y-81153000D01*
X133858000Y-81153000D01*
X133858000Y-80053750D01*
X134112000Y-80053750D01*
X134112000Y-81153000D01*
X134132000Y-81153000D01*
X134132000Y-81407000D01*
X134112000Y-81407000D01*
X134112000Y-82506250D01*
X134270750Y-82665000D01*
X134861310Y-82665000D01*
X135094699Y-82568327D01*
X135273327Y-82389698D01*
X135370000Y-82156309D01*
X135370000Y-82083381D01*
X135739436Y-82453461D01*
X136248298Y-82664759D01*
X136799285Y-82665240D01*
X137308515Y-82454831D01*
X137698461Y-82065564D01*
X137794976Y-81833130D01*
X137890169Y-82063515D01*
X138279436Y-82453461D01*
X138788298Y-82664759D01*
X139339285Y-82665240D01*
X139848515Y-82454831D01*
X140238461Y-82065564D01*
X140334976Y-81833130D01*
X140430169Y-82063515D01*
X140819436Y-82453461D01*
X141328298Y-82664759D01*
X141879285Y-82665240D01*
X142388515Y-82454831D01*
X142778461Y-82065564D01*
X142874976Y-81833130D01*
X142970169Y-82063515D01*
X143359436Y-82453461D01*
X143868298Y-82664759D01*
X144419285Y-82665240D01*
X144928515Y-82454831D01*
X145318461Y-82065564D01*
X145414976Y-81833130D01*
X145510169Y-82063515D01*
X145899436Y-82453461D01*
X146408298Y-82664759D01*
X146959285Y-82665240D01*
X147468515Y-82454831D01*
X147858461Y-82065564D01*
X147954976Y-81833130D01*
X148050169Y-82063515D01*
X148340000Y-82353852D01*
X148340000Y-82549995D01*
X148339999Y-82550000D01*
X148396190Y-82832484D01*
X148407367Y-82888675D01*
X148420479Y-82908298D01*
X148599210Y-83175790D01*
X152277000Y-86853579D01*
X152277000Y-88461477D01*
X151988539Y-88749436D01*
X151777241Y-89258298D01*
X151776760Y-89809285D01*
X151987169Y-90318515D01*
X152376436Y-90708461D01*
X152885298Y-90919759D01*
X153436285Y-90920240D01*
X153945515Y-90709831D01*
X154335461Y-90320564D01*
X154546759Y-89811702D01*
X154546761Y-89809285D01*
X160666760Y-89809285D01*
X160877169Y-90318515D01*
X161266436Y-90708461D01*
X161775298Y-90919759D01*
X162326285Y-90920240D01*
X162835515Y-90709831D01*
X163225461Y-90320564D01*
X163436759Y-89811702D01*
X163437240Y-89260715D01*
X163226831Y-88751485D01*
X162837564Y-88361539D01*
X162328702Y-88150241D01*
X161777715Y-88149760D01*
X161268485Y-88360169D01*
X160878539Y-88749436D01*
X160667241Y-89258298D01*
X160666760Y-89809285D01*
X154546761Y-89809285D01*
X154547240Y-89260715D01*
X154336831Y-88751485D01*
X154047000Y-88461148D01*
X154047000Y-86487005D01*
X154047001Y-86487000D01*
X153979633Y-86148326D01*
X153979633Y-86148325D01*
X153787790Y-85861210D01*
X153787787Y-85861208D01*
X150195125Y-82268546D01*
X150398461Y-82065564D01*
X150494976Y-81833130D01*
X150590169Y-82063515D01*
X150979436Y-82453461D01*
X151488298Y-82664759D01*
X152039285Y-82665240D01*
X152548515Y-82454831D01*
X152938461Y-82065564D01*
X153034976Y-81833130D01*
X153130169Y-82063515D01*
X153519436Y-82453461D01*
X154028298Y-82664759D01*
X154579285Y-82665240D01*
X155088515Y-82454831D01*
X155478461Y-82065564D01*
X155574976Y-81833130D01*
X155670169Y-82063515D01*
X156059436Y-82453461D01*
X156568298Y-82664759D01*
X157119285Y-82665240D01*
X157628515Y-82454831D01*
X158018461Y-82065564D01*
X158114976Y-81833130D01*
X158210169Y-82063515D01*
X158599436Y-82453461D01*
X159108298Y-82664759D01*
X159659285Y-82665240D01*
X160168515Y-82454831D01*
X160558461Y-82065564D01*
X160654976Y-81833130D01*
X160750169Y-82063515D01*
X161139436Y-82453461D01*
X161648298Y-82664759D01*
X162199285Y-82665240D01*
X162708515Y-82454831D01*
X163098461Y-82065564D01*
X163194976Y-81833130D01*
X163290169Y-82063515D01*
X163679436Y-82453461D01*
X164188298Y-82664759D01*
X164739285Y-82665240D01*
X165248515Y-82454831D01*
X165638461Y-82065564D01*
X165734976Y-81833130D01*
X165830169Y-82063515D01*
X166219436Y-82453461D01*
X166728298Y-82664759D01*
X167279285Y-82665240D01*
X167788515Y-82454831D01*
X168178461Y-82065564D01*
X168389759Y-81556702D01*
X168390240Y-81005715D01*
X168179831Y-80496485D01*
X167790564Y-80106539D01*
X167281702Y-79895241D01*
X166730715Y-79894760D01*
X166221485Y-80105169D01*
X165831539Y-80494436D01*
X165735024Y-80726870D01*
X165639831Y-80496485D01*
X165250564Y-80106539D01*
X164741702Y-79895241D01*
X164190715Y-79894760D01*
X163681485Y-80105169D01*
X163291539Y-80494436D01*
X163195024Y-80726870D01*
X163099831Y-80496485D01*
X162710564Y-80106539D01*
X162201702Y-79895241D01*
X161650715Y-79894760D01*
X161141485Y-80105169D01*
X160751539Y-80494436D01*
X160655024Y-80726870D01*
X160559831Y-80496485D01*
X160170564Y-80106539D01*
X159661702Y-79895241D01*
X159110715Y-79894760D01*
X158601485Y-80105169D01*
X158211539Y-80494436D01*
X158115024Y-80726870D01*
X158019831Y-80496485D01*
X157630564Y-80106539D01*
X157121702Y-79895241D01*
X156570715Y-79894760D01*
X156061485Y-80105169D01*
X155671539Y-80494436D01*
X155575024Y-80726870D01*
X155479831Y-80496485D01*
X155090564Y-80106539D01*
X154581702Y-79895241D01*
X154030715Y-79894760D01*
X153521485Y-80105169D01*
X153131539Y-80494436D01*
X153035024Y-80726870D01*
X152939831Y-80496485D01*
X152550564Y-80106539D01*
X152041702Y-79895241D01*
X151490715Y-79894760D01*
X150981485Y-80105169D01*
X150591539Y-80494436D01*
X150495024Y-80726870D01*
X150399831Y-80496485D01*
X150010564Y-80106539D01*
X149501702Y-79895241D01*
X148950715Y-79894760D01*
X148441485Y-80105169D01*
X148051539Y-80494436D01*
X147955024Y-80726870D01*
X147859831Y-80496485D01*
X147470564Y-80106539D01*
X146961702Y-79895241D01*
X146410715Y-79894760D01*
X145901485Y-80105169D01*
X145511539Y-80494436D01*
X145415024Y-80726870D01*
X145319831Y-80496485D01*
X144930564Y-80106539D01*
X144421702Y-79895241D01*
X143870715Y-79894760D01*
X143361485Y-80105169D01*
X142971539Y-80494436D01*
X142875024Y-80726870D01*
X142779831Y-80496485D01*
X142390564Y-80106539D01*
X141881702Y-79895241D01*
X141330715Y-79894760D01*
X140821485Y-80105169D01*
X140431539Y-80494436D01*
X140335024Y-80726870D01*
X140239831Y-80496485D01*
X139850564Y-80106539D01*
X139341702Y-79895241D01*
X138790715Y-79894760D01*
X138281485Y-80105169D01*
X137891539Y-80494436D01*
X137795024Y-80726870D01*
X137699831Y-80496485D01*
X137310564Y-80106539D01*
X136801702Y-79895241D01*
X136250715Y-79894760D01*
X135741485Y-80105169D01*
X135370000Y-80476007D01*
X135370000Y-80403691D01*
X135273327Y-80170302D01*
X135094699Y-79991673D01*
X134861310Y-79895000D01*
X134270750Y-79895000D01*
X134112000Y-80053750D01*
X133858000Y-80053750D01*
X133699250Y-79895000D01*
X133108690Y-79895000D01*
X132875301Y-79991673D01*
X132696673Y-80170302D01*
X132600000Y-80403691D01*
X130343214Y-80403691D01*
X130421850Y-70259742D01*
X133276880Y-67812574D01*
X133359210Y-67935790D01*
M02*
