M48
;DRILL file {KiCad 4.0.7} date Thursday, 04 January 2018 'PMt' 04:22:19 PM
;FORMAT={3:3/ absolute / metric / suppress trailing zeros}
FMAT,2
METRIC,LZ
T1C0.300
T2C0.750
T3C3.200
%
G90
G05
M71
T1
X11176Y-07366
X139065Y-111125
X14351Y-111125
X15875Y-08509
X161925Y-07366
X17272Y-11176
X18034Y-11176
T2
X100076Y-09271
X100076Y-09525
X100076Y-09779
X100076Y-10033
X100076Y-10287
X10668Y-086233
X10668Y-095123
X10668Y-097663
X10668Y-106553
X10668Y-10922
X10668Y-1143
X11176Y-086233
X11176Y-095123
X11176Y-097663
X11176Y-106553
X11176Y-10922
X11176Y-1143
X11684Y-086233
X11684Y-095123
X11684Y-097663
X11684Y-106553
X11684Y-10922
X11684Y-1143
X12446Y-0889
X12446Y-09144
X12446Y-09398
X12446Y-09652
X12446Y-09906
X12446Y-1016
X12446Y-10414
X12827Y-113665
X13081Y-113665
X13208Y-0889
X13208Y-09144
X13208Y-09398
X13208Y-09652
X13208Y-09906
X13208Y-1016
X13208Y-10414
X132715Y-062865
X13335Y-113665
X133985Y-06604
X133985Y-08128
X13589Y-113665
X136525Y-06604
X136525Y-08128
X137668Y-088265
X137668Y-09398
X137795Y-062865
X13843Y-113665
X139065Y-06604
X139065Y-08128
X14097Y-100965
X14097Y-113665
X141605Y-06604
X141605Y-08128
X14351Y-100965
X14351Y-113665
X144145Y-06604
X144145Y-08128
X14605Y-113665
X146558Y-088265
X146558Y-09398
X146685Y-06604
X146685Y-08128
X14859Y-113665
X149225Y-06604
X149225Y-08128
X15113Y-113665
X151765Y-06604
X151765Y-08128
X153162Y-089535
X153162Y-10287
X15367Y-113665
X154305Y-06604
X154305Y-08128
X15494Y-09652
X15621Y-113665
X156845Y-06604
X156845Y-08128
X15748Y-09652
X15875Y-113665
X159385Y-06604
X159385Y-08128
X16002Y-09652
X16129Y-113665
X161925Y-06604
X161925Y-08128
X162052Y-089535
X162052Y-10287
X16383Y-113665
X164465Y-06604
X164465Y-08128
X16637Y-113665
X167005Y-06604
X167005Y-08128
X17145Y-062865
X17272Y-078105
X17272Y-080645
X17272Y-083185
X17272Y-085725
X17272Y-088265
X17272Y-090805
X17272Y-093345
X17272Y-095885
X17399Y-062865
X17653Y-062865
T3
X100965Y-065405
X100965Y-11303
X1778Y-069215
X1778Y-10668
T0
M30
